<?xml version="1.0" encoding="UTF-8"?>
<svg width="160px" height="160px" viewBox="0 0 160 160" version="1.1" xmlns="http://www.w3.org/2000/svg" xmlns:xlink="http://www.w3.org/1999/xlink">
    <title>Brand/Illustrations/Compiler</title>
    <g id="Brand/Illustrations/Compiler" stroke="none" stroke-width="1" fill="none" fill-rule="evenodd">
        <rect id="background" fill-opacity="0" fill="#FFFFFF" fill-rule="nonzero" x="0" y="0" width="160" height="160"></rect>
        <g id="Icon" transform="translate(16.0234, 38.7188)">
            <polygon id="Fill-1" fill="#4C34BB" points="60.2139049 78.2168441 120.426269 43.4541982 120.426269 34.7634164 60.2139049 69.5260623"></polygon>
            <polygon id="Fill-2" fill="#24156D" points="60.2138568 78.2170367 67.7402819 82.5624277 127.953127 47.7997818 120.426221 43.4539093"></polygon>
            <polygon id="Fill-3" fill="#7ACEF0" points="0 43.4540538 60.2138086 78.2171812 60.2138086 69.5259178 0 34.7627904"></polygon>
            <polygon id="Fill-4" fill="#FFFFFF" points="60.2138568 -1.3686108e-14 4.81537115e-05 34.7631274 60.2138568 69.5257733 120.427184 34.7631274"></polygon>
            <path d="M22.5802384,21.7932623 L68.99,48.5862623 L77.9074565,47.865319 L76.71,53.0432623 L82.7935655,56.5559082 L60.2138086,69.5261104 L1.42108547e-14,34.762983 L22.5802384,21.7932623 Z" id="Combined-Shape" fill="#4C34BB"></path>
            <path d="M50.7736105,51.1322594 L52.9997566,52.4174819 L46.00543,56.5842226 L43.7975823,55.3100754 L50.7736105,51.1322594 Z M54.1170672,44.6522144 L56.3432133,45.9379185 L41.9101013,54.2203569 L39.7017721,52.9462097 L54.1170672,44.6522144 Z M50.0202457,42.2863744 L52.2459103,43.5720785 L37.8127983,51.8545169 L35.6049506,50.5803697 L50.0202457,42.2863744 Z M45.9224612,39.9191379 L48.1486073,41.204842 L33.7154953,49.4872804 L31.5071661,48.2131332 L45.9224612,39.9191379 Z M41.8252063,37.552383 L44.0513524,38.8380871 L29.6177589,47.120044 L27.4099112,45.8458968 L41.8252063,37.552383 Z M37.6883691,35.213798 L39.9145152,36.4990206 L25.4809217,44.781459 L23.273074,43.5073118 L37.6883691,35.213798 Z M19.8137595,35.0037515 L20.9179241,35.6287867 L17.9030203,40.1783494 L16.0327301,39.1194493 L17.7470022,36.8470756 L17.6675486,36.8022927 L13.7627641,37.8342267 L11.8361341,36.7435451 L19.8137595,35.0037515 Z M33.6315152,32.8249405 L35.8576613,34.1106446 L27.3330097,39.0011356 L25.1251621,37.7269884 L33.6315152,32.8249405 Z M9.57372831,33.1455961 C10.322037,33.1455961 10.9287738,33.4951921 10.9287738,33.9256862 C10.9287738,34.3571435 10.322037,34.7057764 9.57372831,34.7057764 C8.82541964,34.7057764 8.21868287,34.3571435 8.21868287,33.9256862 C8.21868287,33.4951921 8.82541964,33.1455961 9.57372831,33.1455961 Z M13.8324426,30.6290831 C14.5807512,30.6290831 15.187488,30.9781976 15.187488,31.4091733 C15.187488,31.840149 14.5807512,32.1897449 13.8324426,32.1897449 C13.0841339,32.1897449 12.4773971,31.840149 12.4773971,31.4091733 C12.4773971,30.9781976 13.0841339,30.6290831 13.8324426,30.6290831 Z M18.1913165,28.1120886 C18.9401067,28.1120886 19.5458804,28.4616846 19.5458804,28.8926603 C19.5458804,29.323636 18.9401067,29.6727504 18.1913165,29.6727504 C17.4430079,29.6727504 16.8367526,29.323636 16.8367526,28.8926603 C16.8367526,28.4616846 17.4430079,28.1120886 18.1913165,28.1120886 Z" id="Combined-Shape" fill="#FFFFFF"></path>
            <path d="M100.514854,32.0236146 L102.741,33.3088372 L80.1154968,46.319007 L77.9076491,45.0443782 L100.514854,32.0236146 Z M96.4185137,29.6592192 L98.6441783,30.9444418 L76.0191569,43.9546116 L73.8108277,42.6799828 L96.4185137,29.6592192 Z M84.881366,31.4092696 L87.107512,32.6944921 L71.9207945,41.5884827 L69.7129468,40.3143355 L84.881366,31.4092696 Z M88.2248708,24.9294172 L90.4510168,26.2146398 L67.8255139,39.2248096 L65.6176663,37.9501808 L88.2248708,24.9294172 Z M84.1275678,22.5635772 L86.3537138,23.8487998 L63.7286925,36.8589696 L61.5203633,35.5843408 L84.1275678,22.5635772 Z M80.0302647,20.1963408 L82.2564108,21.4815633 L59.6309079,34.4917331 L57.4230602,33.2171044 L80.0302647,20.1963408 Z M75.9329617,17.8295859 L78.1591078,19.1148084 L55.5336049,32.1249782 L53.3257572,30.8503495 L75.9329617,17.8295859 Z M71.7961727,15.4907601 L74.0218372,16.7759826 L51.3968159,29.7861524 L49.1884867,28.5115237 L71.7961727,15.4907601 Z M67.7393188,13.1021434 L69.9654649,14.3873659 L47.339962,27.3975357 L45.1321143,26.122907 L67.7393188,13.1021434 Z" id="Combined-Shape" fill="#24156D"></path>
        </g>
    </g>
</svg>