<?xml version="1.0" encoding="UTF-8"?>
<svg width="160px" height="160px" viewBox="0 0 160 160" version="1.1" xmlns="http://www.w3.org/2000/svg" xmlns:xlink="http://www.w3.org/1999/xlink">
    <title>Brand/Illustrations/DollarSign</title>
    <g id="Brand/Illustrations/DollarSign" stroke="none" stroke-width="1" fill="none" fill-rule="evenodd">
        <rect id="background" fill-opacity="0" fill="#FFFFFF" fill-rule="nonzero" x="0" y="0" width="160" height="160"></rect>
        <g id="Group-22" transform="translate(26, 37.9998)">
            <path d="M46.2568,77.8921 C55.1058,83.2631 77.9658,81.9231 87.4478,78.4061 L95.7258,84.0101 L108.1138,76.8571 C108.1138,76.8571 99.9208,71.3101 99.9148,71.3061 C100.5358,71.7261 103.9608,66.4681 104.2648,65.9071 C105.3718,63.8611 106.1318,61.5971 106.3378,59.2741 C106.5598,56.7621 106.1078,54.0531 104.6418,51.9531 C103.2288,49.9301 101.0258,48.6081 98.9428,47.3761 C89.6478,41.8791 92.6618,43.7061 83.3568,38.2281 C80.7438,36.6911 78.1328,35.1531 75.5208,33.6161 L30.5828,68.9851 L46.2568,77.8921 Z" id="Fill-1" fill="#24156D"></path>
            <polygon id="Fill-3" fill="#7ACEF0" points="8.25 12.728 8.234 34.801 0 29.226 0.016 7.153"></polygon>
            <polygon id="Fill-5" fill="#4C34BB" points="48.5361 7.8437 48.5201 29.9167 39.3961 35.1837 39.4121 13.1117"></polygon>
            <path d="M24.1406,34.1982 C24.3156,34.1252 24.4906,34.0552 24.6636,33.9882 C24.9996,33.8582 25.3316,33.7402 25.6616,33.6312 C25.8186,33.5782 25.9756,33.5232 26.1306,33.4752 C26.5546,33.3472 26.9726,33.2342 27.3856,33.1392 C27.4376,33.1272 27.4896,33.1112 27.5396,33.0992 C28.0226,32.9922 28.4966,32.9132 28.9666,32.8502 C29.1476,32.8262 29.3256,32.8102 29.5036,32.7922 C29.7156,32.7712 29.9276,32.7492 30.1376,32.7372 C30.3476,32.7242 30.5546,32.7192 30.7616,32.7152 C30.9196,32.7122 31.0786,32.7072 31.2356,32.7092 C31.4576,32.7122 31.6776,32.7242 31.8976,32.7372 C32.0356,32.7442 32.1746,32.7482 32.3116,32.7602 C32.5166,32.7772 32.7166,32.8052 32.9186,32.8312 C33.0776,32.8512 33.2376,32.8662 33.3946,32.8922 C33.5256,32.9132 33.6526,32.9432 33.7826,32.9672 C34.0336,33.0142 34.2846,33.0622 34.5306,33.1222 C34.6316,33.1462 34.7326,33.1772 34.8326,33.2042 C35.2356,33.3102 35.6326,33.4322 36.0246,33.5702 C36.1176,33.6022 36.2116,33.6322 36.3036,33.6672 C36.7826,33.8452 37.2516,34.0482 37.7136,34.2702 C37.8106,34.3172 37.9066,34.3662 38.0026,34.4152 C38.4746,34.6522 38.9406,34.9042 39.3966,35.1842 L39.4116,13.1112 C38.9556,12.8312 38.4906,12.5792 38.0186,12.3422 C37.9226,12.2942 37.8266,12.2442 37.7296,12.1982 C37.2676,11.9752 36.7976,11.7722 36.3206,11.5942 C36.2886,11.5822 36.2586,11.5662 36.2276,11.5542 C36.1656,11.5322 36.1016,11.5192 36.0396,11.4972 C35.6486,11.3592 35.2516,11.2372 34.8486,11.1312 C34.7846,11.1142 34.7226,11.0882 34.6586,11.0722 C34.6206,11.0632 34.5826,11.0582 34.5456,11.0492 C34.3006,10.9902 34.0516,10.9422 33.8016,10.8952 C33.6926,10.8742 33.5846,10.8452 33.4746,10.8272 C33.4536,10.8232 33.4306,10.8222 33.4096,10.8192 C33.2536,10.7942 33.0946,10.7792 32.9376,10.7592 C32.7636,10.7372 32.5916,10.7082 32.4156,10.6922 C32.3866,10.6892 32.3566,10.6902 32.3286,10.6872 C32.1906,10.6762 32.0516,10.6722 31.9126,10.6642 C31.7396,10.6542 31.5676,10.6382 31.3916,10.6349929 C31.3446,10.6342 31.2966,10.6372 31.2506,10.6362 C31.0936,10.6342 30.9346,10.6392 30.7766,10.6432 C30.6266,10.6452 30.4786,10.6412 30.3276,10.6492 C30.2706,10.6522 30.2116,10.6602 30.1546,10.6642 C29.9446,10.6772 29.7316,10.6982 29.5176,10.7192 C29.3826,10.7332 29.2506,10.7382 29.1156,10.7552 C29.0726,10.7602 29.0266,10.7722 28.9826,10.7782 C28.5126,10.8412 28.0386,10.9202 27.5556,11.0272 C27.5496,11.0282 27.5436,11.0292 27.5366,11.0302 C27.4936,11.0402 27.4476,11.0562 27.4036,11.0662 C26.9896,11.1612 26.5706,11.2742 26.1466,11.4032 C25.9926,11.4502 25.8346,11.5052 25.6796,11.5572 C25.3486,11.6662 25.0156,11.7852 24.6786,11.9152 C24.5886,11.9502 24.5026,11.9742 24.4126,12.0112 C24.3286,12.0442 24.2416,12.0902 24.1576,12.1252 C23.8106,12.2692 23.4596,12.4272 23.1076,12.5942 C22.9496,12.6692 22.7916,12.7392 22.6326,12.8182 C22.1216,13.0722 21.6076,13.3442 21.0826,13.6462 C20.6016,13.9242 20.1576,14.2042 19.7306,14.4852 C19.6296,14.5512 19.5296,14.6172 19.4316,14.6832 C19.3406,14.7442 19.2436,14.8052 19.1556,14.8672 C18.8456,15.0832 18.5536,15.3002 18.2766,15.5172 C18.2386,15.5472 18.2056,15.5762 18.1676,15.6062 C17.8446,15.8632 17.5476,16.1192 17.2686,16.3762 C17.1986,16.4412 17.1266,16.5052 17.0596,16.5702 C16.7906,16.8272 16.5376,17.0832 16.3146,17.3382 C16.2976,17.3582 16.2846,17.3772 16.2676,17.3972 C16.2266,17.4442 16.1936,17.4902 16.1546,17.5372 C15.9546,17.7772 15.7776,18.0152 15.6176,18.2532 C15.5726,18.3202 15.5266,18.3852 15.4846,18.4512 C15.4546,18.4982 15.4176,18.5462 15.3906,18.5922 C15.3206,18.7092 15.2796,18.8242 15.2186,18.9402 C15.1376,19.0962 15.0526,19.2522 14.9886,19.4062 C14.9736,19.4432 14.9486,19.4812 14.9336,19.5172 C14.8716,19.6772 14.8376,19.8332 14.7946,19.9902 C14.7716,20.0742 14.7376,20.1602 14.7196,20.2442 C14.7156,20.2612 14.7076,20.2792 14.7036,20.2962 C14.6576,20.5292 14.6306,20.7602 14.6246,20.9872 C14.6236,21.0182 14.6236,21.0492 14.6236,21.0792 L14.6086,43.1522 C14.6086,42.8782 14.6436,42.5992 14.7036,42.3172 C14.7216,42.2332 14.7556,42.1472 14.7796,42.0622 C14.8316,41.8692 14.8916,41.6762 14.9726,41.4792 C15.0366,41.3252 15.1216,41.1692 15.2026,41.0122 C15.2866,40.8502 15.3656,40.6882 15.4686,40.5252 C15.5096,40.4592 15.5566,40.3922 15.6006,40.3262 C15.7606,40.0882 15.9396,39.8492 16.1386,39.6102 C16.1776,39.5632 16.2106,39.5162 16.2506,39.4702 C16.4886,39.1952 16.7546,38.9192 17.0426,38.6432 C17.1116,38.5782 17.1826,38.5132 17.2526,38.4482 C17.5326,38.1922 17.8286,37.9352 18.1526,37.6782 C18.1896,37.6492 18.2226,37.6192 18.2606,37.5902 C18.6176,37.3112 19.0076,37.0322 19.4166,36.7552 C19.5136,36.6892 19.6136,36.6242 19.7126,36.5582 C20.1406,36.2782 20.5846,35.9972 21.0676,35.7192 C21.5906,35.4162 22.1056,35.1452 22.6156,34.8912 C22.7766,34.8112 22.9346,34.7412 23.0936,34.6652 C23.4456,34.4992 23.7946,34.3422 24.1406,34.1982" id="Fill-7" fill="#4C34BB"></path>
            <path d="M64.3135,28.9302 C63.9835,28.7072 63.6305,28.5002 63.2655,28.3042 C63.1955,28.2652 63.1265,28.2272 63.0555,28.1912 C62.6915,28.0052 62.3075,27.8342 61.9005,27.6802 C61.8675,27.6682 61.8395,27.6522 61.8065,27.6392 C61.7465,27.6182 61.6765,27.6022 61.6155,27.5812 C61.3535,27.4902 61.0825,27.4072 60.7995,27.3312 C60.7285,27.3112 60.6665,27.2852 60.5925,27.2672 C60.5445,27.2552 60.4905,27.2482 60.4415,27.2362 C60.2515,27.1912 60.0535,27.1532 59.8555,27.1162 C59.7425,27.0942 59.6385,27.0662 59.5225,27.0472 C59.4785,27.0402 59.4285,27.0362 59.3845,27.0302 C59.2105,27.0032 59.0285,26.9832 58.8475,26.9622 C58.7095,26.9452 58.5805,26.9232 58.4375,26.9102 C58.3885,26.9062 58.3345,26.9062 58.2865,26.9022 C58.0855,26.8852 57.8745,26.8772 57.6655,26.8672 C57.5175,26.8612 57.3795,26.8472 57.2275,26.8442 C57.1815,26.8432 57.1295,26.8462 57.0845,26.8462 C56.7785,26.8412 56.4575,26.8492 56.1325,26.8602 C56.0045,26.8642 55.8885,26.8592 55.7585,26.8652 C55.7375,26.8662 55.7125,26.8702 55.6925,26.8712 C55.1245,26.9002 54.5215,26.9552 53.8925,27.0312 C53.8345,27.0372 53.7855,27.0382 53.7265,27.0452 C53.5615,27.0662 53.3795,27.0992 53.2095,27.1232 C52.9185,27.1652 52.6265,27.2072 52.3215,27.2582 C52.0635,27.3022 51.7945,27.3532 51.5275,27.4042 C51.2135,27.4642 50.8965,27.5262 50.5695,27.5962 C50.4595,27.6202 50.3585,27.6362 50.2475,27.6602 C50.0375,27.7072 49.8105,27.7672 49.5945,27.8182 C49.3455,27.8772 49.0985,27.9342 48.8425,27.9992 C48.4745,28.0922 48.0905,28.1972 47.7075,28.3022 C47.4545,28.3712 47.2075,28.4362 46.9475,28.5112 C46.5115,28.6372 46.0555,28.7772 45.5995,28.9192 C45.3685,28.9912 45.1475,29.0552 44.9115,29.1302 C44.2095,29.3552 43.4855,29.5972 42.7335,29.8602 C41.8345,30.1742 40.9435,30.4732 40.0595,30.7592 C39.7705,30.8522 39.4875,30.9352 39.2005,31.0252 C38.6085,31.2112 38.0165,31.3972 37.4335,31.5692 C37.0915,31.6702 36.7565,31.7582 36.4175,31.8532 C35.8955,32.0012 35.3725,32.1502 34.8555,32.2852 C34.4955,32.3802 34.1415,32.4612 33.7845,32.5492 C33.2985,32.6692 32.8115,32.7912 32.3315,32.9002 C32.0205,32.9702 31.7155,33.0282 31.4075,33.0932 C30.8435,33.2122 30.2825,33.3272 29.7265,33.4292 C29.3895,33.4912 29.0565,33.5432 28.7215,33.5982 C28.2075,33.6822 27.6945,33.7622 27.1875,33.8302 C26.7305,33.8922 26.2745,33.9502 25.8235,33.9972 C25.6385,34.0172 25.4515,34.0402 25.2675,34.0572 C24.5925,34.1202 23.9245,34.1702 23.2665,34.2012 C22.4555,34.2392 21.6575,34.2502 20.8725,34.2362 C20.5665,34.2302 20.2685,34.2072 19.9675,34.1942 C19.5475,34.1752 19.1255,34.1602 18.7135,34.1252 C18.3585,34.0952 18.0115,34.0452 17.6625,34.0032 C17.3325,33.9622 16.9985,33.9302 16.6715,33.8782 C16.3705,33.8302 16.0775,33.7632 15.7795,33.7052 C15.3995,33.6312 15.0185,33.5622 14.6465,33.4722 C14.4335,33.4202 14.2285,33.3532 14.0185,33.2962 C13.4905,33.1532 12.9675,32.9952 12.4565,32.8172 C12.0265,32.6662 11.5985,32.5132 11.1815,32.3362 C11.1245,32.3122 11.0645,32.2912 11.0075,32.2672 C10.4785,32.0382 9.9605,31.7832 9.4525,31.5112 C9.3305,31.4462 9.2095,31.3802 9.0895,31.3122 C8.5785,31.0262 8.0735,30.7262 7.5835,30.3942 C4.2025,28.1052 2.7165,25.3972 2.7195,22.5852 L2.70349798,44.6582 C2.7015,47.4702 4.1865,50.1782 7.5675,52.4672 C8.0575,52.7992 8.5625,53.0992 9.0745,53.3852 C9.1945,53.4522 9.3145,53.5192 9.4365,53.5842 C9.9455,53.8552 10.4625,54.1112 10.9925,54.3402 C11.0485,54.3642 11.1075,54.3852 11.1655,54.4092 C11.4785,54.5412 11.7925,54.6712 12.1125,54.7892 C12.2185,54.8282 12.3335,54.8522 12.4405,54.8892 C12.9525,55.0692 13.4745,55.2252 14.0015,55.3682 C14.1575,55.4112 14.3045,55.4712 14.4615,55.5102 C14.5165,55.5232 14.5755,55.5312 14.6305,55.5442 C15.0025,55.6352 15.3835,55.7042 15.7635,55.7782 C16.0145,55.8262 16.2585,55.8902 16.5135,55.9322 C16.5605,55.9402 16.6095,55.9432 16.6565,55.9512 C16.9815,56.0022 17.3155,56.0352 17.6465,56.0762 C17.9465,56.1122 18.2405,56.1612 18.5445,56.1892 C18.5955,56.1942 18.6475,56.1932 18.6985,56.1982 C19.1105,56.2332 19.5325,56.2472 19.9515,56.2662 C20.2175,56.2792 20.4775,56.3052 20.7465,56.3102 C20.7825,56.3112 20.8205,56.3082 20.8555,56.3082 C21.6415,56.3232 22.4395,56.3122 23.2505,56.2742 C23.2725,56.2732 23.2925,56.2742 23.3155,56.2732 C23.9525,56.2422 24.5995,56.1912 25.2515,56.1302 C25.4355,56.1132 25.6225,56.0902 25.8075,56.0702 C26.1035,56.0392 26.3975,56.0132 26.6965,55.9752 C26.8525,55.9552 27.0145,55.9242 27.1715,55.9032 C27.6795,55.8352 28.1925,55.7552 28.7085,55.6702 C29.0415,55.6162 29.3735,55.5632 29.7095,55.5022 C30.2675,55.4002 30.8325,55.2842 31.3995,55.1642 C31.6345,55.1152 31.8645,55.0762 32.1005,55.0242 C32.1705,55.0092 32.2435,54.9892 32.3125,54.9732 C32.7955,54.8642 33.2865,54.7412 33.7755,54.6202 C34.1295,54.5332 34.4815,54.4512 34.8395,54.3582 C35.3595,54.2222 35.8865,54.0712 36.4135,53.9232 C36.7475,53.8292 37.0785,53.7422 37.4155,53.6422 C38.0115,53.4672 38.6175,53.2762 39.2215,53.0862 C39.4965,53.0002 39.7655,52.9212 40.0415,52.8322 C40.9255,52.5462 41.8175,52.2462 42.7165,51.9322 C43.4695,51.6692 44.1935,51.4282 44.8955,51.2032 C45.1315,51.1272 45.3525,51.0632 45.5835,50.9922 C46.0405,50.8502 46.4955,50.7092 46.9315,50.5842 C47.1915,50.5092 47.4385,50.4442 47.6915,50.3752 C48.0755,50.2692 48.4595,50.1652 48.8265,50.0722 C49.0835,50.0072 49.3305,49.9502 49.5795,49.8902 C49.9095,49.8122 50.2365,49.7372 50.5525,49.6692 C50.8805,49.5982 51.1975,49.5372 51.5115,49.4772 C51.7795,49.4262 52.0475,49.3742 52.3055,49.3312 C52.6105,49.2802 52.9035,49.2382 53.1945,49.1962 C53.4235,49.1632 53.6555,49.1302 53.8765,49.1032 C54.5055,49.0282 55.1085,48.9722 55.6765,48.9442 C55.8285,48.9362 55.9685,48.9372 56.1165,48.9322 C56.4415,48.9222 56.7625,48.9142 57.0685,48.9182 C57.2675,48.9212 57.4575,48.9312 57.6495,48.9402 C57.8585,48.9502 58.0705,48.9582 58.2705,48.9742 C58.4635,48.9902 58.6475,49.0132 58.8325,49.0342 C59.0125,49.0552 59.1955,49.0762 59.3685,49.1022 C59.5305,49.1272 59.6835,49.1592 59.8385,49.1882 C60.0385,49.2262 60.2365,49.2642 60.4255,49.3092 C60.5475,49.3382 60.6655,49.3712 60.7845,49.4042 C61.0655,49.4792 61.3375,49.5632 61.5995,49.6542 C61.6945,49.6872 61.7925,49.7192 61.8835,49.7532 C62.2925,49.9072 62.6755,50.0772 63.0395,50.2632 C63.1105,50.3002 63.1795,50.3382 63.2495,50.3762 C63.6155,50.5732 63.9675,50.7802 64.2965,51.0022 C65.4875,51.8082 66.5845,53.0712 66.5835,54.7002 L66.5985007,32.6272 C66.5995,30.9982 65.5025,29.7362 64.3135,28.9302" id="Fill-9" fill="#7ACEF0"></path>
            <path d="M64.3135,28.9302 C63.9835,28.7072 63.6305,28.5002 63.2655,28.3042 C63.1955,28.2652 63.1265,28.2272 63.0555,28.1912 C62.6915,28.0052 62.3075,27.8342 61.9005,27.6802 C61.8675,27.6682 61.8395,27.6522 61.8065,27.6392 C61.7465,27.6182 61.6765,27.6022 61.6155,27.5812 C61.3535,27.4902 61.0825,27.4072 60.7995,27.3312 C60.7285,27.3112 60.6665,27.2852 60.5925,27.2672 C60.5445,27.2552 60.4905,27.2482 60.4415,27.2362 C60.2515,27.1912 60.0535,27.1532 59.8555,27.1162 C59.7425,27.0942 59.6385,27.0662 59.5225,27.0472 C59.4785,27.0402 59.4285,27.0362 59.3845,27.0302 C59.2105,27.0032 59.0285,26.9832 58.8475,26.9622 C58.7095,26.9452 58.5805,26.9232 58.4375,26.9102 C58.3885,26.9062 58.3345,26.9062 58.2865,26.9022 C58.0855,26.8852 57.8745,26.8772 57.6655,26.8672 C57.5175,26.8612 57.3795,26.8472 57.2275,26.8439959 C57.1815,26.8432 57.1295,26.8462 57.0845,26.8462 C56.7785,26.8412 56.4575,26.8492 56.1325,26.8602 C56.0045,26.8642 55.8885,26.8592 55.7585,26.8652 C55.7375,26.8662 55.7125,26.8702 55.6925,26.8712 C55.1245,26.9002 54.5215,26.9552 53.8925,27.0312 C53.8345,27.0372 53.7855,27.0382 53.7265,27.0452 C53.5615,27.0662 53.3795,27.0992 53.2095,27.1232 C52.9185,27.1652 52.6265,27.2072 52.3215,27.2582 C52.0635,27.3022 51.7945,27.3532 51.5275,27.4042 C51.2135,27.4642 50.8965,27.5262 50.5695,27.5962 C50.4595,27.6202 50.3585,27.6362 50.2475,27.6602 C50.0375,27.7072 49.8105,27.7672 49.5945,27.8182 C49.3455,27.8772 49.0985,27.9342 48.8425,27.9992 C48.4745,28.0922 48.0905,28.1972 47.7075,28.3022 C47.4545,28.3712 47.2075,28.4362 46.9475,28.5112 C46.5115,28.6372 46.0555,28.7772 45.5995,28.9192 C45.3685,28.9912 45.1475,29.0552 44.9115,29.1302 C44.2095,29.3552 43.4855,29.5972 42.7335,29.8602 C41.8345,30.1742 40.9435,30.4732 40.0595,30.7592 C39.7705,30.8522 39.4875,30.9352 39.2005,31.0252 C38.6085,31.2112 38.0165,31.3972 37.4335,31.5692 C37.0915,31.6702 36.7565,31.7582 36.4175,31.8532 C35.8955,32.0012 35.3725,32.1502 34.8555,32.2852 C34.4955,32.3802 34.1415,32.4612 33.7845,32.5492 C33.2985,32.6692 32.8115,32.7912 32.3315,32.9002 C32.0205,32.9702 31.7155,33.0282 31.4075,33.0932 C30.8435,33.2122 30.2825,33.3272 29.7265,33.4292 C29.3895,33.4912 29.0565,33.5432 28.7215,33.5982 C28.2075,33.6822 27.6945,33.7622 27.1875,33.8302 C26.7305,33.8922 26.2745,33.9502 25.8235,33.9972 C25.6385,34.0172 25.4515,34.0402 25.2675,34.0572 C24.5925,34.1202 23.9245,34.1702 23.2665,34.2012 C22.4555,34.2392 21.6575,34.2502 20.8725,34.2362 C20.5665,34.2302 20.2685,34.2072 19.9675,34.1942 C19.5475,34.1752 19.1255,34.1602 18.7135,34.1252 C18.3585,34.0952 18.0115,34.0452 17.6625,34.0032 C17.3325,33.9622 16.9985,33.9302 16.6715,33.8782 C16.3815,33.8322 16.0995,33.7682 15.8145,33.7122 L15.8145,55.7882 C16.0475,55.8362 16.2765,55.8932 16.5135,55.9322 C16.5605,55.9402 16.6095,55.9432 16.6565,55.9512 C16.9815,56.0022 17.3155,56.0352 17.6465,56.0762 C17.9465,56.1122 18.2405,56.1612 18.5445,56.1892 C18.5955,56.1942 18.6475,56.1932 18.6985,56.1982 C19.1105,56.2332 19.5325,56.2472 19.9515,56.2662 C20.2175,56.2792 20.4775,56.3052 20.7465,56.3102 C20.7825,56.3112 20.8205,56.3082 20.8555,56.3082 C21.6415,56.3232 22.4395,56.3122 23.2505,56.2742 C23.2725,56.2732 23.2925,56.2742 23.3155,56.2732 C23.9525,56.2422 24.5995,56.1912 25.2515,56.1302 C25.4355,56.1132 25.6225,56.0902 25.8075,56.0702 C26.1035,56.0392 26.3975,56.0132 26.6965,55.9752 C26.8525,55.9552 27.0145,55.9242 27.1715,55.9032 C27.6795,55.8352 28.1925,55.7552 28.7085,55.6702 C29.0415,55.6162 29.3735,55.5632 29.7095,55.5022 C30.2675,55.4002 30.8325,55.2842 31.3995,55.1642 C31.6345,55.1152 31.8645,55.0762 32.1005,55.0242 C32.1705,55.0092 32.2435,54.9892 32.3125,54.9732 C32.7955,54.8642 33.2865,54.7412 33.7755,54.6202 C34.1295,54.5332 34.4815,54.4512 34.8395,54.3582 C35.3595,54.2222 35.8865,54.0712 36.4135,53.9232 C36.7475,53.8292 37.0785,53.7422 37.4155,53.6422 C38.0115,53.4672 38.6175,53.2762 39.2215,53.0862 C39.4965,53.0002 39.7655,52.9212 40.0415,52.8322 C40.9255,52.5462 41.8175,52.2462 42.7165,51.9322 C43.4695,51.6692 44.1935,51.4282 44.8955,51.2032 C45.1315,51.1272 45.3525,51.0632 45.5835,50.9922 C46.0405,50.8502 46.4955,50.7092 46.9315,50.5842 C47.1915,50.5092 47.4385,50.4442 47.6915,50.3752 C48.0755,50.2692 48.4595,50.1652 48.8265,50.0722 C49.0835,50.0072 49.3305,49.9502 49.5795,49.8902 C49.9095,49.8122 50.2365,49.7372 50.5525,49.6692 C50.8805,49.5982 51.1975,49.5372 51.5115,49.4772 C51.7795,49.4262 52.0475,49.3742 52.3055,49.3312 C52.6105,49.2802 52.9035,49.2382 53.1945,49.1962 C53.4235,49.1632 53.6555,49.1302 53.8765,49.1032 C54.5055,49.0282 55.1085,48.9722 55.6765,48.9442 C55.8285,48.9362 55.9685,48.9372 56.1165,48.9322 C56.4415,48.9222 56.7625,48.9142 57.0685,48.9182 C57.2675,48.9212 57.4575,48.9312 57.6495,48.9402 C57.8585,48.9502 58.0705,48.9582 58.2705,48.9742 C58.4635,48.9902 58.6475,49.0132 58.8325,49.0342 C59.0125,49.0552 59.1955,49.0762 59.3685,49.1022 C59.5305,49.1272 59.6835,49.1592 59.8385,49.1882 C60.0385,49.2262 60.2365,49.2642 60.4255,49.3092 C60.5475,49.3382 60.6655,49.3712 60.7845,49.4042 C61.0655,49.4792 61.3375,49.5632 61.5995,49.6542 C61.6945,49.6872 61.7925,49.7192 61.8835,49.7532 C62.2925,49.9072 62.6755,50.0772 63.0395,50.2632 C63.1105,50.3002 63.1795,50.3382 63.2495,50.3762 C63.6155,50.5732 63.9675,50.7802 64.2965,51.0022 C65.4875,51.8082 66.5845,53.0712 66.5835,54.7002 L66.5985007,32.6272 C66.5995,30.9982 65.5025,29.7362 64.3135,28.9302" id="Fill-11" fill="#4C34BB"></path>
            <path d="M78.7383,31.7632 C78.7173,32.0192 78.6983,32.2762 78.6503,32.5332 C78.5873,32.8752 78.5053,33.2182 78.3963,33.5602 C78.3753,33.6282 78.3503,33.6952 78.3273,33.7632 C78.2183,34.0822 78.0883,34.4012 77.9423,34.7202 C77.9083,34.7942 77.8803,34.8682 77.8433,34.9432 C77.6703,35.3042 77.4693,35.6632 77.2513,36.0212 C77.1343,36.2122 76.9983,36.4022 76.8693,36.5922 C76.7233,36.8072 76.5833,37.0232 76.4223,37.2372 C76.2783,37.4272 76.1183,37.6162 75.9643,37.8052 C75.7933,38.0132 75.6273,38.2212 75.4433,38.4282 C75.1883,38.7152 74.9113,38.9982 74.6323,39.2812 C74.4963,39.4182 74.3713,39.5572 74.2303,39.6932 C73.7983,40.1102 73.3433,40.5242 72.8613,40.9312 L72.8443,63.0042 C73.3273,62.5972 73.7823,62.1832 74.2143,61.7662 C74.3563,61.6292 74.4813,61.4902 74.6183,61.3522 C74.8963,61.0692 75.1743,60.7872 75.4273,60.5012 C75.4653,60.4592 75.5093,60.4192 75.5453,60.3772 C75.6893,60.2122 75.8123,60.0432 75.9483,59.8772 C76.1023,59.6882 76.2623,59.5002 76.4053,59.3102 C76.5673,59.0952 76.7083,58.8792 76.8543,58.6632 C76.9833,58.4732 77.1183,58.2842 77.2343,58.0942 C77.2573,58.0582 77.2853,58.0222 77.3073,57.9862 C77.5003,57.6632 77.6723,57.3402 77.8283,57.0152 C77.8643,56.9412 77.8923,56.8672 77.9263,56.7922 C78.0153,56.5982 78.1083,56.4042 78.1833,56.2102 C78.2313,56.0852 78.2683,55.9602 78.3113,55.8352 C78.3343,55.7682 78.3593,55.7012 78.3803,55.6332 C78.4753,55.3322 78.5593,55.0312 78.6203,54.7302 C78.6293,54.6892 78.6273,54.6472 78.6343,54.6052 C78.6823,54.3482 78.7013,54.0922 78.7223,53.8362 C78.7353,53.6912 78.7683,53.5462 78.7723,53.4012 C78.7743,53.3412 78.7743,53.2822 78.7753,53.2222 L78.7913,31.1492 C78.7913,31.3532 78.7563,31.5582 78.7383,31.7632" id="Fill-13" fill="#4C34BB"></path>
            <polygon id="Fill-15" fill="#4C34BB" points="81.0605 46.4829 81.0445 68.5559 68.6565 75.7089 68.6715 53.6359"></polygon>
            <path d="M60.3945,48.0317 C59.5275,48.3537 58.6385,48.6427 57.7425,48.9157 C57.5625,48.9697 57.3835,49.0257 57.2045,49.0777 C56.3285,49.3327 55.4415,49.5627 54.5455,49.7657 C54.2705,49.8277 53.9935,49.8847 53.7155,49.9417 C53.3735,50.0117 53.0335,50.0817 52.6895,50.1437 C52.3835,50.1997 52.0775,50.2467 51.7695,50.2957 C51.4265,50.3507 51.0835,50.4047 50.7405,50.4507 C50.5195,50.4797 50.2985,50.5027 50.0785,50.5287 C49.2675,50.6227 48.4565,50.6967 47.6435,50.7407 C47.5345,50.7467 47.4245,50.7587 47.3165,50.7637 C46.5455,50.7997 45.7765,50.8087 45.0075,50.7957 C44.7825,50.7917 44.5575,50.7797 44.3325,50.7707 C43.8325,50.7537 43.3345,50.7277 42.8385,50.6877 C42.5755,50.6667 42.3125,50.6407 42.0495,50.6137 C41.5905,50.5667 41.1325,50.5077 40.6765,50.4397 C40.4235,50.4027 40.1705,50.3657 39.9195,50.3227 C39.3295,50.2197 38.7435,50.0977 38.1615,49.9597 C38.0165,49.9257 37.8705,49.9007 37.7265,49.8637 C37.6135,49.8357 37.5015,49.8007 37.3895,49.7707 C36.9435,49.6517 36.4985,49.5217 36.0585,49.3807 C35.8825,49.3247 35.7085,49.2647 35.5355,49.2047 C35.2385,49.1027 34.9465,48.9897 34.6535,48.8777 C34.1625,48.6897 33.6785,48.4847 33.1995,48.2657 C32.9905,48.1707 32.7795,48.0807 32.5735,47.9797 C31.9035,47.6517 31.2425,47.3027 30.5995,46.9127 L30.5825,68.9857 C31.2265,69.3757 31.8875,69.7247 32.5565,70.0527 C32.7635,70.1537 32.9745,70.2437 33.1835,70.3387 C33.6635,70.5567 34.1465,70.7617 34.6365,70.9497 C34.7605,70.9977 34.8795,71.0587 35.0035,71.1047 C35.1745,71.1667 35.3475,71.2187 35.5195,71.2777 C35.6935,71.3377 35.8675,71.3977 36.0415,71.4537 C36.4835,71.5947 36.9265,71.7237 37.3735,71.8437 C37.4865,71.8727 37.5975,71.9077 37.7095,71.9367 C37.7415,71.9447 37.7705,71.9537 37.8015,71.9617 C37.9155,71.9907 38.0325,72.0057 38.1455,72.0327 C38.7275,72.1707 39.3135,72.2927 39.9045,72.3947 C39.9955,72.4107 40.0825,72.4357 40.1735,72.4507 C40.3345,72.4767 40.4995,72.4887 40.6615,72.5127 C41.1175,72.5797 41.5745,72.6387 42.0345,72.6867 C42.1765,72.7017 42.3165,72.7277 42.4585,72.7407 C42.5805,72.7517 42.7025,72.7507 42.8225,72.7607 C43.3195,72.8007 43.8165,72.8257 44.3165,72.8437 C44.4805,72.8497 44.6445,72.8677 44.8085,72.8707 C44.8705,72.8727 44.9315,72.8677 44.9925,72.8687 C45.7605,72.8817 46.5305,72.8717 47.3005,72.8367 C47.3295,72.8347 47.3565,72.8367 47.3845,72.8347 C47.4655,72.8307 47.5455,72.8187 47.6265,72.8137 C48.4405,72.7697 49.2515,72.6957 50.0635,72.6007 C50.1775,72.5877 50.2915,72.5857 50.4065,72.5707 C50.5125,72.5577 50.6175,72.5377 50.7235,72.5237 C51.0685,72.4767 51.4125,72.4227 51.7555,72.3687 C52.0615,72.3197 52.3675,72.2727 52.6715,72.2177 C53.0175,72.1547 53.3605,72.0837 53.7035,72.0127 C53.9175,71.9687 54.1355,71.9327 54.3495,71.8857 C54.4115,71.8717 54.4695,71.8517 54.5305,71.8387 C55.4255,71.6357 56.3125,71.4057 57.1875,71.1507 C57.3685,71.0977 57.5455,71.0427 57.7255,70.9887 C58.6235,70.7157 59.5115,70.4267 60.3785,70.1047 L68.6565,75.7087 L68.6715,53.6357 L60.3945,48.0317 Z" id="Fill-17" fill="#7ACEF0"></path>
            <path d="M12.4043,7.10542736e-15 L20.7583,5.656 C31.3223,1.992 41.6863,3.568 48.5363,7.844 L39.4123,13.111 C34.3933,10.028 28.4343,9.402 21.0833,13.646 C14.1053,17.675 12.8403,22.04 17.0033,24.858 C20.6243,27.311 25.9583,27.151 37.5843,23.262 C49.2023,19.377 62.9303,16.09 73.7673,23.427 C81.5873,28.722 79.4913,35.331 72.8613,40.932 L81.0603,46.483 L68.6723,53.636 L60.3943,48.032 C50.9113,51.549 39.4483,52.283 30.5993,46.913 L39.6853,41.667 C44.6343,44.455 51.4923,44.897 59.9933,39.99 C69.1173,34.722 66.9433,30.71 64.3133,28.93 C60.7613,26.525 55.3383,25.45 42.7333,29.86 C28.6593,34.774 16.3943,36.36 7.5833,30.394 C0.2203,25.409 1.8473,18.436 8.2503,12.728 L0.0153,7.153 L12.4043,7.10542736e-15 Z" id="Fill-19" fill="#FFFFFF"></path>
        </g>
    </g>
</svg>