<?xml version="1.0" encoding="UTF-8"?>
<svg id="Single" xmlns="http://www.w3.org/2000/svg" version="1.1" viewBox="0 0 142 137.4">
  <defs>
    <style>
      .cls-1, .cls-2 {
        opacity: .2;
      }

      .cls-3 {
        opacity: .7;
      }

      .cls-3, .cls-4, .cls-5, .cls-2, .cls-6, .cls-7, .cls-8 {
        stroke-width: 0px;
      }

      .cls-3, .cls-5, .cls-2, .cls-8 {
        fill: #fff;
      }

      .cls-9 {
        opacity: .4;
      }

      .cls-4 {
        fill: #7acef0;
      }

      .cls-5 {
        opacity: .6;
      }

      .cls-6 {
        fill: #24156d;
      }

      .cls-7 {
        fill: #4c34bb;
      }
    </style>
  </defs>
  <g id="Icon">
    <path id="Fill_11" data-name="Fill 11" class="cls-4" d="M60.6,66.2v27.7l-24-13.9v-27.7l24,13.9Z"/>
    <path id="Fill_12" data-name="Fill 12" class="cls-7" d="M60.6,66.2v27.7l24-13.9v-27.7s-24,13.9-24,13.9Z"/>
    <path id="Fill_13" data-name="Fill 13" class="cls-8" d="M60.6,38.4l-24,13.9,24,13.9,24-13.9-24-13.9Z"/>
    <path id="Fill_14" data-name="Fill 14" class="cls-6" d="M60.6,93.9l24,13.9,24-13.9-24-13.9-24,13.9Z"/>
  </g>
  <g id="Icon-2" data-name="Icon" class="cls-1">
    <g id="Fill_11-2" data-name="Fill 11" class="cls-9">
      <path class="cls-8" d="M20.4,44.9v44.8l38.8,22.4v-44.8l-38.8-22.4M19.4,43.1l40.8,23.6v47.1l-40.8-23.6v-47.1Z"/>
    </g>
    <path class="cls-5" d="M100.1,44.9l-38.8,22.4v44.8l38.8-22.4v-44.8M101.1,43.1v47.1s-40.8,23.6-40.8,23.6v-47.1l40.8-23.6Z"/>
    <path class="cls-2" d="M60.3,20.7l-38.8,22.4,38.8,22.4,38.8-22.4-38.8-22.4M60.3,19.6l40.8,23.6-40.8,23.6-40.8-23.6,40.8-23.6Z"/>
    <path id="Path" class="cls-2" d="M61.9,67l18.4,10.6-.6,1-18.4-10.6v-.7l.5-.3Z"/>
    <path id="Path-2" class="cls-2" d="M101.1,43.1l18.4,10.6-.6,1-17.8-10.3v-1.3Z"/>
    <path id="Path-3" class="cls-2" d="M20.6,23.5v19l-1.1.7v1L0,32.9l.6-1,18.9,11v-19.4h1.1Z"/>
    <path id="Path-4" class="cls-2" d="M61.2,0v20.1l-1-.6-1,.6-18.6-10.7.6-1,18.9,11V0h1.1Z"/>
    <path id="Combined_Shape" data-name="Combined Shape" class="cls-2" d="M19.4,90.2h0L0,78.9v-1.3l19.4,11.2v1.3Z"/>
    <path class="cls-3" d="M101.1,136.2l38.8-22.4-38.8-22.4-38.8,22.4,38.8,22.4M101.1,137.4l-40.8-23.6,40.8-23.6,40.8,23.6-40.8,23.6Z"/>
  </g>
</svg>