<?xml version="1.0" encoding="UTF-8"?>
<svg width="32px" height="32px" viewBox="0 0 32 32" version="1.1" xmlns="http://www.w3.org/2000/svg" xmlns:xlink="http://www.w3.org/1999/xlink">
    <title>Icons/Laws</title>
    <g id="Icons/Laws" stroke="none" stroke-width="1" fill="none" fill-rule="evenodd">
        <path d="M15.8405093,5.16260275 L21.101645,10.4237385 C21.5954505,10.9175439 21.5954505,11.7181608 21.101645,12.2119663 C20.6078395,12.7057717 19.8072227,12.7057717 19.3134172,12.2119663 L18.8924448,11.7908404 L17.4712742,13.1646351 C17.6022181,13.2534063 17.7266873,13.3557959 17.8426951,13.4718037 L27.2588388,22.8879474 C28.2470537,23.8761623 28.2470537,25.4783753 27.2588388,26.4665902 C26.2706239,27.4548051 24.668411,27.4548051 23.6801961,26.4665902 L14.2640523,17.0504465 C14.1262653,16.9126594 14.0076899,16.7629357 13.9083262,16.604604 L12.3989166,18.0612729 L12.9191961,18.581431 C13.4130016,19.0752365 13.4130016,19.8758533 12.9191961,20.3696588 C12.4253906,20.8634643 11.6247738,20.8634643 11.1309683,20.3696588 L5.86983257,15.1085231 C5.3760271,14.6147176 5.3760271,13.8141008 5.86983257,13.3202953 C6.36363804,12.8264898 7.1642549,12.8264898 7.65806038,13.3202953 L8.01653398,13.6788903 L14.5100621,7.40845777 L14.0522815,6.95083056 C13.558476,6.45702508 13.558476,5.65640822 14.0522815,5.16260275 C14.546087,4.66879728 15.3467038,4.66879728 15.8405093,5.16260275 Z M16.8729739,24.6772688 C17.5713203,24.6772688 18.137442,25.2433904 18.137442,25.9417368 C18.137442,26.6400832 17.5713203,27.2062048 16.8729739,27.2062048 L5.26446801,27.2062048 C4.56612161,27.2062048 4,26.6400832 4,25.9417368 C4,25.2433904 4.56612161,24.6772688 5.26446801,24.6772688 L16.8729739,24.6772688 Z" id="Shape" fill="#4C34BB"></path>
    </g>
</svg>