<?xml version="1.0" encoding="UTF-8"?>
<svg width="32px" height="32px" viewBox="0 0 32 32" version="1.1" xmlns="http://www.w3.org/2000/svg" xmlns:xlink="http://www.w3.org/1999/xlink">
    <title>Icons/Logistics</title>
    <g id="Icons/Logistics" stroke="none" stroke-width="1" fill="none" fill-rule="evenodd">
        <path d="M19.2727273,7.27272727 C20.4727273,7.27272727 21.4545455,8.25454545 21.4545455,9.45454545 L21.4545455,11.6363636 L24.1818182,11.6363636 C24.52,11.6363636 24.8472727,11.8 25.0545455,12.0727273 L27.5636364,15.4218182 C27.8472727,15.8036364 28,16.2618182 28,16.7309091 L28,20.3636364 C28,20.9636364 27.5090909,21.4545455 26.9090909,21.4545455 L25.8181818,21.4545455 C25.8181818,23.2654545 24.3563636,24.7272727 22.5454545,24.7272727 C20.7345455,24.7272727 19.2727273,23.2654545 19.2727273,21.4545455 L12.7272727,21.4545455 C12.7272727,23.2654545 11.2654545,24.7272727 9.45454545,24.7272727 C7.64363636,24.7272727 6.18181818,23.2654545 6.18181818,21.4545455 C4.98181818,21.4545455 4,20.4727273 4,19.2727273 L4,9.45454545 C4,8.25454545 4.98181818,7.27272727 6.18181818,7.27272727 Z M9.45454545,20.3636364 C8.85454545,20.3636364 8.36363636,20.8545455 8.36363636,21.4545455 C8.36363636,22.0545455 8.85454545,22.5454545 9.45454545,22.5454545 C10.0545455,22.5454545 10.5454545,22.0545455 10.5454545,21.4545455 C10.5454545,20.8545455 10.0545455,20.3636364 9.45454545,20.3636364 Z M22.5454545,20.3636364 C21.9454545,20.3636364 21.4545455,20.8545455 21.4545455,21.4545455 C21.4545455,22.0545455 21.9454545,22.5454545 22.5454545,22.5454545 C23.1454545,22.5454545 23.6363636,22.0545455 23.6363636,21.4545455 C23.6363636,20.8545455 23.1454545,20.3636364 22.5454545,20.3636364 Z M24.1818182,13.2727273 L21.4545455,13.2727273 L21.4545455,16 L26.32,16 L24.1818182,13.2727273 Z M11.4740548,10.1428796 L11.4740548,12.1428796 L7.47405481,12.1428796 L13.4740548,15.1428796 L13.4740548,13.1428796 L17.4740548,13.1428796 L11.4740548,10.1428796 Z" id="Combined-Shape" fill="#4C34BB"></path>
    </g>
</svg>