<?xml version="1.0" encoding="UTF-8"?>
<svg width="32px" height="32px" viewBox="0 0 32 32" version="1.1" xmlns="http://www.w3.org/2000/svg" xmlns:xlink="http://www.w3.org/1999/xlink">
    <title>Icons/NoBlocks</title>
    <g id="Icons/NoBlocks" stroke="none" stroke-width="1" fill="none" fill-rule="evenodd">
        <path d="M15.0222529,4.13148721 C15.1326971,4.13148721 15.2429919,4.1396042 15.3522462,4.15577257 L26.0758492,5.7427421 C27.1812859,5.90633398 28,6.85512491 28,7.97260092 L28,24.0270978 C28,25.1445738 27.1812859,26.0933648 26.0758492,26.2569566 L15.3522462,27.8439262 C14.1207292,28.0261765 12.9746443,27.1755777 12.792394,25.9440607 C12.7762256,25.8348064 12.7681087,25.7245115 12.7681087,25.6140673 L12.7681087,6.3856314 C12.7681087,5.14070194 13.7773234,4.13148721 15.0222529,4.13148721 Z M11.7046978,6.902692 L11.7046978,26.0629176 L6.25414419,26.0629176 C5.00921473,26.0629176 4,25.0537029 4,23.8087734 L4,9.15683619 C4,7.91190673 5.00921473,6.902692 6.25414419,6.902692 L11.7046978,6.902692 Z M18.390578,12.4684733 L18.2935759,12.5240967 L18.2050785,12.5982613 L15.2591749,15.5441649 L15.1850103,15.6328825 C15.0335909,15.8512296 15.0335909,16.142051 15.1850103,16.3603982 L15.2591749,16.4491157 L18.2050785,19.4014374 L18.2935759,19.475602 C18.5419886,19.6486527 18.8811174,19.6239312 19.1036112,19.4014374 C19.326105,19.1789436 19.3508265,18.8398149 19.1777758,18.5914022 L19.1036112,18.5029047 L16.6005558,15.9998494 L19.1036112,13.496794 L19.1777758,13.4082966 C19.3508265,13.1598839 19.326105,12.8207551 19.1036112,12.5982613 C18.9089291,12.4035792 18.6249484,12.3603166 18.390578,12.4684733 Z M21.6644975,12.5982613 C21.4420037,12.8207551 21.4172821,13.1598839 21.5903329,13.4082966 L21.6644975,13.496794 L24.1675528,15.9998494 L21.6644975,18.5029047 C21.414192,18.7532103 21.414192,19.1511319 21.6644975,19.4014374 C21.8869913,19.6239312 22.22612,19.6486527 22.4745327,19.475602 L22.5630302,19.4014374 L25.5089338,16.4491157 C25.7314276,16.2266219 25.7561491,15.8824221 25.5830984,15.6328825 L25.5089338,15.5441649 L22.5630302,12.5982613 C22.3127246,12.3479558 21.914803,12.3479558 21.6644975,12.5982613 Z" id="Shape" fill="#4C34BB"></path>
    </g>
</svg>