<?xml version="1.0" encoding="UTF-8"?>
<svg width="160px" height="160px" viewBox="0 0 160 160" version="1.1" xmlns="http://www.w3.org/2000/svg" xmlns:xlink="http://www.w3.org/1999/xlink">
    <title>Brand/Illustrations/Shipping</title>
    <g id="Brand/Illustrations/Shipping" stroke="none" stroke-width="1" fill="none" fill-rule="evenodd">
        <rect id="background" fill-opacity="0" fill="#FFFFFF" fill-rule="nonzero" x="0" y="0" width="160" height="160"></rect>
        <g id="Group-54" transform="translate(16, 31.25)">
            <path d="M82.9953299,39.1960354 L97.9488962,39.1550601 L82.9953299,39.1960354 Z" id="Fill-1" fill="#24156E"></path>
            <polygon id="Fill-2" fill="#24156D" points="82.9870867 39.2133896 3.90865591 84.7489754 27.0317286 97.5 37.7122964 91.3773293 60.2790695 87.0055081 82.8839254 82.6558618 128.092673 56.5541274 97.948848 39.1550601"></polygon>
            <polygon id="Fill-3" fill="#7ACEF0" points="0 78.3055406 22.6048559 91.3554437 22.6048559 82.655669 0 69.6048018"></polygon>
            <polygon id="Fill-4" fill="#7ACEF0" points="0 69.6045608 22.6048559 82.65591 37.6741171 65.2544324 15.121806 52.2339351"></polygon>
            <polygon id="Fill-5" fill="#7ACEF0" points="37.6743099 65.2543842 15.1215167 52.2338869 22.6040846 21.7526183 45.2089405 34.8034855"></polygon>
            <polygon id="Fill-6" fill="#FFFFFF" points="36.8627102 62.9038494 16.7467409 51.2904914 23.4208906 24.1031531 43.5826559 35.7435066"></polygon>
            <polygon id="Fill-7" fill="#4C34BB" points="5.30268308 78.9855856 7.11668276 77.9380647 7.11668276 75.8439869 5.30268308 76.8910258"></polygon>
            <polyline id="Fill-8" fill="#4C34BB" points="48.2579833 76.5446642 49.3271971 75.9276247 82.8835397 56.554031 82.986701 13.1120409 45.2084585 34.8033891 37.6743099 65.2542878 22.6045667 82.6557654 22.6045667 91.3555401 39.7867061 81.4356662 39.7929729 81.4318097"></polyline>
            <g id="Group-53" transform="translate(3.4873, 0)">
                <path d="M38.9535099,74.4893442 C39.0012341,74.4729541 39.0484762,74.456564 39.0962003,74.4445124 C39.1338012,74.4353532 39.1709199,74.4286044 39.2085208,74.4218555 C39.2538346,74.4141425 39.2996305,74.4069116 39.3444623,74.4030551 C39.3844734,74.3996807 39.4244846,74.3991986 39.4640137,74.3991986 C39.5228253,74.3991986 39.5816368,74.3991986 39.6390022,74.4059475 L37.8997222,74.1822706 C37.8679061,74.1779321 37.8356079,74.1750397 37.8028277,74.1735935 C37.7772784,74.1716653 37.750765,74.1760038 37.7247336,74.1760038 C37.6852046,74.1755218 37.6451934,74.1760038 37.6051822,74.1788962 C37.5892742,74.1803424 37.5738482,74.1784141 37.5574581,74.1803424 C37.5285344,74.1837168 37.4986465,74.192876 37.4697228,74.1981787 C37.4321219,74.2044455 37.3950032,74.2111944 37.3569203,74.2203536 C37.3424584,74.22421 37.3289607,74.2246921 37.3149809,74.2290307 C37.2812365,74.2381898 37.2479742,74.2540979 37.2147119,74.2651853 C37.1771111,74.2786831 37.1404744,74.2902526 37.1028735,74.3056785 C37.0917861,74.3109812 37.0802166,74.3133915 37.0686471,74.3186942 C37.0021226,74.3481 36.9351159,74.3818444 36.8685914,74.4204093 C36.8497909,74.4314968 36.8309905,74.4425842 36.8126722,74.4541537 C36.7215624,74.5100729 36.6323809,74.5737051 36.5441636,74.6436041 C36.4448588,74.7226623 36.3479643,74.8108796 36.2529981,74.90681 C36.1348928,75.0268434 36.0201621,75.1603746 35.9092878,75.3040291 C35.6711491,75.6144771 35.4513288,75.977952 35.2546474,76.3814379 C35.2141542,76.4643526 35.1751072,76.5482314 35.1365422,76.6345205 C34.9451636,77.0645199 34.7788522,77.5335664 34.6424286,78.0291262 C34.5797605,78.2566595 34.5233592,78.4899776 34.4737068,78.7276342 C34.4332136,78.9209411 34.397541,79.1176224 34.366207,79.3157499 C34.3396936,79.4907385 34.3155905,79.6666911 34.296308,79.84409 C34.2779896,80.0084732 34.2630457,80.1743025 34.2514762,80.3401319 C34.2408709,80.5006586 34.2326758,80.6616673 34.2283372,80.8226761 C34.2239987,80.9832027 34.2230346,81.1437294 34.2254449,81.3042561 C34.2278552,81.4291102 34.2317117,81.5549284 34.2384605,81.6802645 C34.2403888,81.7193116 34.2427991,81.7578765 34.2447274,81.7969236 C34.2558148,81.9704659 34.2702766,82.1391876 34.2890771,82.3040529 C34.3098057,82.4891647 34.3363192,82.6684918 34.3666891,82.8415521 C34.404772,83.0594442 34.4510499,83.267213 34.5040768,83.4643764 C34.8714081,84.843556 35.5699161,85.7074113 36.4024373,85.8144291 L38.1412353,86.038588 C37.3091961,85.9310881 36.6106881,85.0677149 36.2423927,83.6885352 C36.19033,83.4913718 36.144052,83.283121 36.1059691,83.065711 C36.0751171,82.8926507 36.0490858,82.7133236 36.0283571,82.5277297 C36.0095567,82.3633465 35.9941307,82.1941427 35.9840074,82.0206004 C35.9815971,81.9820354 35.9791868,81.9429884 35.9772585,81.9039413 C35.9709917,81.7790873 35.9671352,81.653269 35.9647249,81.528415 C35.9623146,81.3678883 35.9632787,81.2073616 35.9676173,81.0468349 C35.9714738,80.8858262 35.9796688,80.7243354 35.9907563,80.5642908 C36.0018437,80.3979793 36.0167876,80.232632 36.035106,80.0682489 C36.0543885,79.89085 36.0780095,79.7144153 36.1054871,79.5399088 C36.136339,79.3412992 36.1720116,79.1451 36.2125048,78.951793 C36.2621572,78.7141364 36.3185585,78.4803363 36.3812266,78.252803 C36.5176501,77.7572432 36.6839616,77.2881967 36.8753402,76.8586794 C36.9143873,76.7723903 36.9534343,76.6880294 36.9939275,76.6055968 C37.1906088,76.2016288 37.4104292,75.838636 37.6480858,75.528188 C37.7589601,75.3835694 37.8741729,75.2510023 37.9922781,75.1309689 C38.0867623,75.0345564 38.1836568,74.9468211 38.2829616,74.8672809 C38.3711789,74.7973819 38.4608425,74.7342317 38.5514701,74.6783125 C38.5697885,74.6667431 38.5885889,74.6556556 38.6073893,74.6445682 C38.6859655,74.5992544 38.7640595,74.5626176 38.8421536,74.5298374 C38.8797544,74.5144114 38.9163911,74.5018778 38.9535099,74.4893442" id="Fill-9" fill="#7ACEF0"></path>
                <path d="M38.6074858,74.6446646 C40.2170911,73.7152489 41.6459232,75.4583854 41.8016292,78.5411726 C41.9568532,81.6210673 40.7806217,84.871612 39.1714984,85.8010278 C37.5638213,86.7285152 36.1325789,84.9834504 35.9773549,81.9040378 C35.8216489,78.8212506 36.9998087,75.5731162 38.6074858,74.6446646" id="Fill-11" fill="#4C34BB"></path>
                <path d="M61.5308401,60.9044968 C61.5785643,60.8876247 61.6258063,60.8717166 61.6730484,60.859183 C61.7111313,60.8500238 61.7482501,60.843757 61.785851,60.8370081 C61.8311648,60.8292951 61.8769607,60.8215821 61.9217925,60.8182077 C61.9618036,60.8148333 62.0013327,60.8143512 62.0413439,60.8143512 C62.1001554,60.8143512 62.158967,60.8138691 62.2163324,60.8211001 L60.4770524,60.5969412 C60.4452363,60.5930847 60.4129381,60.5901923 60.3801579,60.5882641 C60.3546086,60.5868179 60.3280952,60.5906744 60.3020638,60.5906744 C60.2620527,60.5906744 60.2225236,60.5911565 60.1825124,60.5940488 C60.1666044,60.595495 60.1506963,60.5935668 60.1347883,60.595495 C60.1058645,60.5988695 60.0759767,60.6080286 60.047053,60.6133313 C60.0094521,60.6195981 59.9723333,60.6258649 59.9337684,60.6355062 C59.9197886,60.6388806 59.9062908,60.6398447 59.892311,60.6441833 C59.8585667,60.6533425 59.8253044,60.6687685 59.7920421,60.6803379 C59.7544413,60.6933536 59.7173225,60.7049231 59.6802037,60.7208312 C59.6686342,60.7256518 59.6570647,60.7285442 59.6459773,60.7338468 C59.5794527,60.7627706 59.5124461,60.796997 59.4459215,60.8355619 C59.4271211,60.8466494 59.4083207,60.8577368 59.3900023,60.8693063 C59.2984105,60.9252255 59.209229,60.9883756 59.1210117,61.0587567 C59.0221889,61.1378149 58.9252945,61.2260322 58.8303282,61.3219626 C58.712223,61.4419961 58.5974922,61.5750452 58.486618,61.7191818 C58.2479972,62.0296298 58.028659,62.3926225 57.8319776,62.7965906 C57.7914844,62.8795052 57.7524374,62.963384 57.7138724,63.0496732 C57.5224938,63.4796726 57.3561823,63.9482369 57.2197588,64.4437968 C57.1570907,64.6713301 57.1006894,64.9051302 57.051037,65.1427868 C57.0105438,65.3360937 56.9748712,65.532775 56.9435372,65.7309026 C56.9165417,65.905409 56.8929207,66.0818438 56.8731561,66.2592426 C56.8553198,66.4236258 56.8403759,66.5889731 56.8288064,66.7552845 C56.818201,66.9158112 56.810006,67.0768199 56.8056674,67.2378287 C56.8013289,67.3983554 56.8003647,67.558882 56.802775,67.7194087 C56.8047033,67.8442628 56.8090419,67.970081 56.8157907,68.0949351 C56.817719,68.1344642 56.8196472,68.1730291 56.8220575,68.2115941 C56.8326629,68.3856185 56.8476068,68.5543403 56.8659252,68.7187234 C56.8871359,68.9043173 56.9131673,69.0836444 56.9435372,69.2567047 C56.9821021,69.4741147 57.0283801,69.6823656 57.0809249,69.879529 C57.4487383,71.2587086 58.1472462,72.1225639 58.9797675,72.2295817 L60.7185655,72.4537406 C59.8865263,72.3462407 59.1880183,71.4828675 58.8197229,70.1036878 C58.7676602,69.9065245 58.7213822,69.6982736 58.6828172,69.4808636 C58.6519653,69.3078033 58.626416,69.1284762 58.6052052,68.9428823 C58.5868869,68.7784991 58.5714609,68.6092953 58.5613376,68.435753 C58.5584452,68.397188 58.556517,68.358141 58.5545887,68.319094 C58.5483219,68.1937578 58.5439833,68.0684217 58.5420551,67.9430855 C58.5396448,67.7830409 58.5406089,67.6220322 58.5449475,67.4619875 C58.548804,67.3004967 58.556999,67.139488 58.5680865,66.9789613 C58.5791739,66.813132 58.5941178,66.6477847 58.6119541,66.4834015 C58.6317186,66.3060026 58.6553397,66.1295679 58.6828172,65.9550614 C58.7136692,65.7559698 58.7493418,65.5597705 58.789835,65.3664636 C58.8394874,65.1292891 58.8958887,64.8954889 58.9585568,64.6679556 C59.0949803,64.1723958 59.2612917,63.7033494 59.4526704,63.273832 C59.4912354,63.1875429 59.5307645,63.1031821 59.5712577,63.0202674 C59.767939,62.6167814 59.9872773,62.2533066 60.2254159,61.9433406 C60.3362902,61.798722 60.4515031,61.6661549 60.5696083,61.5456394 C60.6640925,61.4497091 60.7609869,61.3614917 60.8598097,61.2824335 C60.948027,61.2125345 61.0376906,61.1489023 61.1288003,61.0934652 C61.1471187,61.0814136 61.1659191,61.0708082 61.1847195,61.0597208 C61.2632956,61.014407 61.3413897,60.9772882 61.4194838,60.94499 C61.4566025,60.929082 61.4937213,60.9170304 61.5308401,60.9044968" id="Fill-13" fill="#7ACEF0"></path>
                <path d="M61.1848159,61.0598654 C62.7939392,60.1304497 64.2227713,61.8735863 64.3784773,64.9563734 C64.5341834,68.0362681 63.3579519,71.2868129 61.7483465,72.2157465 C60.1406694,73.1437161 58.7099091,71.3981692 58.5546851,68.3192386 C58.3989791,65.2359694 59.5771388,61.987835 61.1848159,61.0598654" id="Fill-15" fill="#4C34BB"></path>
                <polygon id="Fill-17" fill="#FFFFFF" points="49.2561411 33.9081034 49.2561411 53.4783784 37.9532311 60.0098378 43.6444562 37.1480428"></polygon>
                <polygon id="Fill-19" fill="#7ACEF0" points="0.000626680728 77.9386431 1.81559048 78.985682 1.81559048 76.8911222 0.000626680728 75.8440833"></polygon>
                <polygon id="Fill-21" fill="#FFFFFF" points="1.81448174 74.7967552 3.62944554 75.8442761 1.81544586 76.891315 1.28447146e-15 75.8442761"></polygon>
                <polygon id="Fill-23" fill="#4C34BB" points="13.2596483 51.2905878 15.073648 50.2430668 21.2932132 24.8880466 19.933798 24.1032495"></polygon>
                <polygon id="Fill-25" fill="#24156D" points="15.0735033 50.243115 33.8286113 61.071676 33.375473 62.903994 13.2595037 51.290636"></polygon>
                <polygon id="Fill-27" fill="#4C34BB" points="8.66501801 82.898098 10.4790177 81.8510591 10.4790177 79.7564993 8.66501801 80.8035382"></polygon>
                <polygon id="Fill-29" fill="#24156D" points="3.62925271 77.9386431 4.0529853 78.1825666 4.0529853 76.0880067 3.62925271 75.8440833"></polygon>
                <polygon id="Fill-31" fill="#7ACEF0" points="3.22297078 79.7571742 8.66496981 82.8982908 8.66496981 80.803731 3.22297078 77.6626144"></polygon>
                <polygon id="Fill-33" fill="#FFFFFF" points="5.03682584 76.6152863 10.4793069 79.756885 8.66482519 80.8034418 3.2223441 77.6628072"></polygon>
                <polygon id="Fill-35" fill="#4C34BB" points="11.8327927 84.7486862 13.6467924 83.7016473 13.6467924 81.6070875 11.8327927 82.6541264"></polygon>
                <polygon id="Fill-37" fill="#7ACEF0" points="10.0179735 83.7016955 11.8329373 84.7487344 11.8329373 82.6541746 10.0179735 81.6071357"></polygon>
                <polygon id="Fill-39" fill="#24156D" points="13.6466477 83.7016955 14.0708624 83.9456189 14.0708624 81.8510591 13.6466477 81.6071357"></polygon>
                <polygon id="Fill-41" fill="#24156D" points="10.4793551 81.8511555 10.9030877 82.095079 10.9030877 80.0005191 10.4793551 79.7565957"></polygon>
                <polygon id="Fill-43" fill="#FFFFFF" points="11.8318286 80.5598558 13.6467924 81.6073767 11.8327927 82.6544156 10.0173468 81.6073767"></polygon>
                <polygon id="Fill-47" fill="#7ACEF0" points="47.4413701 52.4312431 49.2563339 53.478282 49.2563339 33.908007 47.4413701 34.9555279"></polygon>
                <polygon id="Fill-49" fill="#24156D" points="47.4418522 52.4373653 49.256816 53.4848862 37.9529418 60.0100788 38.5622683 57.5636137"></polygon>
                <polygon id="Fill-51" fill="#FFFFFF" points="79.4994156 13.1120891 56.7880239 0 19.1167992 21.7525701 41.7211731 34.8034373"></polygon>
            </g>
        </g>
    </g>
</svg>