<?xml version="1.0" encoding="UTF-8"?>
<svg id="Layer_1" data-name="Layer 1" xmlns="http://www.w3.org/2000/svg" version="1.1" viewBox="0 0 69.1 50.3">
  <defs>
    <style>
      .cls-1 {
        fill: #24156d;
        stroke-width: 0px;
      }
    </style>
  </defs>
  <g id="Group_63" data-name="Group 63">
    <path id="Path_47" data-name="Path 47" class="cls-1" d="M69.1,6.6v20.9s-4.5.9-5.4,1-3.8,1-5.9-1c-3.2-3.1-14.6-14.5-14.6-14.5-1.5-1.2-3.5-1.3-5.1-.3-2.9,1.5-7.2,3.8-9,4.6-2,1.2-4.5.5-5.7-1.5-.3-.5-.5-1.1-.6-1.8,0-1.6,1.1-3.1,2.6-3.7,4.1-2.5,12.7-7.4,16.3-9.2,2.2-1.2,3.8-1.2,6.8,1.2,3.7,3.2,7,6,7,6,.8.6,1.8.8,2.8.5,4.1-.9,10.7-2.4,10.7-2.4M23.7,41.9c.8-1.9,0-4-1.9-4.8-.8-.3-1.6-.4-2.5-.2.4-1.3.1-2.7-.8-3.7-1-.9-2.4-1.3-3.7-.9.4-1.3.1-2.7-.8-3.7-1.7-1.5-4.2-1.5-5.8.2-1.7,1.6-2.8,4.6-1.2,6.3s3.2.7,4.6.4c-.4,1.3-1.5,2.5-.1,4.3s3.2.7,4.6.4c-.4,1.3-1.4,2.7-.1,4.2s3.5.7,4.9.3c-.6,1.4-1.7,2.9-.2,4.7s5,.9,6.7-.7c1.7-1.5,1.8-4.1.4-5.7-1.1-1-2.6-1.4-4-.9M54.8,31.1l-13.2-13.1c-1.2-1.2-3.1-1.5-4.6-.8-1.8.8-4.2,1.9-6,2.7-1.2.7-2.6,1.2-4,1.4-3.8,0-6.9-3-6.9-6.8,0-2.4,1.2-4.6,3.2-5.9,2.9-2,9.1-5.3,9.1-5.3-1.6-1.7-3.8-2.6-6.1-2.5-4.2,0-13,5.8-13,5.8-1.9,1-4.1,1-6.1.2L.3,4.3v23.8s2,.6,3.7,1.2c.4-1.1,1.1-2.2,1.9-3,2.9-2.8,7.5-2.8,10.4,0,.8.8,1.4,1.8,1.6,2.9,1.1.3,2,.9,2.8,1.7.8.8,1.4,1.8,1.6,3,2.3.7,4,2.6,4.6,4.9,1.1.3,2.1.9,2.9,1.8,1.5,1.6,2.2,3.8,1.8,6,0,0,1,1.1,1.6,1.7,1.2,1.2,3.1,1.2,4.3,0s1.2-3.1,0-4.3c0,0,2.5,3,5.3,1.2,2.5-1.7,2.1-3.8.9-4.9,1.4,1.7,3.9,1.9,5.5.5.1-.1.2-.2.3-.3,1.1-1.1,1.2-2.9.2-4.1,0,0,1.6,2.2,4.9.1,2.3-2,1.2-4.2,0-5.4h0Z"/>
  </g>
</svg>