<?xml version="1.0" encoding="UTF-8"?>
<svg width="338px" height="369px" viewBox="0 0 338 369" version="1.1" xmlns="http://www.w3.org/2000/svg" xmlns:xlink="http://www.w3.org/1999/xlink">
    <title>Group 16</title>
    <g id="🟢-Updated-Pages" stroke="none" stroke-width="1" fill="none" fill-rule="evenodd">
        <g id="What-is-eCommerce?" transform="translate(-120, -15222)">
            <g id="More_Compare-eCommerces" transform="translate(120, 15062)">
                <g id="Group-16" transform="translate(0, 160.3184)">
                    <polygon id="Fill-1" fill-opacity="0.2" fill="#58517B" points="168.80892 346.5216 300.10572 270.7188 225.07932 162.4308"></polygon>
                    <polygon id="Fill-2" fill="#FFFFFF" points="225.07884 162.43056 168.80964 129.94296 112.54044 314.03616 168.80844 346.52136"></polygon>
                    <polygon id="Fill-3" fill-opacity="0.4" fill="#58517B" points="168.8094 346.52124 206.3226 368.17884 337.6194 292.37724 300.1062 270.71964"></polygon>
                    <polygon id="Fill-4" fill-opacity="0.2" fill="#58517B" points="56.26908 238.14108 56.26908 259.89108 337.61988 97.45548 337.61988 75.70668"></polygon>
                    <polygon id="Fill-5" fill="#F3F2FB" points="0 205.74648 56.2692 238.14048 337.62 75.70728 281.3484 43.31328"></polygon>
                    <polygon id="Fill-6" fill="#FFFFFF" points="0 227.4966 56.2692 259.8918 56.2692 238.1406 0 205.7466"></polygon>
                    <polyline id="Fill-7" fill-opacity="0.4" fill="#58517B" points="196.8144 254.39928 225.0792 162.43008 145.4292 208.41528"></polyline>
                    <polygon id="Fill-8" fill-opacity="0.2" fill="#58517B" points="75.02604 162.43176 37.51404 184.09056 37.51404 227.40336 75.02604 205.74816"></polygon>
                    <polygon id="Fill-9" fill="#FFFFFF" points="0 205.74648 37.5144 227.40288 37.5144 184.09008 0 162.43248"></polygon>
                    <polygon id="Fill-10" fill="#F3F2FB" points="0 162.432 37.5144 184.0908 75.0264 162.432 37.5132 140.7732"></polygon>
                    <polygon id="Fill-11" fill-opacity="0.4" fill="#58517B" points="75.02604 205.7478 93.78444 216.5742 56.27004 238.2342 37.51404 227.403"></polygon>
                    <polygon id="Fill-12" fill-opacity="0.2" fill="#58517B" points="318.85572 21.65784 281.34372 43.31784 281.34372 86.63064 318.85572 64.97544"></polygon>
                    <polygon id="Fill-13" fill="#FFFFFF" points="281.34408 43.31772 243.82848 21.65772 243.82848 64.97412 281.34408 86.63052"></polygon>
                    <polygon id="Fill-14" fill="#F3F2FB" points="281.34132 0 243.82812 21.6588 281.34372 43.3176 318.85572 21.6588 281.34492 0"></polygon>
                    <polygon id="Fill-15" fill-opacity="0.4" fill="#58517B" points="281.34432 86.63004 300.09792 97.46004 337.61232 75.80244 318.85632 64.97484"></polygon>
                </g>
            </g>
        </g>
    </g>
</svg>