<?xml version="1.0" encoding="UTF-8"?>
<svg width="626px" height="391px" viewBox="0 0 626 391" version="1.1" xmlns="http://www.w3.org/2000/svg" xmlns:xlink="http://www.w3.org/1999/xlink">
    <title>Brand/Illustrations/H-Store</title>
    <g id="Symbols" stroke="none" stroke-width="1" fill="none" fill-rule="evenodd">
        <g id="UI/Molecules/Blog/Resources-&amp;-Article/Images/Store" transform="translate(18, 14)" fill="#58517B">
            <g id="icon" transform="translate(-18, -14)">
                <polygon id="Fill-1" fill-opacity="0.6" points="573.043721 195.505999 338.617032 330.847026 338.618698 360.923179 573.043721 225.582153"></polygon>
                <polygon id="Fill-2" fill-opacity="0.4" points="0.00166645357 165.428845 338.620032 360.92218 338.618365 330.847692 5.53215695e-15 135.351025"></polygon>
                <polygon id="Fill-3" fill-opacity="0.4" points="130.239012 210.53991 52.0973379 165.424013 130.239012 150.384269"></polygon>
                <path d="M312.564363,165.424513 L364.674366,135.348359 L494.914378,210.533744 L442.981019,240.719884 L312.564363,165.424513 Z M260.48769,255.66464 L208.371021,225.571821 L260.48769,195.494001 L312.582694,225.571821 L260.48769,255.66464 Z M364.669367,75.1960508 L130.239345,210.54041 L338.617699,330.848359 L573.044387,195.505666 L364.669367,75.1960508 Z" id="Fill-4" fill-opacity="0.2"></path>
                <polygon id="Path-2" points="364.681865 135.351025 494.914378 210.533244 442.811874 240.719884 312.564363 165.422846"></polygon>
                <polygon id="Path-3" points="260.487856 195.494001 312.564363 225.581987 260.487856 255.66464 208.382853 225.571821"></polygon>
                <polygon id="Fill-5" fill-opacity="0.6" points="130.239012 150.384936 364.6707 15.0422431 364.669034 75.1962174 130.239012 210.540577"></polygon>
                <polygon id="Fill-6" fill-opacity="0.4" points="364.6752 105.278371 364.681865 135.354525 494.913545 210.533244 520.948549 195.501833"></polygon>
                <polygon id="Fill-7" fill-opacity="0.6" points="364.673533 135.348525 312.56353 165.424679 286.523527 150.384936 364.666867 105.272371"></polygon>
                <polygon id="Fill-8" fill-opacity="0.4" points="260.479524 165.422846 260.487856 195.494001 312.584528 225.571821 338.619532 210.538744"></polygon>
                <polygon id="Fill-9" fill-opacity="0.6" points="260.479524 165.422846 182.334517 210.538744 208.369521 225.571821 260.487856 195.494001"></polygon>
                <polygon id="Fill-10" fill-opacity="0.2" points="234.42019 0 0.00183309892 135.347692 52.096838 165.423846 286.52686 30.0811533"></polygon>
                <path d="M43.6484184,133.646243 C43.6484184,135.389353 46.101438,136.802506 49.1277177,136.802506 C52.1539974,136.802506 54.607017,135.389353 54.607017,133.646243 C54.607017,131.903133 52.1539974,130.48998 49.1277177,130.48998 C46.101438,130.48998 43.6484184,131.903133 43.6484184,133.646243" id="Fill-11"></path>
                <g id="Group-22" transform="translate(175.4431, 24.0241)">
                    <path d="M17.7127349,21.4279265 L25.6083919,29.343581 L21.8372075,31.5216358 L12.4617398,28.5086877 L12.3317564,28.5820117 L17.691071,33.9146631 L13.9015556,36.1027166 L1.77635684e-15,31.6532856 L3.58787453,29.5835503 L12.7866982,33.0697711 L12.9350126,32.984782 L7.19408004,27.5021498 L10.5386523,25.5690636 L20.2207476,28.7786532 L20.3690619,28.6919976 L14.1631889,23.4776644 L17.7127349,21.4279265 Z M36.2601965,10.7196292 L44.1758509,18.6236185 L40.403,20.8016733 L31.0092013,17.7987239 L30.8958825,17.8637156 L36.25853,23.1947006 L32.4490172,25.3944193 L18.549128,20.9449883 L22.1536671,18.8635878 L31.3341597,22.3614738 L31.4841406,22.2764847 L25.7598726,16.7821873 L29.0861139,14.8607663 L38.7682091,18.0703559 L38.9181899,17.9837003 L32.7106504,12.7693671 L36.2601965,10.7196292 Z M54.8269889,-7.42017559e-14 L62.7226459,7.91565443 L58.9514614,10.0937092 L49.5759937,7.0807612 L49.4460103,7.15408516 L54.805325,12.4867366 L50.9958121,14.6864553 L37.1142539,10.2253591 L40.700462,8.15562375 L49.9009521,11.6418446 L50.0492665,11.5568555 L44.308334,6.07422325 L47.6529063,4.14113711 L57.3350015,7.35072668 L57.4649849,7.27573627 L51.2774428,2.04973789 L54.8269889,-7.42017559e-14 Z" id="www"></path>
                </g>
                <g id="Group-40" transform="translate(52.0987, 15.0376)">
                    <path d="M8.77254486,108.430134 C8.77254486,110.173245 11.227231,111.586397 14.2535106,111.586397 C17.2781239,111.586397 19.73281,110.173245 19.73281,108.430134 C19.73281,106.687024 17.2781239,105.273871 14.2535106,105.273871 C11.227231,105.273871 8.77254486,106.687024 8.77254486,108.430134" id="Fill-23"></path>
                    <path d="M26.4037902,98.2516025 C26.4037902,99.994713 28.8568099,101.407866 31.8830895,101.407866 C34.9093692,101.407866 37.3623889,99.994713 37.3623889,98.2516025 C37.3623889,96.5084921 34.9093692,95.0953395 31.8830895,95.0953395 C28.8568099,95.0953395 26.4037902,96.5084921 26.4037902,98.2516025" id="Fill-25"></path>
                    <polygon id="Fill-27" fill-opacity="0.2" points="312.568363 4.7363459e-14 78.1400077 135.347692 0 150.387436 234.426689 15.0430763"></polygon>
                    <polygon id="Fill-29" fill-opacity="0.4" points="104.188343 120.307782 26.0450028 135.347525 52.0783404 120.307782 130.236679 105.273038"></polygon>
                    <polygon id="Fill-31" fill-opacity="0.4" points="156.276516 90.2554584 78.139841 105.271871 104.173179 90.2554584 182.323185 75.2207143"></polygon>
                    <polygon id="Fill-33" fill-opacity="0.4" points="208.379186 60.1543076 130.237512 75.1957175 156.269183 60.1559741 234.427522 45.1195636"></polygon>
                    <polygon id="Fill-35" fill-opacity="0.4" points="260.459027 30.0734876 182.332351 45.1198969 208.365688 30.0801534 286.507362 15.0387436"></polygon>
                    <g id="Group-39" transform="translate(286.5184, 210.5444)">
                        <polygon id="Fill-37" points="234.425022 0 286.520027 30.0744875 52.0950049 165.418847 0 135.341026"></polygon>
                    </g>
                </g>
            </g>
        </g>
    </g>
</svg>