<?xml version="1.0" encoding="UTF-8"?>
<svg width="576px" height="361px" viewBox="0 0 576 361" version="1.1" xmlns="http://www.w3.org/2000/svg" xmlns:xlink="http://www.w3.org/1999/xlink">
    <title>icon</title>
    <g id="🟢-Updated-Pages" stroke="none" stroke-width="1" fill="none" fill-rule="evenodd">
        <g id="What-is-eCommerce?" transform="translate(-611, -15279)">
            <g id="More_Start-eCommerce" transform="translate(611.2132, 15062)">
                <g id="icon" transform="translate(0, 217.5882)">
                    <polygon id="Fill-1" fill-opacity="0.2" fill="#58517B" points="527.610587 180.005524 311.770157 304.616187 311.771692 332.307787 527.610587 207.697123"></polygon>
                    <polygon id="Fill-2" fill="#FFFFFF" points="0.00153433065 152.313003 311.772919 332.306866 311.771385 304.616801 0 124.61987"></polygon>
                    <polygon id="Fill-3" fill="#FFFFFF" points="119.913157 193.847488 47.9668585 152.308554 119.913157 138.46122"></polygon>
                    <path d="M287.783046,152.309014 L335.761565,124.617415 L455.675643,193.841811 L407.859762,221.634676 L287.783046,152.309014 Z M239.835213,235.394553 L191.850556,207.68761 L239.835213,179.994476 L287.799923,207.68761 L239.835213,235.394553 Z M335.756962,69.2342156 L119.913464,193.847948 L311.770771,304.617415 L527.611201,180.005217 L335.756962,69.2342156 Z" id="Fill-4" fill="#F3F2FB"></path>
                    <polygon id="Path-2" fill-opacity="0.4" fill="#58517B" points="335.76847 124.61987 455.675643 193.84135 407.704028 221.634676 287.783046 152.30748"></polygon>
                    <polygon id="Path-3" fill-opacity="0.4" fill="#58517B" points="239.835366 179.994476 287.783046 207.69697 239.835366 235.394553 191.86145 207.68761"></polygon>
                    <polygon id="Fill-5" fill-opacity="0.2" fill="#58517B" points="119.913157 138.461834 335.758189 13.8496356 335.756655 69.234369 119.913157 193.848101"></polygon>
                    <polygon id="Fill-6" fill="#FFFFFF" points="335.762332 96.9314921 335.76847 124.623092 455.674875 193.84135 479.645723 180.001688"></polygon>
                    <polygon id="Fill-7" fill-opacity="0.2" fill="#58517B" points="335.760798 124.617568 287.782278 152.309168 263.806828 138.461834 335.754661 96.9259685"></polygon>
                    <polygon id="Fill-8" fill="#FFFFFF" points="239.827695 152.30748 239.835366 179.994476 287.801611 207.68761 311.772459 193.846414"></polygon>
                    <polygon id="Fill-9" fill-opacity="0.2" fill="#58517B" points="239.827695 152.30748 167.878328 193.846414 191.849175 207.68761 239.835366 179.994476"></polygon>
                    <polygon id="Fill-10" fill="#F3F2FB" points="215.834446 0 0.00168776371 124.616801 47.9663982 152.3084 263.809896 27.6962025"></polygon>
                    <path d="M40.1878021,123.050249 C40.1878021,124.655159 42.4463368,125.956272 45.2326812,125.956272 C48.0190257,125.956272 50.2775604,124.655159 50.2775604,123.050249 C50.2775604,121.445339 48.0190257,120.144227 45.2326812,120.144227 C42.4463368,120.144227 40.1878021,121.445339 40.1878021,123.050249 M177.841657,41.8484081 L185.111316,49.1364787 L181.639125,51.1418489 L173.006981,48.3677791 L172.887303,48.4352896 L177.821711,53.3451477 L174.332643,55.3597238 L161.533257,51.263061 L164.836671,49.3574223 L173.306176,52.567242 L173.442731,52.4889912 L168.156962,47.4410433 L171.236364,45.6612198 L180.150825,48.6163406 L180.28738,48.5365554 L174.573533,43.7356348 L177.841657,41.8484081 Z M194.918604,31.9891063 L202.206674,39.2664365 L198.73295,41.2718067 L190.083928,38.5069428 L189.979593,38.5667817 L194.917069,43.4751055 L191.40959,45.5004219 L178.611738,41.4037591 L181.930495,39.4873801 L190.383122,42.7079402 L190.521212,42.6296893 L185.250786,37.5710012 L188.31331,35.8019179 L197.227771,38.7570387 L197.365861,38.6772535 L191.650479,33.8763329 L194.918604,31.9891063 Z M212.013349,22.1193709 L219.283007,29.4074415 L215.810817,31.4128117 L207.178673,28.6387418 L207.058995,28.7062524 L211.993402,33.6161105 L208.485923,35.6414269 L195.704948,31.5340238 L199.006828,29.6283851 L207.477867,32.8382048 L207.614423,32.759954 L202.328654,27.7120061 L205.408055,25.9321826 L214.322516,28.8873034 L214.442194,28.8182585 L208.745224,24.0065976 L212.013349,22.1193709 Z M56.0451093,113.678711 C56.0451093,115.283621 58.3051784,116.584733 61.0915228,116.584733 C63.8763329,116.584733 66.136402,115.283621 66.136402,113.678711 C66.136402,112.073801 63.8763329,110.772689 61.0915228,110.772689 C58.3051784,110.772689 56.0451093,112.073801 56.0451093,113.678711 M72.278481,104.307173 C72.278481,105.912083 74.5370157,107.213195 77.3233602,107.213195 C80.1097046,107.213195 82.3682394,105.912083 82.3682394,104.307173 C82.3682394,102.702263 80.1097046,101.401151 77.3233602,101.401151 C74.5370157,101.401151 72.278481,102.702263 72.278481,104.307173" id="Combined-Shape" fill-opacity="0.4" fill="#58517B"></path>
                    <g id="Group-22" transform="translate(161.5333, 22.1194)"></g>
                    <g id="Group-40" transform="translate(47.9681, 13.8453)">
                        <polygon id="Fill-27" fill="#F3F2FB" points="287.786728 0 71.9447641 124.616801 0 138.464135 215.84043 13.8504028"></polygon>
                        <polygon id="Fill-29" fill="#FFFFFF" points="95.9278865 110.769313 23.9800537 124.616647 47.9493671 110.769313 119.911009 96.9265823"></polygon>
                        <polygon id="Fill-31" fill="#FFFFFF" points="143.886306 83.0996548 71.9446107 96.9255082 95.9139241 83.0996548 167.867894 69.2569237"></polygon>
                        <polygon id="Fill-33" fill="#FFFFFF" points="191.858074 55.3850403 119.911776 69.2339087 143.879555 55.3865746 215.841197 41.5423092"></polygon>
                        <polygon id="Fill-35" fill="#FFFFFF" points="239.808822 27.6891446 167.876333 41.542616 191.845646 27.6952819 263.791945 13.8464135"></polygon>
                        <g id="Group-39" transform="translate(263.8021, 193.8516)" fill="#58517B" fill-opacity="0.4">
                            <polygon id="Fill-37" points="215.838895 0 263.803606 27.6900652 47.9647104 152.303797 0 124.610664"></polygon>
                        </g>
                    </g>
                </g>
            </g>
        </g>
    </g>
</svg>