<?xml version="1.0" encoding="UTF-8"?>
<svg width="160px" height="160px" viewBox="0 0 160 160" version="1.1" xmlns="http://www.w3.org/2000/svg" xmlns:xlink="http://www.w3.org/1999/xlink">
    <title>Brand/Illustrations/Calender</title>
    <g id="Brand/Illustrations/Calender" stroke="none" stroke-width="1" fill="none" fill-rule="evenodd">
        <rect id="background" fill-opacity="0" fill="#FFFFFF" fill-rule="nonzero" x="0" y="0" width="160" height="160"></rect>
        <g id="icon" transform="translate(30.7296, 16)">
            <polygon id="Fill-1" fill="#7ACEF0" points="-3.55271368e-15 106.665682 12.3119736 113.77326 12.3119736 42.661229 -3.55271368e-15 35.5536511"></polygon>
            <polygon id="Fill-2" fill="#4C34BB" points="12.313471 113.773732 73.907226 78.2192932 73.907226 7.10805078 12.313471 42.6624899"></polygon>
            <polygon id="Fill-3" fill="#FFFFFF" points="61.5907604 -3.55271368e-14 0.000157613437 35.5536511 12.3152835 42.6580767 73.9066744 7.10284954"></polygon>
            <polygon id="Fill-4" fill="#24156D" points="12.3198543 113.774599 36.9532584 128 98.5407089 92.4447728 73.9073048 78.219372"></polygon>
            <g id="Group" transform="translate(24.1447, 21.3942)" fill="#24156D" fill-opacity="0.4">
                <path d="M37.9264996,20.4008173 L37.9460962,35.7875326 L37.928,35.798 L37.9460962,50.0192379 L25.642,57.119 L13.321,64.232 L13.3212821,64.2483425 L0.0144844199,71.9280613 L3.45146134e-12,56.5609437 L0.013,56.552 L3.45146134e-12,42.3234067 L0.013,42.316 L3.45146134e-12,28.114713 L13.3016855,20.4153965 L13.32,34.697 L24.624,28.154 L24.6248141,28.1001338 L37.9264996,20.4008173 Z M12.303,50.598 L9.869,52.003 L0.999271821,57.1370835 L1.01227182,70.1970835 L12.3202718,63.6710835 L12.303,50.598 Z M10.8867772,53.3622265 C11.1142154,53.4545436 11.2368528,53.6952124 11.1883558,53.9272589 L11.162018,54.0135656 L7.31230977,63.4979541 C7.19104915,63.7966996 6.82927039,63.8981196 6.57282715,63.726956 L6.50575956,63.6734602 L4.54347226,61.8207142 C4.34268629,61.6311368 4.33359998,61.3146847 4.52317742,61.1138987 C4.6916907,60.9354223 4.9604506,60.9084123 5.15911301,61.0377598 L5.2299929,61.0936039 L6.66027182,62.4440835 L10.2354382,53.6374673 C10.3392948,53.3815994 10.6309092,53.2583699 10.8867772,53.3622265 Z M24.624,43.551 L13.321,50.074 L13.3332718,63.0710835 L24.638,56.547 L24.629,47.003 L24.624,43.551 Z M36.928,36.375 L31.262,39.644 L25.626,42.907 L25.6263995,42.973618 L25.641,55.966 L36.9452718,49.4410835 L36.928,36.375 Z M12.303,36.389 L0.999,42.913 L1.01227182,55.9590835 L9.96,50.795 L12.318,49.43 L12.311,42.323 L12.303,36.389 Z M35.8327546,46.0711355 C35.95549,46.2837069 35.9043927,46.5489435 35.7235648,46.7022368 L35.6497594,46.7541529 L27.7675114,51.3052409 C27.5283687,51.4433183 27.2225714,51.3613885 27.084494,51.1222458 C26.9617586,50.9096744 27.012856,50.6444378 27.1936838,50.4911445 L27.2674892,50.4392284 L35.1497372,45.8881404 C35.38888,45.7500631 35.6946773,45.8319928 35.8327546,46.0711355 Z M24.6082718,29.3190835 L13.3052718,35.8610835 L13.31,41.735 L13.319,48.856 L24.625,42.312 L24.6082718,29.3190835 Z M35.8327546,41.8171489 C35.95549,42.0297202 35.9043927,42.2949569 35.7235648,42.4482501 L35.6497594,42.5001663 L27.7675114,47.0512543 C27.5283687,47.1893316 27.2225714,47.1074019 27.084494,46.8682591 C26.9617586,46.6556878 27.012856,46.3904511 27.1936838,46.2371578 L27.2674892,46.1852417 L35.1497372,41.6341537 C35.38888,41.4960764 35.6946773,41.5780061 35.8327546,41.8171489 Z M23.3398407,39.2932849 C23.4625761,39.5058562 23.4114788,39.7710929 23.230651,39.9243862 L23.1568456,39.9763023 L15.2745976,44.5273903 C15.0354548,44.6654676 14.7296575,44.5835379 14.5915802,44.3443951 C14.4688448,44.1318238 14.5199421,43.8665871 14.7007699,43.7132939 L14.7745753,43.6613777 L22.6568233,39.1102897 C22.8959661,38.9722124 23.2017634,39.0541421 23.3398407,39.2932849 Z M12.3032718,22.1480835 L0.999271821,28.6910835 L1.012,41.737 L12.32,35.192 L12.3032718,22.1480835 Z M36.9282718,22.1330835 L25.6242718,28.6760835 L25.6372718,41.7360835 L31.126,38.567 L36.945,35.2 L36.9282718,22.1330835 Z M23.3398407,35.0392982 C23.4625761,35.2518696 23.4114788,35.5171062 23.230651,35.6703995 L23.1568456,35.7223156 L15.2745976,40.2734036 C15.0354548,40.411481 14.7296575,40.3295512 14.5915802,40.0904085 C14.4688448,39.8778371 14.5199421,39.6126005 14.7007699,39.4593072 L14.7745753,39.4073911 L22.6568233,34.8563031 C22.8959661,34.7182258 23.2017634,34.8001555 23.3398407,35.0392982 Z M34.3102617,25.8918594 C34.5376999,25.9841764 34.6603373,26.2248453 34.6118403,26.4568917 L34.5855025,26.5431984 L30.7357943,36.027587 C30.6145337,36.3263325 30.2527549,36.4277524 29.9963117,36.2565888 L29.9292441,36.203093 L27.9669568,34.3503471 C27.7661708,34.1607696 27.7570845,33.8443176 27.9466619,33.6435316 C28.1151752,33.4650552 28.3839351,33.4380452 28.5825975,33.5673926 L28.6534774,33.6232368 L30.0832718,34.9730835 L33.6589227,26.1671002 C33.7627794,25.9112322 34.0543938,25.7880027 34.3102617,25.8918594 Z M37.511178,0.250068671 C37.6339152,0.462638975 37.5828201,0.727876073 37.4019936,0.881170875 L37.3281886,0.933087628 L1.10468043,21.8483907 C0.865538842,21.9864701 0.559740839,21.904543 0.421661477,21.6654014 C0.298924267,21.4528311 0.350019343,21.187594 0.530845862,21.0342992 L0.604650833,20.9823824 L36.828159,0.0670793153 C37.0673006,-0.0710000464 37.3730986,0.0109270788 37.511178,0.250068671 Z M35.3997483,42.06716 L27.5175003,46.618248 M35.3997483,46.3211467 L27.5175003,50.8722347" id="Combined-Shape"></path>
            </g>
        </g>
    </g>
</svg>