<?xml version="1.0" encoding="UTF-8"?>
<svg width="32px" height="32px" viewBox="0 0 32 32" version="1.1" xmlns="http://www.w3.org/2000/svg" xmlns:xlink="http://www.w3.org/1999/xlink">
    <title>Icons/Deliver</title>
    <g id="Icons/Deliver" stroke="none" stroke-width="1" fill="none" fill-rule="evenodd">
        <path d="M25.4285974,13.4290515 C26.8487582,13.4290515 28.000026,14.5803193 28.000026,16.00048 L28.000026,24.5719086 C28.000026,25.0452955 27.6162701,25.4290515 27.1428831,25.4290515 L26.2857403,25.4290515 C26.2857403,26.8492123 25.1344725,28.00048 23.7143117,28.00048 C22.2941509,28.00048 21.1428831,26.8492123 21.1428831,25.4290515 L16.000026,25.4290515 C16.000026,26.8492122 14.8487582,28.00048 13.4285974,28.00048 C12.0084367,28.00048 10.8571689,26.8492122 10.8571689,25.4290515 L9.14288314,25.4290515 C8.66949621,25.4290515 8.28574028,25.0452955 8.28574028,24.5719086 L8.28574028,21.1433372 C8.28574028,18.7764025 10.2045199,16.8576229 12.5714546,16.8576229 L14.2857403,16.8576229 L14.2857403,16.00048 C14.2857403,14.5803193 15.4370081,13.4290515 16.8571689,13.4290515 Z M13.4285974,19.4290515 L11.7143117,19.4290515 C11.2409248,19.4290515 10.8571689,19.8128074 10.8571689,20.2861943 C10.8571689,20.7595813 11.2409248,21.1433372 11.7143117,21.1433372 L13.4285974,21.1433372 C13.9019844,21.1433372 14.2857403,20.7595813 14.2857403,20.2861943 C14.2857403,19.8128074 13.9019844,19.4290515 13.4285974,19.4290515 Z M19.8811689,9.59933718 C20.1027139,10.2743869 19.7350757,11.0012206 19.060026,11.2227657 C18.3849762,11.4443108 17.6581425,11.0766726 17.4365974,10.4016229 C16.7421967,8.31362477 14.8839111,6.82992992 12.6939922,6.61502589 C10.5040733,6.40012187 8.39281508,7.49427217 7.30576563,9.40745067 C6.21871617,11.3206292 6.35954043,13.6943909 7.66516885,15.4656229 C7.95736444,15.855217 8.00436497,16.3764609 7.78657524,16.8120404 C7.56878551,17.2476198 7.12359007,17.5227658 6.63659742,17.5227658 C6.23711595,17.5190678 5.85615893,17.3285893 5.61316885,17.0050515 C4.56181041,15.6026354 3.995566,13.8960795 3.99999985,12.1433372 C4.00075636,8.14307573 6.90643905,4.73551693 10.8563427,4.10278194 C14.8062463,3.47004694 18.6309356,5.79946756 19.8811689,9.59933718 Z M14.8703117,9.41590863 C15.3725752,9.91817216 15.3725752,10.7325022 14.8703117,11.2347658 L13.0514546,13.0519086 C12.8106055,13.2931009 12.483738,13.4286303 12.1428831,13.4286303 C11.8020283,13.4286303 11.4751608,13.2931009 11.2343117,13.0519086 C10.9931194,12.8110595 10.85759,12.484192 10.85759,12.1433372 C10.85759,11.8024823 10.9931194,11.4756148 11.2343117,11.2347658 L13.0514546,9.41590861 C13.5537181,8.9136451 14.3680482,8.91364511 14.8703117,9.41590863 Z" id="Combined-Shape" fill="#4C34BB"></path>
    </g>
</svg>