<?xml version="1.0" encoding="UTF-8"?>
<svg width="32px" height="32px" viewBox="0 0 32 32" version="1.1" xmlns="http://www.w3.org/2000/svg" xmlns:xlink="http://www.w3.org/1999/xlink">
    <title>Icons/Flag</title>
    <g id="Icons/Flag" stroke="none" stroke-width="1" fill="none" fill-rule="evenodd">
        <path d="M20.6154286,10.7028571 C20.4837563,10.5437037 20.4837563,10.3134391 20.6154286,10.1542857 L23.9874286,6.10857143 C24.3066203,5.72535447 24.3753956,5.19211531 24.1638841,4.7404501 C23.9523726,4.28878489 23.498737,4 23,4 L9.28571429,4 C8.57563389,4 8,4.57563389 8,5.28571429 L8,26.7142857 C8,27.4243661 8.57563389,28 9.28571429,28 C9.99579468,28 10.5714286,27.4243661 10.5714286,26.7142857 L10.5714286,17.2857143 C10.5714286,17.0490208 10.7633065,16.8571429 11,16.8571429 L23,16.8571429 C23.498737,16.8569559 23.9523726,16.568358 24.1638841,16.1166928 C24.3753956,15.6650276 24.3066203,15.1317884 23.9874286,14.7485714 L20.6154286,10.7028571 Z" id="Path" fill="#4C34BB"></path>
    </g>
</svg>