<?xml version="1.0" encoding="UTF-8"?>
<svg id="Layer_1" data-name="Layer 1" xmlns="http://www.w3.org/2000/svg" version="1.1" viewBox="0 0 68.9 114.6">
  <defs>
    <style>
      .cls-1 {
        fill: #7acef0;
      }

      .cls-1, .cls-2, .cls-3, .cls-4 {
        stroke-width: 0px;
      }

      .cls-2 {
        fill: #24156d;
      }

      .cls-3 {
        fill: #4c34bb;
      }

      .cls-4 {
        fill: #fff;
      }
    </style>
  </defs>
  <path id="Path_31" data-name="Path 31" class="cls-2" d="M16.9,104.7l17.2,9.9,20-11.5-17.2-9.9-20,11.5Z"/>
  <g id="Group_38" data-name="Group 38">
    <g id="Group_37" data-name="Group 37">
      <path id="Path_32" data-name="Path 32" class="cls-1" d="M57.5,6.6l-3.4-1.8v.2c-.7,0-1.2-.2-1.8-.2h.1s-1.6-.7-1.6-.7l-1-1.5c-.8-.4-1.5-.7-2.3-1-3.2-1.3-6.6-1.5-9.9-.8-4.3.9-8.4,2.7-12,5.2-7.1,4.9-13.1,11.4-17.4,19C2.8,34.2-.3,44,.2,54.8c.2,7.6,3.5,14.8,9.2,19.8,2.6,2.3,5.1,4.6,7.8,6.8,6.7,5.2,11.1,11.7,12.5,20.2.1.6.5,1.1,1,1.5,2.3,1.3,4.7,2.4,7.1,3.6.3.1.9.2,1,0,.2-.4.2-.8,0-1.2-.3-1-.7-1.9-1-2.9-1.1-4.3-3.4-8.3-6.5-11.4-3.8-3.7-7.9-7-11.8-10.5-3.3-2.7-5.9-6.2-7.8-10.1,0-.1-.1-.2-.2-.4l16.5,13.8-2.1-5.3-10-10.5-.6-5.5.6-5.9-1.9-11.2,1.6-5.9,3.9-6.5,6.3-9.3,9.5-9.1,7.9-6.5,8.2-3,3,4.5,3-3Z"/>
      <path id="Path_33" data-name="Path 33" class="cls-1" d="M26.2,55.7c1.1-.5,2.1-.9,3.1-1.4,5.1-2.6,8.6-6.8,11.2-11.7,2.9-5.4,4.4-11,2.9-17.1-.3-1.1.4-1.2,1.2-1.2,4.8-.2,8.3,2.8,9.1,7.8.9,5.3-.5,10.2-2.8,14.9-2.6,5.1-6.2,9.4-11.4,12.1-3.1,1.6-6.4,2.2-9.7.5-1.6-.8-2.9-2.1-3.5-3.8"/>
      <path id="Path_34" data-name="Path 34" class="cls-1" d="M49.8,2.6h0s0,0,0,0h0Z"/>
      <path id="Path_35" data-name="Path 35" class="cls-4" d="M54.1,4.8l-4.2-2.2h0s1,1.5,1,1.5l-1-1.5c-.8-.4-1.5-.7-2.3-1-3.2-1.3-6.6-1.5-9.9-.8-4.3.9-8.4,2.7-12,5.2l7.7,6,5,.2,4.9-4.1,8.2-3,3,4.5,3-3-3.4-1.8ZM53.1,4.8c-.3,0-.5,0-.8,0,.3,0,.5,0,.8,0M53.2,4.8c.3,0,.6,0,.8.1-.3,0-.6,0-.8-.1"/>
      <path id="Path_36" data-name="Path 36" class="cls-3" d="M50.2,4.8h.7c1.3,0,2.6.3,3.9.6,4.8,1.5,8.9,4.9,11.2,9.4,1.7,3.8,2.6,7.8,2.5,12,.2,7.7-1.8,14.9-4.6,22-3.6,8.9-8.5,17.1-13,25.6-5.2,9.6-9.8,19.5-11.6,30.4-.1.3-.3.6-.4.9-.2-.5-.3-.8-.4-1-1.2-4.8-3.1-9.3-6.6-12.8-3.9-3.9-8.2-7.4-12.4-11.1-3.3-2.7-5.9-6.1-7.7-10-2.9-6.8-3-13.8-1.9-20.9.8-4.9,2.3-9.6,4.4-14.1,2.9-6.4,6.8-12.4,11.7-17.5,5.4-5.7,11.6-10.3,19.3-12.4,1.6-.4,3.2-.6,4.9-.9M24.9,48.5c.3,2.7,0,5,1.8,6.8,1.1,1.1,2.1,2.6,3.4,3.3,3.1,1.8,6.2,1,9.1-.5,4.7-2.4,8-6.3,10.4-10.8,2.5-4.6,3.8-9.5,2.8-14.7-.5-2.4-1.4-4.6-3.6-6-3-1.9-6.8-1.9-9.9-.2-9,4.8-12.9,13-14.1,22.2"/>
    </g>
  </g>
</svg>