<?xml version="1.0" encoding="UTF-8"?>
<svg id="Layer_1" data-name="Layer 1" xmlns="http://www.w3.org/2000/svg" version="1.1" viewBox="0 0 69.7 96.9">
  <defs>
    <style>
      .cls-1 {
        fill: #7acef0;
      }

      .cls-1, .cls-2, .cls-3, .cls-4 {
        stroke-width: 0px;
      }

      .cls-2 {
        fill: #24156d;
      }

      .cls-3 {
        fill: #4c34bb;
      }

      .cls-4 {
        fill: #fff;
      }
    </style>
  </defs>
  <g id="Group_40" data-name="Group 40">
    <path id="Path_37" data-name="Path 37" class="cls-2" d="M51.3,87.9c0,4.8-10.7,8.8-23.8,8.8s-23.8-3.9-23.8-8.8,10.7-8.8,23.8-8.8,23.8,3.9,23.8,8.8"/>
    <path id="Path_38" data-name="Path 38" class="cls-1" d="M54.7,2.5C52.3,1,49.6.2,46.8,0c-5.1,0-10,1.4-14.4,4-3.3,1.8-6.3,4.1-9,6.8-2,2.1-4.2,4.1-6.1,6.3-4.8,5.6-8.8,11.9-11.7,18.7C1.6,45.1-.8,54.7.3,64.9c.3,3.8,1.7,7.4,3.8,10.6.5.6.6,1.4.4,2.2-.9,3.2-1.7,6.4-2.6,9.6l-.6,2,.9.4c1.5.8,2.9,1.7,4.4,2.5l.3.2h0c.1,0,.3.1.4.2l1.1.6.3-.7c0-.2.1-.3.2-.5h0c0-.2.1-.4.2-.7.9-3.2,2.8-6.5,3.6-9.7,0-.4,0-.8-.3-1.2-1.7-2.3-1.7-5-2.4-7.8-1.3-5.5-2.5-10.9-1.6-16.5,1.2-7.4,3.6-14.5,7.1-21.1,2.7-5.3,6-10.2,9.8-14.7,4.9-5.4,10.8-9.7,17.3-12.7,3.4-1.8,7.2-2.8,11.1-2.9,1.4,0,4.3.7,5.8.8-.9-.6-3.9-2.3-4.8-2.8"/>
    <path id="Path_39" data-name="Path 39" class="cls-4" d="M26,42.8c0-3.4.7-6.8,2.1-9.9.5-1.1,1.1-2.2,1.7-3.3.7-.9,1.8-1.2,2.8-1,.5.2.9.6,1.1,1.1.6,2.5,1,5.1,1.5,7.7.2,1.6-.2,3.3-1.3,4.5-1.1,1.5-1.2,3.5-.3,5.1.9,2.9,3.1,5.2,5.9,6.3.9.3,1.6-.1,2.1-1.2.7-1.6,1.4-3.2,2.2-4.8.3-.8,1.3-1.3,2.1-1,0,0,.1,0,.2.1,1,.4,2,.9,3,1.3,1.3.3,2,1.6,1.7,2.9,0,.1,0,.2-.1.3-.2.8-.3,1.6-.4,2.4-.7,3.1-2.3,5.9-4.6,8-1.7,1.6-3.8,1.8-6,1.5-2.2-.3-4.3-1.2-6.1-2.6-2.2-1.8-3.9-4-4.9-6.6-1.2-2.9-2.1-5.9-2.6-9.1,0-.7-.1-1.3-.1-1.7"/>
    <path id="Path_40" data-name="Path 40" class="cls-3" d="M68.5,16.7c-.7-2.8-2.1-5.5-4.1-7.6-1.7-1.9-3.9-3.4-6.3-4.3-4.1-1.4-8.1-.8-12.1.5-4.4,1.6-8.6,3.9-12.2,6.9-3.5,2.8-6.8,6-9.6,9.4-3.6,4.4-6.8,9.2-9.4,14.3-5,9.8-8.2,20-7.6,31.1,0,4.7,1.6,9.3,4.3,13.2.3.4.4.9.3,1.4-.6,2.5-1.3,5-2,7.5-.3,1-.6,1.8-.9,2.7l-.5,1.3,1.4-1.2c.7-.5,1.4-.9,2-1.4.8-.6,1.6-1.4,2.4-2,.9-.7,2-1.4,2.9-2.2.8-.9,2-1.2,3.1-.9.5.1,1,.2,1.6.3,4.5.6,8.6-.6,12.6-2.4,4.8-2.3,9.2-5.3,13-9.1,3.9-3.7,7.3-7.8,10.2-12.3,2.4-3.8,4.5-7.7,6.4-11.7,1.5-3.4,2.8-6.9,3.8-10.5.8-2.7,1.3-5.5,1.7-8.4.8-4.9.5-10-.8-14.8M50.8,51c-.2.8-.3,1.6-.4,2.4-.7,3.1-2.3,5.9-4.6,8-1.7,1.6-3.8,1.8-6,1.5-2.2-.3-4.3-1.2-6.1-2.6-2.2-1.8-3.9-4-4.9-6.6-1.2-2.9-2.1-5.9-2.6-9.1,0-.7-.1-1.3-.1-1.7,0-3.4.7-6.8,2.1-9.9.5-1.1,1.1-2.2,1.7-3.3.7-.9,1.8-1.2,2.8-1,.5.2.9.6,1.1,1.1.6,2.5,1,5.1,1.5,7.7.2,1.6-.2,3.3-1.3,4.5-1.1,1.5-1.2,3.5-.3,5.1.9,2.9,3.1,5.2,5.9,6.3.9.3,1.6,0,2.1-1.2.7-1.6,1.4-3.2,2.2-4.8.3-.8,1.3-1.3,2.1-1,0,0,.1,0,.2.1,1,.4,2,.9,3,1.3,1.3.3,2,1.6,1.7,2.9,0,.1,0,.2-.1.3"/>
  </g>
</svg>