<?xml version="1.0" encoding="UTF-8"?>
<svg width="32px" height="32px" viewBox="0 0 32 32" version="1.1" xmlns="http://www.w3.org/2000/svg" xmlns:xlink="http://www.w3.org/1999/xlink">
    <title>Icons/Eye-Hide</title>
    <g id="Icons/Eye-Hide" stroke="none" stroke-width="1" fill="none" fill-rule="evenodd">
        <path d="M23.9733349,6.7623313 C24.3580807,7.15214576 24.3560403,7.7720985 23.9732752,8.15486366 L7.35350545,24.7746334 C6.973981,25.1541578 6.35865029,25.1541578 5.97912584,24.7746334 C5.59438006,24.3848189 5.59642043,23.7648662 5.97918558,23.382101 L8.00545546,21.3568486 C6.23563592,19.9533638 4.84202893,18.0946151 4,15.9579059 C5.88727273,11.168815 10.5454545,7.7760877 16,7.7760877 C17.6585282,7.7760877 19.2434288,8.08976098 20.6991935,8.66098561 L22.5989553,6.7623313 C22.9784798,6.38280685 23.5938105,6.38280685 23.9733349,6.7623313 Z M24.3943842,10.8892773 C25.9745421,12.2487193 27.2224436,13.9848004 28,15.9579059 C26.1127273,20.7469968 21.4545455,24.1397241 16,24.1397241 C14.5416072,24.1397241 13.1401447,23.8971855 11.8333536,23.4502665 L14.1817454,21.1016702 C14.7505336,21.3029225 15.3625536,21.4124513 16,21.4124513 C19.0109091,21.4124513 21.4545455,18.968815 21.4545455,15.9579059 C21.4545455,15.3203409 21.3449758,14.7082117 21.143652,14.1393338 L24.3943842,10.8892773 Z M19.2722889,16.0121875 C19.2444188,17.7363598 17.8911337,19.1314067 16.1841953,19.2255667 L16.053,19.2290877 L19.2722889,16.0121875 Z M16,10.5033604 C12.9890909,10.5033604 10.5454545,12.9469968 10.5454545,15.9579059 C10.5454545,16.7925721 10.7332422,17.5836448 11.0688448,18.2911513 L12.785089,16.5751362 C12.7471322,16.37531 12.7272727,16.1689792 12.7272727,15.9579059 C12.7272727,14.1469968 14.1890909,12.6851786 16,12.6851786 C16.211191,12.6851786 16.4176342,12.7050602 16.6175647,12.7430584 L18.3338565,11.0270406 C17.6261944,10.6912562 16.8349066,10.5033604 16,10.5033604 Z" id="Combined-Shape" fill="#4C34BB"></path>
    </g>
</svg>