<?xml version="1.0" encoding="UTF-8"?>
<svg width="410px" height="400px" viewBox="0 0 410 400" version="1.1" xmlns="http://www.w3.org/2000/svg" xmlns:xlink="http://www.w3.org/1999/xlink">
    <title>Illustration-inComplete-eCommerce-System</title>
    <g id="🟢-Updated-Pages" stroke="none" stroke-width="1" fill="none" fill-rule="evenodd">
        <g id="What-is-eCommerce?" transform="translate(-803, -4824)">
            <g id="eCommerce-Parts" transform="translate(51, 3174)">
                <g id="Compare" transform="translate(179.775, 1650)">
                    <g id="Illustration-inComplete-eCommerce-System" transform="translate(572.968, 0)">
                        <g id="Brand/Illustrations/H-Store-Copy-2" transform="translate(9.032, 0)">
                            <rect id="background" fill-opacity="0" fill="#FFFFFF" fill-rule="nonzero" x="0" y="0" width="400" height="400"></rect>
                            <g id="Thin" transform="translate(40.1184, 99.9998)">
                                <polygon id="Fill-1" fill="#4C34BB" points="293.116993 100.003069 173.205643 169.231215 173.206495 184.615437 293.116993 115.387291"></polygon>
                                <polygon id="Fill-2" fill="#7ACEF0" points="0.000852405916 84.6183353 173.207177 184.614926 173.206325 169.231556 0 69.2332609"></polygon>
                                <polygon id="Fill-3" fill="#7ACEF0" points="66.6184205 107.693049 26.6482547 84.6158633 66.6184205 76.9228999"></polygon>
                                <path d="M159.87947,84.616119 L186.534203,69.231897 L253.153135,107.689895 L226.588757,123.130375 L159.87947,84.616119 Z M133.241785,130.774752 L106.583642,115.382006 L133.241785,99.9969313 L159.888846,115.382006 L133.241785,130.774752 Z M186.531646,38.4634531 L66.618591,107.693304 L173.205984,169.231897 L293.117334,100.002898 L186.531646,38.4634531 Z" id="Fill-4" fill="#FFFFFF"></path>
                                <polygon id="Path-2" fill="#24156D" points="186.538039 69.2332609 253.153135 107.689639 226.502238 123.130375 159.87947 84.6152666"></polygon>
                                <polygon id="Path-3" fill="#24156D" points="133.24187 99.9969313 159.87947 115.387205 133.24187 130.774752 106.589694 115.382006"></polygon>
                                <polygon id="Fill-5" fill="#4C34BB" points="66.6184205 76.9232408 186.532327 7.694242 186.531475 38.4635383 66.6184205 107.69339"></polygon>
                                <polygon id="Fill-6" fill="#7ACEF0" points="186.534629 53.850829 186.538039 69.2350509 253.152709 107.689639 266.469846 100.000938"></polygon>
                                <polygon id="Fill-7" fill="#4C34BB" points="186.533777 69.2319823 159.879044 84.6162042 146.559349 76.9232408 186.530367 53.8477603"></polygon>
                                <polygon id="Fill-8" fill="#7ACEF0" points="133.237608 84.6152666 133.24187 99.9969313 159.889784 115.382006 173.206922 107.692452"></polygon>
                                <polygon id="Fill-9" fill="#4C34BB" points="133.237608 84.6152666 93.2657375 107.692452 106.582875 115.382006 133.24187 99.9969313"></polygon>
                                <polygon id="Fill-10" fill="#FFFFFF" points="119.908025 0 0.000937646507 69.2315561 26.647999 84.615778 146.561054 15.3867792"></polygon>
                                <path d="M22.3265567,68.3612496 C22.3265567,69.2528662 23.5812982,69.9757064 25.1292674,69.9757064 C26.6772365,69.9757064 27.931978,69.2528662 27.931978,68.3612496 C27.931978,67.469633 26.6772365,66.7467928 25.1292674,66.7467928 C23.5812982,66.7467928 22.3265567,67.469633 22.3265567,68.3612496 M98.8009206,23.2491156 L102.83962,27.2980437 L100.910625,28.4121383 L96.1149896,26.8709884 L96.0485019,26.9084942 L98.7898393,29.6361932 L96.8514683,30.7554021 L89.7406981,28.4794783 L91.5759281,27.4207902 L96.2812087,29.2040234 L96.3570728,29.1605507 L93.4205345,26.3561352 L95.1313131,25.3673443 L100.083792,27.0090781 L100.159656,26.964753 L96.985296,24.2975749 L98.8009206,23.2491156 Z M108.288113,17.7717257 L112.337041,21.814687 L110.407194,22.9287815 L105.602182,21.392746 L105.544219,21.4259899 L108.287261,24.1528364 L106.338661,25.2780122 L99.2287431,23.0020884 L101.072497,21.9374334 L105.768401,23.7266334 L105.845118,23.6831607 L102.917104,20.8727784 L104.618506,19.8899544 L109.570984,21.5316882 L109.647701,21.4873631 L106.472489,18.820185 L108.288113,17.7717257 Z M117.785194,12.2885394 L121.823893,16.3374675 L119.894898,17.451562 L115.099263,15.9104121 L115.032775,15.947918 L117.774112,18.6756169 L115.825513,19.8007927 L108.724971,17.5189021 L110.559349,16.460214 L115.265482,18.2434471 L115.341346,18.1999744 L112.404808,15.395559 L114.115586,14.4067681 L119.068065,16.0485019 L119.134552,16.0101436 L115.969569,13.3369987 L117.785194,12.2885394 Z M31.1361718,63.1548395 C31.1361718,64.0464561 32.3917658,64.7692963 33.9397349,64.7692963 C35.4868516,64.7692963 36.7424456,64.0464561 36.7424456,63.1548395 C36.7424456,62.2632229 35.4868516,61.5403827 33.9397349,61.5403827 C32.3917658,61.5403827 31.1361718,62.2632229 31.1361718,63.1548395 M40.1547117,57.9484294 C40.1547117,58.840046 41.4094532,59.5628862 42.9574223,59.5628862 C44.5053915,59.5628862 45.760133,58.840046 45.760133,57.9484294 C45.760133,57.0568129 44.5053915,56.3339726 42.9574223,56.3339726 C41.4094532,56.3339726 40.1547117,57.0568129 40.1547117,57.9484294" id="Combined-Shape" fill="#24156D"></path>
                                <g id="Group-22" transform="translate(89.7407, 12.2885)"></g>
                                <g id="Group-40" transform="translate(26.6489, 7.6919)">
                                    <polygon id="Fill-27" fill="#FFFFFF" points="159.881516 0 39.9693134 69.2315561 0 76.9245195 119.91135 7.6946682"></polygon>
                                    <polygon id="Fill-29" fill="#7ACEF0" points="53.2932703 61.5385074 13.3222521 69.2314708 26.6385373 61.5385074 66.6172271 53.8481013"></polygon>
                                    <polygon id="Fill-31" fill="#7ACEF0" points="79.9368367 46.1664749 39.9692281 53.8475046 53.2855134 46.1664749 93.2599412 38.4760687"></polygon>
                                    <polygon id="Fill-33" fill="#7ACEF0" points="106.587819 30.7694668 66.6176533 38.4632826 79.9330861 30.7703192 119.911776 23.0790606"></polygon>
                                    <polygon id="Fill-35" fill="#7ACEF0" points="133.227124 15.3828581 93.2646294 23.0792311 106.580915 15.3862677 146.55108 7.69245195"></polygon>
                                    <g id="Group-39" transform="translate(146.5567, 107.6954)" fill="#24156D">
                                        <polygon id="Fill-37" points="119.910497 0 146.557559 15.3833696 26.6470613 84.6132208 0 69.2281464"></polygon>
                                    </g>
                                </g>
                            </g>
                        </g>
                        <g id="product-line" transform="translate(253.9893, 55.49)" fill="#FFFFFF">
                            <polygon id="Fill-1" fill-opacity="0.4" points="105.648408 83.08252 111.900008 79.47332 111.900408 28.93852 105.648808 32.55132"></polygon>
                            <path d="M80.6394085,18.10948 L105.648608,32.55148 L105.648208,83.08268 L80.6390085,68.64308 L80.6389285,68.63948 L93.1159285,61.42648 L99.3948885,65.03488 L99.3948885,43.37648 L86.8912885,36.15808 L86.8809285,43.38348 L80.6389285,46.98748 L80.6394085,18.10948 Z" id="Combined-Shape" fill-opacity="0.6"></path>
                            <polygon id="Fill-3" fill-opacity="0.8" points="86.8918085 14.5 80.6394085 18.1092 105.649008 32.5516 111.900208 28.9384"></polygon>
                            <polygon id="Fill-4" fill-opacity="0.4" points="68.1347285 104.73996 74.3875285 101.27796 74.3875285 50.74396 68.1347285 54.20596"></polygon>
                            <polygon id="Fill-5" fill-opacity="0.1" points="68.1347285 104.74012 74.3875285 108.34972 80.6391285 104.74052 74.3875285 101.13052"></polygon>
                            <polygon id="Fill-6" fill-opacity="0.1" points="105.648528 83.08252 111.900128 86.69252 118.152128 83.08332 118.152128 83.08292 111.900128 79.47372"></polygon>
                            <polygon id="Fill-7" fill-opacity="0.8" points="30.6218085 32.54816 68.1350085 54.20616 74.3874085 50.59616 36.8742085 28.93816"></polygon>
                            <path d="M30.6219685,32.54828 L68.1347685,54.20588 L68.1347685,104.73948 L43.127,90.30128 L55.626,83.08528 L61.8823685,86.69268 L61.8823685,57.81548 L43.1263685,47.00308 L43.127,68.64328 L30.621,75.86428 L30.6219685,32.54828 Z" id="Combined-Shape" fill-opacity="0.6"></path>
                            <path d="M36.8752885,43.39412 L43.1268885,47.00292 L43.1262885,68.64412 L36.8772885,72.25212 L36.8752885,43.39412 Z" id="Combined-Shape" fill-opacity="0.4"></path>
                            <path d="M55.631,83.08332 L61.8825285,86.69276 L61.8829285,93.91156 L49.379,86.69232 L55.631,83.08332 Z" id="Combined-Shape" fill-opacity="0.4"></path>
                            <polygon id="Fill-12" fill-opacity="0.8" points="74.3869285 65.03492 99.3958085 50.59648 86.8914085 43.37768 74.3869285 50.59652"></polygon>
                            <path d="M61.8822485,57.81532 L61.8822485,72.25412 L12.502,100.76232 L0,93.54332 L61.8822485,57.81532 Z" id="Combined-Shape" fill-opacity="0.8"></path>
                            <polygon id="Fill-14" fill-opacity="0.4" points="99.3956485 50.5956 99.3944485 57.7976 74.3872485 72.254 74.3872485 65.034"></polygon>
                            <path d="M61.8820485,72.25396 L61.8820485,79.47356 L18.755,104.37296 L12.503,100.76196 L61.8820485,72.25396 Z" id="Combined-Shape" fill-opacity="0.4"></path>
                            <polygon id="Fill-16" fill-opacity="0.1" points="55.6304085 83.08272 61.8824085 86.69272 55.6304085 90.29952 49.3780085 86.69232"></polygon>
                            <polygon id="Fill-19" fill-opacity="0.4" points="82.3499685 57.81572 88.6019685 54.20612 88.6019685 46.98692 82.3499685 50.59612"></polygon>
                            <polygon id="Fill-20" fill-opacity="0.1" points="84.6206485 59.12784 90.8726485 55.51824 88.6018485 54.20584 82.3498485 57.81584"></polygon>
                            <polygon id="Fill-21" fill-opacity="0.6" points="76.0976085 54.20596 82.3500085 57.81556 82.3500085 50.59636 76.0976085 46.98676"></polygon>
                            <polygon id="Fill-22" points="76.0976085 46.98684 82.3500085 50.59644 88.6020085 46.98684 82.3500085 43.37764"></polygon>
                            <polygon id="Fill-25" fill-opacity="0.8" points="82.3507285 43.37784 88.6035285 46.98744 82.3503285 50.59624 76.0963285 46.98704"></polygon>
                            <polygon id="Fill-26" fill-opacity="0.4" points="47.9358885 77.6544 54.1882885 74.0448 54.1882885 66.8256 47.9358885 70.4348"></polygon>
                            <polygon id="Fill-27" fill-opacity="0.1" points="50.2066085 78.96652 56.4590085 75.35692 54.1882085 74.04452 47.9358085 77.65452"></polygon>
                            <polygon id="Fill-28" fill-opacity="0.6" points="41.6839285 74.04464 47.9359285 77.65424 47.9359285 70.43504 41.6839285 66.82544"></polygon>
                            <polygon id="Fill-29" points="41.6839285 66.82548 47.9359285 70.43508 54.1883285 66.82548 47.9359285 63.21628"></polygon>
                            <polygon id="Fill-32" fill-opacity="0.8" points="47.9370485 63.21652 54.1894485 66.82612 47.9362485 70.43492 41.6822485 66.82572"></polygon>
                            <polygon id="Fill-33" fill-opacity="0.4" points="26.0683285 90.2796 32.3207285 86.67 32.3207285 79.4508 26.0683285 83.0604"></polygon>
                            <polygon id="Fill-34" fill-opacity="0.1" points="28.3390085 91.59172 34.5914085 87.98212 32.3206085 86.67012 26.0682085 90.27972"></polygon>
                            <polygon id="Fill-35" fill-opacity="0.6" points="19.8163685 86.67004 26.0683685 90.27964 26.0683685 83.06044 19.8163685 79.45044"></polygon>
                            <polygon id="Fill-36" points="19.8163685 79.45088 26.0683685 83.06048 32.3207685 79.45088 26.0683685 75.84168"></polygon>
                            <polygon id="Fill-39" fill-opacity="0.8" points="26.0694885 75.84172 32.3218885 79.45172 26.0686885 83.06052 19.8146885 79.45132"></polygon>
                            <path d="M79.9430328,0.0322183031 C80.4436295,-0.0978482221 80.9542562,0.177205798 81.1278124,0.65345029 L81.1563194,0.745054046 L83.0176923,7.90905847 C83.155888,8.44094246 82.8367406,8.98414937 82.3048566,9.12234505 C81.8042599,9.25241158 81.2936332,8.97735756 81.120077,8.50111307 L81.09157,8.40950931 L79.230197,1.24550488 C79.0920013,0.713620892 79.4111488,0.170413986 79.9430328,0.0322183031 Z M122.787218,28.3286441 C122.618829,27.839605 122.853571,27.3092367 123.314967,27.0993708 L123.404092,27.0638652 L130.402697,24.6540523 C130.922301,24.4751382 131.488562,24.7513221 131.667476,25.2709262 C131.835866,25.7599653 131.601124,26.2903336 131.139727,26.5001994 L131.050602,26.5357051 L124.051997,28.945518 C123.532393,29.124432 122.966133,28.8482482 122.787218,28.3286441 Z M104.788188,13.8660957 C104.367533,13.5686433 104.247609,13.0042954 104.495694,12.5651976 L104.550238,12.4791642 L108.049541,7.53047804 C108.366823,7.08177949 108.987774,6.9752458 109.436472,7.29252838 C109.857127,7.5899808 109.977051,8.15432877 109.728966,8.59342655 L109.674422,8.67945992 L106.175119,13.6281461 C105.857837,14.0768446 105.236886,14.1833783 104.788188,13.8660957 Z" id="Combined-Shape" fill-rule="nonzero"></path>
                        </g>
                        <g id="customer-service" transform="translate(56.7399, 7.3831)">
                            <g id="customer_service-copy">
                                <path d="M50.0168,57.75732 L50.01808,64.97532 L31.2638,75.80212 L25.0138,72.19212 L50.0168,57.75732 Z M31.26048,25.26732 L50.01728,36.09652 L50.0168,57.75632 L37.514,50.53636 L31.2638,54.14532 L31.26048,25.26732 Z" id="Combined-Shape" fill-opacity="0.6" fill="#FFFFFF"></path>
                                <polygon id="Fill-2" fill-opacity="0.6" fill="#FFFFFF" points="50.01772 0 31.26052 25.2672 50.01732 36.0964 68.77452 10.8292"></polygon>
                                <polygon id="Fill-3" fill-opacity="0.4" fill="#FFFFFF" points="68.77392 10.82916 50.01712 36.09636 50.01752 64.97316 62.52552 57.75196 62.52312 43.31596 75.02632 36.09636 75.02952 50.53276 87.53032 43.31556 87.53032 21.65796"></polygon>
                                <path d="M87.53024,43.31564 L100.03424,50.53484 L62.52184,72.19244 L56.27144,68.58404 L37.46544,79.44204 L31.25224,75.80964 L50.01824,64.97524 L50.50504,65.25484 L50.01784,64.97324 L62.52544,57.75204 L62.52544,50.53524 L68.77424,46.92664 L75.0294,50.53284 L75.02724,43.31664 L75.02944,50.53284 L87.53024,43.31564 Z" id="Combined-Shape" fill-opacity="0.1" fill="#FFFFFF"></path>
                                <polygon id="Fill-6" fill-opacity="0.6" fill="#FFFFFF" points="75.0294 50.53284 68.7686 46.92404 68.7778 39.70444 75.0262 36.09644"></polygon>
                                <polygon id="Fill-7" fill-opacity="0.1" fill="#FFFFFF" points="81.26688 29.00532 78.15008 27.20532 75.03168 29.00532 75.03208 32.60532"></polygon>
                                <polygon id="Fill-8" fill-opacity="0.6" fill="#FFFFFF" points="81.26688 29.00532 78.15008 27.20532 78.15008 23.60492 81.26688 21.80572"></polygon>
                                <polygon id="Fill-10" fill-opacity="0.1" fill="#FFFFFF" points="62.51768 39.70104 59.40088 37.90104 56.28208 39.70104 56.28288 43.30104"></polygon>
                                <polygon id="Fill-11" fill-opacity="0.6" fill="#FFFFFF" points="62.51768 39.70104 59.40088 37.90104 59.40088 34.30064 62.51768 32.50144"></polygon>
                                <g id="Group-18" transform="translate(65.54, 49.1267)">
                                    <path d="M2.164,13.0888182 C2.1808,13.0044182 2.2004,12.9196182 2.2208,12.8344182 C2.2328,12.7844182 2.2428,12.7344182 2.256,12.6844182 C2.2904,12.5536182 2.328,12.4228182 2.3704,12.2920182 C2.3768,12.2720182 2.3844,12.2516182 2.3912,12.2316182 C2.428,12.1200182 2.468,12.0088182 2.51,11.8980182 C2.5236,11.8628182 2.5376,11.8280182 2.5516,11.7928182 C2.5964,11.6796182 2.6436,11.5668182 2.694,11.4548182 C2.7008,11.4396182 2.7068,11.4244182 2.714,11.4092182 C2.7708,11.2844182 2.8316,11.1608182 2.8948,11.0384182 C2.9112,11.0060182 2.9284,10.9744182 2.9452,10.9428182 C2.9992,10.8412182 3.0552,10.7404182 3.1128,10.6412182 C3.1268,10.6168182 3.1404,10.5916182 3.1552,10.5672182 C3.226,10.4476182 3.3004,10.3300182 3.3764,10.2140182 C3.3976,10.1828182 3.4192,10.1520182 3.4404,10.1208182 C3.498,10.0360182 3.5568,9.9524182 3.6172,9.8700182 C3.6516,9.8232182 3.6864,9.7776182 3.7216,9.7316182 C3.7712,9.6668182 3.8216,9.6032182 3.8724,9.5404182 C3.9248,9.4756182 3.9784,9.4124182 4.0328,9.3496182 C4.0736,9.3024182 4.1156,9.2556182 4.1572,9.2096182 C4.2952,9.0576182 4.4368,8.9116182 4.5828,8.7760182 C4.6,8.7600182 4.618,8.7460182 4.6356,8.7304182 C4.7592,8.6180182 4.8864,8.5128182 5.0148,8.4136182 C5.0536,8.3840182 5.0916,8.3548182 5.1308,8.3264182 C5.278,8.2192182 5.4268,8.1176182 5.5788,8.0300182 C5.6844,7.9688182 5.7884,7.9156182 5.8908,7.8676182 C5.9188,7.8544182 5.9464,7.8432182 5.974,7.8308182 C6.0412,7.8012182 6.1076,7.7744182 6.1732,7.7504182 C6.2316,7.7288182 6.2888,7.7108182 6.3456,7.6932182 C6.3984,7.6776182 6.4508,7.6612182 6.5024,7.6488182 C6.5412,7.6392182 6.58,7.6312182 6.6188,7.6236182 C6.6788,7.6120182 6.7384,7.6020182 6.7968,7.5952182 C6.8272,7.5916182 6.8576,7.5880182 6.888,7.5856182 C6.9608,7.5800182 7.0324,7.5780182 7.102,7.5796182 C7.1152,7.5800182 7.1288,7.5792182 7.1416,7.5796182 C7.2232,7.5836182 7.3028,7.5936182 7.3796,7.6076182 C7.3996,7.6116182 7.4188,7.6164182 7.4384,7.6208182 C7.4988,7.6340182 7.5576,7.6504182 7.6152,7.6704182 C7.6328,7.6764182 7.6508,7.6816182 7.6684,7.6884182 C7.7416,7.7164182 7.8132,7.7488182 7.8812,7.7880182 L5.826,6.6092182 C5.8192,6.6052182 5.812,6.6012182 5.8052,6.5972182 C5.7524,6.5684182 5.6976,6.5420182 5.6412,6.5192182 C5.6324,6.5156182 5.6224,6.5132182 5.6132,6.5096182 C5.596,6.5032182 5.5776,6.4976182 5.56,6.4916182 C5.5304,6.4812182 5.5012,6.4696182 5.4704,6.4612182 C5.4416,6.4532182 5.412,6.4484182 5.3832,6.4420182 C5.3636,6.4376182 5.3444,6.4328182 5.3244,6.4292182 C5.3128,6.4272182 5.302,6.4236182 5.2896,6.4216182 C5.2268,6.4116182 5.1628,6.4048182 5.0968,6.4012182 C5.0936,6.4008182 5.09,6.4012182 5.0868,6.4012182 C5.0736,6.4004182 5.06,6.4016182 5.0472,6.4012182 C4.9944,6.3996182 4.9416,6.3984182 4.8872,6.4012182 C4.8696,6.4020182 4.8512,6.4056182 4.8332,6.4068182 C4.8032,6.4092182 4.7724,6.4132182 4.7416,6.4164182 C4.7124,6.4200182 4.6844,6.4212182 4.6548,6.4260182 C4.6248,6.4304182 4.594,6.4392182 4.564,6.4452182 C4.5252,6.4528182 4.4864,6.4604182 4.4468,6.4704182 C4.4264,6.4752182 4.4072,6.4776182 4.3872,6.4828182 C4.3556,6.4912182 4.3228,6.5052182 4.2912,6.5144182 C4.234,6.5320182 4.1768,6.5500182 4.1188,6.5720182 C4.098,6.5792182 4.0784,6.5836182 4.0576,6.5920182 C4.012,6.6096182 3.9652,6.6320182 3.9192,6.6524182 C3.8912,6.6648182 3.864,6.6756182 3.836,6.6888182 C3.74,6.7340182 3.6432,6.7832182 3.5448,6.8392182 C3.538,6.8432182 3.5308,6.8472182 3.5236,6.8512182 C3.448,6.8952182 3.3728,6.9460182 3.298,6.9948182 C3.2904,6.9772182 3.2824,6.9612182 3.2756,6.9424182 C3.2624,6.9028182 3.2536,6.8576182 3.242,6.8152182 C3.228,6.7636182 3.212,6.7136182 3.2016,6.6580182 C3.1924,6.6128182 3.1892,6.5628182 3.1824,6.5152182 C3.1744,6.4572182 3.1648,6.4008182 3.1604,6.3396182 C3.1564,6.2888182 3.158,6.2336182 3.1572,6.1804182 C3.1556,6.1168182 3.1524,6.0552182 3.1548,5.9888182 C3.1564,5.9316182 3.164,5.8708182 3.1688,5.8116182 C3.1744,5.7384182 3.1776,5.6668182 3.188,5.5896182 C3.2096,5.4232182 3.244,5.2544182 3.286,5.0844182 C3.2904,5.0656182 3.2944,5.0472182 3.2992,5.0284182 C3.344,4.8552182 3.3976,4.6812182 3.4608,4.5080182 C3.462,4.5052182 3.4628,4.5020182 3.464,4.4988182 C3.528,4.3244182 3.602,4.1508182 3.6828,3.9796182 C3.6892,3.9656182 3.6964,3.9516182 3.7032,3.9376182 C3.782,3.7732182 3.8684,3.6116182 3.9608,3.4536182 C3.9664,3.4444182 3.9716,3.4348182 3.9768,3.4256182 C4.0752,3.2596182 4.1808,3.0980182 4.292,2.9428182 C4.2952,2.9384182 4.2988,2.9340182 4.3024,2.9292182 C4.4048,2.7880182 4.5124,2.6532182 4.6236,2.5232182 C4.6396,2.5048182 4.6552,2.4852182 4.6712,2.4672182 C4.7792,2.3444182 4.8916,2.2300182 5.0064,2.1208182 C5.022,2.1060182 5.0364,2.0888182 5.0524,2.0740182 C5.1868,1.9496182 5.3248,1.8352182 5.4664,1.7332182 C5.5784,1.6524182 5.6892,1.5804182 5.7976,1.5180182 C5.8104,1.5104182 5.8224,1.5056182 5.8356,1.4980182 C5.9432,1.4380182 6.0484,1.3884182 6.152,1.3456182 C6.182,1.3328182 6.212,1.3200182 6.2416,1.3088182 C6.2876,1.2920182 6.3324,1.2776182 6.3768,1.2640182 C6.4152,1.2528182 6.454,1.2404182 6.4916,1.2312182 C6.5212,1.2244182 6.55,1.2184182 6.5784,1.2132182 C6.6236,1.2040182 6.6684,1.1968182 6.7124,1.1912182 C6.7352,1.1888182 6.7576,1.1860182 6.78,1.1844182 C6.8348,1.1800182 6.8884,1.1784182 6.9404,1.1800182 C6.9504,1.1800182 6.9604,1.1792182 6.9704,1.1800182 C7.0316,1.1828182 7.0904,1.1900182 7.1484,1.2008182 C7.1636,1.2036182 7.178,1.2072182 7.1928,1.2104182 C7.2384,1.2204182 7.2824,1.2328182 7.3252,1.2476182 C7.3388,1.2520182 7.352,1.2560182 7.3652,1.2612182 C7.4204,1.2824182 7.4736,1.3064182 7.5244,1.3356182 L7.5232,1.3352182 L7.5244,1.3356182 L5.4696,0.157218202 C5.4644,0.154018202 5.4588,0.151218202 5.4536,0.148018202 C5.414,0.126418202 5.3732,0.106818202 5.3312,0.0896182018 C5.324,0.0868182018 5.3172,0.0852182018 5.31,0.0824182018 C5.2972,0.0776182018 5.2836,0.0736182018 5.2704,0.0692182018 C5.248,0.0612182018 5.226,0.0524182018 5.2032,0.0460182018 C5.182,0.0400182018 5.1596,0.0368182018 5.138,0.0316182018 C5.1228,0.0288182018 5.1084,0.0248182018 5.0932,0.0220182018 C5.0848,0.0204182018 5.0764,0.0180182018 5.0676,0.0164182018 C5.0204,0.00881820178 4.9724,0.00361820178 4.9224,0.00121820178 C4.9204,0.00121820178 4.918,0.00121820178 4.9152,0.00121820178 C4.9056,0.000818201776 4.8956,0.00161820178 4.886,0.00121820178 C4.8464,0 4.8068,-0.000781798224 4.7664,0.00121820178 C4.7528,0.00201820178 4.7388,0.00481820178 4.7248,0.00561820178 C4.7028,0.00721820178 4.68,0.0100182018 4.6572,0.0128182018 C4.636,0.0152182018 4.6148,0.0160182018 4.5932,0.0196182018 C4.5704,0.0232182018 4.5468,0.0300182018 4.5236,0.0344182018 C4.4948,0.0400182018 4.466,0.0456182018 4.4368,0.0528182018 C4.422,0.0564182018 4.4076,0.0580182018 4.3928,0.0620182018 C4.37,0.0684182018 4.3452,0.0784182018 4.322,0.0856182018 C4.2772,0.0992182018 4.2324,0.113618202 4.1868,0.130418202 C4.1712,0.136018202 4.156,0.139218202 4.1404,0.145618202 C4.1264,0.151218202 4.1112,0.160818202 4.0968,0.166818202 C3.9932,0.209618202 3.8884,0.259218202 3.7808,0.319618202 C3.7728,0.323618202 3.766,0.326018202 3.758,0.330418202 C3.7532,0.333218202 3.748,0.336418202 3.7424,0.339218202 C3.634,0.402018202 3.5232,0.473618202 3.4116,0.554818202 C3.2716,0.655618202 3.134,0.769218202 3.0004,0.892418202 C2.9992,0.893618202 2.9984,0.894418202 2.9972,0.895618202 C2.9808,0.910818202 2.966,0.928818202 2.9496,0.944418202 C2.8444,1.0440182 2.7408,1.1472182 2.6412,1.2584182 C2.6328,1.2680182 2.6248,1.2788182 2.6164,1.2884182 C2.6,1.3068182 2.5848,1.3264182 2.5688,1.3452182 C2.5164,1.4060182 2.4636,1.4664182 2.4132,1.5304182 C2.3564,1.6020182 2.3016,1.6756182 2.2476,1.7504182 C2.244,1.7552182 2.2404,1.7596182 2.2372,1.7644182 C2.2352,1.7668182 2.2332,1.7692182 2.2316,1.7720182 C2.178,1.8464182 2.126,1.9224182 2.0752,1.9996182 C2.028,2.0720182 1.982,2.1456182 1.9376,2.2200182 C1.932,2.2288182 1.9272,2.2380182 1.922,2.2472182 C1.9164,2.2560182 1.9112,2.2656182 1.9056,2.2752182 C1.8744,2.3288182 1.8428,2.3820182 1.8128,2.4364182 C1.7736,2.5076182 1.7364,2.5796182 1.6996,2.6516182 C1.682,2.6872182 1.6656,2.7228182 1.6484,2.7588182 C1.6412,2.7728182 1.6344,2.7872182 1.6276,2.8012182 C1.6172,2.8236182 1.6056,2.8460182 1.5956,2.8684182 C1.562,2.9412182 1.53,3.0148182 1.4996,3.0884182 C1.4684,3.1636182 1.4392,3.2392182 1.4108,3.3148182 C1.41,3.3168182 1.4096,3.3188182 1.4088,3.3208182 C1.408,3.3232182 1.4072,3.3260182 1.406,3.3288182 C1.3792,3.4032182 1.3532,3.4776182 1.3292,3.5520182 C1.302,3.6372182 1.2768,3.7224182 1.2544,3.8076182 C1.2504,3.8220182 1.248,3.8356182 1.2444,3.8496182 C1.2392,3.8684182 1.236,3.8872182 1.2312,3.9056182 C1.2156,3.9684182 1.1996,4.0312182 1.1868,4.0936182 C1.1648,4.2004182 1.1468,4.3060182 1.1332,4.4112182 C1.1316,4.4220182 1.13,4.4328182 1.1288,4.4436182 C1.1208,4.5100182 1.1188,4.5712182 1.1136,4.6352182 C1.1088,4.6932182 1.102,4.7536182 1.1,4.8096182 C1.0976,4.8764182 1.1008,4.9380182 1.1024,5.0016182 C1.1036,5.0548182 1.102,5.1104182 1.1056,5.1612182 C1.1096,5.2220182 1.1196,5.2776182 1.1272,5.3348182 C1.134,5.3832182 1.1376,5.4336182 1.1464,5.4796182 C1.1572,5.5356182 1.1732,5.5864182 1.188,5.6388182 C1.1988,5.6804182 1.2072,5.7244182 1.2212,5.7636182 C1.2388,5.8156182 1.2612,5.8620182 1.2828,5.9100182 C1.2976,5.9436182 1.31,5.9804182 1.3264,6.0124182 C1.3516,6.0596182 1.3812,6.1000182 1.4092,6.1428182 C1.4272,6.1696182 1.4424,6.1996182 1.462,6.2248182 C1.496,6.2688182 1.5352,6.3056182 1.5728,6.3440182 C1.5908,6.3616182 1.606,6.3824182 1.6244,6.3988182 C1.6832,6.4504182 1.746,6.4956182 1.8128,6.5340182 L2.9904,7.2096182 C2.9804,7.2172182 2.9708,7.2272182 2.96,7.2348182 C2.8312,7.3340182 2.7048,7.4392182 2.5804,7.5516182 C2.5668,7.5640182 2.5524,7.5740182 2.5388,7.5864182 C2.5352,7.5900182 2.5316,7.5940182 2.5276,7.5976182 C2.3816,7.7332182 2.2404,7.8792182 2.1024,8.0308182 C2.0872,8.0476182 2.0704,8.0620182 2.0556,8.0788182 C2.0288,8.1084182 2.004,8.1408182 1.9776,8.1708182 C1.9232,8.2336182 1.87,8.2972182 1.8172,8.3620182 C1.7944,8.3904182 1.77,8.4164182 1.7472,8.4452182 C1.72,8.4804182 1.6936,8.5172182 1.6668,8.5528182 C1.6312,8.5988182 1.5964,8.6448182 1.562,8.6916182 C1.5432,8.7172182 1.5236,8.7416182 1.5056,8.7672182 C1.464,8.8248182 1.4248,8.8840182 1.3852,8.9424182 C1.3644,8.9736182 1.3424,9.0040182 1.322,9.0356182 C1.3144,9.0464182 1.3068,9.0568182 1.2996,9.0676182 C1.2376,9.1632182 1.1768,9.2600182 1.118,9.3580182 C1.112,9.3680182 1.1064,9.3784182 1.1004,9.3884182 C1.086,9.4132182 1.072,9.4384182 1.0572,9.4632182 C1.0224,9.5228182 0.9872,9.5828182 0.954,9.6436182 C0.9316,9.6836182 0.9112,9.7244182 0.8896,9.7648182 C0.8728,9.7964182 0.856,9.8276182 0.84,9.8592182 C0.828,9.8824182 0.8152,9.9056182 0.8036,9.9288182 C0.7556,10.0240182 0.7092,10.1200182 0.6652,10.2164182 C0.6628,10.2212182 0.6608,10.2260182 0.6588,10.2304182 C0.652,10.2460182 0.6456,10.2612182 0.6388,10.2764182 C0.6044,10.3540182 0.5696,10.4316182 0.5372,10.5096182 C0.5228,10.5444182 0.51,10.5792182 0.4964,10.6140182 C0.4824,10.6492182 0.4688,10.6844182 0.4552,10.7196182 C0.4432,10.7504182 0.4304,10.7812182 0.4192,10.8124182 C0.3892,10.8924182 0.3628,10.9724182 0.3364,11.0528182 C0.3296,11.0732182 0.322,11.0932182 0.3152,11.1136182 C0.3136,11.1192182 0.3116,11.1244182 0.3096,11.1300182 C0.2728,11.2444182 0.2392,11.3588182 0.2088,11.4732182 C0.206,11.4840182 0.2044,11.4948182 0.2012,11.5056182 C0.1884,11.5556182 0.1776,11.6056182 0.1656,11.6556182 C0.1492,11.7244182 0.1308,11.7936182 0.1168,11.8624182 C0.1136,11.8784182 0.112,11.8944182 0.1088,11.9104182 C0.0888,12.0136182 0.0728,12.1156182 0.058,12.2176182 C0.0524,12.2596182 0.0424,12.3024182 0.0376,12.3444182 C0.0368,12.3520182 0.0368,12.3596182 0.0356,12.3676182 C0.0176,12.5188182 0.0052,12.6684182 0,12.8156182 L2.0552,13.9944182 C2.06,13.8468182 2.0724,13.6972182 2.0904,13.5460182 C2.0964,13.4972182 2.1056,13.4472182 2.1128,13.3980182 C2.1276,13.2956182 2.1432,13.1924182 2.164,13.0888182" id="Fill-12" fill-opacity="0.6" fill="#FFFFFF"></path>
                                    <path d="M5.57884,8.0298182 C7.44884,6.9502182 8.90724,7.8666182 8.83244,10.0814182 L2.05484,13.9946182 C2.12964,11.7798182 3.70644,9.1110182 5.57884,8.0298182" id="Fill-14" fill-opacity="0.4" fill="#FFFFFF"></path>
                                    <path d="M5.59448,7.5308182 C4.08128,8.4044182 2.93128,7.5356182 3.18768,5.5896182 C3.37528,4.1648182 4.32808,2.5552182 5.46648,1.7332182 C5.57848,1.6524182 5.68888,1.5808182 5.79768,1.5180182 C7.31048,0.644418202 8.46088,1.5112182 8.20368,3.4592182 C8.01688,4.8812182 7.06408,6.4908182 5.92528,7.3156182 C5.81368,7.3968182 5.70288,7.4684182 5.59448,7.5308182" id="Fill-16" fill="#4A34BA"></path>
                                </g>
                                <path d="M62.52236,93.8526 L62.52236,101.0718 L31.2672,119.1166 L25.0092,115.51036 L62.52236,93.8526 Z" id="Combined-Shape" fill-opacity="0.4" fill="#FFFFFF"></path>
                                <polygon id="Fill-20" fill-opacity="0.1" fill="#FFFFFF" points="62.52236 101.07192 68.77396 104.68072 37.46516 122.68992 31.25236 119.10912"></polygon>
                                <path d="M0.000400000001,72.19476 L37.514,50.53636 L50.018,57.75636 L25.0128,72.19276 L50.018,86.63276 L62.5224,93.85276 L25.0092,115.51036 L48.853,129.25436 L36.334,136.47936 L12.5044,122.72956 L9.09494702e-13,115.51036 L37.513,93.85236 L12.5048,79.41436 L0.000400000001,72.19476 Z" id="Combined-Shape" fill-opacity="0.8" fill="#FFFFFF"></path>
                                <path d="M0,115.5102 L12.5044,122.7294 L36.334,136.4786 L30.074,140.0916 L12.5044,129.949 L0,122.7294 L0,115.5102 Z M0.0004,72.1946 L12.5048,79.4142 L37.51336,93.85276 L31.2596,97.4614 L12.5048,86.633 L0.0004,79.4142 L0.0004,72.1946 Z" id="Combined-Shape" fill-opacity="0.6" fill="#FFFFFF"></path>
                                <polygon id="Fill-24" fill-opacity="0.4" fill="#FFFFFF" points="28.18292 111.24576 34.43532 107.63616 34.43532 100.41696 28.18292 104.02616"></polygon>
                                <polygon id="Fill-25" fill-opacity="0.1" fill="#FFFFFF" points="30.4536 112.55784 36.706 108.94824 34.4352 107.63584 28.1828 111.24584"></polygon>
                                <polygon id="Fill-26" fill-opacity="0.6" fill="#FFFFFF" points="21.93096 107.636 28.18296 111.2456 28.18296 104.0264 21.93096 100.4168"></polygon>
                                <polygon id="Fill-27" fill="#FFFFFF" points="21.93096 100.41684 28.18296 104.02644 34.43536 100.41684 28.18296 96.80764"></polygon>
                                <polygon id="Fill-28" fill="#7ACEF0" points="28.18368 96.80768 28.18328 104.02648 34.43648 100.41768"></polygon>
                                <polygon id="Fill-29" fill="#4A34BA" points="28.18368 96.80768 28.18328 104.02648 21.92928 100.41728"></polygon>
                                <polygon id="Fill-30" fill="#FFFFFF" points="28.18368 96.80768 34.43648 100.41768 28.18328 104.02648 21.92928 100.41728"></polygon>
                            </g>
                            <path d="M29.3565072,8.67829949 C29.6563814,8.25688539 30.2243454,8.13936449 30.6634213,8.39262916 L30.7441406,8.44447776 L34.0379134,10.8049768 C34.4856659,11.1235931 34.5903514,11.7448577 34.2717351,12.1926102 C33.9718609,12.6140243 33.4038969,12.7315452 32.9648211,12.4782805 L32.8841017,12.4264319 L29.5903289,10.0659329 C29.1425765,9.74731661 29.0378909,9.12605196 29.3565072,8.67829949 Z M74.9330126,0.635694044 C75.3207728,0.977975239 75.3782815,1.5551122 75.0805083,1.96530935 L75.0205063,2.0401669 L72.5707732,4.60038742 C72.2070994,5.01238259 71.5782955,5.05155482 71.1663004,4.68788105 C70.7785402,4.34559986 70.7210315,3.76846289 71.0188047,3.35826574 L71.0788067,3.2834082 L73.5285398,0.723187677 C73.8922136,0.311192509 74.5210175,0.272020275 74.9330126,0.635694044 Z" id="Combined-Shape" fill="#FFFFFF" fill-rule="nonzero"></path>
                        </g>
                        <g id="shipping" transform="translate(-0, 219.5585)" fill="#FFFFFF">
                            <g id="delivery_system-copy" transform="translate(30.0466, 0)">
                                <polygon id="Fill-1" fill-opacity="0.8" points="106.37964 0 68.86008 21.999 68.86644 36.096 118.88404 7.2196"></polygon>
                                <polygon id="Fill-2" fill-opacity="0.4" points="118.88392 7.2194 118.88392 14.4386 68.86672 43.3154 68.86672 36.0962"></polygon>
                                <path d="M111.75556,18.5546743 L117.99256,22.1566743 L81.27536,43.2812 L68.86656,43.3152 L111.75556,18.5546743 Z" id="Combined-Shape" fill-opacity="0.1"></path>
                                <path d="M33.01368,78.36432 L40.04288,74.30592 L40.93048,73.79392 L68.77408,57.71832 L68.80728,43.3592 L68.86008,43.3296 L81.27528,43.2812 L106.28728,57.718 L68.77408,79.3768 L50.01768,82.986 L31.29248,86.6136 L22.43008,91.694 L3.24328,81.1136 L6.25628,79.3782 L18.7568,86.59548 L33.01368,78.36432 Z" id="Combined-Shape" fill-opacity="0.1"></path>
                                <polygon id="Fill-5" fill-opacity="0.6" points="0 75.76668 18.7568 86.59548 18.7568 79.37668 0 68.54748"></polygon>
                                <polygon id="Fill-6" fill-opacity="0.6" points="0 68.5476 18.7568 79.3768 31.2608 64.9376 12.5472 54.1336"></polygon>
                                <polygon id="Fill-7" fill-opacity="0.6" points="31.26088 64.93756 12.54728 54.13356 18.75608 28.84116 37.51288 39.67036"></polygon>
                                <polygon id="Fill-8" fill-opacity="0.4" points="30.5878 62.98716 13.8962 53.35076 19.4342 30.79156 36.1634 40.45036"></polygon>
                                <polygon id="Fill-9" fill-opacity="0.4" points="4.39992 76.33132 5.90512 75.46252 5.90512 73.72452 4.39992 74.59332"></polygon>
                                <polyline id="Fill-10" fill-opacity="0.4" points="40.04288 74.30592 40.93048 73.79392 68.77408 57.71832 68.86008 21.67192 37.51288 39.67032 31.26088 64.93752 18.75648 79.37672 18.75648 86.59552 33.01368 78.36432 33.01928 78.36112"></polyline>
                                <g id="Group-69" transform="translate(2.8939, 8.7098)">
                                    <path d="M32.32204,63.89064 C32.36164,63.87704 32.40124,63.86344 32.44044,63.85344 C32.47164,63.84544 32.50284,63.84024 32.53364,63.83464 C32.57164,63.82824 32.60924,63.82224 32.64644,63.81904 C32.68004,63.81624 32.71284,63.81584 32.74564,63.81584 C32.79444,63.81624 32.84324,63.81544 32.89124,63.82184 L31.44804,63.63584 C31.42124,63.63224 31.39484,63.62984 31.36764,63.62824 L31.36724,63.62824 C31.34644,63.62704 31.32404,63.63024 31.30244,63.63024 C31.26964,63.63024 31.23684,63.63064 31.20324,63.63304 C31.19004,63.63424 31.17724,63.63304 31.16364,63.63464 C31.13964,63.63744 31.11484,63.64464 31.09084,63.64904 C31.05964,63.65464 31.02884,63.65984 30.99724,63.66744 C30.98564,63.67064 30.97404,63.67144 30.96244,63.67464 C30.93484,63.68224 30.90684,63.69504 30.87924,63.70504 C30.84804,63.71584 30.81764,63.72544 30.78644,63.73864 C30.77724,63.74264 30.76764,63.74464 30.75804,63.74904 C30.70284,63.77344 30.64724,63.80144 30.59204,63.83384 C30.57644,63.84264 30.56124,63.85184 30.54564,63.86144 C30.47004,63.90784 30.39604,63.96024 30.32284,64.01864 C30.24084,64.08424 30.16044,64.15744 30.08124,64.23704 C29.98324,64.33704 29.88804,64.44704 29.79644,64.56704 C29.59844,64.82424 29.41604,65.12544 29.25284,65.46064 C29.21964,65.52944 29.18684,65.59944 29.15484,65.67064 C28.99644,66.02744 28.85804,66.41664 28.74484,66.82744 C28.69284,67.01664 28.64604,67.21024 28.60484,67.40744 C28.57164,67.56784 28.54204,67.73104 28.51604,67.89544 C28.49364,68.04064 28.47404,68.18704 28.45764,68.33424 C28.44244,68.47064 28.43044,68.60744 28.42044,68.74544 C28.41164,68.87864 28.40524,69.01224 28.40124,69.14584 C28.39764,69.27904 28.39684,69.41224 28.39924,69.54544 C28.40084,69.64944 28.40444,69.75344 28.40964,69.85744 C28.41124,69.88984 28.41324,69.92224 28.41484,69.95424 C28.42404,70.09824 28.43604,70.23864 28.45164,70.37464 C28.46884,70.52864 28.49084,70.67744 28.51604,70.82144 C28.54804,71.00184 28.58604,71.17424 28.63004,71.33824 C28.93484,72.48264 29.51444,73.19904 30.20524,73.28824 L31.64804,73.47384 C30.95764,73.38504 30.37804,72.66824 30.07284,71.52384 C30.02924,71.36024 29.99124,71.18784 29.95924,71.00704 C29.93364,70.86344 29.91204,70.71464 29.89484,70.56064 C29.87924,70.42424 29.86684,70.28384 29.85804,70.14024 C29.85604,70.10784 29.85404,70.07544 29.85244,70.04304 C29.84724,69.93944 29.84404,69.83504 29.84244,69.73104 C29.84004,69.59824 29.84084,69.46504 29.84444,69.33184 C29.84804,69.19784 29.85444,69.06424 29.86364,68.93104 C29.87284,68.79344 29.88524,68.65624 29.90044,68.51984 C29.91684,68.37264 29.93644,68.22624 29.95924,68.08144 C29.98444,67.91664 30.01444,67.75384 30.04764,67.59304 C30.08884,67.39624 30.13564,67.20264 30.18764,67.01344 C30.30084,66.60264 30.43924,66.21304 30.59764,65.85664 C30.63004,65.78504 30.66284,65.71504 30.69604,65.64624 C30.85924,65.31144 31.04164,65.01024 31.23924,64.75264 C31.33084,64.63264 31.42644,64.52264 31.52444,64.42304 C31.60324,64.34304 31.68364,64.27024 31.76564,64.20464 C31.83884,64.14624 31.91324,64.09344 31.98844,64.04744 C32.00404,64.03784 32.01924,64.02864 32.03484,64.01944 C32.10004,63.98184 32.16484,63.95144 32.22964,63.92424 C32.26084,63.91104 32.29124,63.90144 32.32204,63.89064" id="Fill-11" fill-opacity="0.6"></path>
                                    <path d="M32.03492,64.01956 C33.37052,63.24836 34.55612,64.69476 34.68532,67.25276 C34.81412,69.80836 33.83852,72.50556 32.50292,73.27676 C31.16892,74.04676 29.98172,72.59836 29.85252,70.04316 C29.72332,67.48516 30.70092,64.78956 32.03492,64.01956" id="Fill-13" fill-opacity="0.4"></path>
                                    <path d="M51.056,52.6182 C51.0956,52.6046 51.1348,52.591 51.1744,52.581 C51.2056,52.5734 51.2364,52.5682 51.2676,52.5626 C51.3052,52.5558 51.3432,52.5498 51.3804,52.5466 C51.4136,52.5438 51.4468,52.5438 51.4796,52.5438 C51.5284,52.5438 51.5772,52.5434 51.6248,52.5494 L50.1816,52.3634 C50.1552,52.3598 50.1284,52.3574 50.1012,52.3562 C50.08,52.3546 50.058,52.3582 50.0364,52.3582 C50.0036,52.3578 49.9704,52.3582 49.9372,52.361 C49.924,52.3618 49.9112,52.3606 49.8976,52.3622 C49.8736,52.365 49.8488,52.3722 49.8248,52.3766 C49.7936,52.3822 49.7628,52.3874 49.7312,52.3954 C49.7192,52.3982 49.708,52.399 49.6964,52.4022 C49.6684,52.4098 49.6408,52.423 49.6132,52.4326 C49.582,52.4434 49.5516,52.453 49.5204,52.4662 C49.5112,52.4702 49.5016,52.4722 49.492,52.4766 C49.4368,52.501 49.3812,52.5294 49.326,52.5614 C49.3104,52.5702 49.2948,52.5794 49.2796,52.589 C49.204,52.6354 49.1296,52.6882 49.0568,52.7462 C48.9744,52.8118 48.894,52.885 48.8152,52.965 C48.7172,53.0646 48.622,53.175 48.53,53.2946 C48.3324,53.5518 48.15,53.8534 47.9868,54.1882 C47.9532,54.257 47.9208,54.327 47.8888,54.3986 C47.73,54.755 47.592,55.1442 47.4788,55.5554 C47.4268,55.7442 47.38,55.9378 47.3388,56.135 C47.3052,56.2958 47.2756,56.4586 47.2496,56.623 C47.2272,56.7682 47.2076,56.9146 47.1916,57.0618 C47.1764,57.1982 47.164,57.3354 47.1544,57.473 C47.1456,57.6062 47.1388,57.7398 47.1352,57.8734 C47.1316,58.0066 47.1308,58.1398 47.1328,58.273 C47.1348,58.377 47.138,58.481 47.1436,58.585 C47.1452,58.6174 47.1472,58.6498 47.1488,58.6818 C47.158,58.8258 47.17,58.9662 47.1856,59.1026 C47.2028,59.2562 47.2248,59.405 47.25,59.549 C47.2816,59.7294 47.32,59.9018 47.364,60.0658 C47.6688,61.2102 48.2484,61.9266 48.9392,62.0158 L50.382,62.2014 C49.6916,62.1126 49.112,61.3962 48.8064,60.2514 C48.7632,60.0878 48.7248,59.9154 48.6932,59.735 C48.6676,59.591 48.646,59.4422 48.6288,59.2882 C48.6132,59.1518 48.6004,59.0114 48.592,58.8678 C48.59,58.8354 48.588,58.803 48.5864,58.7706 C48.5812,58.667 48.578,58.563 48.576,58.459 C48.574,58.3258 48.5748,58.1926 48.5784,58.0594 C48.5816,57.9258 48.5884,57.7918 48.5976,57.659 C48.6068,57.521 48.6192,57.3842 48.6344,57.2474 C48.6504,57.1002 48.67,56.9538 48.6928,56.809 C48.7184,56.6442 48.748,56.4814 48.7816,56.321 C48.8228,56.1238 48.8696,55.9302 48.9216,55.741 C49.0348,55.3302 49.1728,54.9406 49.3316,54.5842 C49.364,54.5126 49.3964,54.4426 49.43,54.3742 C49.5932,54.039 49.7756,53.7378 49.9728,53.4802 C50.0648,53.3606 50.1604,53.2502 50.2584,53.1506 C50.3368,53.0706 50.4172,52.9978 50.4996,52.9322 C50.5724,52.8738 50.6472,52.8214 50.7224,52.775 C50.7376,52.7654 50.7532,52.7562 50.7688,52.7474 C50.834,52.7094 50.8988,52.679 50.9636,52.6518 C50.9948,52.639 51.0252,52.629 51.056,52.6182" id="Fill-15" fill-opacity="0.6"></path>
                                    <path d="M50.76888,52.74728 C52.10448,51.97608 53.29008,53.42248 53.41928,55.98048 C53.54808,58.53568 52.57208,61.23288 51.23688,62.00408 C49.90288,62.77408 48.71528,61.32608 48.58648,58.77088 C48.45728,56.21288 49.43488,53.51728 50.76888,52.74728" id="Fill-17" fill-opacity="0.4"></path>
                                    <polygon id="Fill-19" fill-opacity="0.4" points="40.87084 30.2176 40.87084 46.4564 31.49204 51.876 36.21444 32.906"></polygon>
                                    <polygon id="Fill-21" fill-opacity="0.6" points="0.00016 66.75256 1.50616 67.62136 1.50616 65.88376 0.00016 65.01456"></polygon>
                                    <polygon id="Fill-23" fill-opacity="0.8" points="1.5056 64.14572 3.0116 65.01492 1.506 65.88372 0 65.01492"></polygon>
                                    <polygon id="Fill-25" points="11.00212 44.64104 12.50732 43.77224 17.66852 22.73304 16.54052 22.08184"></polygon>
                                    <polygon id="Fill-27" points="12.50716 43.77208 28.06996 52.75688 27.69396 54.27728 11.00196 44.64088"></polygon>
                                    <polygon id="Fill-29" fill-opacity="0.4" points="7.1896 70.8682 8.6948 69.9994 8.6948 68.2614 7.1896 69.1302"></polygon>
                                    <polygon id="Fill-31" fill-opacity="0.1" points="3.01108 66.75256 3.36308 66.95496 3.36308 65.21696 3.01108 65.01456"></polygon>
                                    <polygon id="Fill-33" fill-opacity="0.6" points="2.67396 68.26176 7.18956 70.86816 7.18956 69.13016 2.67396 66.52376"></polygon>
                                    <polygon id="Fill-35" fill-opacity="0.8" points="4.17904 65.65492 8.69504 68.26172 7.18944 69.13012 2.67344 66.52372"></polygon>
                                    <polygon id="Fill-37" fill-opacity="0.4" points="9.81812 72.40352 11.32332 71.53472 11.32332 69.79672 9.81812 70.66552"></polygon>
                                    <polygon id="Fill-39" fill-opacity="0.6" points="8.31224 71.5348 9.81824 72.4036 9.81824 70.6656 8.31224 69.7968"></polygon>
                                    <polygon id="Fill-41" fill-opacity="0.1" points="11.3236 71.5348 11.6752 71.7372 11.6752 69.9992 11.3236 69.7968"></polygon>
                                    <polygon id="Fill-43" fill-opacity="0.1" points="8.69508 69.99924 9.04708 70.20164 9.04708 68.46364 8.69508 68.26124"></polygon>
                                    <polygon id="Fill-45" fill-opacity="0.8" points="9.81772 68.92796 11.32372 69.79676 9.81812 70.66556 8.31212 69.79676"></polygon>
                                    <polygon id="Fill-47" points="40.16188 49.92032 41.66708 49.05152 41.66708 47.31352 40.16188 48.18232"></polygon>
                                    <polygon id="Fill-49" fill-opacity="0.6" points="39.3654 45.58732 40.871 46.45612 40.871 30.21772 39.3654 31.08692"></polygon>
                                    <polygon id="Fill-51" fill-opacity="0.1" points="39.3654 45.5926 40.8714 46.4618 31.4918 51.8762 31.9974 49.8462"></polygon>
                                    <polygon id="Fill-53" fill-opacity="0.8" points="65.96616 12.96192 47.12056 2.08152 15.86216 20.13152 34.61896 30.96072"></polygon>
                                    <polygon id="Fill-55" fill-opacity="0.4" points="83.8068 14.43812 90.0592 10.82852 90.0592 3.60932 83.8068 7.21852"></polygon>
                                    <polygon id="Fill-57" fill-opacity="0.1" points="86.07748 15.7502 92.32988 12.1406 90.05908 10.8282 83.80668 14.4382"></polygon>
                                    <polygon id="Fill-59" fill-opacity="0.6" points="77.55444 10.82836 83.80684 14.43796 83.80684 7.21876 77.55444 3.60916"></polygon>
                                    <polygon id="Fill-61" points="77.55444 3.6092 83.80684 7.2188 90.05924 3.6092 83.80684 0"></polygon>
                                    <polygon id="Fill-67" points="83.80756 0.0002 90.06036 3.6098 83.80716 7.2186 77.55316 3.6094"></polygon>
                                </g>
                            </g>
                            <path d="M-2.23485529,50.2971156 C-1.73425859,50.1670491 -1.22363191,50.4421031 -1.05007571,50.9183476 L-1.02156871,51.0099513 L0.839804255,58.1739557 C0.977999938,58.7058397 0.658852505,59.2490466 0.126968512,59.3872423 C-0.373628187,59.5173089 -0.884254871,59.2422548 -1.05781107,58.7660103 L-1.08631807,58.6744066 L-2.94769103,51.5104022 C-3.08588672,50.9785182 -2.76673928,50.4353113 -2.23485529,50.2971156 Z M40.6093304,78.5935414 C40.4409408,78.1045022 40.6756828,77.574134 41.1370794,77.3642681 L41.2262043,77.3287625 L48.2248092,74.9189495 C48.7444133,74.7400355 49.3106741,75.0162194 49.4895881,75.5358234 C49.6579778,76.0248626 49.4232358,76.5552308 48.9618391,76.7650967 L48.8727142,76.8006024 L41.8741094,79.2104153 C41.3545053,79.3893293 40.7882445,79.1131455 40.6093304,78.5935414 Z M22.6102997,64.130993 C22.1896718,63.8335406 22.0697208,63.2691926 22.3178062,62.8300949 L22.3723501,62.7440615 L25.8716525,57.7953753 C26.1889351,57.3466768 26.8098855,57.2401431 27.258584,57.5574257 C27.6792119,57.8548781 27.799163,58.419226 27.5510775,58.8583238 L27.4965337,58.9443572 L23.9972312,63.8930434 C23.6799487,64.3417419 23.0589983,64.4482756 22.6102997,64.130993 Z" id="Combined-Shape-Copy-4" fill-rule="nonzero" transform="translate(23.2821, 64.7649) rotate(248) translate(-23.2821, -64.7649)"></path>
                        </g>
                        <g id="finance" transform="translate(271.5537, 237.2681)" fill="#FFFFFF">
                            <g id="payment_systems">
                                <path d="M27.83616,38.092 L65.3634,59.75888 L84.11816,48.924 L90.39556,52.54592 L65.35036,66.98432 L21.59116,41.69232 L27.83616,38.092 Z" id="Combined-Shape" fill-opacity="0.1"></path>
                                <path d="M27.83712,30.8692 L65.36152,52.5268 L65.36312,59.7592 L27.83712,38.1012 L27.83712,30.8692 Z M0.000120000001,3.61068 L37.49012,25.26748 L37.49092,32.49988 L0.000520000001,10.82988 L0.000120000001,3.61068 Z" id="Combined-Shape" fill-opacity="0.6"></path>
                                <polygon id="Fill-6" fill-opacity="0.4" points="65.3614 52.52688 65.3634 59.75888 90.3586 45.32048 90.3586 38.08888"></polygon>
                                <path d="M52.79156,16.45528 L90.35876,38.08888 L65.36156,52.52688 L27.83716,30.86928 L52.79156,16.45528 Z M6.2512,0 L43.7664,21.6452 L37.4904,25.2676 L0,3.6108 L6.2512,0 Z" id="Combined-Shape" fill-opacity="0.8"></path>
                                <path d="M38.32812,29.77584 L35.60332,31.34864 L41.02252,34.48904 L43.76772,32.92704 L38.32812,29.77584 Z M46.50628,34.49772 L43.78148,36.07052 L49.20068,39.21092 L51.94548,37.64892 L46.50628,34.49772 Z M62.75432,43.93368 L68.19392,47.08488 L65.44872,48.64688 L60.02992,45.50688 L62.75432,43.93368 Z M54.69612,39.24732 L60.13572,42.39852 L57.39052,43.96052 L51.97132,40.82012 L54.69612,39.24732 Z M48.88596,23.68072 L44.79436,26.04272 C44.34236,26.30392 44.34236,26.95672 44.79436,27.21792 L48.88596,29.57992 C49.09556,29.70112 49.35436,29.70112 49.56436,29.57992 L53.65596,27.21792 C54.10836,26.95672 54.10836,26.30392 53.65596,26.04272 L49.56436,23.68072 C49.35476,23.55952 49.09596,23.55952 48.88596,23.68072 M76.8896117,37.5970804 C78.8845003,38.7357615 78.7340621,40.7414626 76.5927,41.9774948 C74.6127826,43.1208442 71.5931932,43.2531719 69.6660936,42.3057229 L69.440222,42.1868417 L69.685538,41.7511583 C71.4370451,42.737362 74.4327257,42.6474413 76.3427015,41.5444812 C78.1083834,40.5252983 78.2723938,39.0651496 76.7949642,38.1237 L76.6417483,38.0313196 L76.8896117,37.5970804 Z M74.753378,38.1453416 C75.8791964,38.7915832 75.7893335,39.9579312 74.5939131,40.6482703 C73.5455922,41.253474 71.9655353,41.3357708 70.9159651,40.8580702 L70.7256466,40.7619299 L70.9697934,40.3255901 C71.8521625,40.8193054 73.3789273,40.7723513 74.3438979,40.2152664 C75.1791743,39.7329056 75.2686165,39.0899597 74.6140048,38.6471757 L74.504462,38.5789784 L74.753378,38.1453416 Z M73.0682803,38.1453774 C73.6298973,38.4679712 73.5826654,39.0834055 73.0039439,39.4178756 C72.5529916,39.6781884 71.8917422,39.7207655 71.4229465,39.5292292 L71.2884842,39.4647285 L71.5326358,39.0283915 C71.8436537,39.202421 72.406804,39.1852499 72.7538632,38.9849096 C72.9872659,38.8500152 73.021385,38.7283703 72.8803086,38.619269 L72.8192397,38.5789426 L73.0682803,38.1453774 Z" id="Combined-Shape"></path>
                            </g>
                            <path d="M78.9832755,38.3035981 C79.3975624,38.1959568 79.82015,38.4235877 79.9637827,38.8177211 L79.9873747,38.8935311 L81.5278213,44.8223623 C81.6421901,45.2625422 81.3780681,45.7120927 80.9378883,45.8264616 C80.5236013,45.9341028 80.1010137,45.7064719 79.957381,45.3123386 L79.933789,45.2365285 L78.3933424,39.3076973 C78.2789736,38.8675174 78.5430956,38.4179669 78.9832755,38.3035981 Z M114.440533,61.7213298 C114.301176,61.3166077 114.495445,60.8776822 114.87729,60.7040001 L114.951049,60.6746162 L120.742998,58.6802882 C121.173015,58.5322214 121.641645,58.7607874 121.789711,59.1908046 C121.929068,59.5955266 121.734799,60.0344521 121.352954,60.2081342 L121.279195,60.2375181 L115.487246,62.2318461 C115.057229,62.3799129 114.588599,62.1513469 114.440533,61.7213298 Z M99.544783,49.7523242 C99.1966549,49.5061567 99.0974074,49.0391101 99.3027195,48.6757188 L99.3478592,48.6045188 L102.243834,44.5090544 C102.506412,44.1377177 103.020302,44.0495518 103.391639,44.3121305 C103.739767,44.5582981 103.839015,45.0253446 103.633703,45.3887359 L103.588563,45.4599359 L100.692588,49.5554004 C100.43001,49.9267371 99.9161198,50.0149029 99.544783,49.7523242 Z" id="Combined-Shape-Copy-2" fill-rule="nonzero" transform="translate(100.1007, 50.2769) rotate(88) translate(-100.1007, -50.2769)"></path>
                        </g>
                    </g>
                </g>
            </g>
        </g>
    </g>
</svg>