<?xml version="1.0" encoding="UTF-8"?>
<svg width="160px" height="160px" viewBox="0 0 160 160" version="1.1" xmlns="http://www.w3.org/2000/svg" xmlns:xlink="http://www.w3.org/1999/xlink">
    <title>Brand/Illustrations/Products</title>
    <g id="Brand/Illustrations/Products" stroke="none" stroke-width="1" fill="none" fill-rule="evenodd">
        <rect id="background" fill-opacity="0" fill="#FFFFFF" fill-rule="nonzero" x="0" y="0" width="160" height="160"></rect>
        <g id="icons" transform="translate(17.2404, 21)">
            <polygon id="Fill-1" fill="#4C34BB" points="110.751377 17.0506934 81.2187597 34.1032763 81.2187597 68.2027735 110.751377 51.1539696"></polygon>
            <polygon id="Fill-2" fill="#7ACEF0" points="81.2190431 34.1030873 51.6845364 17.0505044 51.6845364 51.1528359 81.2190431 68.2025846"></polygon>
            <polygon id="Fill-3" fill="#FFFFFF" points="81.2183818 0 51.6838751 17.0506934 81.2193265 34.1032763 110.751944 17.0506934"></polygon>
            <polygon id="Fill-4" fill="#4C34BB" points="93.5347869 7.1105964 63.8812428 24.0932684 70.0258411 27.6398277 99.6774957 10.6590452"></polygon>
            <polygon id="Fill-5" fill="#4C34BB" points="70.0010889 27.5885283 69.9831388 30.7477436 63.8432642 27.2030738 63.8555458 24.0410242"></polygon>
            <polygon id="Fill-6" fill="#24156D" points="81.2192321 68.2024901 95.9845959 76.7287815 125.519103 59.6780882 125.519103 59.6771434 110.751849 51.1536862"></polygon>
            <polygon id="Fill-7" fill="#4C34BB" points="59.0674073 38.3645325 29.5338454 55.4161706 29.5338454 89.5166126 59.0674073 72.466864"></polygon>
            <polygon id="Fill-8" fill="#7ACEF0" points="0 72.4665806 29.5345067 89.5163292 29.5345067 55.4158872 0 38.3651938"></polygon>
            <polygon id="Fill-9" fill="#FFFFFF" points="0 38.3649104 29.5345067 55.4165485 59.0671239 38.3649104 29.5335619 21.3132723"></polygon>
            <polygon id="Fill-10" fill="#24156E" points="59.0674073 72.4665806 73.8346606 80.9909825 44.300154 98.0426206 29.5338454 89.5163292"></polygon>
            <polygon id="Fill-11" fill="#4C34BB" points="93.6353074 58.3212505 64.1026902 75.3738334 64.1026902 109.473331 93.6353074 92.4245268"></polygon>
            <polygon id="Fill-12" fill="#7ACEF0" points="64.1029736 75.3736444 34.5684669 58.3220063 34.5684669 92.4233931 64.1029736 109.473142"></polygon>
            <polygon id="Fill-13" fill="#FFFFFF" points="93.6353074 58.3212505 64.1017454 41.2705571 34.5691283 58.3221953 64.1026902 75.3738334"></polygon>
            <polygon id="Fill-14" fill="#24156D" points="64.1033515 109.472764 78.8687154 118 108.403222 100.948362 93.6359687 92.4239599"></polygon>
        </g>
    </g>
</svg>