<?xml version="1.0" encoding="UTF-8"?>
<svg width="94px" height="107px" viewBox="0 0 94 107" version="1.1" xmlns="http://www.w3.org/2000/svg" xmlns:xlink="http://www.w3.org/1999/xlink">
    <title>Brand/Illustrations/Support</title>
    <g id="-Icons-System---Brand-Iconset" stroke="none" stroke-width="1" fill="none" fill-rule="evenodd">
        <g id="Tasawk-Icon-Set" transform="translate(-113.000000, -948.000000)">
            <g id="Group" transform="translate(80.000000, 916.000000)">
                <rect id="background" fill-opacity="0" fill="#FFFFFF" fill-rule="nonzero" x="0" y="0" width="160" height="160"></rect>
                <g id="icon" transform="translate(33.892070, 32.708715)">
                    <polygon id="Fill-1" fill="#24156D" points="32.5811137 69.4597921 8.67026406 83.2671551 62.1150611 106 86.0281168 92.197049"></polygon>
                    <path d="M79.1779954,13.8706583 C79.3526111,13.8422832 79.5228615,13.822639 79.6952945,13.800812 C80.3391901,13.7266003 80.9743548,13.6851291 81.5855099,13.7156868 C81.5986061,13.7156868 81.6160677,13.7135041 81.6335292,13.7135041 C82.3385403,13.75061 83.0239071,13.8553794 83.6765334,14.0256298 C84.1348997,14.1434954 84.5889007,14.2962842 85.0319881,14.4839961 L52.7215279,0.783208501 C52.4443254,0.665342876 52.1605749,0.560573431 51.8768243,0.471082864 C51.7065739,0.416515445 51.5363236,0.368496116 51.3660732,0.322659484 C51.1259766,0.261543975 50.8836973,0.209159252 50.6370525,0.16332262 C50.2136093,0.0869282336 49.7792527,0.0367262081 49.3361652,0.0127165437 C49.3317999,0.0127165437 49.3274345,0.0127165437 49.3230691,0.0127165437 C49.3056075,0.0127165437 49.2903286,0.0148992404 49.2750497,0.0127165437 C48.8363277,-0.0069277272 48.3910576,-0.00474503044 47.9348739,0.0258127242 C47.7558928,0.0389089048 47.5703636,0.0803801433 47.3891997,0.100024414 C47.214584,0.119668685 47.042151,0.141495653 46.8675352,0.169870711 C46.710381,0.193880375 46.5575923,0.202611162 46.3982554,0.233168917 C45.9638988,0.31829409 45.5208113,0.451438593 45.0777239,0.584583096 C44.9664063,0.617323547 44.8572715,0.636967818 44.7481367,0.671890966 C44.7175789,0.68280445 44.6892038,0.684987147 44.6630115,0.693717934 C43.9514523,0.931631881 43.2333451,1.23066134 42.5108725,1.592989 C42.4846801,1.60826788 42.4584877,1.62136406 42.4322954,1.63446024 C41.8276884,1.94440318 41.2165333,2.30891354 40.6075609,2.71052974 C40.4133009,2.83712615 40.2212236,2.98554953 40.0291463,3.12305943 C39.6078858,3.42208889 39.188808,3.73421452 38.7675475,4.07908061 C38.5470952,4.26242714 38.3266428,4.45668715 38.1061904,4.65094716 C37.7089396,5.00236134 37.3138715,5.37560249 36.9231688,5.76848791 C36.7048991,5.98675758 36.4866294,6.20284456 36.2727251,6.43421042 C35.8470993,6.88821135 35.4280215,7.37713542 35.0133091,7.88570377 C34.8779819,8.04940602 34.7382893,8.18473322 34.6051448,8.35498357 C34.568039,8.4030029 34.5331158,8.45975302 34.4938273,8.50558965 C34.0398263,9.09055238 33.5945562,9.71480365 33.1536515,10.3630646 C33.0663436,10.4918437 32.9724876,10.6031612 32.8851797,10.734123 C32.876449,10.7494019 32.8677182,10.7646808 32.8568047,10.777777 C32.7629487,10.921835 32.6712755,11.0833545 32.5774195,11.2317779 C32.2347361,11.7665386 31.8942354,12.3012993 31.5624655,12.8775313 C31.5253597,12.9386468 31.4926192,13.0063104 31.4598788,13.0674259 C31.335465,13.2835129 31.2154167,13.5170614 31.0953684,13.7396965 C30.8661852,14.1565916 30.6348194,14.5625732 30.4121843,15.0034779 C30.2681263,15.2894112 30.1218856,15.5797099 29.9800104,15.8765566 L62.2904705,29.5773442 C62.6506155,28.8308619 63.028222,28.1323989 63.4036459,27.4426668 C63.5258769,27.2200317 63.6459252,26.9864831 63.7659735,26.7703962 C64.1326666,26.1286833 64.5080904,25.526259 64.885697,24.9369309 C64.9817356,24.7885075 65.0712262,24.6248052 65.1672649,24.4785646 C65.2654862,24.3323239 65.368073,24.2057275 65.4662943,24.0616695 C65.9050164,23.4155912 66.3502865,22.79134 66.8021047,22.2107426 C66.9745378,21.9881076 67.1513362,21.7916648 67.325952,21.5799433 C67.742847,21.0757403 68.1575594,20.5868162 68.5831853,20.134998 C68.7970896,19.9036321 69.0131766,19.6875452 69.2292635,19.4692755 C69.6243317,19.0763901 70.0193998,18.7031489 70.4144679,18.3517347 C70.637103,18.155292 70.8575553,17.9632147 71.0801904,17.7798682 C71.4970855,17.4371848 71.918346,17.1228765 72.3396064,16.823847 C72.5316837,16.6885198 72.7237611,16.5400964 72.9180211,16.4135 C73.5269935,16.0097011 74.1359659,15.6430081 74.7427556,15.3352478 C75.5197956,14.937997 76.294653,14.6236887 77.0564141,14.3726785 C77.1677317,14.3355727 77.2768665,14.3202938 77.3860013,14.2853707 C77.9906084,14.1020241 78.5886673,13.9645143 79.1779954,13.8706583" id="Fill-1" fill="#FFFFFF"></path>
                    <path d="M61.2731156,95.9754163 C60.312729,95.2332994 37.5406537,77.7870041 33.6358092,66.9892032 C33.3978952,66.3278461 33.1927217,65.6577582 33.0224714,64.9789395 C32.9613559,64.7497564 32.9286154,64.5140251 32.8762307,64.2826593 C32.7758266,63.830841 32.6732399,63.3790228 32.6012109,62.9184738 C32.5597397,62.643454 32.5379127,62.3597034 32.5029895,62.0803182 C32.4549702,61.6612405 32.3982201,61.2443454 32.369845,60.8230849 C32.3480181,60.5218727 32.3480181,60.2184779 32.3392873,59.915083 C32.3240084,59.5091014 32.3065468,59.1074852 32.3109122,58.7015036 C32.3152776,58.4657724 32.3327392,58.2300411 32.34147,57.9943099 C32.363297,57.4289914 32.3982201,56.863673 32.4506048,56.2961718 C32.4833453,55.9753154 32.5182684,55.6522763 32.5597397,55.3292371 C32.6055763,54.9734576 32.6535956,54.6154953 32.7103457,54.2597157 C32.7692786,53.8886573 32.8391248,53.5197815 32.9089711,53.1509058 C32.9657213,52.8671552 33.0224714,52.5812219 33.0835869,52.2952886 C33.1730775,51.8936724 33.2734815,51.4920562 33.3782509,51.0926227 C33.4415492,50.8437953 33.500482,50.5927852 33.572511,50.3461404 C33.6969247,49.8943222 33.8366173,49.4468694 33.9806753,48.9994165 C34.0396081,48.8073392 34.0963582,48.6130792 34.1596564,48.4231846 C34.3779261,47.779289 34.6049265,47.1419416 34.853754,46.5133249 C34.8755809,46.4565748 34.9017733,46.4020074 34.925783,46.3452573 C35.1549661,45.7602945 35.3994281,45.1818799 35.6569864,44.612196 C35.8119578,44.2651473 35.9800255,43.9290119 36.1437277,43.5885113 C36.285603,43.2916645 36.4209302,42.9948177 36.5693536,42.7023364 C36.9076716,42.0366139 37.2634512,41.3839875 37.6301442,40.7444574 C37.6912598,40.6375052 37.7589234,40.5371012 37.8200389,40.4323317 C38.1692703,39.8342728 38.5294153,39.2514928 38.9004738,38.6839916 C39.0183394,38.5028278 39.1383877,38.3282121 39.258436,38.1492309 C39.8041102,37.3416331 40.3628806,36.5514969 40.9412952,35.8159281 C41.331998,35.3160905 41.7576238,34.8555415 42.1679708,34.3818963 C42.4560868,34.0501264 42.7289239,33.6987122 43.0257706,33.3844039 C43.46231,32.9194895 43.9184936,32.5047771 44.3703118,32.0769685 C44.6584278,31.8041314 44.9334476,31.505102 45.2237463,31.2475438 C45.7323146,30.8022736 46.2583445,30.4159363 46.7800091,30.0230509 C47.0332019,29.8331563 47.2754812,29.6127039 47.5286741,29.4359054 C48.3100795,28.892414 49.1023984,28.410038 49.8990827,28.0040564 C49.9514675,27.9800467 50.0016695,27.9582197 50.0496888,27.9342101 C50.6564785,27.6329979 51.2632682,27.3819878 51.8700579,27.1702662 C51.9464523,27.1440738 52.020664,27.1113334 52.0948757,27.0873237 C52.5554247,26.9367177 53.0159737,26.8144866 53.47434,26.7206307 C53.6118499,26.6922556 53.7515425,26.674794 53.8890524,26.6529671 C54.1575241,26.6071304 54.4281785,26.5678419 54.6966502,26.5438322 C54.8734487,26.5285534 55.0502471,26.524188 55.2248628,26.5176399 C55.432219,26.5110918 55.6373925,26.5045437 55.842566,26.5110918 C56.030278,26.5176399 56.2179899,26.5351014 56.4035191,26.552563 C56.5846829,26.5700246 56.7658468,26.5853035 56.9448279,26.6158612 C57.1347225,26.6442363 57.3224344,26.6878902 57.5123291,26.7293615 C57.6825794,26.76865 57.8550124,26.8079385 58.0230801,26.8559579 C58.3308403,26.9476311 58.6386006,27.0480352 58.9419954,27.1746316 L26.6315353,13.4760267 C26.3848905,13.3690746 26.1360631,13.2774013 25.885053,13.1988242 C25.8283028,13.17918 25.76937,13.1726319 25.7126199,13.1551703 C25.5445523,13.1049683 25.3721192,13.0678624 25.2018689,13.0285739 C25.0752725,13.0001988 24.9508587,12.9587276 24.826445,12.9369006 C24.7631468,12.9238044 24.6976659,12.9238044 24.6365504,12.912891 C24.4553866,12.8866986 24.2742227,12.8670543 24.0930589,12.8517754 C23.9686452,12.8386793 23.8485969,12.8146696 23.7285486,12.8075919 C23.6630677,12.8059388 23.5954041,12.8124869 23.5321059,12.8103042 C23.3269324,12.8037561 23.1217589,12.8103042 22.9144027,12.8168523 C22.7921716,12.8212177 22.6721233,12.8103042 22.5542577,12.8212177 C22.4975076,12.8234004 22.4429402,12.8386793 22.3905554,12.8430447 C22.119901,12.8648716 21.8470639,12.9063429 21.5742269,12.9521795 C21.465092,12.9718238 21.3559572,12.9761892 21.2468223,12.9958334 C21.2184473,13.0023815 21.1922549,13.013295 21.1638799,13.0198431 C20.7055135,13.1136991 20.2449645,13.2359301 19.7844155,13.3865361 C19.7582231,13.3952669 19.7342135,13.3974496 19.7080211,13.4061804 C19.6600018,13.423642 19.6119825,13.4520171 19.5639631,13.4694786 C18.952808,13.6790175 18.3460183,13.9322103 17.7414113,14.2334225 C17.715219,14.2465187 17.6890266,14.2530668 17.665017,14.2661629 C17.6388246,14.2770764 17.6126322,14.2901726 17.5886226,14.3032688 C16.7919382,14.7092504 15.9996193,15.1894437 15.2182139,15.7351179 C14.9562903,15.9162817 14.7074628,16.1432822 14.4499046,16.3375422 C13.9347882,16.7282449 13.4153064,17.1058514 12.9154688,17.5467562 C12.6098912,17.8130452 12.323958,18.1251708 12.0271112,18.4089214 C11.5862065,18.8279992 11.1387536,19.2296154 10.7174932,19.6814336 C10.4053675,20.0132035 10.1194342,20.3777139 9.82040479,20.7247627 C9.44279825,21.161302 9.05209553,21.5803798 8.69195056,22.0365634 C8.67012359,22.0627558 8.65266202,22.0889481 8.63083505,22.1151405 C8.05242041,22.852892 7.49365004,23.6408455 6.94579315,24.450626 C6.88249494,24.5466647 6.81264865,24.6296072 6.75153314,24.7256458 C6.69478302,24.8085883 6.64676369,24.8980789 6.59219627,24.9810214 C6.22113783,25.5485225 5.85881016,26.1313025 5.50957868,26.7293615 C5.45937665,26.8166693 5.40044384,26.8996118 5.35024182,26.9869197 C5.33932833,27.0043813 5.33059755,27.0262082 5.31968406,27.0436698 C4.95299101,27.6831999 4.59939413,28.3358263 4.26107613,29.0015488 C4.25016265,29.0190104 4.23924916,29.0364719 4.23051838,29.0539335 C4.09300848,29.3289533 3.96422937,29.6148866 3.83108487,29.8942718 C3.66738261,30.2325898 3.49931496,30.5665424 3.34434349,30.9114085 C3.3356127,30.9332354 3.32469922,30.9528797 3.31378574,30.9747067 C3.0693237,31.5247462 2.83795784,32.0835166 2.61314008,32.6444697 C2.59131311,32.7012198 2.56730344,32.7557872 2.54329378,32.8125373 C2.54329378,32.81472 2.54111108,32.8169027 2.54111108,32.8190854 C2.30756253,33.4105962 2.08929285,34.0108379 1.88411936,34.6154449 C1.87102318,34.650368 1.86229239,34.6874739 1.84919621,34.722397 C1.785898,34.9122916 1.73351328,35.1043689 1.67021507,35.2942636 C1.55453215,35.6631393 1.43011843,36.0298324 1.32316629,36.4008908 C1.29915663,36.4838333 1.28387775,36.5645931 1.25986808,36.6475355 C1.19220448,36.8941803 1.13108897,37.1386423 1.06779077,37.3874698 C0.997944472,37.6646722 0.917184692,37.939692 0.851703789,38.2168945 C0.823328731,38.3434909 0.80368446,38.4700873 0.775309402,38.5945011 C0.712011196,38.8804343 0.657443777,39.1663676 0.598510964,39.4523009 C0.557039726,39.674936 0.502472307,39.897571 0.463183765,40.1202061 C0.439174101,40.2642641 0.42607792,40.4083221 0.402068256,40.5545628 C0.343135443,40.9147077 0.295116114,41.27267 0.249279482,41.6349977 C0.223087121,41.8358058 0.185981276,42.0387966 0.164154309,42.2417874 C0.151058128,42.359653 0.151058128,42.4775186 0.140144644,42.5953842 C0.0877599218,43.1607027 0.0528367736,43.7238385 0.0331925027,44.2869742 C0.0244617157,44.4659554 0.00263474806,44.6427538 -3.07622978e-15,44.8217349 C-0.00173064546,44.8806677 0.00481744483,44.9417832 0.00263474806,45.0007161 C-0.00173064546,45.4066977 0.0157309286,45.8083139 0.0288271092,46.2099301 C0.0375578963,46.5133249 0.0375578963,46.8189025 0.0593848639,47.1222973 C0.0899426186,47.5435578 0.144510038,47.9604529 0.194712063,48.377348 C0.227452515,48.6589158 0.249279482,48.9404837 0.292933418,49.2198689 C0.364962411,49.6826006 0.469731855,50.1387842 0.56795321,50.5949679 C0.620337932,50.8219683 0.65526108,51.0511515 0.709828499,51.2759693 C0.882261543,51.9569706 1.08743504,52.6270585 1.32534899,53.286233 C5.23019349,64.0840339 28.0022688,81.5303291 28.9626554,82.2746287 C29.008492,82.3117345 29.0565114,82.3401096 29.1088961,82.3641192 L61.4171736,96.0649068 C61.3669715,96.0430799 61.3189522,96.0125221 61.2731156,95.9754163" id="Fill-4" fill="#7ACEF0"></path>
                    <path d="M74.742319,15.3350295 C77.9399698,13.7067378 81.0568608,13.3422274 83.6760969,14.0254115 C89.9906386,15.6537033 94.6419654,23.6576523 90.8484384,37.8211716 C86.8824784,52.6285864 63.9576143,93.3751696 62.988497,95.0995 C62.750583,95.5360394 62.434092,95.8350689 62.1306971,95.9900403 C61.8251196,96.1450118 61.5108113,96.1690215 61.2728973,95.9747614 C60.3125107,95.2326445 37.5426181,77.7863493 33.6355909,66.9885484 C29.8879006,56.6687581 34.6003429,43.893434 40.941077,35.8152733 C43.575592,32.456103 46.699031,29.633876 49.8988645,28.0055843 C54.2402483,25.7923297 58.7213248,25.7726855 62.290034,29.5771259 C65.889301,22.1144857 70.3922044,17.5526495 74.742319,15.3350295" id="Fill-6" fill="#4C34BB"></path>
                </g>
            </g>
        </g>
    </g>
</svg>