<?xml version="1.0" encoding="UTF-8"?>
<svg width="64px" height="64px" viewBox="0 0 64 64" version="1.1" xmlns="http://www.w3.org/2000/svg" xmlns:xlink="http://www.w3.org/1999/xlink">
    <title>Brand/Other/Wrong</title>
    <g id="Brand/Other/Wrong" stroke="none" stroke-width="1" fill="none" fill-rule="evenodd">
        <circle id="Oval" fill-opacity="1" fill="#fff" fill-rule="nonzero" cx="32" cy="32" r="32"></circle>
        <g id="Icons/Close" transform="translate(14.75, 14.75)" fill="#C61753" fill-rule="nonzero">
            <path d="M33.7346416,0.79152446 C32.7141638,-0.228953356 31.0656997,-0.228953356 30.0452218,0.79152446 L17.25,13.5605802 L4.45477816,0.765358362 C3.43430034,-0.255119454 1.78583618,-0.255119454 0.765358362,0.765358362 C-0.255119454,1.78583618 -0.255119454,3.43430034 0.765358362,4.45477816 L13.5605802,17.25 L0.765358362,30.0452218 C-0.255119454,31.0656997 -0.255119454,32.7141638 0.765358362,33.7346416 C1.78583618,34.7551195 3.43430034,34.7551195 4.45477816,33.7346416 L17.25,20.9394198 L30.0452218,33.7346416 C31.0656997,34.7551195 32.7141638,34.7551195 33.7346416,33.7346416 C34.7551195,32.7141638 34.7551195,31.0656997 33.7346416,30.0452218 L20.9394198,17.25 L33.7346416,4.45477816 C34.7289534,3.46046644 34.7289534,1.78583618 33.7346416,0.79152446 Z" id="Path"></path>
        </g>
    </g>
</svg>