<?xml version="1.0" encoding="UTF-8"?>
<svg width="342px" height="372px" viewBox="0 0 342 372" version="1.1" xmlns="http://www.w3.org/2000/svg" xmlns:xlink="http://www.w3.org/1999/xlink">
    <title>icon</title>
    <g id="Core-Pages" stroke="none" stroke-width="1" fill="none" fill-rule="evenodd">
        <g id="Blog-Article" transform="translate(-803, -1653)">
            <g id="Article-Body" transform="translate(629, 892)">
                <g id="icon" transform="translate(174.8048, 761.4)">
                    <polygon id="Path" fill="#7ACEF0" points="170.194839 131.009231 226.925766 163.763414 170.193629 349.364806 113.463912 316.613042"></polygon>
                    <polygon id="Fill-5" fill="#FFFFFF" points="0 207.434771 56.7309274 240.094586 340.390404 76.3285102 283.657057 43.6686952"></polygon>
                    <polygon id="Path" fill="#7ACEF0" points="-3.60600438e-14 163.76535 37.8222314 185.600665 37.8218 229.205736 56.7309274 240.094707 56.7309274 262.024391 -1.44240175e-13 229.363366"></polygon>
                    <polygon id="Path" fill="#7ACEF0" points="245.82926 21.8354365 283.652701 43.6731716 283.652701 87.3413829 245.82926 65.5072772"></polygon>
                    <polygon id="Fill-10" fill="#FFFFFF" points="0 163.764866 37.8222314 185.601391 75.6420431 163.764866 37.8210215 141.928341"></polygon>
                    <polygon id="Fill-14" fill="#FFFFFF" points="283.649919 0 245.828897 21.8365253 283.652338 43.6730506 321.47215 21.8365253 283.653548 0"></polygon>
                    <path d="M302.568777,272.94108 L340.389799,294.776396 L208.015618,371.2 L170.194597,349.364685 L302.568777,272.94108 Z M226.926129,163.76293 L198.429397,256.486801 L146.622546,210.12547 L226.926129,163.76293 Z M75.6416801,207.436102 L94.5540057,218.35134 L56.7317743,240.189075 L37.8218684,229.268998 L75.6416801,207.436102 Z M321.472755,65.5080031 L340.382661,76.424451 L302.560429,98.2597665 L283.652943,87.3408989 L321.472755,65.5080031 Z" id="Shape" fill="#24156D"></path>
                    <path d="M226.92625,163.763656 L302.568293,272.940234 L170.194113,349.365047 L226.92625,163.763656 Z M340.390283,76.3279053 L340.390283,98.2551691 L56.7308064,262.023665 L56.7308064,240.095191 L340.390283,76.3279053 Z M75.6416801,163.764624 L75.6416801,207.436465 L37.8218684,229.269361 L37.8218684,185.601149 L75.6416801,163.764624 Z M321.47215,21.8355574 L321.47215,65.5086081 L283.652338,87.3415038 L283.652338,43.6732926 L321.47215,21.8355574 Z" id="Shape" fill="#4C34BB"></path>
                </g>
            </g>
        </g>
    </g>
</svg>