<?xml version="1.0" encoding="UTF-8"?>
<svg width="160px" height="160px" viewBox="0 0 160 160" version="1.1" xmlns="http://www.w3.org/2000/svg" xmlns:xlink="http://www.w3.org/1999/xlink">
    <title>Brand/Illustrations/PDFs</title>
    <g id="Brand/Illustrations/PDFs" stroke="none" stroke-width="1" fill="none" fill-rule="evenodd">
        <rect id="background" fill-opacity="0" fill="#FFFFFF" fill-rule="nonzero" x="0" y="0" width="160" height="160"></rect>
        <g id="icon" transform="translate(16.2508, 34.6764)">
            <polygon id="Fill-1" fill="#FFFFFF" points="0 45.3212985 54.618651 76.9528309 118.537773 40.0494738 63.9185377 8.41794135"></polygon>
            <polygon id="Fill-2" fill="#4C34BB" points="118.537539 40.0492985 118.537539 50.5935321 54.6184174 87.4968893 54.6184174 76.9526556"></polygon>
            <polygon id="Fill-3" fill="#7ACEF0" points="0 55.8652984 54.618651 87.4968308 54.618651 76.9525972 0 45.3210648"></polygon>
            <polygon id="Fill-4" fill="#24156D" points="54.6185926 87.4967724 63.7490612 92.7685971 127.668183 55.86524 118.537715 50.5934153"></polygon>
            <g id="Group" transform="translate(3.5068, 0)">
                <polygon id="Fill-5" fill="#24156D" points="109.570063 36.8992677 113.522179 39.1788178 49.6030567 76.0821749 45.6503565 73.8026249"></polygon>
                <polygon id="Fill-7" fill="#4C34BB" points="109.575788 26.3619861 109.575788 36.9062197 45.6566659 73.8095768 45.6566659 63.2653432"></polygon>
                <polygon id="Fill-8" fill="#7ACEF0" points="0 47.4501028 45.6564322 73.8098105 45.6564322 63.2655769 0 36.9058692"></polygon>
                <polygon id="Fill-6" fill="#FFFFFF" points="63.9206993 0 0.0021615416 36.9033571 45.6585938 63.2630649 109.577716 26.3597077"></polygon>
                <path d="M21.2958467,35.1618877 L48.6895892,50.9773619 L44.8011511,53.2224441 L17.4074086,37.4063858 L21.2958467,35.1618877 Z M32.46979,28.7203185 L59.8641166,44.5357926 L55.9756786,46.7808749 L28.5813519,30.9654008 L32.46979,28.7203185 Z M42.9219769,22.6505286 L70.3157194,38.4660028 L66.4272813,40.711085 L39.0335388,24.8950267 L42.9219769,22.6505286 Z M54.0959202,16.2089594 L81.4902469,32.0244335 L77.6018088,34.2695158 L50.2074821,18.4540417 L54.0959202,16.2089594 Z M64.7781419,10.0406207 L92.1724686,25.8555106 L88.2840305,28.1011771 L60.8897038,12.2851188 L64.7781419,10.0406207 Z" id="Combined-Shape" fill="#24156D"></path>
                <path d="M7.39736006,63.7654886 L3.6985585,65.9011874 L3.6985585,63.7651067 L0,63.7654539 L3.6985585,61.6297204 L3.69845434,55.5250093 L4.24802986,55.2224441 L7.94658836,57.3574832 L7.39763783,57.6602567 L7.39736006,63.7654886 Z" id="Combined-Shape" fill="#24156D"></path>
            </g>
        </g>
    </g>
</svg>