<?xml version="1.0" encoding="UTF-8"?>
<svg id="Layer_1" data-name="Layer 1" xmlns="http://www.w3.org/2000/svg" version="1.1" viewBox="0 0 132 94">
  <defs>
    <style>
      .cls-1 {
        fill: #7acef0;
      }

      .cls-1, .cls-2, .cls-3, .cls-4 {
        stroke-width: 0px;
      }

      .cls-2 {
        fill: #4c34bb;
      }

      .cls-3 {
        fill: #fff;
      }

      .cls-4 {
        fill: #271472;
      }
    </style>
  </defs>
  <g id="Customized-2">
    <path id="Path" class="cls-4" d="M117.1,51.3l-58.5,34.2,14.7,8.5,58.7-34.1-14.9-8.6Z"/>
    <path id="Path-2" class="cls-1" d="M58.7,85.6v-17L0,34.5v17l58.7,34.1Z"/>
    <path id="Path-3" class="cls-3" d="M58.7,68.6l58.7-34.1L58.7,0,0,34.5l58.7,34.1Z"/>
    <path id="Path-4" class="cls-2" d="M117.5,34.5v16.8c-.1,0-58.7,34.3-58.7,34.3v-17l58.7-34.1Z"/>
    <path id="Path-5" class="cls-2" d="M90.1,38.5L52.5,15.6l3.9-1.6,36.9,22.6-3.2,1.8h0Z"/>
    <path id="Path-6" class="cls-2" d="M75.6,45.9l-37.7-22.9,3.9-1.6,36.9,22.6-3.2,1.8Z"/>
    <path id="Path-7" class="cls-2" d="M55.4,18.8c-1,.5-.7,1.5.6,1.8l3,.7c.6.2,1.2.1,1.8-.1l7.7-3.7c1-.5.7-1.5-.5-1.8l-2.9-.8c-.6-.2-1.2-.1-1.8.1l-7.8,3.7Z"/>
    <path id="Path-8" class="cls-1" d="M54.9,19.9s0,0,0,0c0,.1.1.2.2.3,0,0,0,0,0,0,0,0,.2.1.3.2,0,0,.1,0,.2,0,.1,0,.2,0,.3.1l3,.7c.1,0,.3,0,.4,0h0c.1,0,.3,0,.4,0h0c.1,0,.3,0,.4,0,0,0,0,0,0,0,.1,0,.2,0,.4-.1l7.7-3.7c.3-.1.5-.4.6-.7v2.3c-.2.3-.4.6-.7.7l-7.7,3.7c0,0-.2,0-.2,0h-.1s0,0,0,0c0,0,0,0,0,0,0,0-.1,0-.2,0,0,0-.1,0-.2,0h0c0,0-.1,0-.2,0h-.2s0,0,0,0h0c0,0-.1,0-.2,0,0,0-.1,0-.2,0l-3-.7s0,0,0,0c-.1,0-.2,0-.3,0,0,0-.1,0-.2,0,0,0-.2-.1-.3-.2,0,0,0,0,0,0h0s0,0-.1-.1c0,0,0,0,0-.1,0,0,0,0,0,0,0,0,0,0,0,0,0,0,0,0,0,0,0,0,0,0,0-.1,0,0,0,0,0-.1h0s.1-2.3.1-2.3c0,.1,0,.2,0,.3h0Z"/>
    <path id="Path-9" class="cls-2" d="M60.1,55.3l-37.6-22.9,3.9-1.6,36.9,22.6-3.2,1.8h0Z"/>
    <path id="Path-10" class="cls-2" d="M25.5,35.3c-1,.5-.7,1.5.5,1.8l3,.8c.6.2,1.2.1,1.8,0l7.7-3.5c1-.5.7-1.4-.5-1.8l-2.9-.8c-.6-.2-1.2-.1-1.8.1l-7.8,3.6Z"/>
    <path id="Path-11" class="cls-1" d="M25,36.3s0,0,0,0c0,.1.1.2.2.3,0,0,0,0,.1,0,0,0,.2.1.2.2,0,0,.1,0,.2,0,.1,0,.2,0,.3.1l3,.8c.1,0,.3,0,.4,0h0c.1,0,.3,0,.4,0h0c.1,0,.3,0,.4,0,0,0,0,0,0,0,.1,0,.3,0,.4-.1l7.7-3.5c.3-.1.6-.4.6-.7l-.2,2.3c0,.3-.3.6-.6.7l-7.7,3.5c0,0-.2,0-.2,0h-.1s0,0,0,0c0,0,0,0,0,0h-.2s-.2,0-.2,0h-.3s0,0,0,0h0c0,0-.1,0-.2,0,0,0-.1,0-.2,0l-3-.8s0,0,0,0c-.1,0-.2,0-.3-.1,0,0-.1,0-.2,0,0,0-.2-.1-.3-.2,0,0,0,0-.1,0h0s0,0-.1-.1c0,0,0,0,0-.1,0,0,0,0,0,0,0,0,0,0,0,0,0,0,0,0,0,0,0,0,0,0,0-.1,0,0,0,0,0-.1h0s.2-2.3.2-2.3c0,.1,0,.2,0,.3h0Z"/>
    <path id="Path-18" class="cls-2" d="M60.6,38.3c-1,.5-.7,1.5.5,1.8l3,.8c.6.2,1.2.1,1.8-.1l7.7-3.6c1-.5.7-1.5-.5-1.8l-2.9-.8c-.6-.2-1.2-.1-1.8.1l-7.8,3.7Z"/>
    <path id="Path-19" class="cls-1" d="M60.1,39.3s0,0,0,0c0,.1.1.2.2.3,0,0,0,0,0,0,0,0,.2.1.3.2,0,0,.1,0,.2,0,.1,0,.2,0,.3.1l3,.8c.1,0,.3,0,.4,0h0c.1,0,.3,0,.4,0h0c.1,0,.3,0,.4,0,0,0,0,0,0,0,.1,0,.2,0,.4-.1l7.7-3.7c.3-.1.6-.4.6-.7v2.3c-.2.3-.4.6-.7.7l-7.7,3.7c0,0-.2,0-.2,0h-.1s0,0,0,0c0,0,0,0,0,0h-.2c0,0-.1,0-.2,0h0c0,0-.1,0-.2,0h-.2s0,0,0,0h0c0,0-.1,0-.2,0,0,0-.1,0-.2,0l-3-.8s0,0,0,0c0,0-.2,0-.3-.1,0,0-.1,0-.2,0,0,0-.2-.1-.2-.2,0,0,0,0,0,0h0s0,0-.1-.1c0,0,0,0,0-.1,0,0,0,0,0,0,0,0,0,0,0,0,0,0,0,0,0,0,0,0,0,0,0-.1,0,0,0,0,0-.1h0s.1-2.3.1-2.3c0,.1,0,.2,0,.3h0Z"/>
  </g>
</svg>