<?xml version="1.0" encoding="UTF-8"?>
<svg id="Layer_1" data-name="Layer 1" xmlns="http://www.w3.org/2000/svg" version="1.1" xmlns:xlink="http://www.w3.org/1999/xlink" viewBox="0 0 137.2 126">
  <defs>
    <style>
      .cls-1 {
        clip-path: url(#clippath-20);
      }

      .cls-2 {
        clip-path: url(#clippath-11);
      }

      .cls-3 {
        clip-path: url(#clippath-16);
      }

      .cls-4 {
        clip-path: url(#clippath-2);
      }

      .cls-5 {
        clip-path: url(#clippath-13);
      }

      .cls-6 {
        clip-path: url(#clippath-25);
      }

      .cls-7 {
        clip-path: url(#clippath-15);
      }

      .cls-8 {
        clip-path: url(#clippath-6);
      }

      .cls-9 {
        clip-path: url(#clippath-26);
      }

      .cls-10 {
        fill: none;
      }

      .cls-10, .cls-11, .cls-12, .cls-13, .cls-14, .cls-15, .cls-16, .cls-17 {
        stroke-width: 0px;
      }

      .cls-18 {
        clip-path: url(#clippath-7);
      }

      .cls-19 {
        clip-path: url(#clippath-21);
      }

      .cls-20 {
        clip-path: url(#clippath-1);
      }

      .cls-21 {
        clip-path: url(#clippath-4);
      }

      .cls-22 {
        clip-path: url(#clippath-27);
      }

      .cls-11 {
        fill: #5fd6f6;
      }

      .cls-23 {
        clip-path: url(#clippath-12);
      }

      .cls-12 {
        fill: #7acef0;
      }

      .cls-24 {
        clip-path: url(#clippath-24);
      }

      .cls-25 {
        clip-path: url(#clippath-22);
      }

      .cls-26 {
        clip-path: url(#clippath-9);
      }

      .cls-27 {
        clip-path: url(#clippath);
      }

      .cls-13 {
        fill: #327183;
      }

      .cls-28 {
        clip-path: url(#clippath-19);
      }

      .cls-29 {
        clip-path: url(#clippath-3);
      }

      .cls-14 {
        fill: #24156d;
      }

      .cls-15 {
        fill: #4c34bb;
      }

      .cls-30 {
        clip-path: url(#clippath-8);
      }

      .cls-16 {
        fill: #5033c1;
      }

      .cls-17 {
        fill: #fff;
      }

      .cls-31 {
        clip-path: url(#clippath-18);
      }

      .cls-32 {
        clip-path: url(#clippath-14);
      }

      .cls-33 {
        clip-path: url(#clippath-17);
      }

      .cls-34 {
        clip-path: url(#clippath-5);
      }

      .cls-35 {
        clip-path: url(#clippath-10);
      }

      .cls-36 {
        clip-path: url(#clippath-23);
      }

      .cls-37 {
        clip-path: url(#clippath-28);
      }
    </style>
    <clipPath id="clippath">
      <path class="cls-10" d="M77.4,25.7l-4.8,8.9c-2.8-2.5-5.7-4.8-8.5-7l4.8-8.9c2.8,2.2,5.7,4.5,8.5,7Z"/>
    </clipPath>
    <clipPath id="clippath-1">
      <path class="cls-10" d="M31.9,15.7l4.8-8.9c.3-.6.7-1.1,1.3-1.4,3-1.7,10.6.5,19.5,5.6,2.2,1.2,4.4,2.7,6.6,4.2l-4.8,8.9c-2.2-1.5-4.5-2.9-6.6-4.2-8.9-5.1-16.5-7.3-19.5-5.6-.6.3-1,.8-1.3,1.4Z"/>
    </clipPath>
    <clipPath id="clippath-2">
      <path class="cls-10" d="M68.9,18.7l-4.8,8.9c-1.9,2.2-3.6,4.5-5.1,7l4.8-8.9c1.6-2.4,3.3-4.8,5.1-7Z"/>
    </clipPath>
    <clipPath id="clippath-3">
      <path class="cls-10" d="M98.5,48.1l-4.8,8.9c-2.3-3-4.8-5.9-7.3-8.8-2.6-2.9-5.3-5.7-8.1-8.4l4.8-8.9c2.8,2.7,5.5,5.5,8.1,8.4,2.6,2.9,5,5.8,7.3,8.8Z"/>
    </clipPath>
    <clipPath id="clippath-4">
      <path class="cls-10" d="M83,30.9l-4.8,8.9c-3.7-.3-7.4-.4-11.3-.4-3.7,0-7.5.1-11,.4l4.8-8.9c3.6-.3,7.3-.4,11-.4,3.9,0,7.6.1,11.3.4h0Z"/>
    </clipPath>
    <clipPath id="clippath-5">
      <path class="cls-10" d="M55.7,40.2l4.8-8.9c0-.1.1-.3.2-.4l-4.8,8.9c0,.1-.1.3-.2.4Z"/>
    </clipPath>
    <clipPath id="clippath-6">
      <path class="cls-10" d="M136.2,53.9l-4.8,8.9c-2.6,4.9-9.9,9.2-20.2,12.2l4.8-8.9c10.4-3,17.6-7.3,20.2-12.2Z"/>
    </clipPath>
    <clipPath id="clippath-7">
      <path class="cls-10" d="M108.3,62.7l-4.8,8.9c-1.6-2.8-3.5-5.8-5.5-8.7l4.8-8.9c2,2.9,3.9,5.8,5.5,8.7Z"/>
    </clipPath>
    <clipPath id="clippath-8">
      <path class="cls-10" d="M51.3,36.7l-4.8,8.9c.7-1.8,1.5-3.5,2.3-5.1l4.8-8.9c-.8,1.7-1.6,3.3-2.3,5.1Z"/>
    </clipPath>
    <clipPath id="clippath-9">
      <path class="cls-10" d="M53.6,31.6l-4.8,8.9c-3.4.5-6.7,1-9.7,1.7l4.8-8.9c3.1-.7,6.3-1.3,9.7-1.7Z"/>
    </clipPath>
    <clipPath id="clippath-10">
      <path class="cls-10" d="M26.6,12.9l4.8-8.9c-2.7,5.1-.8,14.5,4.9,25.8l-4.8,8.9c-5.7-11.3-7.6-20.7-4.9-25.8Z"/>
    </clipPath>
    <clipPath id="clippath-11">
      <path class="cls-10" d="M49.4,42l-4.8,8.9c.6-1.8,1.2-3.5,1.9-5.3l4.8-8.9c-.7,1.8-1.3,3.5-1.9,5.3Z"/>
    </clipPath>
    <clipPath id="clippath-12">
      <path class="cls-10" d="M91.7,64.8l-4.8,8.9c1.4-2.6,2.6-5.2,3.7-7.9,1.2-2.9,2.2-5.8,3-8.8l4.8-8.9c-.8,3-1.8,5.9-3,8.8-1.1,2.7-2.3,5.3-3.7,7.9h0Z"/>
    </clipPath>
    <clipPath id="clippath-13">
      <path class="cls-10" d="M110.9,67.4l-4.8,8.9c-5,1.1-10.1,1.9-15.2,2.4l4.8-8.9c5.1-.5,10.2-1.3,15.2-2.4Z"/>
    </clipPath>
    <clipPath id="clippath-14">
      <path class="cls-10" d="M86.8,53.7l-4.8,8.9c-.7,1.2-1.7,2.3-2.9,3-4.7,2.8-12.1,1.1-16.4-3.7-3.1-3.5-3.8-7.7-2.2-10.7l4.8-8.9c-1.7,3.1-1,7.3,2.2,10.7,4.3,4.8,11.7,6.5,16.4,3.7,1.2-.7,2.3-1.7,2.9-3Z"/>
    </clipPath>
    <clipPath id="clippath-15">
      <path class="cls-10" d="M47.6,47.9l-4.8,8.9c-3.2-4.3-6.1-8.7-8.8-13.3l4.8-8.9c2.7,4.6,5.6,9.1,8.8,13.3Z"/>
    </clipPath>
    <clipPath id="clippath-16">
      <path class="cls-10" d="M88.5,70.3l-4.8,8.9c-2.2,0-4.5.2-6.8.2l4.8-8.9c2.3,0,4.5,0,6.8-.2Z"/>
    </clipPath>
    <clipPath id="clippath-17">
      <path class="cls-10" d="M115.6,89.2l-4.8,8.9c1.5-2.8.9-8.4-1.8-15.2-.8-2.1-1.8-4.2-2.9-6.5l4.8-8.9c1.1,2.2,2.1,4.4,2.9,6.5,2.6,6.9,3.2,12.5,1.8,15.2Z"/>
    </clipPath>
    <clipPath id="clippath-18">
      <path class="cls-10" d="M81.7,70.5l-4.8,8.9c-2.3,0-4.6,0-6.9-.2l4.8-8.9c2.3,0,4.6.2,6.9.2Z"/>
    </clipPath>
    <clipPath id="clippath-19">
      <path class="cls-10" d="M61.8,64.4l-4.8,8.9c-1.7-1.7-3.3-3.4-4.9-5.2-1.6-1.8-3.1-3.6-4.6-5.3l4.8-8.9c1.5,1.8,3,3.5,4.6,5.3,1.6,1.8,3.2,3.5,4.9,5.2Z"/>
    </clipPath>
    <clipPath id="clippath-20">
      <path class="cls-10" d="M16.5,53.8l4.8-8.9c1.5-2.7,5.4-5.7,11.2-8,2.1-.9,4.2-1.6,6.4-2.2l-4.8,8.9c-2.2.6-4.3,1.4-6.4,2.2-5.7,2.4-9.7,5.3-11.2,8Z"/>
    </clipPath>
    <clipPath id="clippath-21">
      <path class="cls-10" d="M95.7,69.8l-4.8,8.9c-2.2,3.9-4.8,7.5-7.6,10.9l4.8-8.9c2.8-3.4,5.4-7.1,7.6-10.9Z"/>
    </clipPath>
    <clipPath id="clippath-22">
      <path class="cls-10" d="M45.4,61.3l-4.8,8.9c.4-4.5,1.1-9,2.3-13.4l4.8-8.9c-1.1,4.4-1.9,8.9-2.3,13.4Z"/>
    </clipPath>
    <clipPath id="clippath-23">
      <path class="cls-10" d="M80.2,80.7l-4.8,8.9c-4.5-3.4-8.8-7.1-12.9-10.9l4.8-8.9c4.1,3.9,8.4,7.5,12.9,10.9Z"/>
    </clipPath>
    <clipPath id="clippath-24">
      <path class="cls-10" d="M67.3,69.8l-4.8,8.9c-5.5-.5-11-1.3-16.4-2.4l4.8-8.9c5.4,1.1,10.9,1.9,16.4,2.4Z"/>
    </clipPath>
    <clipPath id="clippath-25">
      <path class="cls-10" d="M120.8,92l-4.8,8.9c-.6,1.2-1.6,2.2-2.7,2.8l4.8-8.9c1.2-.7,2.1-1.7,2.7-2.8Z"/>
    </clipPath>
    <clipPath id="clippath-26">
      <path class="cls-10" d="M118.1,94.8l-4.8,8.9c-6.1,3.5-18.8-.8-33-10.6l4.8-8.9c14.2,9.8,26.9,14.1,33,10.6Z"/>
    </clipPath>
    <clipPath id="clippath-27">
      <path class="cls-10" d="M11.3,51l4.8-8.9c-1,1.8-1.3,3.9-.8,5.9.5,1.8,1.5,3.5,2.8,4.9,4.7,5.3,14.5,10,27.2,13.2l-4.8,8.9c-12.6-3.2-22.5-8-27.2-13.2-1.3-1.4-2.3-3.1-2.8-4.9-.5-2-.2-4.1.8-5.9Z"/>
    </clipPath>
    <clipPath id="clippath-28">
      <path class="cls-10" d="M85.1,84.2l-4.8,8.9c-9.4,9.7-20,14-27.9,10.4-1.9-.9-3.6-2.1-4.9-3.7-4.7-5.2-7.2-14.2-7.1-24.9l4.8-8.9c-.1,10.6,2.4,19.6,7.1,24.9,1.4,1.6,3,2.8,4.9,3.7,7.9,3.6,18.4-.7,27.9-10.4Z"/>
    </clipPath>
  </defs>
  <g id="React-2">
    <path id="Shape" class="cls-14" d="M70.1,114.2c-9.4,9.7-20,14-27.9,10.4-1.9-.9-3.6-2.1-4.9-3.7-4.7-5.3-7.2-14.2-7.1-24.9-12.6-3.2-22.5-8-27.2-13.2-1.3-1.4-2.3-3.1-2.8-4.9-1.8-7.2,6.6-13.9,21-18.1-1.2-2.3.6-3,4.4-2.5-.9-1.8-1.7-3.6-2.3-5.3-3.2-8.4-3.4-14.9-.5-16.6s20.9,16.7,18.5,20.7c-4.2.4-8.5,1-12.7,1.8,5.3,1.4,10.6,3,15.7,5.1.4-.7.8-1.5,1.1-2.2,3.6-.3,27.8,5.5,30.5,8.4,2.6,2.9,5,5.8,7.3,8.8-.2.8-.5,1.6-.7,2.4,13.9,7.5,23.3,14.2,18.2,15.7,7.1,14,8.3,25.1,2.2,28.7h0c-1.6.9-3.4,1.3-5.2,1.2-6.8,0-16.8-4.3-27.8-11.8Z"/>
    <path id="Path-30" class="cls-12" d="M95.8,7.5l-2.4,4.5,2.4-4.5c-.7-.8-1.5-1.4-2.5-1.9l-2.4,4.5,2.4-4.5h0c-.1,0-.2-.1-.4-.2s-.2,0-.4-.1-.3,0-.4,0-.2,0-.4,0-.3,0-.4,0-.3,0-.4,0-.3,0-.5,0-.3,0-.4,0-.3,0-.5,0c-.1,0-.3,0-.5,0-.2,0-.4,0-.5,0-.2,0-.3,0-.5,0-.2,0-.4,0-.6.1-.2,0-.3,0-.5.1-.2,0-.4.1-.6.2s-.3,0-.5.2c-.2,0-.4.1-.6.2-.2,0-.3.1-.5.2-.2,0-.4.2-.6.3-.2,0-.3.1-.5.2-.2,0-.4.2-.6.3-.2,0-.3.2-.5.2-.2.1-.4.2-.7.4-.2,0-.3.2-.5.3-.2.1-.5.3-.7.4l-.5.3c-.3.2-.5.3-.8.5-.1,0-.3.2-.4.3-.2.2-.5.3-.7.5-.1.1-.3.2-.5.3-.4.3-.8.6-1.2.9-1.2.9-2.3,1.9-3.4,3-.4.4-.8.7-1.1,1.1l-4.8,8.9c1.4-1.5,3-2.9,4.6-4.2.4-.3.8-.6,1.2-.9.2-.1.3-.2.5-.3.2-.2.5-.3.7-.5.2-.1.3-.2.5-.3.2-.1.5-.3.7-.5.2-.1.3-.2.5-.3.2-.1.4-.3.7-.4.2-.1.4-.2.5-.3.2-.1.4-.2.6-.3.2,0,.4-.2.6-.3s.4-.2.6-.3c.2,0,.4-.1.5-.2.2,0,.4-.2.6-.2s.4-.1.5-.2c.2,0,.4-.1.6-.2s.3-.1.5-.2.4-.1.6-.2.3,0,.5-.1.4,0,.5-.1.3,0,.5,0,.4,0,.5,0,.3,0,.5,0,.3,0,.5,0h.4c.2,0,.3,0,.5,0s.3,0,.4,0,.3,0,.4,0,.3,0,.4,0,.3,0,.4,0,.2,0,.4.1c.1,0,.3,0,.4.2h0c.9.5,1.8,1.1,2.5,1.9h0c3.5,3.9,5.7,11.6,5.6,21.1l4.8-8.9c0-9.5-2.1-17.2-5.6-21.1h0Z"/>
    <path id="Path-31" class="cls-12" d="M129.2,44.8c0,0-.2-.2-.3-.3-.2-.2-.4-.4-.6-.5-.1-.1-.3-.2-.4-.3-.2-.2-.4-.3-.6-.5-.1-.1-.3-.2-.5-.3-.2-.2-.5-.3-.7-.5-.2-.1-.3-.2-.5-.3-.2-.2-.5-.3-.8-.5-.2-.1-.4-.2-.5-.3-.3-.2-.6-.3-.9-.5l-.6-.3c-.3-.2-.7-.3-1-.5-.2,0-.3-.2-.5-.3-.5-.2-1-.5-1.5-.7,0,0,0,0-.1,0h0s0,0-.1,0c-.5-.2-.9-.4-1.4-.6-.2,0-.4-.1-.5-.2-.4-.1-.7-.3-1.1-.4l-.6-.2c-.3-.1-.7-.2-1-.4-.2,0-.5-.2-.7-.2-.4-.1-.7-.2-1.1-.4-.2,0-.5-.2-.7-.2-.4-.1-.8-.2-1.1-.4l-.7-.2c-.4-.1-.9-.3-1.3-.4-.2,0-.4-.1-.6-.2-.6-.2-1.3-.4-2-.5l-4.8,8.9c.7.2,1.3.4,2,.5.2,0,.4.1.6.2.4.1.9.2,1.3.4.2,0,.5.1.7.2.4.1.8.2,1.1.4l.7.2c.4.1.7.2,1.1.4.2,0,.5.2.7.2.4.1.7.2,1,.4.2,0,.4.2.6.2.4.1.7.3,1.1.4.2,0,.4.1.5.2.5.2,1,.4,1.4.6,0,0,0,0,.1,0,0,0,0,0,.1,0,.5.2,1,.5,1.5.7.2,0,.3.2.5.3.3.2.7.3,1,.5.2.1.4.2.6.3.3.2.6.3.9.5.2.1.4.2.5.3.3.1.5.3.8.5.2.1.3.2.5.3.2.2.5.3.7.5.2.1.3.2.5.3.2.2.4.3.6.5.1.1.3.2.4.3.2.2.4.4.6.5,0,0,.2.2.3.3.3.3.5.5.8.8.7.7,1.2,1.5,1.5,2.5l4.8-8.9c-.3-.9-.8-1.8-1.5-2.5-.2-.3-.5-.5-.8-.8h0Z"/>
    <path id="Path-32" class="cls-11" d="M131.5,48.1l-4.8,8.9c.2,1.1,0,2.2-.5,3.1l4.8-8.9c.6-.9.7-2,.5-3.1Z"/>
    <path id="Path-33" class="cls-11" d="M77.4,25.7l-4.8,8.9c-2.8-2.5-5.7-4.8-8.5-7l4.8-8.9c2.8,2.2,5.7,4.5,8.5,7Z"/>
    <g id="Clipped">
      <path id="Path-34" class="cls-10" d="M77.4,25.7l-4.8,8.9c-2.8-2.5-5.7-4.8-8.5-7l4.8-8.9c2.8,2.2,5.7,4.5,8.5,7Z"/>
      <g class="cls-27">
        <g id="Clipped-2">
          <path id="Path-35" class="cls-12" d="M77.4,25.7l-4.8,8.9c-2.8-2.5-5.7-4.8-8.5-7l4.8-8.9c2.8,2.2,5.7,4.5,8.5,7"/>
        </g>
      </g>
    </g>
    <path id="Path-36" class="cls-11" d="M31.9,15.7l4.8-8.9c.3-.6.7-1.1,1.3-1.4,3-1.7,10.6.5,19.5,5.6,2.2,1.2,4.4,2.7,6.6,4.2l-4.8,8.9c-2.2-1.5-4.5-2.9-6.6-4.2-8.9-5.1-16.5-7.3-19.5-5.6-.6.3-1,.8-1.3,1.4Z"/>
    <g id="Clipped-3">
      <path id="Path-37" class="cls-10" d="M31.9,15.7l4.8-8.9c.3-.6.7-1.1,1.3-1.4,3-1.7,10.6.5,19.5,5.6,2.2,1.2,4.4,2.7,6.6,4.2l-4.8,8.9c-2.2-1.5-4.5-2.9-6.6-4.2-8.9-5.1-16.5-7.3-19.5-5.6-.6.3-1,.8-1.3,1.4Z"/>
      <g class="cls-20">
        <g id="Clipped-4">
          <g id="Group">
            <path id="Path-38" class="cls-12" d="M64.1,15.2l-4.8,8.9c-2.2-1.5-4.5-2.9-6.6-4.2-2.2-1.3-4.4-2.4-6.7-3.4l4.8-8.9c2.3,1,4.5,2.2,6.7,3.4,2.2,1.2,4.4,2.7,6.6,4.2"/>
            <path id="Path-39" class="cls-12" d="M50.7,7.6l-4.8,8.9c-5.9-2.6-10.6-3.4-12.8-2.2-.5.3-.9.7-1.1,1.1l4.8-8.9c.3-.5.7-.8,1.1-1.1,2.2-1.3,6.9-.4,12.8,2.2"/>
            <path id="Path-40" class="cls-11" d="M36.8,6.5l-4.8,8.9c0,0-.1.2-.2.3l4.8-8.9c0,0,.1-.2.2-.3"/>
          </g>
        </g>
      </g>
    </g>
    <path id="Path-41" class="cls-12" d="M101.2,33.4c-2.5-.5-5.2-1-7.9-1.4-.9-.1-1.8-.2-2.8-.4l-4.8,8.9c.9.1,1.9.2,2.8.4,2.7.4,5.4.9,7.9,1.4-.2,3-.7,5.9-1.3,8.8l4.8-8.9c.3-1.5.6-3,.8-4.5.2-1.5.4-2.9.5-4.3h0Z"/>
    <path id="Path-42" class="cls-11" d="M68.9,18.7l-4.8,8.9c-1.9,2.2-3.6,4.5-5.1,7l4.8-8.9c1.6-2.4,3.3-4.8,5.1-7Z"/>
    <g id="Clipped-5">
      <path id="Path-43" class="cls-10" d="M68.9,18.7l-4.8,8.9c-1.9,2.2-3.6,4.5-5.1,7l4.8-8.9c1.6-2.4,3.3-4.8,5.1-7Z"/>
      <g class="cls-4">
        <g id="Clipped-6">
          <path id="Path-44" class="cls-11" d="M68.9,18.7l-4.8,8.9c-1.9,2.2-3.6,4.5-5.1,7l4.8-8.9c1.6-2.4,3.3-4.8,5.1-7"/>
        </g>
      </g>
    </g>
    <path id="Path-45" class="cls-11" d="M98.5,48.1l-4.8,8.9c-2.3-3-4.8-5.9-7.3-8.8-2.6-2.9-5.3-5.7-8.1-8.4l4.8-8.9c2.8,2.7,5.5,5.5,8.1,8.4,2.6,2.9,5,5.8,7.3,8.8Z"/>
    <g id="Clipped-7">
      <path id="Path-46" class="cls-10" d="M98.5,48.1l-4.8,8.9c-2.3-3-4.8-5.9-7.3-8.8-2.6-2.9-5.3-5.7-8.1-8.4l4.8-8.9c2.8,2.7,5.5,5.5,8.1,8.4,2.6,2.9,5,5.8,7.3,8.8Z"/>
      <g class="cls-29">
        <g id="Clipped-8">
          <path id="Path-47" class="cls-12" d="M98.5,48.1l-4.8,8.9c-2.3-3-4.8-5.9-7.3-8.8-2.6-2.9-5.3-5.7-8.1-8.4l4.8-8.9c2.8,2.7,5.5,5.5,8.1,8.4,2.6,2.9,5,5.8,7.3,8.8"/>
        </g>
      </g>
    </g>
    <path id="Path-48" class="cls-11" d="M83,30.9l-4.8,8.9c-3.7-.3-7.4-.4-11.3-.4-3.7,0-7.5.1-11,.4l4.8-8.9c3.6-.3,7.3-.4,11-.4,3.9,0,7.6.1,11.3.4h0Z"/>
    <g id="Clipped-9">
      <path id="Path-49" class="cls-10" d="M83,30.9l-4.8,8.9c-3.7-.3-7.4-.4-11.3-.4-3.7,0-7.5.1-11,.4l4.8-8.9c3.6-.3,7.3-.4,11-.4,3.9,0,7.6.1,11.3.4h0Z"/>
      <g class="cls-21">
        <g id="Clipped-10">
          <path id="Path-50" class="cls-12" d="M83,30.9l-4.8,8.9c-3.7-.3-7.4-.4-11.3-.4-3.7,0-7.5.1-11,.4l4.8-8.9c3.6-.3,7.3-.4,11-.4,3.9,0,7.6.1,11.3.4"/>
        </g>
      </g>
    </g>
    <g id="Clipped-11">
      <path id="Path-51" class="cls-10" d="M55.7,40.2l4.8-8.9c0-.1.1-.3.2-.4l-4.8,8.9c0,.1-.1.3-.2.4Z"/>
      <g class="cls-34">
        <g id="Clipped-12">
          <path id="Path-52" class="cls-13" d="M60.7,30.9l-4.8,8.9c0,.1-.1.3-.2.4l4.8-8.9c0-.1.1-.3.2-.4"/>
        </g>
      </g>
    </g>
    <g id="Clipped-13">
      <path id="Path-53" class="cls-10" d="M136.2,53.9l-4.8,8.9c-2.6,4.9-9.9,9.2-20.2,12.2l4.8-8.9c10.4-3,17.6-7.3,20.2-12.2Z"/>
      <g class="cls-8">
        <g id="Clipped-14">
          <g id="Group-2">
            <path id="Path-54" class="cls-16" d="M136.2,53.9l-4.8,8.9c-.1.2-.3.5-.4.7l4.8-8.9c.2-.2.3-.5.4-.7"/>
            <path id="Path-55" class="cls-15" d="M135.7,54.7l-4.8,8.9c-2.9,4.6-10,8.6-19.8,11.5l4.8-8.9c9.8-2.9,16.9-6.9,19.8-11.5"/>
          </g>
        </g>
      </g>
    </g>
    <path id="Path-56" class="cls-11" d="M108.3,62.7l-4.8,8.9c-1.6-2.8-3.5-5.8-5.5-8.7l4.8-8.9c2,2.9,3.9,5.8,5.5,8.7Z"/>
    <g id="Clipped-15">
      <path id="Path-57" class="cls-10" d="M108.3,62.7l-4.8,8.9c-1.6-2.8-3.5-5.8-5.5-8.7l4.8-8.9c2,2.9,3.9,5.8,5.5,8.7Z"/>
      <g class="cls-18">
        <g id="Clipped-16">
          <path id="Path-58" class="cls-11" d="M108.3,62.7l-4.8,8.9c-1.6-2.8-3.5-5.8-5.5-8.7l4.8-8.9c2,2.9,3.9,5.8,5.5,8.7"/>
        </g>
      </g>
    </g>
    <path id="Path-59" class="cls-11" d="M51.3,36.7l-4.8,8.9c.7-1.8,1.5-3.5,2.3-5.1l4.8-8.9c-.8,1.7-1.6,3.3-2.3,5.1Z"/>
    <g id="Clipped-17">
      <path id="Path-60" class="cls-10" d="M51.3,36.7l-4.8,8.9c.7-1.8,1.5-3.5,2.3-5.1l4.8-8.9c-.8,1.7-1.6,3.3-2.3,5.1Z"/>
      <g class="cls-30">
        <g id="Clipped-18">
          <path id="Path-61" class="cls-11" d="M51.3,36.7l-4.8,8.9c.7-1.8,1.5-3.5,2.3-5.1l4.8-8.9c-.8,1.7-1.6,3.3-2.3,5.1"/>
        </g>
      </g>
    </g>
    <g id="Clipped-19">
      <path id="Path-62" class="cls-10" d="M53.6,31.6l-4.8,8.9c-3.4.5-6.7,1-9.7,1.7l4.8-8.9c3.1-.7,6.3-1.3,9.7-1.7Z"/>
      <g class="cls-26">
        <g id="Clipped-20">
          <path id="Path-63" class="cls-12" d="M53.6,31.6l-4.9,9.4c-3.4.5-6.5.6-9.6,1.3l4.8-8.9c3.1-.7,6.3-1.3,9.7-1.7"/>
        </g>
      </g>
    </g>
    <path id="Path-64" class="cls-16" d="M26.6,12.9l4.8-8.9c-2.7,5.1-.8,14.5,4.9,25.8l-4.8,8.9c-5.7-11.3-7.6-20.7-4.9-25.8Z"/>
    <g id="Clipped-21">
      <path id="Path-65" class="cls-10" d="M26.6,12.9l4.8-8.9c-2.7,5.1-.8,14.5,4.9,25.8l-4.8,8.9c-5.7-11.3-7.6-20.7-4.9-25.8Z"/>
      <g class="cls-35">
        <g id="Clipped-22">
          <path id="Path-66" class="cls-15" d="M36.3,29.9l-4.8,8.9c-5.7-11.3-7.6-20.7-4.9-25.8l4.8-8.9c-2.7,5.1-.8,14.5,4.9,25.8"/>
        </g>
      </g>
    </g>
    <path id="Path-67" class="cls-11" d="M49.4,42l-4.8,8.9c.6-1.8,1.2-3.5,1.9-5.3l4.8-8.9c-.7,1.8-1.3,3.5-1.9,5.3Z"/>
    <g id="Clipped-23">
      <path id="Path-68" class="cls-10" d="M49.4,42l-4.8,8.9c.6-1.8,1.2-3.5,1.9-5.3l4.8-8.9c-.7,1.8-1.3,3.5-1.9,5.3Z"/>
      <g class="cls-2">
        <g id="Clipped-24">
          <path id="Path-69" class="cls-11" d="M49.4,42l-4.8,8.9c.6-1.8,1.2-3.5,1.9-5.3l4.8-8.9c-.7,1.8-1.3,3.5-1.9,5.3"/>
        </g>
      </g>
    </g>
    <path id="Path-70" class="cls-11" d="M91.7,64.8l-4.8,8.9c1.4-2.6,2.6-5.2,3.7-7.9,1.2-2.9,2.2-5.8,3-8.8l4.8-8.9c-.8,3-1.8,5.9-3,8.8-1.1,2.7-2.3,5.3-3.7,7.9h0Z"/>
    <g id="Clipped-25">
      <path id="Path-71" class="cls-10" d="M91.7,64.8l-4.8,8.9c1.4-2.6,2.6-5.2,3.7-7.9,1.2-2.9,2.2-5.8,3-8.8l4.8-8.9c-.8,3-1.8,5.9-3,8.8-1.1,2.7-2.3,5.3-3.7,7.9h0Z"/>
      <g class="cls-23">
        <g id="Clipped-26">
          <path id="Path-72" class="cls-11" d="M91.7,64.8l-4.8,8.9c1.4-2.6,2.6-5.2,3.7-7.9,1.2-2.9,2.2-5.8,3-8.8l4.8-8.9c-.8,3-1.8,5.9-3,8.8-1.1,2.7-2.3,5.3-3.7,7.9"/>
        </g>
      </g>
    </g>
    <path id="Path-73" class="cls-11" d="M110.9,67.4l-4.8,8.9c-5,1.1-10.1,1.9-15.2,2.4l4.8-8.9c5.1-.5,10.2-1.3,15.2-2.4Z"/>
    <g id="Clipped-27">
      <path id="Path-74" class="cls-10" d="M110.9,67.4l-4.8,8.9c-5,1.1-10.1,1.9-15.2,2.4l4.8-8.9c5.1-.5,10.2-1.3,15.2-2.4Z"/>
      <g class="cls-5">
        <g id="Clipped-28">
          <path id="Path-75" class="cls-12" d="M110.9,67.4l-4.8,8.9c-5,1.1-10.1,1.9-15.2,2.4l4.8-8.9c5.1-.5,10.2-1.3,15.2-2.4"/>
        </g>
      </g>
    </g>
    <path id="Path-76" class="cls-11" d="M86.8,53.7l-4.8,8.9c-.7,1.2-1.7,2.3-2.9,3-4.7,2.8-12.1,1.1-16.4-3.7-3.1-3.5-3.8-7.7-2.2-10.7l4.8-8.9c-1.7,3.1-1,7.3,2.2,10.7,4.3,4.8,11.7,6.5,16.4,3.7,1.2-.7,2.3-1.7,2.9-3Z"/>
    <g id="Clipped-29">
      <path id="Path-77" class="cls-10" d="M86.8,53.7l-4.8,8.9c-.7,1.2-1.7,2.3-2.9,3-4.7,2.8-12.1,1.1-16.4-3.7-3.1-3.5-3.8-7.7-2.2-10.7l4.8-8.9c-1.7,3.1-1,7.3,2.2,10.7,4.3,4.8,11.7,6.5,16.4,3.7,1.2-.7,2.3-1.7,2.9-3Z"/>
      <g class="cls-32">
        <g id="Clipped-30">
          <g id="Group-3">
            <path id="Path-78" class="cls-11" d="M86.8,53.7l-4.8,8.9c0,.2-.2.3-.3.5l4.8-8.9c0-.2.2-.3.3-.5"/>
            <path id="Path-79" class="cls-11" d="M86.6,54.2l-4.8,8.9c-.7,1-1.6,1.9-2.7,2.5-3.1,1.8-7.4,1.7-11.1,0l4.8-8.9c3.8,1.7,8,1.8,11.1,0,1.1-.6,2-1.5,2.7-2.5"/>
            <path id="Path-80" class="cls-11" d="M72.8,56.8l-4.8,8.9c-2-.9-3.8-2.2-5.3-3.8-3.1-3.5-3.8-7.7-2.2-10.7l4.8-8.9c-1.7,3.1-1,7.3,2.2,10.7,1.5,1.6,3.3,2.9,5.3,3.8"/>
          </g>
        </g>
      </g>
    </g>
    <path id="Path-81" class="cls-11" d="M47.6,47.9l-4.8,8.9c-3.2-4.3-6.1-8.7-8.8-13.3l4.8-8.9c2.7,4.6,5.6,9.1,8.8,13.3Z"/>
    <g id="Clipped-31">
      <path id="Path-82" class="cls-10" d="M47.6,47.9l-4.8,8.9c-3.2-4.3-6.1-8.7-8.8-13.3l4.8-8.9c2.7,4.6,5.6,9.1,8.8,13.3Z"/>
      <g class="cls-7">
        <g id="Clipped-32">
          <path id="Path-83" class="cls-12" d="M47.6,47.9l-4.8,8.9c-3.2-4.3-6.1-8.7-8.8-13.3l4.8-8.9c2.7,4.6,5.6,9.1,8.8,13.3"/>
        </g>
      </g>
    </g>
    <path id="Path-84" class="cls-11" d="M88.5,70.3l-4.8,8.9c-2.2,0-4.5.1-6.8.1l4.8-8.9c2.3,0,4.5,0,6.8-.2Z"/>
    <g id="Clipped-33">
      <path id="Path-85" class="cls-10" d="M88.5,70.3l-4.8,8.9c-2.2,0-4.5.1-6.8.1l4.8-8.9c2.3,0,4.5,0,6.8-.2Z"/>
      <g class="cls-3">
        <g id="Clipped-34">
          <path id="Path-86" class="cls-12" d="M88.5,70.3l-4.8,8.9c-2.2,0-4.5.1-6.8.1l4.8-8.9c2.3,0,4.5,0,6.8-.2"/>
        </g>
      </g>
    </g>
    <path id="Path-87" class="cls-11" d="M115.6,89.2l-4.8,8.9c1.5-2.8.9-8.4-1.8-15.2-.8-2.1-1.8-4.2-2.9-6.5l4.8-8.9c1.1,2.2,2.1,4.4,2.9,6.5,2.6,6.9,3.2,12.5,1.8,15.2Z"/>
    <g id="Clipped-35">
      <path id="Path-88" class="cls-10" d="M115.6,89.2l-4.8,8.9c1.5-2.8.9-8.4-1.8-15.2-.8-2.1-1.8-4.2-2.9-6.5l4.8-8.9c1.1,2.2,2.1,4.4,2.9,6.5,2.6,6.9,3.2,12.5,1.8,15.2Z"/>
      <g class="cls-33">
        <g id="Clipped-36">
          <path id="Path-89" class="cls-12" d="M115.6,89.2l-4.8,8.9c1.5-2.8.9-8.4-1.8-15.2-.8-2.1-1.8-4.2-2.9-6.5l4.8-8.9c1.1,2.2,2.1,4.4,2.9,6.5,2.6,6.9,3.2,12.5,1.8,15.2"/>
        </g>
      </g>
    </g>
    <path id="Path-90" class="cls-11" d="M81.7,70.5l-4.8,8.9c-2.3,0-4.6,0-6.9-.2l4.8-8.9c2.3,0,4.6.2,6.9.2Z"/>
    <g id="Clipped-37">
      <path id="Path-91" class="cls-10" d="M81.7,70.5l-4.8,8.9c-2.3,0-4.6,0-6.9-.2l4.8-8.9c2.3,0,4.6.2,6.9.2Z"/>
      <g class="cls-31">
        <g id="Clipped-38">
          <path id="Path-92" class="cls-11" d="M81.7,70.5l-4.8,8.9c-2.3,0-4.6,0-6.9-.2l4.8-8.9c2.3,0,4.6.2,6.9.2"/>
        </g>
      </g>
    </g>
    <path id="Path-93" class="cls-11" d="M61.8,64.4l-4.8,8.9c-1.7-1.7-3.3-3.4-4.9-5.2s-3.1-3.6-4.6-5.3l4.8-8.9c1.5,1.8,3,3.5,4.6,5.3,1.6,1.8,3.2,3.5,4.9,5.2Z"/>
    <g id="Clipped-39">
      <path id="Path-94" class="cls-10" d="M61.8,64.4l-4.8,8.9c-1.7-1.7-3.3-3.4-4.9-5.2s-3.1-3.6-4.6-5.3l4.8-8.9c1.5,1.8,3,3.5,4.6,5.3,1.6,1.8,3.2,3.5,4.9,5.2Z"/>
      <g class="cls-28">
        <g id="Clipped-40">
          <path id="Path-95" class="cls-12" d="M61.8,64.4l-4.8,8.9c-1.7-1.7-3.3-3.4-4.9-5.2s-3.1-3.6-4.6-5.3l4.8-8.9c1.5,1.8,3,3.5,4.6,5.3,1.6,1.8,3.2,3.5,4.9,5.2"/>
        </g>
      </g>
    </g>
    <g id="Clipped-41">
      <path id="Path-96" class="cls-10" d="M16.5,53.8l4.8-8.9c1.5-2.7,5.4-5.7,11.2-8,2.1-.9,4.2-1.6,6.4-2.2l-4.8,8.9c-2.2.6-4.3,1.4-6.4,2.2-5.7,2.4-9.7,5.3-11.2,8Z"/>
      <g class="cls-1">
        <g id="Clipped-42">
          <g id="Group-4">
            <path id="Path-97" class="cls-12" d="M38.8,34.6l-4.8,8.9c-2.2.6-4.3,1.4-6.4,2.2-5.4,2.2-9.2,4.9-10.9,7.5l4.8-8.9c1.7-2.6,5.5-5.3,10.9-7.5,2.1-.9,4.2-1.6,6.4-2.2"/>
            <path id="Path-98" class="cls-11" d="M21.6,44.4l-4.8,8.9c-.1.2-.2.3-.3.5l4.8-8.9c0-.2.2-.3.3-.5"/>
          </g>
        </g>
      </g>
    </g>
    <path id="Path-99" class="cls-11" d="M95.7,69.8l-4.8,8.9c-2.2,3.9-4.8,7.5-7.6,10.9l4.8-8.9c2.8-3.4,5.4-7.1,7.6-10.9Z"/>
    <g id="Clipped-43">
      <path id="Path-100" class="cls-10" d="M95.7,69.8l-4.8,8.9c-2.2,3.9-4.8,7.5-7.6,10.9l4.8-8.9c2.8-3.4,5.4-7.1,7.6-10.9Z"/>
      <g class="cls-19">
        <g id="Clipped-44">
          <g id="Group-5">
            <path id="Path-101" class="cls-11" d="M95.7,69.8l-4.8,8.9c-.6,1.1-1.2,2.1-1.9,3.1l4.8-8.9c.6-1,1.3-2,1.9-3.1"/>
            <path id="Path-102" class="cls-11" d="M93.9,72.9l-4.8,8.9c-1.7,2.7-3.6,5.4-5.7,7.9l4.8-8.9c2.1-2.5,4-5.1,5.7-7.9"/>
          </g>
        </g>
      </g>
    </g>
    <path id="Path-103" class="cls-11" d="M45.4,61.3l-4.8,8.9c.4-4.5,1.1-9,2.3-13.4l4.8-8.9c-1.1,4.4-1.9,8.9-2.3,13.4Z"/>
    <g id="Clipped-45">
      <path id="Path-104" class="cls-10" d="M45.4,61.3l-4.8,8.9c.4-4.5,1.1-9,2.3-13.4l4.8-8.9c-1.1,4.4-1.9,8.9-2.3,13.4Z"/>
      <g class="cls-25">
        <g id="Clipped-46">
          <path id="Path-105" class="cls-12" d="M45.4,61.3l-4.8,8.9c.4-4.5,1.1-9,2.3-13.4l4.8-8.9c-1.1,4.4-1.9,8.9-2.3,13.4"/>
        </g>
      </g>
    </g>
    <path id="Path-106" class="cls-11" d="M80.2,80.7l-4.8,8.9c-4.5-3.4-8.8-7.1-12.9-10.9l4.8-8.9c4.1,3.9,8.4,7.5,12.9,10.9Z"/>
    <g id="Clipped-47">
      <path id="Path-107" class="cls-10" d="M80.2,80.7l-4.8,8.9c-4.5-3.4-8.8-7.1-12.9-10.9l4.8-8.9c4.1,3.9,8.4,7.5,12.9,10.9Z"/>
      <g class="cls-36">
        <g id="Clipped-48">
          <path id="Path-108" class="cls-11" d="M80.2,80.7l-4.8,8.9c-4.5-3.4-8.8-7.1-12.9-10.9l4.8-8.9c4.1,3.9,8.4,7.5,12.9,10.9"/>
        </g>
      </g>
    </g>
    <path id="Path-109" class="cls-11" d="M67.3,69.8l-4.8,8.9c-5.5-.5-11-1.3-16.4-2.4l4.8-8.9c5.4,1.1,10.9,1.9,16.4,2.4Z"/>
    <g id="Clipped-49">
      <path id="Path-110" class="cls-10" d="M67.3,69.8l-4.8,8.9c-5.5-.5-11-1.3-16.4-2.4l4.8-8.9c5.4,1.1,10.9,1.9,16.4,2.4Z"/>
      <g class="cls-24">
        <g id="Clipped-50">
          <path id="Path-111" class="cls-11" d="M67.3,69.8l-4.8,8.9c-5.5-.5-11-1.3-16.4-2.4l4.8-8.9c5.4,1.1,10.9,1.9,16.4,2.4"/>
        </g>
      </g>
    </g>
    <path id="Path-112" class="cls-17" d="M84.7,43c4.3,4.8,4,11-.8,13.7s-12.1,1.1-16.4-3.7-4-11,.8-13.7c4.7-2.8,12.1-1.1,16.4,3.7h0Z"/>
    <g id="Clipped-51">
      <path id="Path-113" class="cls-10" d="M120.8,92l-4.8,8.9c-.6,1.2-1.6,2.2-2.7,2.8l4.8-8.9c1.2-.7,2.1-1.7,2.7-2.8Z"/>
      <g class="cls-6">
        <g id="Clipped-52">
          <g id="Group-6">
            <path id="Path-114" class="cls-16" d="M120.8,92l-4.8,8.9c0,.2-.2.3-.3.5l4.8-8.9c.1-.2.2-.3.3-.5"/>
            <path id="Path-115" class="cls-16" d="M120.5,92.5l-4.8,8.9c-.6,1-1.4,1.8-2.4,2.3l4.8-8.9c1-.6,1.8-1.4,2.4-2.3"/>
          </g>
        </g>
      </g>
    </g>
    <g id="Clipped-53">
      <path id="Path-116" class="cls-10" d="M118.1,94.8l-4.8,8.9c-6.1,3.5-18.8-.8-33-10.6l4.8-8.9c14.2,9.8,26.9,14.1,33,10.6Z"/>
      <g class="cls-9">
        <g id="Clipped-54">
          <path id="Path-117" class="cls-15" d="M99.9,92.7c-5.2-2.3-10.1-5.2-14.8-8.4l-4.8,8.9c4.7,3.3,9.6,6.1,14.8,8.4,7.9,3.4,14.4,4.4,18.2,2.1l4.8-8.9c-3.9,2.2-10.4,1.3-18.2-2.1h0Z"/>
        </g>
      </g>
    </g>
    <g id="Clipped-55">
      <path id="Path-118" class="cls-10" d="M11.3,51l4.8-8.9c-1,1.8-1.3,3.9-.8,5.9.5,1.8,1.5,3.5,2.8,4.9,4.7,5.3,14.5,10,27.2,13.2l-4.8,8.9c-12.6-3.2-22.5-8-27.2-13.2-1.3-1.4-2.3-3.1-2.8-4.9-.5-2-.2-4.1.8-5.9Z"/>
      <g class="cls-22">
        <g id="Clipped-56">
          <path id="Path-119" class="cls-15" d="M30.9,61.2c-5.7-2.5-10.1-5.4-12.9-8.4-1.3-1.4-2.3-3.1-2.8-4.9-.5-2-.2-4.1.8-5.9l-4.8,8.9c-1,1.8-1.3,3.9-.8,5.9.5,1.8,1.5,3.5,2.8,4.9,2.7,3,7.2,5.9,12.9,8.4,4.6,2,9.4,3.6,14.3,4.8l4.8-8.9c-4.9-1.2-9.7-2.8-14.3-4.8Z"/>
        </g>
      </g>
    </g>
    <g id="Clipped-57">
      <path id="Path-120" class="cls-10" d="M85.1,84.2l-4.8,8.9c-9.4,9.7-20,14-27.9,10.4-1.9-.9-3.6-2.1-4.9-3.7-4.7-5.2-7.2-14.2-7.1-24.9l4.8-8.9c-.1,10.6,2.4,19.6,7.1,24.9,1.4,1.6,3,2.8,4.9,3.7,7.9,3.6,18.4-.7,27.9-10.4Z"/>
      <g class="cls-37">
        <g id="Clipped-58">
          <path id="Path-121" class="cls-15" d="M57.4,94.7c0,0-.1,0-.2,0-1.9-.9-3.6-2.1-4.9-3.7-4.7-5.2-7.2-14.2-7.1-24.9l-4.8,8.9c-.1,10.6,2.4,19.6,7.1,24.9,1.4,1.6,3,2.8,4.9,3.7,0,0,.1,0,.2,0,7.8,3.4,18.3-.9,27.6-10.5l4.8-8.9c-9.4,9.6-19.8,13.9-27.6,10.5h0Z"/>
        </g>
      </g>
    </g>
  </g>
  <path class="cls-17" d="M137,48c-.5-1.8-1.4-3.5-2.7-4.9-4.7-5.3-14.5-10-27.2-13.2.1-10.6-2.4-19.6-7.1-24.9-1.4-1.6-3-2.8-4.9-3.7-7.9-3.6-18.4.7-27.9,10.4C52.9,2,40.2-2.4,34.1,1.2s-4.9,14.7,2.2,28.7c-14.4,4.2-22.8,10.9-21.1,18.1.5,1.8,1.5,3.5,2.8,4.9,4.7,5.3,14.5,10,27.2,13.2-.1,10.6,2.4,19.6,7.1,24.9,1.4,1.6,3,2.8,4.9,3.7,7.9,3.6,18.4-.7,27.9-10.4,14.2,9.8,26.9,14.1,33,10.6h0c6.1-3.6,4.9-14.7-2.2-28.7,14.4-4.2,22.8-10.9,21-18.1ZM61.1,56.7c-2.6-2.9-5-5.8-7.3-8.8.9-3,1.9-5.9,3-8.8,1.1-2.8,2.5-5.6,3.9-8.3,3.6-.3,7.3-.4,11-.4,3.9,0,7.6.1,11.3.4,2.8,2.7,5.5,5.5,8.1,8.4,2.6,2.9,5,5.8,7.3,8.8-.9,3-1.9,5.9-3,8.8-1.1,2.8-2.5,5.6-3.9,8.3-3.6.3-7.3.4-11,.4-3.9,0-7.6-.1-11.3-.4-2.8-2.7-5.5-5.5-8.1-8.4ZM61.8,64.4c-3.7-.4-7.3-1-10.7-1.8.2-3,.6-5.9,1.3-8.8,1.5,1.8,3,3.5,4.6,5.3,1.6,1.8,3.2,3.5,4.9,5.2ZM95.3,36.8c-1.6-1.8-3.2-3.6-4.9-5.2,3.7.4,7.3,1.1,10.7,1.8-.2,3-.7,5.9-1.3,8.8-1.5-1.8-3-3.5-4.6-5.3ZM100.9,59.3h0c.7-1.7,1.3-3.5,1.9-5.3,2,2.9,3.9,5.8,5.5,8.7-3.1.7-6.3,1.3-9.7,1.7.8-1.7,1.6-3.4,2.3-5.1ZM76.6,11.1c6.4-5.1,12.9-7.2,16.7-5.5h0c.9.5,1.8,1.1,2.5,1.9,3.5,3.9,5.7,11.6,5.6,21.1-5.4-1.1-10.9-1.9-16.5-2.4-4.1-3.9-8.4-7.5-12.9-10.9,1.4-1.5,3-2.9,4.6-4.2ZM68.9,18.7h0s0,0,0,0c2.8,2.2,5.7,4.5,8.5,7-2.3-.1-4.6-.2-6.9-.2s-4.5,0-6.7.1c1.6-2.4,3.3-4.8,5.1-7,0,0,0,0,0,0ZM37.9,5.4c3-1.7,10.6.5,19.5,5.6,2.2,1.2,4.4,2.7,6.6,4.2-2.8,3.4-5.4,7.1-7.6,10.9-5.1.5-10.2,1.3-15.2,2.4h0c-1.1-2.2-2.1-4.4-2.9-6.5-3.2-8.4-3.4-14.9-.5-16.6ZM45.4,61.3c-11.3-2.9-19.6-6.9-23.2-10.9-.7-.7-1.1-1.5-1.4-2.5-.9-3.4,3.7-7.8,11.7-11.1,2.1-.9,4.2-1.6,6.4-2.2,2.7,4.6,5.6,9.1,8.8,13.3-1.1,4.4-1.9,8.9-2.3,13.4ZM43.9,33.3c3.1-.7,6.3-1.3,9.7-1.7-.8,1.7-1.6,3.4-2.3,5.1h0c-.7,1.8-1.4,3.5-1.9,5.3-2-2.9-3.9-5.8-5.5-8.7ZM75.7,84.9c-6.4,5.1-12.9,7.2-16.7,5.5h0c-.9-.5-1.8-1.1-2.5-1.9-3.5-3.9-5.7-11.6-5.6-21.1,5.4,1.1,10.9,1.9,16.4,2.4,4.1,3.9,8.4,7.5,13,10.9-1.4,1.5-3,2.9-4.6,4.2ZM83.3,77.3c-2.9-2.2-5.7-4.5-8.6-7,2.3,0,4.6.2,6.9.2h0c2.3,0,4.5,0,6.8-.1-1.6,2.4-3.3,4.8-5.1,7ZM114.3,90.6c-3,1.7-10.6-.5-19.5-5.6h0c-2.2-1.2-4.4-2.7-6.6-4.2,2.8-3.4,5.4-7.1,7.6-10.9,5.1-.5,10.2-1.3,15.2-2.4,1.1,2.2,2.1,4.4,2.9,6.5,3.2,8.4,3.4,14.9.5,16.6ZM119.8,59.2c-2.1.9-4.2,1.6-6.4,2.2-2.7-4.6-5.6-9.1-8.8-13.3,1.1-4.4,1.9-8.9,2.3-13.4,11.3,2.9,19.6,6.9,23.1,10.9.7.7,1.2,1.5,1.5,2.5.9,3.4-3.7,7.8-11.7,11.1Z"/>
</svg>