<?xml version="1.0" encoding="UTF-8"?>
<svg width="32px" height="32px" viewBox="0 0 32 32" version="1.1" xmlns="http://www.w3.org/2000/svg" xmlns:xlink="http://www.w3.org/1999/xlink">
    <title>Icons/Customer</title>
    <g id="Icons/Customer" stroke="none" stroke-width="1" fill="none" fill-rule="evenodd">
        <path d="M16,4 C22.624,4 28,9.376 28,16 C28,18.5299127 27.2157949,20.8777777 25.8773674,22.8136124 C25.7708993,20.6029036 23.9451361,18.8436147 21.7084688,18.8436147 C19.4032911,18.8436147 17.5345753,20.7123305 17.5345753,23.0175082 L17.5346458,27.9026425 C17.0321158,27.9668822 16.519902,28 16,28 C15.9047968,28 15.8098513,27.9988895 15.7151759,27.9966807 L15.715421,21.7970975 C15.715421,19.4919198 13.8467052,17.623204 11.5415275,17.623204 C9.23634974,17.623204 7.36763394,19.4919198 7.36763394,21.7970975 L7.36720012,24.332563 C5.28278351,22.173598 4,19.2356935 4,16 C4,9.376 9.376,4 16,4 Z M21.7085348,11.7432216 C20.0551243,11.7432216 18.7107625,13.072131 18.7262149,14.7255415 C18.7262149,16.378952 20.0551243,17.7078613 21.7085348,17.7078613 C23.3619453,17.7078613 24.6908546,16.378952 24.6908546,14.7255415 C24.6908546,13.072131 23.3619453,11.7432216 21.7085348,11.7432216 Z M11.5415275,9.19390159 C9.51725858,9.19390159 7.89475296,10.8164072 7.89475296,12.8406761 C7.89475296,14.8494926 9.53271101,16.4874506 11.5415275,16.4874506 C13.550344,16.4874506 15.188302,14.8494926 15.188302,12.8406761 C15.188302,10.8318596 13.550344,9.19390159 11.5415275,9.19390159 Z" id="Combined-Shape" fill="#4C34BB"></path>
    </g>
</svg>