<svg id="Laws" xmlns="http://www.w3.org/2000/svg" xmlns:xlink="http://www.w3.org/1999/xlink" width="64.243" height="67.488" viewBox="0 0 64.243 67.488">
  <defs>
    <clipPath id="clip-path">
      <rect id="Rectangle_15" data-name="Rectangle 15" width="64.243" height="67.488" fill="#24156d"/>
    </clipPath>
  </defs>
  <g id="Group_35" data-name="Group 35">
    <g id="Group_34" data-name="Group 34" clip-path="url(#clip-path)">
      <path id="Path_29" data-name="Path 29" d="M175.443,33.8q0,15.6,0,31.194a2.587,2.587,0,0,1-2.477,2.492H149.01a2.628,2.628,0,0,1-2.476-2.514q0-31.284,0-62.569A2.684,2.684,0,0,1,148.939,0q12.068,0,24.137,0a2.592,2.592,0,0,1,2.365,2.422q0,15.687,0,31.375m-12.926-1.665V25.725c-.907,0-1.746-.032-2.58.023-.2.013-.531.316-.535.492-.039,1.8-.036,3.609,0,5.413a.686.686,0,0,0,.485.459c.863.048,1.73.022,2.63.022m6.51,0c0-2.087.01-4.033-.02-5.979a.612.612,0,0,0-.434-.407c-.888-.04-1.779-.019-2.693-.019V32.07c.254.025.458.061.662.063.777.007,1.554,0,2.485,0m-12.863-6.414c-.927,0-1.708.027-2.486-.009-.573-.027-.72.223-.707.748.027,1.113.006,2.226.006,3.34,0,2.509,0,2.509,2.54,2.33.06,0,.145.022.176-.009.165-.161.449-.334.452-.506.032-1.919.02-3.838.02-5.893m12.813-19.2h-3.064v6.3h3.064ZM165.894,22.4h3.072V16.125h-3.072ZM156.112,6.529h-3.062V12.8h3.062Zm3.356,6.265h3.042V6.512h-3.042Zm-6.417,3.34v6.352c.913,0,1.752.027,2.586-.021.183-.011.5-.288.5-.448.035-1.946.023-3.893.023-5.883Zm9.473,6.237V16.159h-3.149v3.66c0,2.927,0,2.928,2.932,2.642a1.032,1.032,0,0,0,.217-.09" transform="translate(-111.2 0)" fill="#24156d"/>
      <path id="Path_30" data-name="Path 30" d="M28.924,139.15q0,8.412,0,16.824a2.591,2.591,0,0,1-2.539,2.536H2.419A2.647,2.647,0,0,1,0,156.126q0-16.869,0-33.737a2.628,2.628,0,0,1,2.45-2.441q12.027,0,24.055,0a2.615,2.615,0,0,1,2.42,2.47q0,8.366,0,16.733" transform="translate(0 -91.023)" fill="#24156d"/>
    </g>
  </g>
</svg>
