<?xml version="1.0" encoding="UTF-8"?>
<svg width="24px" height="24px" viewBox="0 0 24 24" version="1.1" xmlns="http://www.w3.org/2000/svg" xmlns:xlink="http://www.w3.org/1999/xlink">
    <title>F7E70491-577D-493B-A41F-0764D7A2B58F</title>
    <g id="Core-Pages" stroke="none" stroke-width="1" fill="none" fill-rule="evenodd">
        <g id="Graphic-Design" transform="translate(-359.9803, -59.4583)">
            <rect fill="#FFFFFF" x="0" y="0" width="1440" height="9371"></rect>
            <g id="UI/Molecules/Header/White" transform="translate(120, 40)" fill="#4C34BB">
                <g id="Interaction/Icons/Search" transform="translate(239.9803, 19.4583)">
                    <path d="M3.36676318,20.6255086 C2.86484354,20.1234373 2.86484354,19.3095798 3.36676318,18.8075086 L6.80090603,15.3733657 C6.91043541,15.2664289 6.92976928,15.0972576 6.84719175,14.9683657 C4.66245619,11.6616384 5.33629042,7.23777785 8.40645708,4.73146754 C11.4766237,2.22515723 15.9458297,2.45053087 18.7482853,5.25298646 C21.5507409,8.05544205 21.7761145,12.524648 19.2698042,15.5948147 C16.7634939,18.6649813 12.3396333,19.3388156 9.03290603,17.15408 C8.90519135,17.0701788 8.73613915,17.0873524 8.62790603,17.1952229 L5.19376318,20.6293657 C4.95178481,20.872655 4.62259541,21.0091235 4.27945889,21.0084048 C3.93632238,21.0076747 3.60771213,20.8698174 3.36676318,20.6255086 Z M18.4186203,10.7165086 C18.4186203,7.876187 16.1160847,5.57365143 13.2757632,5.57365143 C10.4354416,5.57365143 8.13290603,7.876187 8.13290603,10.7165086 C8.13290603,13.5568301 10.4354416,15.8593657 13.2757632,15.8593657 C14.6397337,15.8593657 15.9478395,15.3175305 16.9123123,14.3530577 C17.8767851,13.3885849 18.4186203,12.0804791 18.4186203,10.7165086 Z" id="Shape"></path>
                </g>
            </g>
        </g>
    </g>
</svg>