<?xml version="1.0" encoding="UTF-8"?>
<svg width="160px" height="160px" viewBox="0 0 160 160" version="1.1" xmlns="http://www.w3.org/2000/svg" xmlns:xlink="http://www.w3.org/1999/xlink">
    <title>Brand/Illustrations/Balance</title>
    <g id="Brand/Illustrations/Balance" stroke="none" stroke-width="1" fill="none" fill-rule="evenodd">
        <rect id="background" fill-opacity="0" fill="#FFFFFF" fill-rule="nonzero" x="0" y="0" width="160" height="160"></rect>
        <g id="icon" transform="translate(21.312, 16)">
            <polygon id="Path" fill="#7ACEF0" points="58.6878755 45.1755969 78.2502642 56.4701428 58.6874583 120.470623 39.1254867 109.176911"></polygon>
            <polygon id="Fill-5" fill="#FFFFFF" points="0 71.5292314 19.5623888 82.7912366 117.376001 26.3201759 97.8127782 15.0581708"></polygon>
            <polygon id="Path" fill="#7ACEF0" points="-1.24344979e-14 56.4708103 13.0421488 64.0002295 13.042 79.0364608 19.5623888 82.7912783 19.5623888 90.3532381 -4.97379915e-14 79.0908158"></polygon>
            <polygon id="Path" fill="#7ACEF0" points="84.7687103 7.52946085 97.8112763 15.0597143 97.8112763 30.1177182 84.7687103 22.5887163"></polygon>
            <polygon id="Fill-10" fill="#FFFFFF" points="0 56.4706435 13.0421488 64.0004798 26.0834631 56.4706435 13.0417316 48.9408071"></polygon>
            <polygon id="Fill-14" fill="#FFFFFF" points="97.8103167 0 84.7685852 7.52983632 97.8111511 15.0596726 110.852466 7.52983632 97.8115683 0"></polygon>
            <path d="M104.334061,94.1176139 L117.375793,101.647033 L71.7295236,128 L58.6877921,120.470581 L104.334061,94.1176139 Z M78.2503894,56.4699759 L68.4239301,88.4437244 L50.5594987,72.4570587 L78.2503894,56.4699759 Z M26.083338,71.5296903 L32.6048295,75.2935655 L19.5626808,82.823819 L13.0420236,79.058275 L26.083338,71.5296903 Z M110.852674,22.5889666 L117.373331,26.353259 L104.331183,33.8826781 L97.8113597,30.1175514 L110.852674,22.5889666 Z" id="Shape" fill="#24156D"></path>
            <path d="M78.2504311,56.4702263 L104.333894,94.1173219 L58.6876252,120.470706 L78.2504311,56.4702263 Z M117.37596,26.3199673 L117.37596,33.8810928 L19.562347,90.3529878 L19.562347,82.7914452 L117.37596,26.3199673 Z M26.083338,56.47056 L26.083338,71.5298155 L13.0420236,79.0584002 L13.0420236,64.0003963 L26.083338,56.47056 Z M110.852466,7.52950256 L110.852466,22.5891752 L97.8111511,30.1177599 L97.8111511,15.0597561 L110.852466,7.52950256 Z" id="Shape" fill="#4C34BB"></path>
        </g>
    </g>
</svg>