<?xml version="1.0" encoding="UTF-8"?>
<svg width="32px" height="32px" viewBox="0 0 32 32" version="1.1" xmlns="http://www.w3.org/2000/svg" xmlns:xlink="http://www.w3.org/1999/xlink">
    <title>Icons/PlanB</title>
    <g id="Icons/PlanB" stroke="none" stroke-width="1" fill="none" fill-rule="evenodd">
        <path d="M11.14,4.29333333 C11.6377778,4.12740741 12.1776955,4.10897119 12.6848377,4.24738912 L12.8733333,4.30666667 L19.54,6.64 C19.7955556,6.72888889 20.0603704,6.73444444 20.3112963,6.67209877 L20.46,6.62666667 L24.3666667,5.10666667 C26.060404,4.44727273 27.8795164,5.63089073 27.9882103,7.41744831 L27.9933333,7.58666667 L27.9933333,23.3866667 C27.9933333,24.4729825 27.3351616,25.4515974 26.3475891,25.8576974 L26.18,25.92 L20.86,27.7066667 C20.3622222,27.8725926 19.8223045,27.8910288 19.3151623,27.7526109 L19.1266667,27.6933333 L12.46,25.36 C12.2085714,25.2685714 11.9277551,25.2555102 11.66793,25.3292128 L11.54,25.3733333 L7.63333333,26.8933333 C5.93959596,27.5527273 4.12048362,26.3691093 4.01178971,24.5825517 L4.00666667,24.4133333 L4.00666667,8.61333333 C4.00666667,7.52701754 4.66483841,6.56036934 5.65241094,6.14419206 L5.82,6.08 L11.14,4.29333333 Z M12.0066667,8.22503276 L12.0066667,21.6649672 C12.0066667,22.0893662 12.2745519,22.4675396 12.6749159,22.6083343 L18.6749159,24.7183343 C19.1959232,24.9015552 19.7668129,24.6277252 19.9500337,24.106718 C19.9875179,24.000128 20.0066667,23.8879562 20.0066667,23.7749672 L20.0066667,10.3350328 C20.0066667,9.91063381 19.7387814,9.53246035 19.3384174,9.39166568 L13.3384174,7.28166568 C12.8174102,7.0984448 12.2465205,7.37227475 12.0632996,7.893282 C12.0258154,7.99987202 12.0066667,8.11204384 12.0066667,8.22503276 Z M16.03,12.534 C17.6338462,12.534 18.7439793,13.2274172 18.8270016,14.6675913 L18.832,14.844 L18.832,14.964 C18.832,15.876 18.442,16.44 17.77,16.746 C18.4364,17.0372 18.85192,17.5636 18.9043609,18.3934951 L18.91,18.576 L18.91,18.678 C18.91,20.1837692 17.8671006,20.9406479 16.3040316,20.9966419 L16.114,21 L14.2,21 C13.7545,21 13.4955417,20.7781667 13.4554757,20.3668507 L13.45,20.25 L13.45,13.284 C13.45,12.8385 13.6718333,12.5795417 14.0831493,12.5394757 L14.2,12.534 L16.03,12.534 Z M16.114,17.4 L15.1,17.4 L15.1,19.428 L16.054,19.428 C16.65025,19.428 17.1937656,19.2750703 17.259376,18.6280854 L17.266,18.492 L17.266,18.306 C17.266,17.64225 16.7966641,17.4267422 16.2287808,17.4023965 L16.114,17.4 Z M15.97,14.124 L15.1,14.124 L15.1,16.116 L16.12,16.116 C16.6576,16.116 17.1168,15.9226133 17.1756373,15.3407111 L17.182,15.21 L17.182,15.018 C17.182,14.326125 16.6968438,14.1457734 16.092376,14.1259321 L15.97,14.124 Z" id="Shape" fill="#4C34BB"></path>
    </g>
</svg>