<?xml version="1.0" encoding="UTF-8"?>
<svg width="32px" height="32px" viewBox="0 0 32 32" version="1.1" xmlns="http://www.w3.org/2000/svg" xmlns:xlink="http://www.w3.org/1999/xlink">
    <title>Icons/Vision2030</title>
    <g id="Icons/Vision2030" stroke="none" stroke-width="1" fill="none" fill-rule="evenodd">
        <path d="M20.1505341,15.8457668 L20.77152,16.4213097 L20.1950642,17.0409769 L19.5740783,16.4656369 L20.1505341,15.8457668 Z M19.3427251,15.057555 L19.8411773,15.5191862 L19.3785317,16.0162184 L18.8802823,15.55479 L19.3427251,15.057555 Z M20.9359261,15.0311616 L21.4341754,15.4927928 L20.9717327,15.989825 L20.4735847,15.5283966 L20.9359261,15.0311616 Z M16.986103,14.8893147 L17.1522537,15.7185468 L16.3215,15.8843933 L16.155045,15.0552625 L16.986103,14.8893147 Z M23.277485,14.7737192 L24.1185851,14.8775888 L24.0144112,15.7169645 L23.173514,15.6129935 L23.277485,14.7737192 Z M18.1006823,14.6871646 L18.2338667,15.352579 L17.5675393,15.4856619 L17.4341521,14.8204504 L18.1006823,14.6871646 Z M22.1606538,14.6058035 L22.8351974,14.689386 L22.7516149,15.3627124 L22.0768684,15.2791299 L22.1606538,14.6058035 Z M20.1332192,14.5313805 L20.5212085,14.8907652 L20.1610124,15.2777402 L19.7732259,14.9183555 L20.1332192,14.5313805 Z M18.7300163,14.3453079 L19.1178028,14.7046926 L18.7580124,15.0919719 L18.3699216,14.7322829 L18.7300163,14.3453079 Z M21.246135,14.386379 L21.7713661,14.4512975 L21.7062447,14.9756157 L21.1808107,14.9106972 L21.246135,14.386379 Z M19.4662629,13.915294 L19.8542523,14.2746786 L19.4940561,14.6617551 L19.1061682,14.302269 L19.4662629,13.915294 Z M20.6313772,13.896072 L21.0193666,14.2554567 L20.6591704,14.6424317 L20.271384,14.283047 L20.6313772,13.896072 Z M16.7931632,13.7781537 L16.9265504,14.4435681 L16.2601216,14.576651 L16.126633,13.9114395 L16.7931632,13.7781537 Z M17.7426772,13.8132097 L17.8464453,14.3312389 L17.3277061,14.4348041 L17.2235322,13.9167749 L17.7426772,13.8132097 Z M23.4371135,13.6541087 L24.1116571,13.7376912 L24.0280745,14.4109162 L23.3535309,14.3274351 L23.4371135,13.6541087 Z M22.4931683,13.7176882 L23.0183994,13.7826067 L22.953278,14.3069249 L22.4280469,14.2420064 L22.4931683,13.7176882 Z M18.5190921,13.5888453 L18.6228602,14.1068745 L18.104121,14.2106427 L17.9999471,13.6924106 L18.5190921,13.5888453 Z M21.5909028,13.6074384 L22.1163368,13.6725597 L22.0512154,14.1967765 L21.5259843,14.1317566 L21.5909028,13.6074384 Z M20.0749954,13.5751009 L20.3477545,13.8280801 L20.0945724,14.1003319 L19.8217119,13.8474542 L20.0749954,13.5751009 Z M19.0584633,13.3899107 L19.3313238,13.6426871 L19.0778374,13.914939 L18.8050783,13.6620612 L19.0584633,13.3899107 Z M20.9522165,13.4196819 L21.3217447,13.4653278 L21.2760989,13.8341459 L20.9065707,13.7883986 L20.9522165,13.4196819 Z M17.5628936,12.9239685 L17.6666617,13.4419977 L17.1476182,13.5457658 L17.0439515,13.0277366 L17.5628936,12.9239685 Z M16.387869,12.8178369 L16.869483,13.0367339 L16.6499774,13.517435 L16.168262,13.2984365 L16.387869,12.8178369 Z M22.5244712,12.9113601 L23.0499051,12.9764814 L22.9847838,13.5007996 L22.4595527,13.4358811 L22.5244712,12.9113601 Z M18.2559288,13.0037979 L18.3288607,13.3681529 L17.9636942,13.4410848 L17.8908638,13.0766283 L18.2559288,13.0037979 Z M23.7745577,12.6962466 L24.0290584,13.1593994 L23.5649927,13.413393 L23.3103906,12.950443 L23.7745577,12.6962466 Z M21.8853893,12.9763496 L22.2547146,13.0219954 L22.2089674,13.3907121 L21.839642,13.3450663 L21.8853893,12.9763496 Z M15.3841989,12.4714258 L16.0027503,12.752604 L15.7209635,13.3699382 L15.1022092,13.08876 L15.3841989,12.4714258 Z M24.7769295,12.2680179 L25.1037535,12.862935 L24.5079235,13.1892518 L24.1808967,12.5943347 L24.7769295,12.2680179 Z M14.2092048,11.9148715 L14.9804161,12.2655328 L14.6292476,13.0350197 L13.8580364,12.6843584 L14.2092048,11.9148715 Z M20.035986,7.82724885 C20.0576297,7.94288489 20.0936392,8.05710085 20.1372563,8.15823167 C20.1563261,8.20184878 20.1764102,8.24333574 20.2027834,8.28076531 C20.312029,8.11532461 20.4762525,8.0468559 20.6375343,8.06511422 C20.6994098,8.07221468 20.7605751,8.09209597 20.8181903,8.12414947 C20.8728638,8.15437714 20.9243929,8.19515406 20.9662856,8.2518563 C20.9252044,8.23227932 20.8737768,8.22030997 20.8181903,8.21706405 C20.7603723,8.21361525 20.6980911,8.2201071 20.6375343,8.23856829 C20.5499958,8.26524573 20.4670219,8.31677478 20.4119426,8.40532765 C20.4785855,8.37733155 20.5564877,8.36404355 20.6375343,8.36495646 C20.6971782,8.36586938 20.758445,8.3742885 20.8181903,8.39082242 C20.9099891,8.41638407 20.9979333,8.46050836 21.0700537,8.5232967 C21.1637798,8.60505341 21.230727,8.71805215 21.2450293,8.86330725 C21.2218007,8.83307958 21.1713874,8.75335157 21.0700537,8.6849843 C21.0074683,8.64248298 20.9247986,8.60505341 20.8181903,8.58517213 C20.7641254,8.57513005 20.704583,8.56924681 20.6375343,8.57056547 C20.6101469,8.57097121 20.5815421,8.57249274 20.5518217,8.57513005 C20.5762675,8.58446208 20.6055823,8.59095393 20.6375343,8.6006917 C20.6926136,8.61702276 20.7551991,8.64349733 20.8181903,8.6812312 C20.9105977,8.73651334 21.0029037,8.81634279 21.0700537,8.92447263 C21.1644898,9.07621959 21.2094256,9.28375586 21.1284804,9.55803645 C21.1292918,9.46187595 21.1106278,9.35323892 21.0700537,9.2480507 C21.0209591,9.120141 20.939101,8.99781023 20.8181903,8.90885163 C20.765444,8.87000197 20.7054959,8.83744129 20.6375343,8.81390834 C20.6152186,8.80609784 20.5921928,8.79899738 20.5682541,8.79331701 C20.5912799,8.82131311 20.6150157,8.84433888 20.6375343,8.86736466 C20.7154365,8.94749841 20.7745732,9.03067521 20.8181903,9.11446063 C20.9792693,9.42424351 20.9277402,9.74305412 20.8144372,9.95211193 C20.8157559,9.93709953 20.8170745,9.92107278 20.8181903,9.90433598 C20.822552,9.84134476 20.8246821,9.76800717 20.8181903,9.68888777 C20.8058152,9.53906808 20.760778,9.36916424 20.6375343,9.21214266 C20.5979746,9.1614251 20.5509087,9.11222906 20.493395,9.06536603 C20.5701814,9.20047762 20.7645311,9.7193183 20.3666011,10.1891658 C20.4279694,10.0259567 20.5174351,9.46471613 20.1982188,9.26387458 C20.1585577,9.67701986 20.0860315,10.5137582 20.2347354,11.4152122 C20.3660939,11.3145886 20.5010027,11.2203553 20.6375343,11.1387001 C20.6976854,11.102792 20.7578364,11.069217 20.8181903,11.0385836 C20.8888906,11.0029799 20.9594894,10.9710278 21.0300883,10.9443504 L21.0700537,10.9302509 C21.2094256,10.8805477 21.3431171,10.8472769 21.4701139,10.8270913 C21.847554,10.7672446 22.165756,10.8218167 22.3942893,10.8946471 C22.5523253,10.9448575 22.6678599,11.0039942 22.7303439,11.0399022 C22.7383573,11.0444668 22.7324741,11.0561319 22.7237506,11.0533931 C22.6113605,11.0181951 22.5017091,10.9931407 22.3942893,10.9759981 C22.0638137,10.9232518 21.7563638,10.9515522 21.4701139,11.033309 C21.3318578,11.0728687 21.198572,11.1248034 21.0700537,11.1862731 C20.9840367,11.2274558 20.899947,11.2725944 20.8181903,11.3210804 C20.7567206,11.3579014 20.6965696,11.3963453 20.6375343,11.4361079 C20.4961338,11.5314569 20.3614279,11.6348193 20.2336197,11.741529 C20.3780633,11.8673086 20.5137835,11.9917695 20.6375343,12.1041596 C20.7011342,12.1618762 20.7614881,12.2162454 20.8181903,12.2659486 C20.9135393,12.3495312 20.9983391,12.4196229 21.0700537,12.4690218 C21.1012957,12.4906275 21.1304076,12.5086829 21.1564765,12.521768 C21.2031366,12.4579653 21.2840818,12.4213473 21.3726347,12.4405185 C21.4095571,12.4487348 21.4432336,12.4673988 21.4701139,12.4930619 C21.4992258,12.5204494 21.5203243,12.5558502 21.5294534,12.5955114 C21.5450744,12.6638787 21.5148468,12.7498956 21.4884736,12.7759645 C21.4825904,12.7820506 21.4763014,12.7872238 21.4701139,12.7924984 C21.3562022,12.8923106 21.2235251,12.8821671 21.0700537,12.8013233 C20.9916444,12.7598363 20.9076561,12.6997867 20.8181903,12.6267534 C20.7603723,12.5794846 20.7002212,12.5267384 20.6375343,12.4700361 C20.4854831,12.3319829 20.319028,12.1697881 20.1372563,12.0036374 C20.104087,11.9731054 20.0704105,11.942472 20.036024,11.9120415 L19.9340817,12.0041446 C19.5330072,12.3710354 19.2062847,12.7182479 18.9439734,12.8285079 C18.8065288,12.8862245 18.6867339,12.8793269 18.5831687,12.7759645 C18.5445219,12.7375206 18.5268722,12.6638787 18.5424932,12.5955114 C18.5597372,12.5191307 18.6226269,12.4574582 18.6993119,12.4405185 C18.7878648,12.4213473 18.86881,12.4579653 18.9154702,12.521768 C18.9244979,12.517102 18.9340328,12.5115231 18.9439734,12.5060456 C19.1387289,12.3933512 19.4592639,12.0718018 19.838327,11.741529 C19.5699296,11.5181689 19.2724204,11.3071838 18.9439734,11.1592914 C18.7095568,11.0537989 18.4595192,10.9803598 18.192542,10.9571312 C17.9482862,10.9358298 17.6899309,10.9563197 17.416969,11.033309 C17.3941461,11.0398008 17.3712218,11.0460898 17.3479931,11.0533931 C17.3394726,11.0561319 17.3335893,11.0444668 17.3416027,11.0399022 C17.3613825,11.0285415 17.3868428,11.0145435 17.416969,10.9996325 C17.5659772,10.9251791 17.837519,10.8188751 18.192542,10.803457 C18.413772,10.7938206 18.667157,10.8194837 18.9439734,10.9102682 C18.9761284,10.920716 19.008689,10.9319753 19.0418583,10.9443504 C19.3098499,11.045684 19.5803774,11.2189352 19.8372112,11.4152122 C19.9861179,10.5137582 19.9134904,9.67701986 19.8737278,9.26387458 C19.5547143,9.46471613 19.6441801,10.0259567 19.7052441,10.1891658 C19.3074155,9.7193183 19.5017652,9.20047762 19.5784502,9.06536603 C19.2581992,9.32563843 19.2389914,9.66191109 19.2479654,9.88406833 L19.2512128,9.952 L19.2177635,9.87869367 C19.1133816,9.61633242 19.1013949,9.23390437 19.4055711,8.89800264 L19.5065326,8.79879451 C19.107284,8.8888689 18.9470165,9.26387458 18.9439734,9.54393697 C18.9437706,9.54850155 18.9433648,9.55347187 18.9372787,9.55854363 C18.8803736,9.34918152 18.8929516,9.17917624 18.9439734,9.04294887 C19.058798,8.73489038 19.3694938,8.60008309 19.520835,8.58141903 C19.2251516,8.54774257 19.04622,8.63943992 18.9439734,8.72951432 C18.8805765,8.78510077 18.8464943,8.83997717 18.8330034,8.86564026 C18.8380752,8.75051139 18.8811851,8.6569882 18.9439734,8.58253482 C19.118949,8.3742885 19.4472945,8.3159633 19.6598011,8.40532765 C19.5259068,8.20316743 19.2512204,8.18277897 19.1057625,8.2518563 C19.3200949,7.99755843 19.6784652,7.99187806 19.8693661,8.28076531 C19.8952321,8.24394436 19.9153162,8.20296456 19.9340817,8.1597532 C19.9779017,8.05821663 20.0142155,7.9434935 20.0332853,7.82998759 Z M25.9279748,11.6712446 L26.3356426,12.4127354 L25.5926302,12.8193889 L25.1851653,12.0778981 L25.9279748,11.6712446 Z M17.5400301,12.259822 L17.6131648,12.624177 L17.2479984,12.6971088 L17.1751679,12.3326524 L17.5400301,12.259822 Z M22.8320225,12.1591476 L23.0109541,12.4850587 L22.6844344,12.6636859 L22.5055028,12.3379777 L22.8320225,12.1591476 Z M16.50456,11.887129 L16.9859711,12.1062289 L16.7666684,12.58693 L16.284953,12.368033 L16.50456,11.887129 Z M23.5977867,11.8632208 L23.8522874,12.3263736 L23.3882217,12.5803671 L23.1336196,12.1173158 L23.5977867,11.8632208 Z M15.7433502,11.6157089 L16.2247614,11.8346059 L16.0054586,12.3155099 L15.5238446,12.09641 L15.7433502,11.6157089 Z M24.3937684,11.4256803 L24.6485735,11.8888331 L24.1842035,12.1428267 L23.9298042,11.6797753 L24.3937684,11.4256803 Z M14.8566753,10.9704902 L15.4753282,11.2518712 L15.19344,11.8693069 L14.5748886,11.5881287 L14.8566753,10.9704902 Z M16.7767612,11.3237989 L17.1156559,11.4780817 L16.9612717,11.816165 L16.6223769,11.662085 L16.7767612,11.3237989 Z M23.3286996,11.2548027 L23.5076312,11.5807138 L23.1813144,11.759341 L23.0021799,11.4335314 L23.3286996,11.2548027 Z M25.2540905,10.7508527 L25.5810159,11.3455669 L24.985186,11.6718837 L24.6582605,11.0771695 L25.2540905,10.7508527 Z M16.1186805,10.7895198 L16.6002945,11.0086197 L16.3807889,11.4893207 L15.8992763,11.2704237 L16.1186805,10.7895198 Z M23.9467743,10.7535204 L24.2014779,11.2166732 L23.7372093,11.4708697 L23.4826071,11.0074126 L23.9467743,10.7535204 Z M15.4777829,10.2277619 L15.959194,10.4468618 L15.7398913,10.9275628 L15.2581759,10.7085644 L15.4777829,10.2277619 Z M24.3701949,10.103159 L24.8482587,10.3300694 L24.6205368,10.8071188 L24.1426759,10.5802084 L24.3701949,10.103159 Z M16.6324799,10.3024587 L16.9713746,10.4565387 L16.8169904,10.7948248 L16.4780956,10.6408463 L16.6324799,10.3024587 Z M23.2908136,10.218014 L23.6271725,10.3777743 L23.4671078,10.7131188 L23.1310532,10.5536628 L23.2908136,10.218014 Z M15.0987807,9.36914395 L15.4357482,9.95848205 L14.8451929,10.2945366 L14.5084283,9.70529997 L15.0987807,9.36914395 Z M16.349912,9.5496782 L16.6120204,10.0086722 L16.1521135,10.2702734 L15.8900051,9.81148226 L16.349912,9.5496782 Z M23.7384975,9.53080112 L24.2165613,9.7577115 L23.9888394,10.2347609 L23.5109785,10.0078505 L23.7384975,9.53080112 Z M24.9318514,9.17053397 L25.5458382,9.4619571 L25.2538065,10.0746253 L24.6398196,9.78340502 L24.9318514,9.17053397 Z M16.9009279,9.25206753 L17.0854384,9.57473267 L16.7619618,9.75883743 L16.5775527,9.43596942 L16.9009279,9.25206753 Z M23.1636241,9.19445237 L23.4997801,9.3542127 L23.3397155,9.68955724 L23.003458,9.53010122 L23.1636241,9.19445237 Z M15.8916687,8.8850448 L16.153777,9.34383589 L15.6942759,9.60563996 L15.4319647,9.146646 L15.8916687,8.8850448 Z M24.1275012,8.71105312 L24.6057679,8.93796351 L24.3782489,9.41511435 L23.9001851,9.18820397 L24.1275012,8.71105312 Z M14.4722261,8.23186343 L14.8921675,8.96655807 L14.1560528,9.38538372 L13.7362128,8.65068908 L14.4722261,8.23186343 Z M16.6804688,8.43433809 L16.9425772,8.89333205 L16.4828732,9.15493325 L16.2207648,8.69614216 L16.6804688,8.43433809 Z M25.5157018,8.01427494 L26.2806241,8.377717 L25.9167763,9.14121922 L25.1514483,8.77808146 L25.5157018,8.01427494 Z M23.370998,8.42700433 L23.8489604,8.65391472 L23.6215428,9.13096413 L23.1434791,8.90415518 L23.370998,8.42700433 Z M17.3827042,8.33954696 L17.5671133,8.66231354 L17.2435352,8.84631687 L17.0590247,8.52365172 L17.3827042,8.33954696 Z M15.5508365,7.84409722 L15.887804,8.43363819 L15.2972487,8.76969277 L14.9604841,8.18025324 L15.5508365,7.84409722 Z M22.8913722,8.3089947 L22.9584208,8.67436404 L22.5921386,8.74141266 L22.5252928,8.37584045 L22.8913722,8.3089947 Z M24.4295243,7.66143284 L25.0433083,7.95285597 L24.7512766,8.56552414 L24.1374926,8.27410102 L24.4295243,7.66143284 Z M16.4898722,7.60437558 L16.752082,8.06316667 L16.2924794,8.32497074 L16.0301682,7.86597678 L16.4898722,7.60437558 Z M23.8534742,7.55738069 L23.9489247,8.07693142 L23.4281567,8.17197613 L23.3330106,7.6524254 L23.8534742,7.55738069 Z M17.0684379,7.50757604 L17.5947848,7.56366966 L17.538184,8.08920507 L17.01204,8.03280713 L17.0684379,7.50757604 Z M23.0056896,7.46208238 L23.10114,7.98173455 L22.5803721,8.07667783 L22.4852259,7.5571271 L23.0056896,7.46208238 Z M17.8459889,7.60453788 L18.2162271,7.64440188 L18.1763631,8.01372719 L17.8063277,7.97406605 L17.8459889,7.60453788 Z M22.1880717,7.55307984 L22.2550189,7.91875348 L21.8888381,7.98570066 L21.8217895,7.62012846 L22.1880717,7.55307984 Z M21.0820231,7.06085573 L21.3506233,7.31809522 L21.0926738,7.58639113 L20.8240735,7.32894878 L21.0820231,7.06085573 Z M18.771483,7.14589894 L19.1418226,7.18556008 L19.1023644,7.55478395 L18.7319233,7.51542712 L18.771483,7.14589894 Z M22.0607301,6.78150339 L22.1560791,7.30125699 L21.6352097,7.39609883 L21.5400635,6.8765481 L22.0607301,6.78150339 Z M20.0685644,6.85862451 L20.3371646,7.11606687 L20.079418,7.38426135 L19.8108177,7.12692043 L20.0685644,6.85862451 Z M17.9904629,6.79614047 L18.5166069,6.8522341 L18.460209,7.37766807 L17.934065,7.32137157 L17.9904629,6.79614047 Z M16.0099725,6.61458174 L16.6860376,6.68690498 L16.6139172,7.36144859 L15.9378521,7.28912534 L16.0099725,6.61458174 Z M17.0867165,6.70094361 L17.612962,6.7572401 L17.556564,7.28257263 L17.0302171,7.2261747 L17.0867165,6.70094361 Z M23.9107344,6.4460067 L24.0327608,7.11324697 L23.3644048,7.2354763 L23.2419726,6.56803316 L23.9107344,6.4460067 Z M22.8406546,6.57011258 L22.9362065,7.08956187 L22.4153371,7.18470802 L22.320191,6.66515729 L22.8406546,6.57011258 Z M20.6782301,6.30725358 L21.0601334,6.67313009 L20.6936482,7.05422187 L20.3119479,6.68834536 L20.6782301,6.30725358 Z M19.3972262,6.26291629 L19.7786222,6.6287928 L19.4124414,7.00988458 L19.0305382,6.64400807 L19.3972262,6.26291629 Z M21.4215569,5.88947272 L21.8034601,6.25534923 L21.4371779,6.63644101 L21.0552746,6.2705645 L21.4215569,5.88947272 Z M18.32245,6.01160061 L18.848594,6.06809998 L18.7923989,6.59322964 L18.2662549,6.53703458 L18.32245,6.01160061 Z M20.0215289,5.68031348 L20.4034322,6.04598712 L20.03715,6.4270789 L19.6550438,6.06140526 L20.0215289,5.68031348 Z M17.270588,5.64198115 L17.9466531,5.71420296 L17.8745327,6.388848 L17.1984676,6.31652475 L17.270588,5.64198115 Z M22.6185218,5.51530896 L22.7406497,6.18275211 L22.0720908,6.30498144 L21.9498615,5.63753829 L22.6185218,5.51530896 Z M16.002375,5.30866531 L16.8446923,5.39873971 L16.7545165,6.23963693 L15.9120977,6.14956253 L16.002375,5.30866531 Z M23.8708602,5.13729066 L24.0233172,5.96905872 L23.1898248,6.12141428 L23.0373678,5.28944336 L23.8708602,5.13729066 Z M20.8162833,4.95484944 L21.3067222,5.42479839 L20.8359617,5.91422289 L20.3457258,5.44437537 L20.8162833,4.95484944 Z M19.2230012,4.95487987 L19.7135415,5.42472739 L19.242781,5.91425332 L18.7523422,5.44430437 L19.2230012,4.95487987 Z M20.0361255,4 L20.6571113,4.57554292 L20.0806555,5.19521012 L19.4596696,4.61987007 L20.0361255,4 Z M6.63617264,15.4179398 L11.4728926,15.4176464 C12.0674088,15.4176464 12.3903559,15.0946993 12.3903559,14.5001831 L12.3903559,14.3900875 C12.3903559,13.7955713 12.0674088,13.4726243 11.4728926,13.4726243 L7.7516615,13.4726243 C7.77456134,12.6467606 8.6221507,12.2432235 9.59172595,11.7837578 C10.930782,11.144029 12.4931117,10.3817272 12.4931117,8.32015047 C12.4931117,6.39714743 11.0912278,5.06132089 9.07280862,5.06132089 C7.3993556,5.06132089 6.1075673,6.04484153 5.80663934,7.54214161 C5.66718492,8.17335634 6.00481141,8.54768136 6.65804527,8.54768136 L6.77797604,8.54768136 C7.24052425,8.54313078 7.48801915,8.33938046 7.66270407,7.96358741 C7.86880292,7.40254025 8.29068932,6.97727765 9.07295511,6.97727765 C9.89500221,6.97727765 10.4895184,7.4983968 10.4895184,8.34246302 C10.4895184,9.45604326 9.55238478,9.92138059 8.48328314,10.4542433 C7.1759347,11.1101194 5.71870935,11.8603841 5.71870935,13.8619221 L5.71870935,14.639931 C5.71870935,15.139031 6.04165643,15.4179398 6.63617264,15.4179398 Z M12.6230246,24.8659454 C12.6230246,23.7136115 11.9184128,22.9356027 11.0449878,22.678713 C11.9257525,22.3337468 12.4468717,21.50436 12.4468717,20.3887246 C12.4468717,18.7005922 11.015629,17.6436745 9.04124798,17.6436745 C7.30173759,17.6436745 6.03930812,18.5978363 5.7824184,20.1244952 C5.6649831,20.7483702 6.00994929,21.1667335 6.61914491,21.1667335 L6.77151729,21.1667335 C7.16536595,21.1667335 7.40552115,20.9446339 7.58416957,20.5613544 C7.82461842,19.8695136 8.31094743,19.5004732 9.01937579,19.5004732 C9.81940378,19.5004732 10.4432788,19.8234203 10.4432788,20.6748262 C10.4432788,21.4112923 9.89162646,21.9078969 9.07809344,21.9078969 L8.68908901,21.9078969 C8.16796987,21.9078969 7.86704191,22.2308439 7.86704191,22.7813219 C7.86704191,23.3464793 8.16063016,23.654747 8.68908901,23.654747 L9.10011256,23.654747 C10.0713025,23.654747 10.5974126,24.0312738 10.5974126,24.8804779 C10.5974126,25.7318838 9.95151849,26.0695103 9.15149051,26.0695103 C8.36335281,26.0695103 7.82740754,25.6756617 7.587546,24.9603339 C7.40361298,24.5735313 7.16786165,24.3446793 6.66538542,24.3446793 L6.52387589,24.3446793 C5.91468027,24.3446793 5.56971408,24.7630426 5.68714938,25.3942573 C5.94785574,26.9514494 7.21643883,27.9201497 8.87599691,27.9951542 L9.08539098,28 L9.29863636,27.9959532 C11.2682597,27.92052 12.6230246,26.7935041 12.6230246,24.8659454 Z M20.0390732,28 C22.0648322,28 23.5034146,26.5320587 23.5034146,24.4255631 L23.5034146,21.2327908 C23.5034146,19.1189554 22.0648322,17.6436745 20.0390732,17.6436745 C17.9912952,17.6436745 16.5747319,19.1189554 16.5747319,21.2327908 L16.5747319,24.4255631 C16.5747319,26.5320587 17.9912952,28 20.0390732,28 Z M20.0390732,26.0549778 C19.2684041,26.0549778 18.6004908,25.6439543 18.6004908,24.3301469 L18.6004908,21.328207 C18.6004908,19.9997202 19.246385,19.5886966 20.0390732,19.5886966 C20.8170821,19.5886966 21.4776557,19.9997202 21.4776557,21.3208673 L21.4776557,24.3374866 C21.4776557,25.6439543 20.8024027,26.0549778 20.0390732,26.0549778 Z" id="Icon" fill="#4C34BB"></path>
    </g>
</svg>