<?xml version="1.0" encoding="UTF-8"?>
<svg width="32px" height="32px" viewBox="0 0 32 32" version="1.1" xmlns="http://www.w3.org/2000/svg" xmlns:xlink="http://www.w3.org/1999/xlink">
    <title>Icons/Features/Add-Yours</title>
    <g id="Icons/Features/Add-Yours" stroke="none" stroke-width="1" fill="none" fill-rule="evenodd">
        <path d="M25.3333333,4 L6.66666667,4 C5.18666667,4 4,5.2 4,6.66666667 L4,25.3333333 C4,26.8 5.18666667,28 6.66666667,28 L25.3333333,28 C26.8,28 28,26.8 28,25.3333333 L28,6.66666667 C28,5.2 26.8,4 25.3333333,4 Z M21.3333333,17.3333333 L17.3333333,17.3333333 L17.3333333,21.3333333 C17.3333333,22.0666667 16.7333333,22.6666667 16,22.6666667 C15.2666667,22.6666667 14.6666667,22.0666667 14.6666667,21.3333333 L14.6666667,17.3333333 L10.6666667,17.3333333 C9.93333333,17.3333333 9.33333333,16.7333333 9.33333333,16 C9.33333333,15.2666667 9.93333333,14.6666667 10.6666667,14.6666667 L14.6666667,14.6666667 L14.6666667,10.6666667 C14.6666667,9.93333333 15.2666667,9.33333333 16,9.33333333 C16.7333333,9.33333333 17.3333333,9.93333333 17.3333333,10.6666667 L17.3333333,14.6666667 L21.3333333,14.6666667 C22.0666667,14.6666667 22.6666667,15.2666667 22.6666667,16 C22.6666667,16.7333333 22.0666667,17.3333333 21.3333333,17.3333333 Z" id="Shape" fill="#4C34BB"></path>
    </g>
</svg>