<?xml version="1.0" encoding="UTF-8"?>
<svg width="160px" height="160px" viewBox="0 0 160 160" version="1.1" xmlns="http://www.w3.org/2000/svg" xmlns:xlink="http://www.w3.org/1999/xlink">
    <title>Brand/Illustrations/Android</title>
    <g id="Brand/Illustrations/Android" stroke="none" stroke-width="1" fill="none" fill-rule="evenodd">
        <rect id="background" fill-opacity="0" fill="#FFFFFF" fill-rule="nonzero" x="0" y="0" width="160" height="160"></rect>
        <g id="Icon" transform="translate(15.9876, 30.4995)">
            <path d="M1.97171367,58.0488699 C1.06423686,58.5729493 0.277344702,59.1650509 0.000618382835,59.5994648 C0.439670196,60.4358276 2.8173522,61.7808103 4.28291952,62.0235256 L19.2044973,61.5860197 C17.1081795,69.8738956 20.4211656,78.8559063 31.3742715,85.0582862 L103.859562,43.2076818 C92.9080015,37.006848 76.7048253,34.9259897 62.1790125,36.7734084 L62.7927574,28.2443632 C62.8855149,27.1003549 60.9808957,26.0212769 58.9819732,26.0846611 C57.9925607,26.1124884 56.9799588,26.4247717 56.2054343,26.8715533 C55.4293638,27.3198808 54.8898248,27.9027067 54.8496299,28.4716189 L54.1029326,38.7089467 C47.101293,39.4819253 40.4490396,42.2352748 34.7568256,45.5204336 C29.0568819,48.8102303 24.3169774,52.6364741 21.523433,56.9790676 L4.66477092,56.9064076 C3.90725194,57.0687331 2.87919048,57.5247904 1.97171367,58.0488699 M68.5746369,51.05496 L62.8592336,47.8177259 L69.0724351,44.2311054 L74.7893844,47.4667936 L68.5746369,51.05496 M38.5397826,68.3944147 L32.8243793,65.1587265 L39.0391268,61.5705601 L44.7545301,64.8077943 L38.5397826,68.3944147" id="Fill-1" fill="#201493"></path>
            <path d="M2.66453526e-15,33.5173136 C0.439051813,34.3521304 2.81673381,35.6986591 4.28384709,35.9413743 L4.28384709,62.0232164 C2.81673381,61.7805011 0.439051813,60.4355184 2.66453526e-15,59.5991556 L2.66453526e-15,33.5173136 Z" id="Fill-3" fill="#7ACEF0"></path>
            <polygon id="Fill-5" fill="#4C34BB" points="4.28307411 35.9419927 19.2046519 35.5044869 19.2046519 61.5863289 4.28307411 62.0238347"></polygon>
            <path d="M19.2052703,35.5041777 L19.2048064,40.2741777 L20.7155158,40.2742283 L20.7143609,48.6589818 C22.7107814,52.4757536 26.1846606,56.0381777 31.3734985,58.9764441 L31.3734985,85.0582862 C22.5902167,80.0846056 18.7208438,73.3235069 18.6134557,66.5662518 L18.6099222,40.2742283 C18.6042449,38.6753556 18.8073182,37.0772037 19.2052703,35.5041777 Z" id="Combined-Shape" fill="#7ACEF0"></path>
            <polygon id="Fill-9" fill="#4C34BB" points="31.3736531 85.0578224 103.860489 43.208764 103.860489 17.125376 31.3736531 58.9759803"></polygon>
            <path d="M1.97171367,31.9653273 C1.06423686,32.4894067 0.277344702,33.0830543 0.000618382835,33.5174682 C0.439670196,34.352285 2.8173522,35.6988137 4.28291952,35.9415289 L19.2044973,35.5040231 C17.1081795,43.7903531 20.4211656,52.7739097 31.3742715,58.9762895 L103.859562,17.1241393 C92.9080015,10.9248513 76.7048253,8.84399309 62.1790125,10.6914118 L62.7927574,2.1608206 C62.8855149,1.01681235 60.9808957,-0.0607197376 58.9819732,0.00266450302 C57.9925607,0.0304917306 56.9799588,0.341229105 56.2054343,0.789556661 C55.4293638,1.23788422 54.8898248,1.82071004 54.8496299,2.38962225 L54.1029326,12.6254041 C47.101293,13.3999286 40.4490396,16.1517322 34.7568256,19.4368911 C29.0568819,22.7282337 24.3169774,26.5544775 21.523433,30.895525 L4.66477092,30.824411 C3.90725194,30.9867365 2.87919048,31.4412478 1.97171367,31.9653273 M68.5746369,24.9729634 L62.8592336,21.7357292 L69.0724351,18.1475628 L74.7893844,21.384797 L68.5746369,24.9729634 M38.5397826,42.3124181 L32.8243793,39.0767299 L39.0391268,35.4885635 L44.7545301,38.7257976 L38.5397826,42.3124181" id="Fill-13" fill="#FFFFFF"></path>
            <polygon id="Fill-14" fill="#3C28B2" points="62.7924482 2.16035681 62.7924482 10.6167421 62.1802492 10.692494"></polygon>
            <polygon id="Fill-15" fill="#24156D" points="103.860025 43.2083002 128.024881 57.1481953 55.5303148 99.0003456 31.3731894 85.0573586"></polygon>
            <polygon id="Fill-16" fill="#59D0F3" points="69.0728989 18.1483358 68.5751007 24.9721904 74.7883023 21.38557"></polygon>
            <polygon id="Fill-17" fill="#3C28B2" points="69.0728989 18.1483358 68.5751007 24.9721904 62.8581514 21.7349563"></polygon>
            <polygon id="Fill-18" fill="#59D0F3" points="39.0385084 35.4890273 38.5407102 42.3128819 44.7539117 38.7262614"></polygon>
            <polygon id="Fill-19" fill="#3C28B2" points="39.0385084 35.4890273 38.5407102 42.3128819 32.8237609 39.0756477"></polygon>
            <polygon id="Fill-20" fill="#4C34BB" points="38.5402464 42.3130365 32.8248431 39.0758023 39.0380446 35.4891819 44.7549939 38.726416"></polygon>
            <polygon id="Fill-21" fill="#4C34BB" points="68.5746369 24.972345 62.8592336 21.7351109 69.0724351 18.1484904 74.7893844 21.3857246"></polygon>
        </g>
    </g>
</svg>