<?xml version="1.0" encoding="UTF-8"?>
<svg width="160px" height="160px" viewBox="0 0 160 160" version="1.1" xmlns="http://www.w3.org/2000/svg" xmlns:xlink="http://www.w3.org/1999/xlink">
    <title>Brand/Illustrations/Angle</title>
    <g id="Brand/Illustrations/Angle" stroke="none" stroke-width="1" fill="none" fill-rule="evenodd">
        <rect id="background" fill-opacity="0" fill="#FFFFFF" fill-rule="nonzero" x="0" y="0" width="160" height="160"></rect>
        <g id="icon" transform="translate(16.2244, 34.9995)">
            <polygon id="Fill-1" fill="#4C34BB" points="110.017206 10.6964011 109.99924 30.9559936 25.3114034 79.8678288 25.1912517 59.6845943"></polygon>
            <path d="M25.1912517,59.6851558 L19.6373251,57.0193608 C6.74404046,50.8321114 0.153665321,42.3383991 0.00319500751,33.7177976 L0.352420884,53.7505617 C0.502891197,62.3722861 7.09438925,70.8659984 19.9865509,77.0532479 L25.3114034,79.8672673 L25.1912517,59.6851558 Z" id="Fill-2" fill="#7ACEF0"></path>
            <polygon id="Fill-4" fill="#24156D" points="25.3118525 79.8673796 42.8629794 90.0005446 127.550816 41.0898324 109.999689 30.9566674"></polygon>
            <path d="M16.6520614,10.9392872 C39.9715913,-2.5233142 79.1264372,-3.72707671 104.096649,8.25664854 L110.017768,10.696738 L25.1906903,59.6849312 L19.6367636,57.0202592 C-5.33344801,45.035411 -6.66634548,24.4018886 16.6520614,10.9392872" id="Fill-6" fill="#FFFFFF"></path>
            <path d="M39.5917099,5.5352694 C39.9139858,5.44992803 40.2362618,5.35784918 40.5899793,5.29608898 L38.4968699,2.72349579 C38.1319232,2.80659133 37.7680995,2.89080979 37.4053987,2.97727408 L39.5917099,5.5352694 Z M32.3579057,7.60592058 L33.2876775,7.30273413 L30.5275578,4.90194659 C30.1884382,5.01086913 29.8504414,5.12316041 29.5146905,5.2365746 L32.3579057,7.60592058 Z M43.3029366,6.17869843 L44.2809936,5.98218869 L41.5624218,2.0744522 C41.1884918,2.14744153 40.8179306,2.22492251 40.4462465,2.30128058 L43.3029366,6.17869843 Z M36.1623342,7.92258199 C36.4554144,7.82376566 36.7866737,7.75751381 37.0943518,7.67329535 L33.3853709,4.03056627 C33.0327763,4.13162842 32.6846733,4.23718222 32.3354474,4.34161311 L36.1623342,7.92258199 Z M55.3697574,3.14121934 L56.4544912,3.04352593 L55.8043247,0.251964746 C55.4079364,0.27779174 55.0115482,0.303618734 54.6162829,0.332814466 L55.3697574,3.14121934 Z M58.5970088,4.2966966 L59.6401947,4.252903 L59.08323,0.0846507406 C58.6868418,0.0992486068 58.2893307,0.118338124 57.8929424,0.136304729 L58.5970088,4.2966966 Z M26.5670445,9.80233799 L23.2207644,7.64971418 C22.9130862,7.7833408 22.6132685,7.92258199 22.3100821,8.05957735 L25.7057703,10.1538097 L26.5670445,9.80233799 Z M50.8152232,4.93563398 C51.1554657,4.88847164 51.486725,4.83120309 51.8325821,4.81099066 L50.1908836,0.748292197 C49.8012329,0.793208708 49.4127051,0.841493958 49.0230543,0.889779208 L50.8152232,4.93563398 Z M29.6303505,10.240274 L30.4556914,9.9000314 L25.8124471,6.57620956 C25.4924169,6.70197579 25.1791242,6.8344795 24.8624628,6.96361447 L29.6303505,10.240274 Z M47.3184727,4.05527035 L48.3852399,3.90367713 L46.9815989,1.1615241 C46.5975627,1.21654683 46.2146495,1.27269247 45.8328591,1.33108393 L47.3184727,4.05527035 Z M100.956648,6.86255232 C100.647847,6.73229443 100.337923,6.60540529 100.02463,6.47963906 L95.8283051,9.59459912 L96.6929479,9.9090147 L100.956648,6.86255232 Z M85.5210886,2.18562056 C85.1505274,2.10926249 84.7765974,2.0396419 84.4037904,1.96665257 L81.8839741,5.79690808 L82.8799978,5.96759083 L85.5210886,2.18562056 Z M76.9431579,0.802192011 C76.5557529,0.756152587 76.1661022,0.715727726 75.7786973,0.67305704 L74.2841004,4.7177889 L75.3126885,4.83906348 L76.9431579,0.802192011 Z M73.7192752,0.467564001 C73.3240099,0.431630791 72.9276217,0.399066321 72.5312335,0.367624763 L71.791234,3.14795682 L72.8759677,3.21308576 L73.7192752,0.467564001 Z M79.8346583,4.05190161 L80.881213,4.22595309 L82.4196035,1.60170591 C82.0411819,1.53545406 81.6616374,1.47369386 81.2809699,1.41305657 L79.8346583,4.05190161 Z M68.0676552,0.10037152 C67.671267,0.0846507406 67.2737559,0.0734216127 66.8773676,0.0610695721 L66.4697503,4.21247814 L67.5151821,4.22258436 L68.0676552,0.10037152 Z M102.773521,12.6073741 L107.83898,9.79896925 L106.933913,9.42616221 L101.95604,12.2053714 C102.22217,12.3244001 102.505145,12.4737475 102.773521,12.6073741 L102.773521,12.6073741 Z M101.403567,10.1953575 L102.234523,10.574902 L105.29446,8.75129162 L104.359074,8.36613254 L101.403567,10.1953575 Z M64.7775207,0.0161530606 C64.3788867,0.0116614095 63.9813756,0.00941558392 63.5816186,0.00829267114 L63.5726353,2.84252454 L64.6697211,2.85487658 L64.7775207,0.0161530606 Z M94.8188065,7.59469145 L95.7193825,7.92707364 L98.3425068,5.82947255 C98.0202308,5.70932088 97.6979549,5.58916922 97.3723102,5.47238629 L94.8188065,7.59469145 Z M18.165411,10.1077703 L23.7058627,12.9745666 L24.4705663,12.5972679 L19.0008581,9.6541135 C18.7178841,9.80233799 18.4438934,9.95729995 18.165411,10.1077703 L18.165411,10.1077703 Z M87.550192,5.56221931 L88.555199,5.79017061 L90.7022082,3.40510385 C90.3462449,3.31077917 89.9891586,3.21870033 89.6309494,3.12774439 L87.550192,5.56221931 Z M93.5869712,4.22258436 C93.241114,4.11703055 92.8930111,4.01821423 92.5449081,3.91715208 L89.1189012,7.42513162 L90.0396897,7.69238486 L93.5869712,4.22258436 Z M11.1034125,23.4142868 C11.1966142,23.2379895 11.34147,23.0706755 11.4784653,22.9011156 L4.29519226,21.4233624 C4.15145942,21.6187492 3.99986619,21.8130131 3.86287084,22.0084 L11.1034125,23.4142868 Z M7.80654054,24.4731935 L8.1366769,23.9207204 L3.1835086,23.0538318 C3.05886528,23.2525873 2.92074701,23.45022 2.80396408,23.6500985 L7.80654054,24.4731935 Z M21.2534211,57.7956305 L23.9439202,56.3032794 C23.6688066,56.1651611 23.3869554,56.0315345 23.1343001,55.8889245 L20.4078678,57.389136 L21.2534211,57.7956305 Z M5.87288472,28.6863623 C5.89983463,28.497713 5.99977387,28.3090636 6.07051737,28.1204143 L0.98709119,27.6353159 C0.917470598,27.8419319 0.834375052,28.0474249 0.773737761,28.2540409 L5.87288472,28.6863623 Z M7.77846772,31.5161025 L7.90423395,30.9669982 L0.247091665,30.6009286 C0.213404281,30.8097904 0.172979421,31.0186522 0.144906601,31.2275139 L7.77846772,31.5161025 Z M8.95528032,27.4084876 L9.17649414,26.8706123 L1.64848682,25.9363489 C1.5586538,26.1395961 1.4620833,26.3428433 1.38011067,26.5460905 L8.95528032,27.4084876 Z M10.7732761,20.4262159 C10.9248693,20.2476727 11.0461439,20.0623921 11.2269329,19.8995698 L6.59491764,18.6800865 C6.41637451,18.8687358 6.22997099,19.0562623 6.05928824,19.2460345 L10.7732761,20.4262159 Z M19.8688697,13.2171158 L20.572936,12.7791798 L16.7179764,10.9039154 C16.6955182,10.9162675 16.6741828,10.9263737 16.6517246,10.9387257 C16.4035608,11.0835815 16.1733637,11.2329289 15.9285687,11.3789075 L19.8688697,13.2171158 Z M18.5921178,16.1389348 L19.195122,15.6875239 L13.0786161,13.201395 C12.834944,13.368709 12.5890261,13.536023 12.3520915,13.7044599 L18.5921178,16.1389348 Z M14.8337288,16.6509831 L15.4648057,16.1771139 L11.1427144,14.605036 C10.915886,14.7790875 10.6890577,14.9531389 10.4678438,15.1283133 L14.8337288,16.6509831 Z M14.3879324,19.6469144 L14.895489,19.1618161 L8.13555399,17.1484334 C7.94016716,17.3314682 7.73355121,17.5111343 7.54490186,17.695292 L14.3879324,19.6469144 Z M5.18453918,33.016314 L5.20924327,32.4380139 L0.0517048399,32.3313372 C0.0382298864,32.540199 0.0124028924,32.7490608 0.00678832842,32.9590455 L5.18453918,33.016314 Z M18.5056536,51.0648912 L17.8599787,50.630324 L12.2207107,52.7301709 C12.4576453,52.8952391 12.6900882,53.0603072 12.9337603,53.2231296 L18.5056536,51.0648912 Z M13.5783123,49.5646797 L12.9955205,49.0784585 L9.03837587,50.2878356 C9.24611473,50.4641329 9.44037864,50.6437989 9.6559779,50.8189733 L13.5783123,49.5646797 Z M7.96711707,49.3513263 L14.2891161,47.5614033 L13.8231072,47.0661988 L7.3989232,48.7999761 C7.58869546,48.9841338 7.77060733,49.1694144 7.96711707,49.3513263 L7.96711707,49.3513263 Z M18.3125126,53.1119612 L17.6443795,52.6571815 L14.2554287,54.0664371 C14.5069611,54.2236449 14.752879,54.3830985 15.0122719,54.5380605 L18.3125126,53.1119612 Z M7.8379821,35.668634 L7.75264073,35.1184067 L0.123571258,35.321654 C0.146029514,35.5305157 0.161750293,35.7393775 0.192068938,35.9482393 L7.8379821,35.668634 Z M23.6137838,54.2247678 L22.890628,53.8250108 L18.0643488,56.2246755 C18.3428312,56.3684083 18.6235594,56.5098953 18.9087793,56.6513823 L23.6137838,54.2247678 Z M5.5281505,37.3496345 L5.45066951,36.7713344 L0.400930716,37.046448 C0.444724315,37.2541869 0.476165873,37.4619257 0.527819861,37.6696646 L5.5281505,37.3496345 Z M7.1530053,41.6077197 L6.86441671,41.0440175 L2.03589173,41.6784632 C2.13583097,41.8794646 2.22566399,42.0827118 2.33346362,42.2837132 L7.1530053,41.6077197 Z M8.87555351,39.788601 L8.70374785,39.2406196 L1.28803182,39.9929712 C1.36775862,40.1995871 1.43962504,40.4062031 1.52833515,40.6116961 L8.87555351,39.788601 Z M9.78735869,45.7142118 L9.39883087,45.1752137 L4.93525255,46.1274437 C5.0890916,46.3183389 5.23394735,46.5114799 5.3967697,46.7001292 L9.78735869,45.7142118 Z M4.13573864,45.1134535 C3.99088289,44.9169437 3.86399375,44.7181882 3.72699839,44.5205555 L10.7160076,43.2516641 L11.096675,43.7715727 L4.13573864,45.1134535 Z" id="Fill-9" fill="#4C34BB"></path>
        </g>
    </g>
</svg>