<?xml version="1.0" encoding="UTF-8"?>
<svg width="160px" height="160px" viewBox="0 0 160 160" version="1.1" xmlns="http://www.w3.org/2000/svg" xmlns:xlink="http://www.w3.org/1999/xlink">
    <title>Brand/Illustrations/Apple</title>
    <defs>
        <polygon id="path-1" points="0 0 94.8206899 0 94.8206899 63.5383772 0 63.5383772"></polygon>
        <polygon id="path-3" points="0 0 118.322345 0 118.322345 46.968817 0 46.968817"></polygon>
    </defs>
    <g id="Brand/Illustrations/Apple" stroke="none" stroke-width="1" fill="none" fill-rule="evenodd">
        <rect id="background" fill-opacity="0" fill="#FFFFFF" fill-rule="nonzero" x="0" y="0" width="160" height="160"></rect>
        <g id="icon" transform="translate(16.0574, 15.9994)">
            <g id="Group-3" transform="translate(0, 36.0207)">
                <mask id="mask-2" fill="white">
                    <use xlink:href="#path-1"></use>
                </mask>
                <g id="Clip-2"></g>
                <path d="M0.00640055492,41.804452 C0.0328856098,42.9035818 0.260215664,44.0005045 0.697219069,45.0797705 C4.88627191,55.4928112 26.7496847,61.8867449 42.7201728,63.0874007 C50.383182,63.6700719 59.2137407,64.1909446 64.3341846,61.2334468 C64.4246752,61.1826838 64.5107517,61.1319208 64.5968281,61.0767436 C69.4568357,58.0552403 68.5342729,55.3670072 74.6456993,51.8378736 C80.664428,48.3617102 85.3280048,49.0039728 90.4903834,46.022197 C90.5698386,45.9758482 90.6515008,45.9272922 90.730956,45.8809434 C93.7259743,44.0909951 94.723578,41.8883214 94.8206899,39.5112877 L94.8206899,0 C94.7257851,2.37924076 93.7281814,4.58412158 90.730956,6.37186278 C90.6515008,6.4226258 90.5698386,6.46897465 90.4903834,6.5153235 C85.3280048,9.49489217 80.664428,8.85483668 74.6456993,12.3310001 C68.5342729,15.8579266 69.4568357,18.5505738 64.5968281,21.5698701 C64.5107517,21.6228402 64.4246752,21.6758103 64.3341846,21.7265733 C59.2137407,24.6840711 50.383182,24.1654055 42.7201728,23.5805272 C26.7496847,22.3776643 4.88627191,15.9881448 0.697219069,5.57510405 C0.189588851,4.31927103 -0.0311199395,3.03916005 0.0196430824,1.76125615 L-0.000220708791,41.7867953 C-0.000220708791,41.8000378 0.00640055492,41.7890024 0.00640055492,41.804452" id="Fill-1" fill="#7ACEF0" mask="url(#mask-2)"></path>
            </g>
            <path d="M36.2631164,10.3478345 L36.8513569,10.0414072 L36.8513569,10.0414072 L37.1953217,9.87029869 L37.1953217,9.87029869 L37.7720968,9.59515683 L37.7720968,9.59515683 L38.1963992,9.40142619 L38.1963992,9.40142619 L38.6519172,9.20106673 L38.6519172,9.20106673 L39.1381253,8.99546134 L39.1381253,8.99546134 L39.6544982,8.78599289 L39.6544982,8.78599289 L40.2005104,8.57404427 L40.2005104,8.57404427 L40.7756365,8.36099837 C40.8738879,8.32547611 40.9733304,8.28996575 41.0739531,8.25449609 L41.691765,8.04239717 L41.691765,8.04239717 L42.3373772,7.83265818 C42.4472667,7.79797517 42.5582927,7.76344811 42.6704443,7.72910581 L43.3567719,7.52549962 L43.3567719,7.52549962 L44.0695863,7.32771056 C47.8199805,6.32320968 52.609913,5.60700965 58.1132867,6.0373918 L57.9474705,6.40006569 L57.9474705,6.40006569 L57.8045294,6.75213065 L57.8045294,6.75213065 L57.7096368,7.01258917 L57.7096368,7.01258917 L57.6125194,7.30748121 L57.6125194,7.30748121 L57.5484057,7.52220315 L57.5484057,7.52220315 L57.4559827,7.8699732 C57.44608,7.91026414 57.4363228,7.95109249 57.4267345,7.99244571 L57.3714175,8.24676335 L57.3714175,8.24676335 L57.3212734,8.51307658 L57.3212734,8.51307658 L57.2774223,8.7907839 L57.2774223,8.7907839 L57.2409848,9.07928383 L57.2409848,9.07928383 L57.2130809,9.37797488 C57.2092036,9.42857256 57.2057286,9.47956981 57.2026792,9.5309541 L57.1896764,9.84380402 C57.1884227,9.89668633 57.1876412,9.94993062 57.1873554,10.0035243 L57.1917744,10.3291798 L57.1917744,10.3291798 L57.2092083,10.6626204 C57.2132607,10.7188092 57.2179022,10.7752973 57.2231559,10.8320722 L57.2622126,11.1760627 C57.5896575,13.6066831 59.0795498,16.4989885 63.4610607,18.9245781 C65.9286732,20.2928843 68.5390014,21.1686294 71.1116274,21.7018913 L71.8121824,21.8389477 C72.6280897,21.9892035 73.4385195,22.1061677 74.2376602,22.1946746 L74.9197377,22.2636813 L74.9197377,22.2636813 L75.5954724,22.3194263 L75.5954724,22.3194263 L76.2640512,22.3625862 C76.4856278,22.3749504 76.7058761,22.3853299 76.9246607,22.3938374 L77.5764876,22.4138565 C77.6843483,22.4162946 77.7918092,22.4182929 77.8988534,22.4198654 L78.5359814,22.4243049 C78.6412907,22.4242309 78.7461493,22.4237595 78.8505403,22.4229046 L79.4711396,22.4132866 L79.4711396,22.4132866 L80.079703,22.3951426 L80.079703,22.3951426 L80.6754173,22.3691492 L80.6754173,22.3691492 L81.2574692,22.335983 L81.2574692,22.335983 L81.8250454,22.2963203 L81.8250454,22.2963203 L82.3773325,22.2508379 L82.3773325,22.2508379 L83.1753172,22.1731819 L83.1753172,22.1731819 L83.6858236,22.1161097 L83.6858236,22.1161097 L84.1781943,22.0555856 L84.1781943,22.0555856 L84.8809672,21.9598069 L84.8809672,21.9598069 L85.5383601,21.8600668 L85.5383601,21.8600668 L86.1476283,21.7586486 L86.1476283,21.7586486 L86.8803807,21.6247604 L86.8803807,21.6247604 L87.7957109,21.4377848 L87.7957109,21.4377848 L88.4709637,21.2836742 L88.4709637,21.2836742 L89.0125173,21.1471156 L89.0125173,21.1471156 L89.5029038,21.7380804 L89.5029038,21.7380804 L89.7770298,22.0843383 L89.7770298,22.0843383 L90.0948188,22.5026674 L90.0948188,22.5026674 L90.3267808,22.8199501 L90.3267808,22.8199501 L90.5719166,23.1668003 L90.5719166,23.1668003 L90.8277333,23.5422322 C90.871121,23.6071313 90.9148499,23.6731801 90.958868,23.7403583 L91.2260321,24.1568145 L91.2260321,24.1568145 L91.4976452,24.5993883 C92.407667,26.1170679 93.3502903,28.0536102 93.9100454,30.2447319 C93.9912043,30.5577512 94.0715915,30.870977 94.149072,31.1839394 L94.2628461,31.6531269 L94.4189326,32.3419147 L94.4189326,32.3419147 L94.5133051,32.7996538 C94.5282832,32.8758237 94.5428651,32.951929 94.5570193,33.0279629 L94.6365597,33.4832523 C94.6858291,33.7861326 94.7272476,34.0876471 94.7588012,34.3873526 L94.798481,34.8354986 C94.9944433,37.5900155 94.2601716,40.1707823 91.0016097,42.2269814 L90.7318388,42.3925438 C90.6523837,42.4433068 90.5707214,42.4896556 90.4912662,42.5360045 C88.4929261,43.6893859 86.5689977,44.3003887 84.6123282,44.8177234 L83.6307689,45.0706624 L83.6307689,45.0706624 L82.1416873,45.4480651 C79.8053711,46.0514408 77.363721,46.7818008 74.6465822,48.3516811 C72.0066041,49.8746721 70.678644,51.2420976 69.6305371,52.5474353 L69.3076548,52.9576924 L69.3076548,52.9576924 L68.5344444,53.9695693 L68.5344444,53.9695693 L68.2197976,54.3705309 L68.2197976,54.3705309 L67.8912515,54.7703085 C67.1028104,55.7022506 66.1418699,56.6298659 64.5955038,57.5905511 C64.5094274,57.6435212 64.4211439,57.6964913 64.3328604,57.7472543 C60.6303061,59.8867208 54.9850428,60.2070633 49.2435951,59.9991779 L48.2297759,59.9572716 C48.0607649,59.9494609 47.8917646,59.941259 47.7228221,59.9326986 L46.2051669,59.8468651 L46.2051669,59.8468651 L44.6982403,59.746998 L44.6982403,59.746998 L42.2380545,59.5635674 L42.2380545,59.5635674 L41.266417,59.4789779 L41.266417,59.4789779 L40.2823234,59.3820242 L40.2823234,59.3820242 L39.2869052,59.2727621 L39.2869052,59.2727621 L38.2812943,59.1512474 C38.112906,59.129977 37.9441401,59.1081984 37.7750202,59.0859127 L36.7562419,58.9461239 C36.5858004,58.9218147 36.4150521,58.8970009 36.2440206,58.8716836 L35.2146211,58.7137461 L35.2146211,58.7137461 L34.1795554,58.5437794 L34.1795554,58.5437794 L33.1399551,58.3618393 L33.1399551,58.3618393 L32.096952,58.1679817 C31.9228974,58.134682 31.7487482,58.1008881 31.5745279,58.0666012 L30.5285422,57.8549718 C30.354132,57.8187172 30.1796979,57.7819718 30.0052635,57.7447369 L28.9588415,57.5154614 C28.7845001,57.4762728 28.6102055,57.4365969 28.4359812,57.3964348 L27.3916692,57.1496389 C27.2178208,57.1075372 27.0440901,57.0649517 26.8705004,57.0218835 L25.8308445,56.7576928 L25.8308445,56.7576928 L24.7957073,56.4819752 C24.279457,56.3412441 23.7653255,56.1962113 23.2539495,56.0469084 L22.2350599,55.7426182 L22.2350599,55.7426182 L21.2246498,55.4269966 C11.5019826,52.3213997 3.12647244,47.6353487 0.698101904,41.595785 C-1.36309375,36.5078863 1.22544438,31.0062039 7.65646582,27.0574935 L8.17792281,26.7442905 L8.17792281,26.7442905 C9.82843833,25.7917114 11.7864439,25.0475448 13.7841097,24.4154932 L14.7079502,24.1313873 L14.7079502,24.1313873 L15.6315713,23.8610991 L15.6315713,23.8610991 L16.5491215,23.6025247 L16.5491215,23.6025247 L19.2068316,22.8760457 L19.2068316,22.8760457 L20.0415829,22.6432876 L20.0415829,22.6432876 L20.8410057,22.4117239 C22.2706536,21.9869994 23.4926851,21.5576891 24.3448417,21.0654533 C25.1442088,20.6043726 25.8670757,19.8967182 26.6119853,19.0441671 L26.9867332,18.6062875 L26.9867332,18.6062875 L27.3678922,18.1470829 L27.3678922,18.1470829 L28.3668017,16.9243088 L28.3668017,16.9243088 L29.011385,16.1535004 L29.011385,16.1535004 L29.465659,15.6300357 C30.8613645,14.0516609 32.5653413,12.4141704 34.9101715,11.0607239 C35.3383466,10.81353 35.7885925,10.5751645 36.2631164,10.3478345 Z M12.3921365,10.1787715 C12.3760077,9.9152792 12.374532,9.62279434 12.387437,9.3081703 L12.4098083,8.92043324 C12.4146815,8.85418547 12.4201256,8.78716178 12.4261383,8.719417 L12.4690219,8.3047339 C12.4773007,8.23432408 12.4861439,8.16330283 12.4955492,8.09172496 L12.5587098,7.6560171 L12.5587098,7.6560171 L12.6352577,7.20958231 C12.6491255,7.13442881 12.6635467,7.058938 12.6785192,6.98316472 L12.7749521,6.52557396 C12.8264587,6.29552233 12.8828876,6.06391531 12.94418,5.83223322 L13.0732318,5.36920753 C14.0217426,2.13346755 15.9158032,-0.923559725 18.5940535,0.260118496 C23.4143335,2.38775124 25.8399231,5.91467771 26.1555366,9.27827968 C26.4490793,12.4410366 24.5664333,16.166601 20.3553096,18.601019 C20.0838378,18.7555151 19.8057447,18.9055971 19.5166162,19.0512649 C14.7029575,17.0097086 12.5753248,13.2355883 12.3921365,10.1787715 Z" id="Shape" fill="#FFFFFF"></path>
            <path d="M20.3550889,18.6001362 C20.0836171,18.7546323 19.805524,18.9069214 19.5163955,19.0503821 C14.7027368,17.0088258 12.5773111,13.2347055 12.3941228,10.1800958 C12.3764661,9.88434601 12.4029512,9.57976788 12.4250221,9.27739684 L12.3830874,9.27739684 L12.3830874,24.797639 L26.1553159,24.797639 L26.1553159,10.5398511 C25.9169504,13.3892016 24.0188548,16.4835389 20.3550889,18.6001362" id="Fill-9" fill="#4C34BB"></path>
            <path d="M19.5163955,19.0503821 C14.7027368,17.0088258 12.5773111,13.2347055 12.3941228,10.1800958 C12.3764661,9.88434601 12.4029512,9.57976788 12.4250221,9.27739684 L12.3830874,9.27739684 L12.3830874,24.797639 L19.5163955,24.797639 L19.5163955,19.0503821 Z" id="Fill-9-Copy" fill="#7ACEF0"></path>
            <path d="M8.8453462,89.4942275 L8.83651785,89.4964346 L8.94466515,89.558233 C8.90935175,89.5383692 8.8806596,89.5162983 8.8453462,89.4942275" id="Fill-13" fill="#201493"></path>
            <g id="Group-17" transform="translate(9.5629, 75.5317)">
                <mask id="mask-4" fill="white">
                    <use xlink:href="#path-3"></use>
                </mask>
                <g id="Clip-16"></g>
                <path d="M85.2575987,0 C85.1604868,2.37703367 84.1628831,4.5797074 81.1678648,6.36965569 C81.0884096,6.41600454 81.0067474,6.46456047 80.9272922,6.51090932 C75.7649136,9.49268508 71.1013369,8.8504225 65.0826081,12.326586 C58.9711817,15.8557195 59.8937445,18.5439526 55.0337369,21.5654559 C54.9476605,21.6206331 54.8615841,21.6713961 54.7710935,21.7221592 C49.6506495,24.679657 40.8200908,24.1587842 33.1570816,23.576113 C22.3666288,22.7639047 8.90118552,19.5746626 0,14.385799 L53.9147433,45.344621 C55.1396771,45.9758482 57.3269012,46.3665027 58.3642326,46.4459579 C67.2499685,47.1235339 77.4886493,47.7238618 83.4257157,44.2962543 C83.5294489,44.2366629 83.6309749,44.1770715 83.7302939,44.115273 C89.3649893,40.6126245 88.2967587,37.4918022 95.383718,33.4020684 C102.36253,29.3719258 107.767688,30.1157145 113.753311,26.6594148 C113.846008,26.6064447 113.940913,26.5490604 114.033611,26.4938832 C116.061925,25.282192 117.300101,23.9049691 117.999748,22.421806 C118.785471,20.7532476 118.08141,18.755833 116.479064,17.8420986 L85.2575987,0 Z" id="Fill-15" fill="#24156D" mask="url(#mask-4)"></path>
            </g>
            <path d="M64.3368434,97.2534657 C64.427334,97.2049098 64.5134105,97.1519397 64.5994869,97.0989695 C69.4594945,94.0774662 68.5369317,91.3870261 74.6505652,87.8578925 C80.6670868,84.381729 85.3328707,85.0239916 90.4952493,82.0422159 C90.5747044,81.995867 90.6563667,81.9473111 90.7358219,81.9009622 C93.7286331,80.1110139 94.7284439,77.9083402 94.8233487,75.5313065 L94.8233487,36.0200189 C94.730651,38.3992596 93.7308401,40.6041404 90.7358219,42.3940887 C90.6563667,42.4426447 90.5747044,42.4912006 90.4952493,42.5353424 C85.3328707,45.5171181 80.6670868,44.8770626 74.6505652,48.351019 C68.5369317,51.8779455 69.4594945,54.5705927 64.5994869,57.589889 C64.5134105,57.6450662 64.427334,57.6958292 64.3368434,57.7487993 L64.3368434,97.2534657 Z" id="Fill-4" fill="#4C34BB"></path>
        </g>
    </g>
</svg>