<?xml version="1.0" encoding="UTF-8"?>
<svg width="160px" height="160px" viewBox="0 0 160 160" version="1.1" xmlns="http://www.w3.org/2000/svg" xmlns:xlink="http://www.w3.org/1999/xlink">
    <title>Brand/Illustrations/Barcode</title>
    <g id="Brand/Illustrations/Barcode" stroke="none" stroke-width="1" fill="none" fill-rule="evenodd">
        <rect id="background" fill-opacity="0" fill="#FFFFFF" fill-rule="nonzero" x="0" y="0" width="160" height="160"></rect>
        <g id="icon" transform="translate(24.5719, 16)">
            <polygon id="Fill-1" fill="#4C34BB" points="27.7139632 111.995723 27.7121902 47.9970524 83.1401165 15.9977172 83.1383435 79.9963875"></polygon>
            <polygon id="Fill-2" fill="#FFFFFF" points="55.4254441 5.68434189e-14 0.00106380768 31.9993351 27.713254 47.9972297 83.1394073 15.9978945"></polygon>
            <polygon id="Fill-3" fill="#7ACEF0" points="-3.55271368e-15 95.9996011 27.7139632 111.995723 27.7121902 47.9970524 0.00177301281 31.9991578"></polygon>
            <path d="M73.2011386,56.5337544 L73.2011386,73.8312674 L58.3627944,82.4002382 L58.2191804,65.1825109 L73.2011386,56.5337544 Z M71.2845118,59.8528344 L60.1446723,66.2835518 L60.2510531,79.0953424 L71.2845118,72.7249074 L71.2845118,59.8528344 Z M73.0419221,35.2402252 L73.0419221,52.5395112 L58.2035779,61.1067091 L58.0599638,43.8889817 L73.0419221,35.2402252 Z M71.1252952,38.5610782 L59.9854558,44.9900226 L60.0918365,57.8018132 L71.1252952,51.4313782 L71.1252952,38.5610782 Z M68.9902332,42.5088685 L68.9920062,50.0849522 L62.4921413,53.8384204 L62.4283128,46.2977969 L68.9902332,42.5088685 Z M46.650981,81.4788035 L46.5871526,89.0602063 L40.0890606,92.8136744 L40.0890606,85.2677319 L46.650981,81.4788035 Z M44.704213,84.8156136 L42.0056875,86.3740919 L42.0056875,89.4928214 L44.6793908,87.9467542 L44.704213,84.8156136 Z M55.0692458,76.5943305 L55.0710189,84.1686412 L48.5711539,87.9238823 L48.5090985,80.3814859 L55.0692458,76.5943305 Z M46.650981,71.72546 L46.5871526,79.3068628 L40.0890606,83.0603309 L40.0890606,75.5143884 L46.650981,71.72546 Z M55.0692458,66.8635043 L55.0710189,74.4395881 L48.5711539,78.1948292 L48.5073255,70.6524327 L55.0692458,66.8635043 Z M53.152619,70.1843573 L50.4345904,71.7534737 L50.4594126,74.8881603 L53.154392,73.3332281 L53.152619,70.1843573 Z M55.0710189,45.5908967 L55.0710189,62.8884096 L40.0890606,71.5442581 L40.0890606,54.2396532 L55.0710189,45.5908967 Z M53.154392,48.9099767 L42.0056875,55.3460131 L42.0056875,68.2216321 L53.154392,61.7820496 L53.154392,48.9099767 Z" id="Combined-Shape" fill-opacity="0.4" fill="#24156D"></path>
            <polygon id="Fill-12" fill="#24156D" points="27.7143178 111.995013 55.430054 128 110.856207 96.0006649 83.1386981 79.9956783"></polygon>
        </g>
    </g>
</svg>