<?xml version="1.0" encoding="UTF-8"?>
<svg width="384px" height="590px" viewBox="0 0 384 590" version="1.1" xmlns="http://www.w3.org/2000/svg" xmlns:xlink="http://www.w3.org/1999/xlink">
    <title>icon</title>
    <g id="Symbols" stroke="none" stroke-width="1" fill="none" fill-rule="evenodd">
        <g id="UI/Molecules/Blog/Resources-&amp;-Article/Images/Flag" transform="translate(-103, 113)" fill="#58517B">
            <g id="icon" transform="translate(103, -113)">
                <path d="M340.657851,-1.42108547e-14 L383.235758,24.5812561 L170.332603,147.509331 L170.32371,147.504 L127.747341,172.085411 L85.1667103,147.50143 L127.747341,122.920174 L127.75371,122.924 L340.649678,-1.42108547e-14 Z" id="Combined-Shape" fill-opacity="0.2"></path>
                <polygon id="Fill-3" fill-opacity="0.6" points="127.729633 565.405667 255.490596 491.661899 255.490596 442.493938 127.745979 516.24588"></polygon>
                <polygon id="Fill-4" fill-opacity="0.4" points="0 491.661627 127.747341 565.416292 127.747341 516.245607 0 442.490942"></polygon>
                <polygon id="Fill-5" fill-opacity="0.2" points="0 442.492031 127.747341 516.249421 255.491958 442.494756 127.744617 368.74009"></polygon>
                <polygon id="Fill-6" points="127.746796 565.41602 170.327427 590 298.072044 516.245335 255.491413 491.661354"></polygon>
                <polygon id="Fill-8" fill-opacity="0.4" points="85.1667103 442.498842 127.747341 467.082823 127.747341 172.083231 85.1667103 147.499251"></polygon>
                <path d="M170.333148,147.506334 L170.333148,393.35431 L383.236302,270.42896 L383.236302,24.5837079 L170.333148,147.506334 Z M127.748158,467.08255 L170.331514,442.49857 L170.331514,147.501703 L127.748158,172.082959 L127.748158,467.08255 Z" id="Combined-Shape" fill-opacity="0.6"></path>
                <path d="M340.64314,158.647312 L340.64314,257.002304 L170.323341,355.332776 L170.323341,256.980509 L212.895799,232.401978 L212.895799,281.572663 L298.07613,232.399253 L298.07613,183.22312 L340.64314,158.647312 Z M247.196772,144.121405 L247.196772,193.283918 L204.605244,217.881519 L204.605244,168.724456 L247.196772,144.121405 Z M307.778684,109.120563 L307.778684,158.285799 L265.187156,182.883401 L265.187156,133.723613 L307.778684,109.120563 Z" id="Combined-Shape"></path>
            </g>
        </g>
    </g>
</svg>