<?xml version="1.0" encoding="UTF-8"?>
<svg width="641px" height="686px" viewBox="0 0 641 686" version="1.1" xmlns="http://www.w3.org/2000/svg" xmlns:xlink="http://www.w3.org/1999/xlink">
    <title>image</title>
    <g id="Symbols" stroke="none" stroke-width="1" fill="none" fill-rule="evenodd">
        <g id="UI/Molecules/Blog/Resources-&amp;-Article/Images/Heart" transform="translate(131, 161)" fill="#58517B">
            <g id="icon" transform="translate(-130.4286, -161)">
                <polygon id="Fill-5" fill-opacity="0.4" points="0.00116953182 474.910032 274.18621 633.212012 274.18621 316.608053 0.00116953182 158.306073"></polygon>
                <polygon id="Fill-6" fill-opacity="0.6" points="274.201998 633.225461 548.410429 474.911786 548.410429 158.296132 274.201998 316.603959"></polygon>
                <polygon id="Fill-7" fill-opacity="0.2" points="0 158.307827 274.214278 316.603959 548.411014 158.290284 274.196735 0"></polygon>
                <polygon id="Fill-8" points="365.648861 686 639.857292 527.686325 548.452532 474.917049 274.249949 633.230724"></polygon>
                <path d="M454.994075,287.020067 C447.924255,290.780112 440.895369,299.767964 435.579847,313.088931 L425.960447,337.245611 L416.054513,323.474374 C410.586952,315.884112 403.476198,314.41635 396.406378,318.176395 C389.330711,321.93644 382.295977,330.924292 376.968759,344.256954 C366.343563,370.957366 366.595012,404.879636 377.530135,420.112788 L387.436069,433.884025 L427.07735,488.90465 L465.57249,392.336407 L475.197737,368.179728 C485.852172,341.467621 485.600723,307.539503 474.636362,292.323894 C469.1688,284.733632 462.063895,283.260022 454.994075,287.020067" id="Fill-9"></path>
            </g>
        </g>
    </g>
</svg>