<?xml version="1.0" encoding="UTF-8"?>
<svg width="160px" height="160px" viewBox="0 0 160 160" version="1.1" xmlns="http://www.w3.org/2000/svg" xmlns:xlink="http://www.w3.org/1999/xlink">
    <title>Brand/Illustrations/Store/Horizontal/Thin/Bronze</title>
    <g id="Brand/Illustrations/Store/Horizontal/Thin/Bronze" stroke="none" stroke-width="1" fill="none" fill-rule="evenodd">
        <rect id="background" fill-opacity="0" fill="#FFFFFF" fill-rule="nonzero" x="0" y="0" width="160" height="160"></rect>
        <g id="Thin" transform="translate(16.0474, 39.9999)">
            <polygon id="Fill-1" fill="#AEAEAE" points="117.246797 40.0012275 69.2822572 67.692486 69.2825981 73.8461748 117.246797 46.1549163"></polygon>
            <polygon id="Fill-2" fill="#E4E5E5" points="0.000340962366 33.8473341 69.2828709 73.8459703 69.2825299 67.6926224 1.13189912e-15 27.6933044"></polygon>
            <polygon id="Fill-3" fill="#E4E5E5" points="26.6473682 43.0772195 10.6593019 33.8463453 26.6473682 30.76916"></polygon>
            <path d="M63.9517879,33.8464476 L74.6136811,27.6927588 L101.261254,43.0759579 L90.6355027,49.2521502 L63.9517879,33.8464476 Z M53.296714,52.3099007 L42.6334569,46.1528023 L53.296714,39.9987725 L63.9555385,46.1528023 L53.296714,52.3099007 Z M74.6126582,15.3853812 L26.6474364,43.0773217 L69.2823936,67.6927588 L117.246933,40.0011593 L74.6126582,15.3853812 Z" id="Fill-4" fill="#FFFFFF"></path>
            <polygon id="Path-2" fill="#6F6F6F" points="74.6152154 27.6933044 101.261254 43.0758556 90.600895 49.2521502 63.9517879 33.8461066"></polygon>
            <polygon id="Path-3" fill="#6F6F6F" points="53.2967481 39.9987725 63.9517879 46.1548822 53.2967481 52.3099007 42.6358778 46.1528023"></polygon>
            <polygon id="Fill-5" fill="#AEAEAE" points="26.6473682 30.7692963 74.612931 3.0776968 74.61259 15.3854153 26.6473682 43.0773558"></polygon>
            <polygon id="Fill-6" fill="#E4E5E5" points="74.6138516 21.5403316 74.6152154 27.6940204 101.261083 43.0758556 106.587938 40.0003751"></polygon>
            <polygon id="Fill-7" fill="#AEAEAE" points="74.6135106 27.6927929 63.9516174 33.8464817 58.6237395 30.7692963 74.6121468 21.5391041"></polygon>
            <polygon id="Fill-8" fill="#E4E5E5" points="53.2950433 33.8461066 53.2967481 39.9987725 63.9559136 46.1528023 69.2827686 43.0769808"></polygon>
            <polygon id="Fill-9" fill="#AEAEAE" points="53.2950433 33.8461066 37.306295 43.0769808 42.6331501 46.1528023 53.2967481 39.9987725"></polygon>
            <polygon id="Fill-10" fill="#FFFFFF" points="47.9632102 0 0.000375058603 27.6926224 10.6591996 33.8463112 58.6244214 6.15471167"></polygon>
            <path d="M8.93062268,27.3444999 C8.93062268,27.7011465 9.43251929,27.9902826 10.0517069,27.9902826 C10.6708946,27.9902826 11.1727912,27.7011465 11.1727912,27.3444999 C11.1727912,26.9878532 10.6708946,26.6987171 10.0517069,26.6987171 C9.43251929,26.6987171 8.93062268,26.9878532 8.93062268,27.3444999 M39.5203682,9.29964625 L41.1358479,10.9192175 L40.3642501,11.3648553 L38.4459958,10.7483953 L38.4194008,10.7633977 L39.5159357,11.8544773 L38.7405873,12.3021608 L35.8962792,11.3917913 L36.6303712,10.9683161 L38.5124835,11.6816093 L38.5428291,11.6642203 L37.3682138,10.5424541 L38.0525253,10.1469377 L40.0335166,10.8036312 L40.0638623,10.7859012 L38.7941184,9.71902996 L39.5203682,9.29964625 Z M43.3152453,7.10869028 L44.9348165,8.72587478 L44.1628777,9.17151259 L42.2408729,8.55709841 L42.2176874,8.57039594 L43.3149043,9.66113455 L42.5354643,10.1112049 L39.6914973,9.20083536 L40.4289988,8.77497336 L42.3073605,9.49065337 L42.3380471,9.47326429 L41.1668414,8.34911137 L41.8474023,7.95598176 L43.8283936,8.61267528 L43.8590803,8.59494523 L42.5889954,7.52807399 L43.3152453,7.10869028 Z M47.1140775,4.91541576 L48.7295572,6.534987 L47.9579593,6.98062481 L46.0397051,6.36416486 L46.01311,6.3791672 L47.109645,7.47024677 L46.330205,7.9203171 L43.4899885,7.00756084 L44.2237395,6.58408558 L46.1061927,7.29737885 L46.1365384,7.27998977 L44.961923,6.15822359 L45.6462345,5.76270724 L47.6272258,6.41940076 L47.6538209,6.40405745 L46.3878276,5.33479947 L47.1140775,4.91541576 Z M12.4544687,25.2619358 C12.4544687,25.6185824 12.9567063,25.9077185 13.575894,25.9077185 C14.1947407,25.9077185 14.6969782,25.6185824 14.6969782,25.2619358 C14.6969782,24.9052892 14.1947407,24.6161531 13.575894,24.6161531 C12.9567063,24.6161531 12.4544687,24.9052892 12.4544687,25.2619358 M16.0618847,23.1793718 C16.0618847,23.5360184 16.5637813,23.8251545 17.1829689,23.8251545 C17.8021566,23.8251545 18.3040532,23.5360184 18.3040532,23.1793718 C18.3040532,22.8227251 17.8021566,22.5335891 17.1829689,22.5335891 C16.5637813,22.5335891 16.0618847,22.8227251 16.0618847,23.1793718" id="Combined-Shape" fill="#AEAEAE"></path>
            <g id="Group-22" transform="translate(35.8963, 4.9154)"></g>
            <g id="Group-40" transform="translate(10.6596, 3.0767)">
                <polygon id="Fill-27" fill="#FFFFFF" points="63.9526062 9.6907333e-15 15.9877254 27.6926224 0 30.7698078 47.9645399 3.07786728"></polygon>
                <polygon id="Fill-29" fill="#E4E5E5" points="21.3173081 24.615403 5.32890082 27.6925883 10.6554149 24.615403 26.6468908 21.5392405"></polygon>
                <polygon id="Fill-31" fill="#E4E5E5" points="31.9747347 18.46659 15.9876913 21.5390018 21.3142053 18.46659 37.3039765 15.3904275"></polygon>
                <polygon id="Fill-33" fill="#E4E5E5" points="42.6351276 12.3077867 26.6470613 15.385313 31.9732345 12.3081277 47.9647104 9.23162426"></polygon>
                <polygon id="Fill-35" fill="#E4E5E5" points="53.2908494 6.15314325 37.3058518 9.23169245 42.6323659 6.1545071 58.6204322 3.07698078"></polygon>
                <g id="Group-39" transform="translate(58.6227, 43.0781)" fill="#6F6F6F">
                    <polygon id="Fill-37" points="47.964199 0 58.6230235 6.15334782 10.6588245 33.8452883 0 27.6912586"></polygon>
                </g>
            </g>
        </g>
    </g>
</svg>