<?xml version="1.0" encoding="UTF-8"?>
<svg width="32px" height="32px" viewBox="0 0 32 32" version="1.1" xmlns="http://www.w3.org/2000/svg" xmlns:xlink="http://www.w3.org/1999/xlink">
    <title>Icons/Constraints</title>
    <g id="Icons/Constraints" stroke="none" stroke-width="1" fill="none" fill-rule="evenodd">
        <path d="M21.272762,22.6679015 L21.272762,18.1328394 C21.272762,17.5463086 20.7928732,17.0664197 20.2063423,17.0664197 C19.6198115,17.0664197 19.1399226,17.5463086 19.1399226,18.1328394 L19.1399226,22.6679015 C19.1399226,24.427494 17.700256,25.8671606 15.9406635,25.8671606 C14.181071,25.8671606 12.7414044,24.427494 12.7414044,22.6679015 L12.7414044,18.1328394 C12.7414044,17.5463086 12.2615155,17.0664197 11.6749847,17.0664197 C11.0884538,17.0664197 10.608565,17.5463086 10.608565,18.1328394 L10.608565,22.6679015 C10.608565,25.6112199 12.9973451,28 15.9406635,28 C18.8839819,28 21.272762,25.6112199 21.272762,22.6679015 Z M15.9406635,11.7343212 C15.3541327,11.7343212 14.8742438,12.21421 14.8742438,12.8007409 L14.8742438,19.1992591 C14.8742438,19.78579 15.3541327,20.2656788 15.9406635,20.2656788 C16.5271943,20.2656788 17.0070832,19.78579 17.0070832,19.1992591 L17.0070832,12.8007409 C17.0070832,12.21421 16.5271943,11.7343212 15.9406635,11.7343212 Z M12.7414044,13.8671606 L12.7414044,9.33209853 C12.7414044,7.57250601 14.181071,6.13283941 15.9406635,6.13283941 C17.700256,6.13283941 19.1399226,7.57250601 19.1399226,9.33209853 L19.1399226,13.8671606 C19.1399226,14.4536914 19.6198115,14.9335803 20.2063423,14.9335803 C20.7928732,14.9335803 21.272762,14.4536914 21.272762,13.8671606 L21.272762,9.33209853 C21.272762,6.38878014 18.8839819,4 15.9406635,4 C12.9973451,4 10.608565,6.38878014 10.608565,9.33209853 L10.608565,13.8671606 C10.608565,14.4536914 11.0884538,14.9335803 11.6749847,14.9335803 C12.2615155,14.9335803 12.7414044,14.4536914 12.7414044,13.8671606 Z M22.8723916,10.6519579 C23.165657,11.1599085 23.8211974,11.3355601 24.329148,11.0422946 L27.1951264,9.19520153 C27.7030771,8.90193611 27.8787286,8.24639572 27.5854632,7.73844512 C27.2921977,7.23049451 26.6366573,7.05484299 26.1287067,7.34810841 L23.2627283,9.19520153 C22.7547777,9.48846694 22.5791262,10.1440073 22.8723916,10.6519579 Z M22.7890714,21.4923568 C22.495806,22.0003074 22.6714575,22.6558478 23.1794081,22.9491132 L26.2120269,24.5075768 C26.7199775,24.8008422 27.3755179,24.6251907 27.6687833,24.1172401 C27.9620487,23.6092895 27.7863972,22.9537491 27.2784466,22.6604837 L24.2458278,21.1020201 C23.7378772,20.8087547 23.0823368,20.9844062 22.7890714,21.4923568 Z M22.4585084,16.1711709 C22.4380388,16.7573444 22.9008874,17.2536888 23.487061,17.2741585 L26.8963588,17.2264718 C27.4825323,17.2469415 27.9788767,16.7840928 27.9993463,16.1979193 C28.019816,15.6117457 27.5569673,15.1154013 26.9707938,15.0949317 L23.561496,15.1426183 C22.9753224,15.1221487 22.478978,15.5849973 22.4585084,16.1711709 Z M9.12760841,10.6519579 C8.834343,11.1599085 8.17880261,11.3355601 7.67085201,11.0422946 L4.80487355,9.19520153 C4.29692294,8.90193611 4.12127143,8.24639572 4.41453685,7.73844512 C4.70780227,7.23049451 5.36334265,7.05484299 5.87129326,7.34810841 L8.73727171,9.19520153 C9.24522232,9.48846694 9.42087383,10.1440073 9.12760841,10.6519579 Z M9.21092858,21.4923568 C9.504194,22.0003074 9.32854248,22.6558478 8.82059188,22.9491132 L5.78797309,24.5075768 C5.28002248,24.8008422 4.6244821,24.6251907 4.33121668,24.1172401 C4.03795126,23.6092895 4.21360278,22.9537491 4.72155338,22.6604837 L7.75417217,21.1020201 C8.26212278,20.8087547 8.91766316,20.9844062 9.21092858,21.4923568 Z M9.5414916,16.1711709 C9.56196123,16.7573444 9.09911258,17.2536888 8.51293904,17.2741585 L5.10364124,17.2264718 C4.5174677,17.2469415 4.02112329,16.7840928 4.00065366,16.1979193 C3.98018403,15.6117457 4.44303268,15.1154013 5.02920622,15.0949317 L8.43850402,15.1426183 C9.02467756,15.1221487 9.52102197,15.5849973 9.5414916,16.1711709 Z" id="Combined-Shape" fill="#4C34BB"></path>
    </g>
</svg>