<?xml version="1.0" encoding="UTF-8"?>
<svg width="32px" height="32px" viewBox="0 0 32 32" version="1.1" xmlns="http://www.w3.org/2000/svg" xmlns:xlink="http://www.w3.org/1999/xlink">
    <title>Icons/Covid</title>
    <g id="Icons/Covid" stroke="none" stroke-width="1" fill="none" fill-rule="evenodd">
        <path d="M16.0003756,4 L15.9996258,4.00073701 C15.3522918,4.00073701 14.8268335,4.52691821 14.8268335,5.1742522 L14.8268335,8.82903245 C14.6677248,8.85482773 14.5097216,8.88728443 14.352668,8.9235679 L13.5010538,6.87244623 C13.2510522,6.26890753 12.555756,5.98157362 11.9522457,6.23156107 C11.3488345,6.48149183 11.0606786,7.17474708 11.3106377,7.77820074 L12.1644189,9.83219957 C12.0273638,9.91709723 11.8920661,10.0054106 11.7609921,10.0992374 L9.17507188,7.51331723 C8.71733321,7.05557855 7.97141023,7.05557855 7.51367156,7.51331723 C7.05601792,7.97097086 7.05601792,8.71706392 7.51367156,9.17471755 L10.1024831,11.7635149 C10.0085146,11.8941921 9.91759329,12.0281575 9.8325539,12.1647874 L7.7785409,11.3131605 C7.17503055,11.0631872 6.47901151,11.3512865 6.22902406,11.9547685 C5.97906496,12.5582222 6.26941777,13.2514774 6.87278639,13.5014082 L8.9267994,14.3523264 C8.89023246,14.5093092 8.86061041,14.6681344 8.83438993,14.8272147 L5.17384118,14.8272147 C4.52650719,14.8272147 4.00032598,15.3526731 4.00032598,16 C4.00032598,16.6473269 4.52650719,17.1756766 5.17384118,17.1756766 L8.83149859,17.1756766 C8.8570104,17.33419 8.88804978,17.4904782 8.92390806,17.6469649 L6.87278639,18.4993147 C6.26924769,18.7493021 5.97903661,19.4438897 6.22902406,20.0474 C6.47901151,20.6509387 7.17503055,20.9389813 7.7785409,20.689008 L9.8325539,19.8373811 C9.91702636,19.9741528 10.0062043,20.1078347 10.0995918,20.2386536 L7.5136999,22.8245454 C7.05596123,23.2822841 7.05596123,24.0282071 7.5136999,24.4859458 C7.97143858,24.9436844 8.71734739,24.9436844 9.17508606,24.4859458 L11.7638834,21.8978571 C11.8948441,21.9921091 12.027548,22.0823784 12.1644473,22.1677863 L11.3106518,24.2210764 C11.0606644,24.8245868 11.3487778,25.5206058 11.9522598,25.7705933 C12.5557702,26.0205807 13.2510664,25.7331759 13.501068,25.1297081 L14.352695,23.0757093 C14.5096777,23.1122762 14.6677942,23.1426069 14.8268604,23.1688274 L14.8268604,26.8264848 C14.8268604,27.4738188 15.3523188,28 15.9996528,28 C16.6469726,28 17.1731679,27.4738188 17.1731679,26.8264848 L17.1731679,23.1745959 C17.3333113,23.1486589 17.4921649,23.1150683 17.6502247,23.0786431 L18.4989603,25.1304876 C18.7488911,25.7338846 19.4443432,26.0213319 20.0477685,25.7713728 C20.6513072,25.5213853 20.939364,24.8253521 20.6893765,24.2218418 L19.8377496,22.1707201 C19.9756551,22.0852555 20.1099465,21.9952697 20.2419134,21.9008051 L22.8249423,24.4867111 C23.282681,24.9444498 24.0285898,24.9444498 24.4863284,24.4867111 C24.9440671,24.0289724 24.9440671,23.2830636 24.4863284,22.825325 L21.9025768,20.2422961 C21.9972539,20.1109103 22.0874949,19.9755701 22.1732288,19.8381323 L24.2214591,20.6897592 C24.8249128,20.9397183 25.5210452,20.6514915 25.7709901,20.0481512 C26.0209634,19.4446408 25.7307381,18.7493446 25.1272136,18.499343 L23.0782604,17.6469932 C23.1146857,17.4910877 23.1452998,17.3336656 23.1713786,17.175705 L26.8261588,17.175705 C27.4734645,17.175705 27.999674,16.6473552 27.999674,16.0000213 C27.999674,15.3527014 27.4734645,14.8272289 26.8261588,14.8272289 L23.1742699,14.8272289 C23.1483329,14.6667879 23.1148841,14.5078068 23.0783171,14.3494635 L25.1272703,13.5014365 C25.7306814,13.2515058 26.0209917,12.5582505 25.7710468,11.9547968 C25.5211019,11.3513999 24.8249695,11.0632297 24.2215158,11.3131888 L22.1703941,12.1619244 C22.085213,12.0243024 21.9967862,11.8894866 21.9026334,11.7577748 L24.4863851,9.1747459 C24.9440388,8.71707809 24.9440388,7.97099921 24.4863851,7.51334557 C24.0286465,7.0556069 23.2827235,7.0556069 22.8249848,7.51334557 L20.2390788,10.0992658 C20.1082599,10.0050138 19.9745921,9.91465943 19.8378063,9.82933658 L20.6894332,7.77821492 C20.9393923,7.17476125 20.6511655,6.481506 20.0478252,6.23157524 C19.4443857,5.98161614 18.7489478,6.2691343 18.499017,6.87246041 L17.6473901,8.92358207 C17.49062,8.88715687 17.332064,8.85725135 17.1732105,8.8311726 L17.1732105,5.17350102 C17.1732105,4.52618121 16.6477521,4 16.0004323,4 L16.0003756,4 Z M14.6139501,12.3206788 C15.3007849,12.3206788 15.8610811,12.8831435 15.8610811,13.5699783 C15.8610811,14.256813 15.3007849,14.8163864 14.6139501,14.8163864 C13.9271153,14.8163864 13.3646648,14.256813 13.3646648,13.5699783 C13.3646648,12.8831435 13.9271153,12.3206788 14.6139501,12.3206788 Z M18.4058564,14.3912887 C19.0926912,14.3912887 19.6522645,14.950862 19.6522645,15.6376968 C19.6522645,16.3245316 19.0926912,16.8841049 18.4058564,16.8841049 C17.7190216,16.8841049 17.1594483,16.3245316 17.1594483,15.6376968 C17.1594483,14.950862 17.7190216,14.3912887 18.4058564,14.3912887 Z M14.267528,17.6642846 C14.9543628,17.6642846 15.5175503,18.2238579 15.5175503,18.9106927 C15.5175503,19.5975275 14.9543628,20.159978 14.267528,20.159978 C13.5806932,20.159978 13.0211199,19.5975275 13.0211199,18.9106927 C13.0211199,18.2238579 13.5806932,17.6642846 14.267528,17.6642846 Z" id="Covid" fill="#4C34BB"></path>
    </g>
</svg>