<?xml version="1.0" encoding="UTF-8"?>
<svg width="160px" height="160px" viewBox="0 0 160 160" version="1.1" xmlns="http://www.w3.org/2000/svg" xmlns:xlink="http://www.w3.org/1999/xlink">
    <title>Brand/Illustrations/CreditCard</title>
    <g id="Brand/Illustrations/CreditCard" stroke="none" stroke-width="1" fill="none" fill-rule="evenodd">
        <rect id="background" fill-opacity="0" fill="#FFFFFF" fill-rule="nonzero" x="0" y="0" width="160" height="160"></rect>
        <g id="icon" transform="translate(15.3186, 32.5)">
            <polygon id="Fill-4" fill="#24156D" points="0 47.4483347 82.2719767 95 129.359632 67.8557677 129.359632 67.8542636 47.0079384 20.3484729"></polygon>
            <polygon id="Fill-5" fill="#FFFFFF" points="11.7431481 27.0998618 82.2930339 67.8184664 129.290444 40.673482 58.6600893 0"></polygon>
            <polygon id="Fill-6" fill="#4C34BB" points="82.2927331 67.8184664 82.2964933 81.4153999 129.290143 54.2696635 129.290143 40.673482"></polygon>
            <polygon id="Fill-7" fill="#7ACEF0" points="11.7430729 27.0997114 11.7430729 40.6966449 82.2959668 81.4160016 82.2929587 67.818316"></polygon>
            <path d="M31.4672751,25.0440776 L26.3443596,28.0011099 L36.5330353,33.9053978 L41.6943049,30.9686707 L31.4672751,25.0440776 Z M46.8430906,33.9217171 L41.7201752,36.8787493 L51.9088508,42.7830372 L57.0693684,39.8463102 L46.8430906,33.9217171 Z M77.3911438,51.6623312 L87.6181736,57.5869243 L82.456904,60.5236513 L72.2689804,54.6201155 L77.3911438,51.6623312 Z M62.2408658,42.8514731 L72.4678957,48.7760662 L67.3066261,51.7127933 L57.1179504,45.8085054 L62.2408658,42.8514731 Z M50.9553355,13.7936637 L44.7116841,17.3983971 C43.7550962,17.9506772 43.42734,19.1738564 43.9796201,20.1304444 C44.1551478,20.4344707 44.4076084,20.6869393 44.7116291,20.8624766 L50.9546018,24.4670829 C51.5733883,24.8243617 52.3357757,24.8243859 52.954585,24.4671465 L59.1986947,20.862413 C60.1553002,20.3101633 60.4830953,19.0869945 59.9308456,18.1303891 C59.755306,17.8263198 59.5028134,17.5738192 59.1987498,17.3982699 L52.9553187,13.7936637 C52.3365208,13.4364045 51.5741334,13.4364045 50.9553355,13.7936637 Z M100.925044,42.1440265 C102.707386,43.1675567 102.574274,44.9085358 100.623475,46.0350959 C98.6681639,47.1639121 95.6216386,47.2564133 93.8152318,46.2449158 L90.5987448,48.1002053 C94.0393405,50.0374676 99.848119,49.8644977 103.580507,47.7098951 C107.31064,45.5560446 107.555806,42.2380318 104.140779,40.2887369 L100.925044,42.1440265 Z" id="Combined-Shape" fill="#24156D"></path>
        </g>
    </g>
</svg>