<?xml version="1.0" encoding="UTF-8"?>
<svg width="32px" height="32px" viewBox="0 0 32 32" version="1.1" xmlns="http://www.w3.org/2000/svg" xmlns:xlink="http://www.w3.org/1999/xlink">
    <title>Icons/Design</title>
    <g id="Icons/Design" stroke="none" stroke-width="1" fill="none" fill-rule="evenodd">
        <path d="M26.7518272,5.25338375 L26.7518272,5.25338375 C25.9184901,4.41858704 24.7769702,3.96566628 23.5979818,4.00203276 C22.4189933,4.03839925 21.3075581,4.56081352 20.5272558,5.44538375 L12.3861129,14.5602409 C10.4177193,14.2542823 8.42153983,14.906512 7.01354149,16.3156695 C5.82161788,17.4404423 5.28856798,19.0971666 5.60097006,20.7059552 C5.860039,22.0179674 5.38601743,23.3671562 4.36325577,24.2288123 C3.87296783,24.7337939 3.87984455,25.5391339 4.37868435,26.0356695 C5.66330468,27.3201152 7.41373568,28.028947 9.23011292,28.0002409 C11.7218577,27.9416906 14.0948129,26.9234816 15.8541129,25.1579552 C17.3327326,23.6807903 17.9759267,21.5627521 17.5683986,19.5128123 L26.5615415,11.4813838 C27.4428997,10.6983387 27.9627596,9.58680095 27.9987639,8.40838866 C28.0347682,7.22997637 27.5837369,6.08877476 26.7518272,5.25338375 Z M14.0369701,18.1345266 C15.472071,19.5725993 15.472071,21.9010254 14.0369701,23.339098 C12.4045965,25.1074312 9.9144733,25.8039228 7.60154149,25.139098 C7.48366476,25.0931897 7.39248788,24.9969824 7.35297006,24.8768123 C7.31176235,24.7571309 7.32556745,24.625355 7.39068435,24.5168123 C8.11727432,23.3046961 8.39174463,21.8746572 8.16554149,20.4796695 C7.92590831,19.6347468 8.18404786,18.726945 8.83239863,18.1345266 C10.2708611,16.7003683 12.5985076,16.7003683 14.0369701,18.1345266 L14.0369701,18.1345266 Z" id="Shape" fill="#4C34BB"></path>
    </g>
</svg>