<?xml version="1.0" encoding="UTF-8"?>
<svg width="160px" height="160px" viewBox="0 0 160 160" version="1.1" xmlns="http://www.w3.org/2000/svg" xmlns:xlink="http://www.w3.org/1999/xlink">
    <title>Brand/Illustrations/Documenting-Step</title>
    <g id="Brand/Illustrations/Documenting-Step" stroke="none" stroke-width="1" fill="none" fill-rule="evenodd">
        <rect id="background" fill-opacity="0" fill="#FFFFFF" fill-rule="nonzero" x="0" y="0" width="160" height="160"></rect>
        <g id="icon" transform="translate(15.7888, 36.75)">
            <polygon id="Fill-3" fill="#7ACEF0" points="0.00684675614 55.6010688 42.8100275 80.3212819 42.8066041 67.964941 32.1030702 61.785059 0 43.2495207"></polygon>
            <path d="M117.719565,24.7146672 L117.719565,37.0703233 L42.8098905,80.3212819 L42.8071518,67.964941 L117.719565,24.7146672 Z M10.6988781,61.7861544 L10.6988781,74.1356485 L32.0922523,74.1356485 L32.1032071,61.7847851 L10.6988781,61.7861544 Z" id="Combined-Shape" fill="#4C34BB"></path>
            <path d="M74.9118652,7.10542736e-15 L117.719839,24.7147356 L42.806741,67.9650095 L32.1011369,61.784 L10.6987411,61.7861544 L10.6987411,49.4304983 L29.5001369,60.282 L0.000136935123,43.2495892 L74.9118652,7.10542736e-15 Z" id="Combined-Shape" fill="#FFFFFF"></path>
            <path d="M25.1133262,40.5606488 L39.9964661,49.2026092 L37.8792141,50.4246186 L22.9868596,41.7883289 L25.1133262,40.5606488 Z M37.2526153,33.4898638 L59.4004739,46.2883575 L57.283222,47.510367 L35.1261487,34.7175439 L37.2526153,33.4898638 Z M48.8028023,26.8896658 L70.9499521,39.6888684 L68.833409,40.9108779 L46.6756268,28.1173459 L48.8028023,26.8896658 Z M90.5262037,15.701687 C96.4866897,19.0763895 96.0613964,24.8426582 89.5813437,28.583113 C83.1027088,32.3249854 73.02751,32.6212731 67.067024,29.2451529 C61.1065381,25.8697416 61.5261609,20.1063082 68.0062135,16.3658534 C74.4862661,12.6246898 84.565009,12.3262757 90.5262037,15.701687 Z M70.161033,17.5864453 C64.9788338,20.577675 64.6478138,25.1906899 69.4139344,27.8905937 C74.1814725,30.5890798 82.2450339,30.3551685 87.4265242,27.3639388 C92.6136851,24.369165 92.9454139,19.7554412 88.1785846,17.0569551 C83.4117553,14.3570513 75.347485,14.5916714 70.161033,17.5864453 Z M84.6599912,19.0884395 C87.6377533,20.7747275 87.4272331,23.6610516 84.1900421,25.5309245 C80.952851,27.3993799 75.9109987,27.5446884 72.9325278,25.8591092 C69.9547657,24.1728212 70.1603241,21.2879148 73.3975152,19.4194595 C76.635415,17.5502953 81.6815203,17.4014427 84.6599912,19.0884395 Z" id="Combined-Shape" fill="#4C34BB"></path>
            <polygon id="Fill-6" fill="#24156D" points="42.8098905 80.3214873 53.5093163 86.5 128.422414 43.2504108 117.719565 37.0705287"></polygon>
        </g>
    </g>
</svg>