<?xml version="1.0" encoding="UTF-8"?>
<svg width="72px" height="72px" viewBox="0 0 72 72" version="1.1" xmlns="http://www.w3.org/2000/svg" xmlns:xlink="http://www.w3.org/1999/xlink">
    <title>Illustration</title>
    <g id="Symbols" stroke="none" stroke-width="1" fill="none" fill-rule="evenodd">
        <g id="UI/Molecules/Quote" transform="translate(-289, -16)">
            <g id="Illustration" transform="translate(289, 16)">
                <rect id="background" fill-opacity="0" fill="#FFFFFF" fill-rule="nonzero" x="0" y="0" width="72" height="72"></rect>
                <g id="icon" transform="translate(12.5921, 9.45)">
                    <g id="leftt_quote" transform="translate(-0, -0)">
                        <path d="M11.6093018,33.5075162 L11.6093018,15.6354745 L27.0848889,6.70044376 L27.0847404,42.4425469 L19.3468231,46.910186 L19.3468231,42.4425469 L23.2156579,40.2089749 L23.2156579,26.8060575 L11.6093018,33.5075162 Z" id="Combined-Shape" fill="#4C34BB"></path>
                        <polygon id="Fill-3" fill="#7ACEF0" points="7.73903123 40.2087521 19.3467736 46.9114485 19.3467736 42.4435618 7.73903123 35.741113"></polygon>
                        <polygon id="Fill-4" fill="#FFFFFF" points="11.6079651 33.5075409 7.73913025 35.741113 19.3473677 42.4425716 23.2164501 40.2087521"></polygon>
                        <polygon id="Fill-5" fill="#7ACEF0" points="23.2156084 40.2088263 11.6093514 33.5076152 19.3472686 29.039481 23.2156084 26.805909"></polygon>
                        <polygon id="Fill-6" fill="#7ACEF0" points="0.000495084122 26.8060575 11.6092276 33.5075162 11.6092276 15.6354745 0.000495084122 8.93525349"></polygon>
                        <polygon id="Fill-7" fill="#FFFFFF" points="15.4775674 0 0 8.9350307 11.6092276 15.6354992 27.0848146 6.70046851"></polygon>
                    </g>
                    <g id="right_quote" transform="translate(19.3538, 6.1886)">
                        <path d="M11.9864844,33.5075162 L11.9864844,15.6354745 L27.4620714,6.70044376 L27.4619229,42.4425469 L19.7240056,46.910186 L19.7240056,42.4425469 L23.5928405,40.2089749 L23.5928405,26.8060575 L11.9864844,33.5075162 Z" id="Combined-Shape" fill="#4C34BB"></path>
                        <polygon id="Path" fill="#24156D" points="27.4629615 42.4312178 34.1045115 46.2692678 26.3943752 50.7211462 19.7499615 46.8838899"></polygon>
                        <polygon id="Path-Copy" fill="#24156D" points="7.713 36.2185499 11.4430601 38.260799 3.73292383 42.7126774 0 40.671222"></polygon>
                        <polygon id="Fill-3" fill="#7ACEF0" points="8.11621379 40.2087521 19.7239561 46.9114485 19.7239561 42.4435618 8.11621379 35.741113"></polygon>
                        <polygon id="Fill-4" fill="#FFFFFF" points="11.9851477 33.5075409 8.11631281 35.741113 19.7245502 42.4425716 23.5936326 40.2087521"></polygon>
                        <polygon id="Fill-5" fill="#7ACEF0" points="23.592791 40.2088263 11.9865339 33.5076152 19.7244512 29.039481 23.592791 26.805909"></polygon>
                        <polygon id="Fill-6" fill="#7ACEF0" points="0.377677645 26.8060575 11.9864101 33.5075162 11.9864101 15.6354745 0.377677645 8.93525349"></polygon>
                        <polygon id="Fill-7" fill="#FFFFFF" points="15.8547499 3.19744231e-15 0.377182561 8.9350307 11.9864101 15.6354992 27.4619972 6.70046851"></polygon>
                    </g>
                </g>
            </g>
        </g>
    </g>
</svg>