<?xml version="1.0" encoding="UTF-8"?>
<svg width="32px" height="32px" viewBox="0 0 32 32" version="1.1" xmlns="http://www.w3.org/2000/svg" xmlns:xlink="http://www.w3.org/1999/xlink">
    <title>Icons/Download</title>
    <g id="Icons/Download" stroke="none" stroke-width="1" fill="none" fill-rule="evenodd">
        <path d="M22.12,12.6666667 L20,12.6666667 L20,6 C20,5.26666667 19.4,4.66666667 18.6666667,4.66666667 L13.3333333,4.66666667 C12.6,4.66666667 12,5.26666667 12,6 L12,12.6666667 L9.88,12.6666667 C8.69333333,12.6666667 8.09333333,14.1066667 8.93333333,14.9466667 L15.0533333,21.0666667 C15.5733333,21.5866667 16.4133333,21.5866667 16.9333333,21.0666667 L23.0533333,14.9466667 C23.8933333,14.1066667 23.3066667,12.6666667 22.12,12.6666667 Z M6.66666667,26 C6.66666667,26.7333333 7.26666667,27.3333333 8,27.3333333 L24,27.3333333 C24.7333333,27.3333333 25.3333333,26.7333333 25.3333333,26 C25.3333333,25.2666667 24.7333333,24.6666667 24,24.6666667 L8,24.6666667 C7.26666667,24.6666667 6.66666667,25.2666667 6.66666667,26 Z" id="Icon" fill="#4C34BB"></path>
    </g>
</svg>