<?xml version="1.0" encoding="UTF-8"?>
<svg width="160px" height="160px" viewBox="0 0 160 160" version="1.1" xmlns="http://www.w3.org/2000/svg" xmlns:xlink="http://www.w3.org/1999/xlink">
    <title>Brand/Other-Brands/Drupal</title>
    <g id="Brand/Other-Brands/Drupal" stroke="none" stroke-width="1" fill="none" fill-rule="evenodd">
        <rect id="background" fill-opacity="0" fill="#FFFFFF" fill-rule="nonzero" x="0" y="0" width="160" height="160"></rect>
        <path d="M79.58062,15.58062 C114.926793,15.58062 143.58062,44.2344468 143.58062,79.58062 C143.58062,114.926844 114.926844,143.58062 79.58062,143.58062 C44.234396,143.58062 15.58062,114.926844 15.58062,79.58062 C15.58062,44.234396 44.234396,15.58062 79.58062,15.58062 Z M79.2280788,31.4785202 C77.4547842,38.1912751 71.49498,44.1424296 65.2491632,50.3855831 L64.5859619,51.048562 C55.3871649,60.2499157 45.2598885,70.7326583 45.2598885,86.2714265 C45.2786703,105.024838 60.4746834,120.223824 79.2280905,120.246275 C97.9823089,120.224761 113.179637,105.025659 113.198962,86.2714265 C113.198962,71.1077209 103.555081,60.7581036 94.5383483,51.7160092 L93.8717438,51.0485631 C93.6500277,50.826843 93.4288486,50.6058673 93.2083611,50.3855831 C86.9611835,44.1424296 81.0027109,38.1912751 79.2280788,31.4785202 Z M79.2280788,82.42882 C79.2280788,82.42882 81.2959687,84.7457606 83.4978194,87.2108048 L84.1190286,87.9062165 L84.5323712,88.3688683 C85.9051827,89.9053535 87.2122849,91.3673165 87.9815274,92.2252559 C89.8918984,94.3484547 90.9375076,97.1103244 90.9122062,99.9663444 C90.9151587,104.142176 88.6890747,108.002067 85.0731898,110.090836 C81.4573049,112.179604 77.0014985,112.179604 73.3856136,110.090836 C69.7697287,108.002067 67.5436447,104.142176 67.5465943,99.9663444 C67.5896875,97.133668 68.6195283,94.4047427 70.458645,92.24985 C71.2349943,91.30075 72.6296077,89.7179385 74.0815452,88.0971859 L74.7056783,87.4019917 C76.9950423,84.8571665 79.2280788,82.42882 79.2280788,82.42882 Z M79.2280788,51.0221395 L79.2449569,51.0381821 C79.3899972,51.1761697 80.459622,52.1962648 82.0578551,53.7860558 L82.850324,54.5779183 C85.1521918,56.8883955 88.2563533,60.0944961 91.2690898,63.4911074 L91.7996183,64.0923435 L92.3271572,64.6966738 C94.8679453,67.6236932 97.2657283,70.6289608 98.9659339,73.2749386 C104.770073,82.308425 102.770618,90.1246801 101.590632,92.7034894 C101.3392,93.2542378 100.767163,94.1734661 99.9969133,94.2020843 C98.6227024,94.2519734 98.4750384,93.5482343 97.4600093,92.0449846 C96.4018326,90.4785532 91.4622836,85.0743494 86.1748371,79.4075881 L85.5634042,78.7527692 C85.3592127,78.5342435 85.1547075,78.3155327 84.9500898,78.0968404 L84.2026525,77.2985871 L83.4563906,76.5026997 C78.4900656,71.2095634 73.7471888,66.2209574 72.1295273,64.4729267 C69.1737786,61.2789524 71.2905331,58.9549508 72.637105,57.6113126 L72.8009924,57.4484719 C72.8540027,57.395899 72.9052532,57.3450361 72.9543213,57.2958912 L73.3133047,56.9364449 C73.4011566,56.8485048 73.4940538,56.7555289 73.5913167,56.6581961 L78.4544305,51.7954048 C78.5541791,51.6957009 78.6462174,51.6037054 78.7293709,51.5205917 L79.2212422,51.0289722 Z M64.1889232,66.7590711 L73.6261423,77.066996 C73.7898079,77.2290413 73.8764496,77.4532879 73.8642548,77.6832801 C73.8520599,77.9132723 73.7421902,78.1270993 73.5623062,78.2709286 C72.5172494,79.3431613 69.8883967,81.9923072 67.2522631,84.8560752 L66.6445129,85.5201345 C63.8144394,88.63107 61.1165668,91.8693827 60.519924,93.533604 C60.2738134,94.2200436 59.9146316,94.1941004 59.6977874,94.1867881 C57.6158485,94.1162822 49.9279723,80.8663656 64.1889232,66.7590711 Z" id="Icon" fill="#4C34BB"></path>
    </g>
</svg>