<?xml version="1.0" encoding="UTF-8"?>
<svg width="32px" height="32px" viewBox="0 0 32 32" version="1.1" xmlns="http://www.w3.org/2000/svg" xmlns:xlink="http://www.w3.org/1999/xlink">
    <title>Icons/Features/ePayment</title>
    <g id="Icons/Features/ePayment" stroke="none" stroke-width="1" fill="none" fill-rule="evenodd">
        <path d="M26.6666667,5.33333333 L5.33333333,5.33333333 C3.85333333,5.33333333 2.68,6.52 2.68,8 L2.66666667,24 C2.66666667,25.48 3.85333333,26.6666667 5.33333333,26.6666667 L26.6666667,26.6666667 C28.1466667,26.6666667 29.3333333,25.48 29.3333333,24 L29.3333333,8 C29.3333333,6.52 28.1466667,5.33333333 26.6666667,5.33333333 Z M25.3333333,24 L6.66666667,24 C5.93333333,24 5.33333333,23.4 5.33333333,22.6666667 L5.33333333,16 L26.6666667,16 L26.6666667,22.6666667 C26.6666667,23.4 26.0666667,24 25.3333333,24 Z M26.6666667,10.6666667 L5.33333333,10.6666667 L5.33333333,8 L26.6666667,8 L26.6666667,10.6666667 Z" id="Icon" fill="#4C34BB"></path>
    </g>
</svg>