<?xml version="1.0" encoding="UTF-8"?>
<svg width="32px" height="32px" viewBox="0 0 32 32" version="1.1" xmlns="http://www.w3.org/2000/svg" xmlns:xlink="http://www.w3.org/1999/xlink">
    <title>Icons/Eye-Show</title>
    <g id="Icons/Eye-Show" stroke="none" stroke-width="1" fill="none" fill-rule="evenodd">
        <path d="M16,7.81818182 C10.5454545,7.81818182 5.88727273,11.2109091 4,16 C5.88727273,20.7890909 10.5454545,24.1818182 16,24.1818182 C21.4545455,24.1818182 26.1127273,20.7890909 28,16 C26.1127273,11.2109091 21.4545455,7.81818182 16,7.81818182 Z M16,21.4545455 C12.9890909,21.4545455 10.5454545,19.0109091 10.5454545,16 C10.5454545,12.9890909 12.9890909,10.5454545 16,10.5454545 C19.0109091,10.5454545 21.4545455,12.9890909 21.4545455,16 C21.4545455,19.0109091 19.0109091,21.4545455 16,21.4545455 Z M16,12.7272727 C14.1890909,12.7272727 12.7272727,14.1890909 12.7272727,16 C12.7272727,17.8109091 14.1890909,19.2727273 16,19.2727273 C17.8109091,19.2727273 19.2727273,17.8109091 19.2727273,16 C19.2727273,14.1890909 17.8109091,12.7272727 16,12.7272727 Z" id="Shape" fill="#4C34BB"></path>
    </g>
</svg>