<?xml version="1.0" encoding="UTF-8"?>
<svg width="75px" height="277px" viewBox="0 0 75 277" version="1.1" xmlns="http://www.w3.org/2000/svg" xmlns:xlink="http://www.w3.org/1999/xlink">
    <title>UI/Feature-Plus</title>
    <g id="UI/Feature-Plus" stroke="none" stroke-width="1" fill="none" fill-rule="evenodd">
        <circle id="Oval" fill="#24156D" fill-rule="nonzero" cx="37.5643191" cy="136.735885" r="25.009655"></circle>
        <path d="M37.5768191,147.523385 C39.5018191,147.523385 40.5518191,146.423385 40.5518191,144.398385 L40.5518191,139.698385 L45.1768191,139.698385 C47.2018191,139.698385 48.3018191,138.648385 48.3018191,136.723385 C48.3018191,134.798385 47.2018191,133.748385 45.1768191,133.748385 L40.5518191,133.748385 L40.5518191,128.973385 C40.5518191,127.023385 39.5018191,125.948385 37.5768191,125.948385 C35.6518191,125.948385 34.5768191,127.048385 34.5768191,129.073385 L34.5768191,133.748385 L29.9018191,133.748385 C27.9268191,133.748385 26.8268191,134.798385 26.8268191,136.723385 C26.8268191,138.648385 27.9268191,139.698385 29.9518191,139.698385 L34.5768191,139.698385 L34.5768191,144.473385 C34.5768191,146.423385 35.6268191,147.523385 37.5768191,147.523385 Z" id="+" fill="#FFFFFF" fill-rule="nonzero"></path>
    </g>
</svg>