<?xml version="1.0" encoding="UTF-8"?>
<svg width="160px" height="160px" viewBox="0 0 160 160" version="1.1" xmlns="http://www.w3.org/2000/svg" xmlns:xlink="http://www.w3.org/1999/xlink">
    <title>Brand/Illustrations/Store/Horizontal/Thick/Gold</title>
    <g id="Brand/Illustrations/Store/Horizontal/Thick/Gold" stroke="none" stroke-width="1" fill="none" fill-rule="evenodd">
        <rect id="background" fill-opacity="0" fill="#FFFFFF" fill-rule="nonzero" x="0" y="0" width="160" height="160"></rect>
        <g id="Thick" transform="translate(16.0474, 40)">
            <polygon id="Fill-37" fill="#6C4517" fill-rule="nonzero" points="69.7697447 22.3837245 97.9526233 40 61.9526233 61 30.9096148 43.1282415"></polygon>
            <path d="M-3.55271368e-14,24.7465584 L61.9101937,60.4893834 L61.9101937,75.1283025 L-3.55271368e-14,39.3857822 L-3.55271368e-14,24.7465584 Z M23.8116504,27.4949167 L23.8119551,38.4932246 L9.52494048,30.244646 L23.8116504,27.4949167 Z" id="Combined-Shape" fill="#F5BE43" fill-rule="nonzero"></path>
            <path d="M57.1463524,30.2447069 L66.6736694,24.7458577 L90.4855635,38.4920668 L80.9908472,44.0110249 L57.1463524,30.2447069 Z M47.625129,46.7433875 L38.0965933,41.2414914 L47.625129,35.7423375 L57.1500085,41.2414914 L47.625129,46.7433875 Z M66.6727553,13.7481591 L23.8120161,38.4932855 L61.9097062,60.489292 L104.770141,35.7444702 L66.6727553,13.7481591 Z" id="Fill-4" fill="#FFEDC1" fill-rule="nonzero"></path>
            <polygon id="Fill-6" fill="#F5BE43" fill-rule="nonzero" points="66.6738522 19.2481357 66.6753756 24.7472896 90.4854417 38.4919754 95.245444 35.7437695"></polygon>
            <polygon id="Fill-8" fill="#F5BE43" fill-rule="nonzero" points="47.6236665 30.2445546 47.6251899 35.7424898 57.1500695 41.2416438 61.9100718 38.4928285"></polygon>
            <polygon id="Fill-10" fill="#FFEDC1" points="42.8592463 0 0.000639826212 24.7457358 9.52491002 30.2445851 52.3856493 5.49976331"></polygon>
            <path d="M7.98024767,24.4346888 C7.98024767,24.7533832 8.42904005,25.0117511 8.98203271,25.0117511 C9.53533004,25.0117511 9.98381775,24.7533832 9.98381775,24.4346888 C9.98381775,24.1159945 9.53533004,23.8576265 8.98203271,23.8576265 C8.42904005,23.8576265 7.98024767,24.1159945 7.98024767,24.4346888 M11.1294113,22.5737391 C11.1294113,22.8924335 11.5778991,23.1508014 12.1311964,23.1508014 C12.6844937,23.1508014 13.1329814,22.8924335 13.1329814,22.5737391 C13.1329814,22.2550447 12.6844937,21.9966768 12.1311964,21.9966768 C11.5778991,21.9966768 11.1294113,22.2550447 11.1294113,22.5737391 M14.3526425,20.7127588 C14.3526425,21.0314532 14.8011302,21.2898211 15.3544276,21.2898211 C15.9077249,21.2898211 16.3562126,21.0314532 16.3562126,20.7127588 C16.3562126,20.3940644 15.9077249,20.1356965 15.3544276,20.1356965 C14.8011302,20.1356965 14.3526425,20.3940644 14.3526425,20.7127588" id="Combined-Shape" fill="#D49425"></path>
            <path d="M35.3148117,8.31003238 L36.7583815,9.75725834 L36.0688926,10.155474 L34.3547677,9.60461408 L34.3310027,9.61801996 L35.3108509,10.5929932 L34.6180105,10.993037 L32.0766817,10.1798483 L32.7323512,9.80113213 L34.4141801,10.4385209 L34.4416013,10.4229823 L33.3916769,9.42058788 L34.003168,9.06746474 L35.7733538,9.6539721 L35.800775,9.63812879 L34.6658451,8.68478773 L35.3148117,8.31003238 Z M38.7058297,6.35225557 L40.1530557,7.79734878 L39.4632621,8.19556442 L37.7457857,7.6465326 L37.7253722,7.65841508 L38.705525,8.63308368 L38.0090285,9.03526016 L35.4676997,8.22176683 L36.1267207,7.84122257 L37.8051981,8.48074411 L37.8326193,8.46520547 L36.7860464,7.46067832 L37.394186,7.10938326 L39.1643718,7.6961953 L39.1917929,7.68035198 L38.0568631,6.72701093 L38.7058297,6.35225557 Z M42.1004429,4.39234601 L43.5440127,5.83957197 L42.8545238,6.23778762 L41.1403989,5.68692772 L41.1166339,5.7003336 L42.0964821,6.67530687 L41.3999855,7.07748335 L38.8623129,6.26185727 L39.5179824,5.88344577 L41.1998113,6.52083455 L41.2269278,6.50529591 L40.1773081,5.50290151 L40.7887992,5.14977838 L42.558985,5.73628574 L42.58275,5.72257518 L41.4514763,4.76710137 L42.1004429,4.39234601 Z" id="Combined-Shape" fill="#D49425"></path>
            <polygon id="Fill-27" fill="#F5BA73" points="66.6723592 2.7493637 23.81162 27.4950995 9.5252147 30.2448288 52.3856493 5.50000706"></polygon>
            <path d="M28.5740598,24.7453092 L14.2870451,27.4950385 L19.0467428,24.7453092 L33.3364995,21.996494 L28.5740598,24.7453092 Z M38.0973854,19.2509692 L23.8118942,21.9961283 L28.5712872,19.2509692 L42.8598252,16.5021539 L38.0973854,19.2509692 Z M47.6236665,13.7475497 L33.3366519,16.4975837 L38.0963495,13.7478544 L52.3858016,10.9987345 L47.6236665,13.7475497 Z M57.1454688,8.24772549 L42.8611963,10.9986735 L47.6208939,8.24894421 L61.9076039,5.49891021 L57.1454688,8.24772549 Z" id="Combined-Shape" fill="#FFEDC1"></path>
            <polygon id="Fill-37" fill="#6C4517" fill-rule="nonzero" points="104.769745 50.3837245 110.813058 54.2551783 67.9526233 79 61.9096148 75.1282415"></polygon>
            <path d="M104.770049,35.7445616 L104.770049,50.3837854 L61.9096148,75.1286071 L61.9096148,60.4893834 L104.770049,35.7445616 Z M47.6236665,30.2445546 L47.6251899,35.7424898 L38.0963495,41.2416438 L33.3363472,38.4928285 L47.6236665,30.2445546 Z M66.6730295,2.75018634 L66.6730295,13.7481896 L23.8116809,38.493316 L23.8116809,27.4950081 L66.6730295,2.75018634 Z M66.6723288,19.2470693 L66.6735475,24.7459186 L57.1462305,30.2447679 L52.3853141,27.4950385 L66.6723288,19.2470693 Z" id="Combined-Shape" fill="#D78321" fill-rule="nonzero"></path>
        </g>
        <polygon id="Path-17" fill-opacity="0.2" fill="#FFFFFF" fill-rule="nonzero" style="mix-blend-mode: overlay;" points="121 76 40 78 83 54"></polygon>
        <path d="M78,100 C36.6666667,76.6666667 16,65 16,65 C16,65 16,70 16,80 L78,100 Z" id="Path-18" fill-opacity="0.36" fill="#FFFFFF" fill-rule="nonzero" style="mix-blend-mode: overlay;"></path>
    </g>
</svg>