<?xml version="1.0" encoding="UTF-8"?>
<svg width="32px" height="32px" viewBox="0 0 32 32" version="1.1" xmlns="http://www.w3.org/2000/svg" xmlns:xlink="http://www.w3.org/1999/xlink">
    <title>Icons/Government</title>
    <g id="Icons/Government" stroke="none" stroke-width="1" fill="none" fill-rule="evenodd">
        <path d="M27.4285714,19.4285714 L22.2857143,19.4285714 L22.2857143,14.8571429 L22.8571429,14.8571429 C23.1714286,14.8571429 23.4285714,14.6 23.4285714,14.2857143 C23.4285714,13.9714286 23.1714286,13.7142857 22.8571429,13.7142857 L21.0845714,13.7142857 C20.8194286,11.336 18.9462857,9.464 16.5714286,9.19657143 L16.5714286,6.85714286 L19,6.85714286 C19.5522847,6.85714286 20,6.40942761 20,5.85714286 L20,5.57142857 C20,5.01914382 19.5522847,4.57142857 19,4.57142857 L16.5714286,4.57142857 L16.5714286,4.57142857 L15.4285714,4.57142857 L15.4285714,6.85714286 L15.4285714,9.19657143 C13.0537143,9.464 11.1817143,11.336 10.9142857,13.7142857 L9.14285714,13.7142857 C8.82857143,13.7142857 8.57142857,13.9714286 8.57142857,14.2857143 C8.57142857,14.6 8.82857143,14.8571429 9.14285714,14.8571429 L9.71428571,14.8571429 L9.71428571,19.4285714 L4.57142857,19.4285714 C4.25714286,19.4285714 4,19.6857143 4,20 C4,20.3142857 4.25714286,20.5714286 4.57142857,20.5714286 L5.14285714,20.5714286 L5.14285714,26.4285714 C5.14285714,26.9808562 5.59057239,27.4285714 6.14285714,27.4285714 L7.57142857,27.4285714 C8.12371332,27.4285714 8.57142857,26.9808562 8.57142857,26.4285714 L8.57142857,22.8571429 L8.57142857,22.8571429 C8.57142857,22.5417143 8.82742857,22.2857143 9.14285714,22.2857143 C9.45828571,22.2857143 9.71428571,22.5417143 9.71428571,22.8571429 L9.71428571,26.4285714 C9.71428571,26.9808562 10.162001,27.4285714 10.7142857,27.4285714 L12.1428571,27.4285714 C12.6951419,27.4285714 13.1428571,26.9808562 13.1428571,26.4285714 L13.1428571,22.8571429 L13.1428571,22.8571429 C13.1428571,22.5417143 13.3988571,22.2857143 13.7142857,22.2857143 C14.0297143,22.2857143 14.2857143,22.5417143 14.2857143,22.8571429 L14.2857143,26.4285714 C14.2857143,26.9808562 14.7334295,27.4285714 15.2857143,27.4285714 L16.7142857,27.4285714 C17.2665705,27.4285714 17.7142857,26.9808562 17.7142857,26.4285714 L17.7142857,22.8571429 L17.7142857,22.8571429 C17.7142857,22.5417143 17.9702857,22.2857143 18.2857143,22.2857143 C18.6011429,22.2857143 18.8571429,22.5417143 18.8571429,22.8571429 L18.8571429,26.4285714 C18.8571429,26.9808562 19.3048581,27.4285714 19.8571429,27.4285714 L21.2857143,27.4285714 C21.837999,27.4285714 22.2857143,26.9808562 22.2857143,26.4285714 L22.2857143,22.8571429 L22.2857143,22.8571429 C22.2857143,22.5417143 22.5417143,22.2857143 22.8571429,22.2857143 C23.1725714,22.2857143 23.4285714,22.5417143 23.4285714,22.8571429 L23.4285714,26.4285714 C23.4285714,26.9808562 23.8762867,27.4285714 24.4285714,27.4285714 L25.8571429,27.4285714 C26.4094276,27.4285714 26.8571429,26.9808562 26.8571429,26.4285714 L26.8571429,20.5714286 L26.8571429,20.5714286 L27.4285714,20.5714286 C27.7428571,20.5714286 28,20.3142857 28,20 C28,19.6857143 27.7428571,19.4285714 27.4285714,19.4285714 Z M10.8571429,19.4285714 L16,16 L21.1428571,19.4285714 L10.8571429,19.4285714 Z" id="Shape" fill="#4C34BB"></path>
    </g>
</svg>