<?xml version="1.0" encoding="UTF-8"?>
<svg width="160px" height="160px" viewBox="0 0 160 160" version="1.1" xmlns="http://www.w3.org/2000/svg" xmlns:xlink="http://www.w3.org/1999/xlink">
    <title>Brand/Illustrations/HBook</title>
    <g id="Brand/Illustrations/HBook" stroke="none" stroke-width="1" fill="none" fill-rule="evenodd">
        <rect id="background" fill-opacity="0" fill="#FFFFFF" fill-rule="nonzero" x="0" y="0" width="160" height="160"></rect>
        <g id="icon" transform="translate(15.9495, 38.5)">
            <polygon id="Fill-1" fill="#4C34BB" points="71.7933538 0 1.23984348 40.7337956 50.0842876 68.9337417 120.637798 28.2002933"></polygon>
            <path d="M120.638006,28.2002933 L120.638006,37.9390437 L50.0848432,78.6721449 L50.0847737,69.577309 L1.71573931,41.6522933 L1.71612142,50.7134106 L1.23973931,50.4720946 L1.23973931,40.7336915 L50.0847737,68.9335681 L120.638006,28.2002933 Z" id="Combined-Shape" fill="#4C34BB"></path>
            <polygon id="Fill-5" fill="#4A34BA" points="50.0847737 78.0280221 1.23963515 49.8284232 1.23963515 50.4721641 50.0847737 78.6721102"></polygon>
            <polygon id="Fill-6" fill="#24156D" points="50.0839751 78.672631 57.5481051 83 128.100921 42.2668988 128.100921 42.2665516 120.637485 37.9395298"></polygon>
            <path d="M1.71612142,41.6571178 L50.084739,69.5775173 L50.084739,78.0280221 L1.71612142,50.1204492 L1.71612142,41.6571178 Z M50.0847737,69.5774826 L120.637937,29.2676393 L120.637937,36.9734324 L50.0847737,78.0280568 L50.0847737,69.5774826 Z" id="Combined-Shape" fill="#7ACEF0"></path>
            <path d="M7.39736006,55.5983064 L3.6985585,57.7340052 L3.6985585,55.5979245 L4.59188243e-13,55.5982717 L3.6985585,53.4625382 L3.69845434,45.3578271 L4.24802986,45.0552619 L7.94658836,47.190301 L7.39763783,47.4930745 L7.39736006,55.5983064 Z" id="Combined-Shape" fill="#4C34BB"></path>
            <g id="Group-22" transform="translate(16.2723, 39.236)" fill="#FFFFFF">
                <path d="M14.2462557,4.98718601 L17.2639211,6.68577296 L16.6625408,7.03507355 L14.261186,5.6861344 L12.4157262,6.75903581 L14.6202087,7.99686542 L14.0216061,8.34269384 L11.820943,7.10486422 L9.49319831,8.45553945 L8.87202659,8.10658608 L14.2462557,4.98718601 Z M9.45844186,2.29725899 L11.1309875,3.23648174 C12.6052721,4.06598383 12.4833988,5.13332976 10.7938395,6.11630189 C10.7896729,6.1183852 10.7851591,6.12116294 10.7813397,6.12359346 C9.09004432,7.09962124 7.23208463,7.18573113 5.75745283,6.35588182 L4.08664326,5.4152702 L9.45844186,2.29725899 Z M9.47580272,2.9944713 L5.30919532,5.41492298 L6.32098648,5.98227602 C7.44249831,6.61490591 8.8084511,6.53817089 10.1375989,5.77047348 L10.1511403,5.76248748 C11.4941768,4.98229025 11.6174389,4.19931527 10.4851634,3.56321321 L9.47580272,2.9944713 Z M5.37422911,1.33226763e-15 L7.14816222,0.999291342 C8.0839128,1.52393666 8.03356629,2.30378668 7.01865017,2.89440328 C5.9926231,3.48675596 4.61868431,3.52494986 3.68710033,2.99995733 L2.53815834,2.3544804 L0.62117172,3.46835345 L-1.58983937e-13,3.11940008 L5.37422911,1.33226763e-15 Z M5.3961038,0.694781784 L3.13502485,2.01004085 L4.12737185,2.56697738 C4.83500067,2.96488838 5.66033616,2.95204134 6.37525654,2.53885278 C7.09017693,2.12392812 7.10476006,1.65449036 6.39088132,1.25275996 L5.3961038,0.694781784 Z" id="Combined-Shape"></path>
            </g>
            <polygon id="Fill-25" fill="#4A34BA" points="120.638006 28.2002933 120.638006 37.9390437 119.822046 38.4098703 119.822046 28.67112"></polygon>
        </g>
    </g>
</svg>