<?xml version="1.0" encoding="UTF-8"?>
<svg width="32px" height="32px" viewBox="0 0 32 32" version="1.1" xmlns="http://www.w3.org/2000/svg" xmlns:xlink="http://www.w3.org/1999/xlink">
    <title>Icons/Home</title>
    <g id="Icons/Home" stroke="none" stroke-width="1" fill="none" fill-rule="evenodd">
        <g id="home-round-24px">
            <polygon id="Path" points="0 0 32 0 32 32 0 32"></polygon>
            <path d="M13.3333333,25.3333333 L13.3333333,18.6666667 L18.6666667,18.6666667 L18.6666667,25.3333333 C18.6666667,26.0666667 19.2666667,26.6666667 20,26.6666667 L24,26.6666667 C24.7333333,26.6666667 25.3333333,26.0666667 25.3333333,25.3333333 L25.3333333,16 L27.6,16 C28.2133333,16 28.5066667,15.24 28.04,14.84 L16.8933333,4.8 C16.3866667,4.34666667 15.6133333,4.34666667 15.1066667,4.8 L3.96,14.84 C3.50666667,15.24 3.78666667,16 4.4,16 L6.66666667,16 L6.66666667,25.3333333 C6.66666667,26.0666667 7.26666667,26.6666667 8,26.6666667 L12,26.6666667 C12.7333333,26.6666667 13.3333333,26.0666667 13.3333333,25.3333333 Z" id="Path" fill="#4C34BB"></path>
        </g>
    </g>
</svg>