<?xml version="1.0" encoding="UTF-8"?>
<svg width="32px" height="32px" viewBox="0 0 32 32" version="1.1" xmlns="http://www.w3.org/2000/svg" xmlns:xlink="http://www.w3.org/1999/xlink">
    <title>Icons/Technologies/HTML</title>
    <g id="Icons/Technologies/HTML" stroke="none" stroke-width="1" fill="none" fill-rule="evenodd">
        <path d="M20.1362353,4 L20.1362353,7.23643137 L22.7395294,7.23643137 L22.7395294,6.16666667 L21.2183137,6.16666667 L21.2183137,4 L20.1362353,4 Z M18.4694902,4 L17.7763529,5.13717647 L17.0825098,4 L15.954549,4 L15.954549,7.23643137 L17.0129804,7.23643137 L17.0129804,5.63227451 L17.7577647,6.78301961 L17.7763529,6.78301961 L18.5205882,5.63227451 L18.5205882,7.23643137 L19.5978431,7.23643137 L19.5978431,4 L18.4694902,4 Z M12.4936471,4 L12.4936471,5.0732549 L13.4459608,5.0732549 L13.4460392,5.0732549 L13.4460392,7.23643137 L14.5278039,7.23643137 L14.5278039,5.0732549 L15.4805098,5.0732549 L15.4805098,4 L12.4936471,4 Z M10.9416471,4 L10.9416471,5.0687451 L9.95215686,5.0687451 L9.95215686,4 L8.87047059,4 L8.87047059,7.23643137 L9.95219608,7.23643137 L9.95219608,6.15270588 L10.9416863,6.15270588 L10.9416863,7.23643137 L12.023451,7.23643137 L12.023451,4 L10.9416471,4 Z M7.28843137,8.71654902 L8.83580392,26.0723529 L15.7796078,28 L22.742549,26.0696078 L24.2915686,8.71694118 L24.2915686,8.71654902 L7.28843137,8.71654902 Z M10.5033725,12.8353725 L10.4524314,12.2643137 L15.7825882,12.2643137 L15.79,12.2643137 L21.1148235,12.2643137 L21.0639216,12.8353725 L20.966902,13.9144706 L20.9242353,14.3929412 L20.9174118,14.3929412 L15.79,14.3929412 L15.7825882,14.3929412 L12.7787451,14.3929412 L12.9732941,16.5726667 L15.7825882,16.5726667 L15.79,16.5726667 L20.1569412,16.5726667 L20.730549,16.5726667 L20.6786275,17.1442745 L20.1784314,22.7482353 L20.1463922,23.1078431 L15.79,24.3151765 L15.79,24.3155686 L15.7801961,24.3183137 L11.4198431,23.1078431 L11.1216471,19.7656471 L12.106549,19.7656471 L13.2584314,19.7656471 L13.4100392,21.4632941 L15.7806667,22.1034118 L15.7825882,22.102902 L15.7825882,22.1027059 L18.1567059,21.4619608 L18.4038039,18.7012549 L15.79,18.7012549 L15.7825882,18.7012549 L11.0265882,18.7012549 L10.5033725,12.8353725 Z" id="Icon" fill="#4C34BB"></path>
    </g>
</svg>