<?xml version="1.0" encoding="UTF-8"?>
<svg width="24px" height="24px" viewBox="0 0 24 24" version="1.1" xmlns="http://www.w3.org/2000/svg" xmlns:xlink="http://www.w3.org/1999/xlink">
    <title>Icon</title>
    <g id="Symbols" stroke="none" stroke-width="1" fill="none" fill-rule="evenodd">
        <g id="UI/Interaction/Drag-and-Drop" transform="translate(-316, -16)" fill="#4C34BB">
            <g id="Icon" transform="translate(319, 19)">
                <path d="M17,0 C17.55,0 18,0.45 18,1 L18,17 C18,17.55 17.55,18 17,18 L14,18 L14,16 L16,16 L16,14 L14,14 L14,12 L16,12 L16,10 L14,10 L14,9.35 C14,8.5 13.64,7.68 13.01,7.12 L8.01,2.62 C8,2.61 8,2.61 8,2.61 L8,1 C8,0.45 8.45,0 9,0 Z M6,3.85 C6.24,3.85 6.48,3.93 6.67,4.11 L11.67,8.61 C11.88,8.8 12,9.07 12,9.35 L12,17 C12,17.55 11.55,18 11,18 L9,18 C8.45,18 8,17.55 8,17 L8,13 L4,13 L4,17 C4,17.55 3.55,18 3,18 L1,18 C0.45,18 0,17.55 0,17 L0,9.35 C0,9.06 0.12,8.79 0.33,8.61 L5.33,4.11 C5.52,3.94 5.76,3.85 6,3.85 Z M16,6 L14,6 L14,8 L16,8 L16,6 Z M12,2 L10,2 L10,4 L12,4 L12,2 Z M16,2 L14,2 L14,4 L16,4 L16,2 Z" id="Combined-Shape"></path>
            </g>
        </g>
    </g>
</svg>