<?xml version="1.0" encoding="UTF-8"?>
<svg width="32px" height="32px" viewBox="0 0 32 32" version="1.1" xmlns="http://www.w3.org/2000/svg" xmlns:xlink="http://www.w3.org/1999/xlink">
    <title>Icons/Industries/Learning</title>
    <g id="Icons/Industries/Learning" stroke="none" stroke-width="1" fill="none" fill-rule="evenodd">
        <path d="M23.34,4.90333333 C25.2733333,4.90333333 27.3266667,5.19666667 29.0333333,5.95666667 C30.0066667,6.39666667 30.66,7.34333333 30.66,8.42333333 L30.66,23.4633333 C30.66,25.21 29.0333333,26.49 27.3533333,26.05 C26.0466667,25.7166667 24.66,25.57 23.3266667,25.57 C21.2466667,25.57 19.0333333,25.9033333 17.2466667,26.7966667 C16.46,27.1966667 15.5533333,27.1966667 14.7533333,26.7966667 C12.9666667,25.9166667 10.7533333,25.57 8.67333333,25.57 C7.34,25.57 5.95333333,25.7166667 4.64666667,26.05 C2.96666667,26.4766667 1.34,25.1966667 1.34,23.4633333 L1.34,8.42333333 C1.34,7.34333333 1.99333333,6.39666667 2.96666667,5.95666667 C4.68666667,5.19666667 6.74,4.90333333 8.67333333,4.90333333 C11.2733333,4.90333333 14.0733333,5.43666667 16.0066667,6.90333333 C17.94,5.43666667 20.74,4.90333333 23.34,4.90333333 Z M23.34,7.57 C21.0733333,7.57 17.8066667,8.43666667 16.0066667,9.57 L16.0066667,24.9166667 C17.8066667,23.7833333 21.0733333,22.9166667 23.34,22.9166667 C24.3666667,22.9166667 25.4066667,22.9966667 26.4066667,23.1833333 C27.2333333,23.33 28.0066667,22.7166667 28.0066667,21.8766667 L28.0066667,9.25 C28.0066667,8.62333333 27.5533333,8.07666667 26.94,7.94333333 C25.78,7.69 24.5666667,7.57 23.34,7.57 Z M25.4866667,18.13 C26.0333333,18.1966667 26.4333333,18.69 26.3666667,19.2366667 C26.3,19.7833333 25.8066667,20.17 25.26,20.1166667 C23.1,19.8633333 20.74,20.0633333 18.9533333,20.6366667 C18.8466667,20.6633333 18.74,20.6766667 18.6466667,20.6766667 C18.22,20.6766667 17.8333333,20.41 17.7,19.9833333 C17.5266667,19.4633333 17.82,18.89 18.34,18.73 C20.38,18.0633333 23.0466667,17.85 25.4866667,18.13 Z M25.4866667,14.5833333 C26.0333333,14.65 26.4333333,15.1433333 26.3666667,15.69 C26.3,16.2366667 25.8066667,16.6366667 25.26,16.57 C23.1,16.3166667 20.74,16.5166667 18.9533333,17.09 C18.8466667,17.1166667 18.74,17.13 18.6466667,17.13 C18.22,17.13 17.8333333,16.8633333 17.7,16.4366667 C17.5266667,15.9166667 17.82,15.3433333 18.34,15.1833333 C20.38,14.5166667 23.0466667,14.3033333 25.4866667,14.5833333 Z M25.4866667,11.0366667 C26.0333333,11.1033333 26.4333333,11.5966667 26.3666667,12.1433333 C26.3,12.69 25.8066667,13.09 25.26,13.0233333 C23.1,12.77 20.74,12.97 18.9533333,13.5433333 C18.8466667,13.5566667 18.74,13.5833333 18.6466667,13.5833333 C18.22,13.5833333 17.8333333,13.3166667 17.7,12.89 C17.5266667,12.37 17.82,11.7966667 18.34,11.6366667 C20.3933333,10.97 23.0466667,10.7566667 25.4866667,11.0366667 Z" id="Combined-Shape" fill="#4C34BB"></path>
    </g>
</svg>