<?xml version="1.0" encoding="UTF-8"?>
<svg width="32px" height="32px" viewBox="0 0 32 32" version="1.1" xmlns="http://www.w3.org/2000/svg" xmlns:xlink="http://www.w3.org/1999/xlink">
    <title>Icons/Link</title>
    <g id="Icons/Link" stroke="none" stroke-width="1" fill="none" fill-rule="evenodd">
        <path d="M21.3333333,9.33333333 L18.6666667,9.33333333 C17.9333333,9.33333333 17.3333333,9.93333333 17.3333333,10.6666667 C17.3333333,11.4 17.9333333,12 18.6666667,12 L21.3333333,12 C23.5333333,12 25.3333333,13.8 25.3333333,16 C25.3333333,18.2 23.5333333,20 21.3333333,20 L18.6666667,20 C17.9333333,20 17.3333333,20.6 17.3333333,21.3333333 C17.3333333,22.0666667 17.9333333,22.6666667 18.6666667,22.6666667 L21.3333333,22.6666667 C25.0133333,22.6666667 28,19.68 28,16 C28,12.32 25.0133333,9.33333333 21.3333333,9.33333333 Z M10.6666667,16 C10.6666667,16.7333333 11.2666667,17.3333333 12,17.3333333 L20,17.3333333 C20.7333333,17.3333333 21.3333333,16.7333333 21.3333333,16 C21.3333333,15.2666667 20.7333333,14.6666667 20,14.6666667 L12,14.6666667 C11.2666667,14.6666667 10.6666667,15.2666667 10.6666667,16 Z M13.3333333,20 L10.6666667,20 C8.46666667,20 6.66666667,18.2 6.66666667,16 C6.66666667,13.8 8.46666667,12 10.6666667,12 L13.3333333,12 C14.0666667,12 14.6666667,11.4 14.6666667,10.6666667 C14.6666667,9.93333333 14.0666667,9.33333333 13.3333333,9.33333333 L10.6666667,9.33333333 C6.98666667,9.33333333 4,12.32 4,16 C4,19.68 6.98666667,22.6666667 10.6666667,22.6666667 L13.3333333,22.6666667 C14.0666667,22.6666667 14.6666667,22.0666667 14.6666667,21.3333333 C14.6666667,20.6 14.0666667,20 13.3333333,20 Z" id="Shape" fill="#4C34BB"></path>
    </g>
</svg>