<?xml version="1.0" encoding="UTF-8"?>
<svg width="32px" height="32px" viewBox="0 0 32 32" version="1.1" xmlns="http://www.w3.org/2000/svg" xmlns:xlink="http://www.w3.org/1999/xlink">
    <title>Icons/Location Search</title>
    <g id="Icons/Location-Search" stroke="none" stroke-width="1" fill="none" fill-rule="evenodd">
        <path d="M25.7527273,14.9090909 C25.2509091,10.36 21.64,6.74909091 17.0909091,6.24727273 L17.0909091,5.09090909 C17.0909091,4.49090909 16.6,4 16,4 C15.4,4 14.9090909,4.49090909 14.9090909,5.09090909 L14.9090909,6.24727273 C10.36,6.74909091 6.74909091,10.36 6.24727273,14.9090909 L5.09090909,14.9090909 C4.49090909,14.9090909 4,15.4 4,16 C4,16.6 4.49090909,17.0909091 5.09090909,17.0909091 L6.24727273,17.0909091 C6.74909091,21.64 10.36,25.2509091 14.9090909,25.7527273 L14.9090909,26.9090909 C14.9090909,27.5090909 15.4,28 16,28 C16.6,28 17.0909091,27.5090909 17.0909091,26.9090909 L17.0909091,25.7527273 C21.64,25.2509091 25.2509091,21.64 25.7527273,17.0909091 L26.9090909,17.0909091 C27.5090909,17.0909091 28,16.6 28,16 C28,15.4 27.5090909,14.9090909 26.9090909,14.9090909 L25.7527273,14.9090909 Z M16,23.6363636 C11.7781818,23.6363636 8.36363636,20.2218182 8.36363636,16 C8.36363636,11.7781818 11.7781818,8.36363636 16,8.36363636 C20.2218182,8.36363636 23.6363636,11.7781818 23.6363636,16 C23.6363636,20.2218182 20.2218182,23.6363636 16,23.6363636 Z" id="Shape" fill="#4C34BB"></path>
    </g>
</svg>