<?xml version="1.0" encoding="UTF-8"?>
<svg width="32px" height="32px" viewBox="0 0 32 32" version="1.1" xmlns="http://www.w3.org/2000/svg" xmlns:xlink="http://www.w3.org/1999/xlink">
    <title>Icons/Location</title>
    <g id="Icons/Location" stroke="none" stroke-width="1" fill="none" fill-rule="evenodd">
        <path d="M16,4 C11.229584,4 7.37134052,7.85824345 7.37134052,12.6286595 C7.37134052,17.7688752 12.8197227,24.8567026 15.0631741,27.5562404 C15.5562404,28.1479199 16.4560863,28.1479199 16.9491525,27.5562404 C19.1802773,24.8567026 24.6286595,17.7688752 24.6286595,12.6286595 C24.6286595,7.85824345 20.770416,4 16,4 Z M16,15.7103236 C14.2989214,15.7103236 12.9183359,14.3297381 12.9183359,12.6286595 C12.9183359,10.9275809 14.2989214,9.54699538 16,9.54699538 C17.7010786,9.54699538 19.0816641,10.9275809 19.0816641,12.6286595 C19.0816641,14.3297381 17.7010786,15.7103236 16,15.7103236 Z" id="Shape" fill="#4C34BB"></path>
    </g>
</svg>