<?xml version="1.0" encoding="UTF-8"?>
<svg width="32px" height="32px" viewBox="0 0 32 32" version="1.1" xmlns="http://www.w3.org/2000/svg" xmlns:xlink="http://www.w3.org/1999/xlink">
    <title>Icons/Features/Maps</title>
    <g id="Icons/Features/Maps" stroke="none" stroke-width="1" fill="none" fill-rule="evenodd">
        <path d="M16,16 C17.4666667,16 18.6666667,14.8 18.6666667,13.3333333 C18.6666667,11.8666667 17.4666667,10.6666667 16,10.6666667 C14.5333333,10.6666667 13.3333333,11.8666667 13.3333333,13.3333333 C13.3333333,14.8 14.5333333,16 16,16 Z M16,2.66666667 C21.6,2.66666667 26.6666667,6.96 26.6666667,13.6 C26.6666667,17.84 23.4,22.8266667 16.88,28.5733333 C16.3733333,29.0133333 15.6133333,29.0133333 15.1066667,28.5733333 C8.6,22.8266667 5.33333333,17.84 5.33333333,13.6 C5.33333333,6.96 10.4,2.66666667 16,2.66666667 Z" id="Icon" fill="#4C34BB"></path>
    </g>
</svg>