<?xml version="1.0" encoding="UTF-8"?>
<svg width="160px" height="160px" viewBox="0 0 160 160" version="1.1" xmlns="http://www.w3.org/2000/svg" xmlns:xlink="http://www.w3.org/1999/xlink">
    <title>Brand/Illustrations/Marketing</title>
    <g id="Brand/Illustrations/Marketing" stroke="none" stroke-width="1" fill="none" fill-rule="evenodd">
        <rect id="background" fill-opacity="0" fill="#FFFFFF" fill-rule="nonzero" x="0" y="0" width="160" height="160"></rect>
        <g id="icon" transform="translate(38.4402, 15.513)">
            <polygon id="Fill-3" fill="#24156D" points="0.000331083499 73.0651621 11.5003325 79.7048577 74.7501564 43.188555 63.250155 36.5492272"></polygon>
            <polygon id="Fill-4" fill="#24156D" points="11.4998543 119.541008 28.7500403 129.5 91.9998642 92.9833294 74.7504139 83.0243377"></polygon>
            <path d="M74.7503771,43.188555 L74.7503771,83.0245216 L11.4998175,119.540824 L11.4998175,79.7044899 L74.7503771,43.188555 Z M57.5003325,6.67184753 L57.5003325,13.3111753 L17.2490457,76.3844213 L11.5003325,79.7044531 L57.5003325,6.67184753 Z" id="Combined-Shape" fill="#4C34BB"></path>
            <path d="M68.9998614,53.1467373 L68.9987578,59.7860651 L17.2481996,89.6637758 L17.2504068,83.0244481 L68.9998614,53.1467373 Z M57.7944308,80.667391 C57.7892637,82.8650497 56.4310856,85.3375077 54.7620569,86.1880245 C53.0930282,87.0385412 51.7444148,85.9452299 51.7499159,83.7472033 C51.755083,81.5491768 53.1121575,79.078926 54.7811862,78.2284093 C56.4505828,77.3775247 57.799932,78.4693645 57.7944308,80.667391 Z M65.9443432,75.7931062 C65.9391784,77.9907649 64.5810003,80.4632229 62.9116037,81.3137396 C61.242575,82.1642563 59.8943294,81.070945 59.8998306,78.8729185 C59.9046298,76.6748919 61.2620721,74.2046411 62.9311008,73.3541244 C64.6001295,72.5032398 65.9494787,73.5950796 65.9443432,75.7931062 Z M25.8961374,90.786995 C29.5365844,88.9325595 32.4791809,91.3130499 32.4674443,96.1060353 C32.4560051,100.899389 29.4942793,106.291267 25.8542001,108.146071 C22.214121,110.000506 19.2733638,107.616337 19.2851004,102.822984 C19.2969075,98.0292626 22.2556903,92.6417983 25.8961374,90.786995" id="Combined-Shape" fill-opacity="0.4" fill="#24156D"></path>
            <polygon id="Fill-2" fill="#7ACEF0" points="0 112.901791 11.5000014 119.541119 11.5003693 79.7047842 0.000367870555 73.0650885"></polygon>
            <polygon id="Fill-5" fill="#FFFFFF" points="46.0566945 0 0.00040465761 73.065346 11.5000382 79.7046738 57.5004118 6.67206826"></polygon>
            <g id="Group-14" transform="translate(19.2851, 73.0651)"></g>
        </g>
    </g>
</svg>