<?xml version="1.0" encoding="UTF-8"?>
<svg width="32px" height="32px" viewBox="0 0 32 32" version="1.1" xmlns="http://www.w3.org/2000/svg" xmlns:xlink="http://www.w3.org/1999/xlink">
    <title>Icons/Industries/Medical</title>
    <g id="Icons/Industries/Medical" stroke="none" stroke-width="1" fill="none" fill-rule="evenodd">
        <path d="M26.6666667,8 L21.3333333,8 L21.3333333,5.33333333 C21.3333333,3.86666667 20.1333333,2.66666667 18.6666667,2.66666667 L13.3333333,2.66666667 C11.8666667,2.66666667 10.6666667,3.86666667 10.6666667,5.33333333 L10.6666667,8 L5.33333333,8 C3.86666667,8 2.66666667,9.2 2.66666667,10.6666667 L2.66666667,26.6666667 C2.66666667,28.1333333 3.86666667,29.3333333 5.33333333,29.3333333 L26.6666667,29.3333333 C28.1333333,29.3333333 29.3333333,28.1333333 29.3333333,26.6666667 L29.3333333,10.6666667 C29.3333333,9.2 28.1333333,8 26.6666667,8 Z M13.3333333,5.33333333 L18.6666667,5.33333333 L18.6666667,8 L13.3333333,8 L13.3333333,5.33333333 Z M20,20 L17.3333333,20 L17.3333333,22.6666667 C17.3333333,23.4 16.7333333,24 16,24 C15.2666667,24 14.6666667,23.4 14.6666667,22.6666667 L14.6666667,20 L12,20 C11.2666667,20 10.6666667,19.4 10.6666667,18.6666667 C10.6666667,17.9333333 11.2666667,17.3333333 12,17.3333333 L14.6666667,17.3333333 L14.6666667,14.6666667 C14.6666667,13.9333333 15.2666667,13.3333333 16,13.3333333 C16.7333333,13.3333333 17.3333333,13.9333333 17.3333333,14.6666667 L17.3333333,17.3333333 L20,17.3333333 C20.7333333,17.3333333 21.3333333,17.9333333 21.3333333,18.6666667 C21.3333333,19.4 20.7333333,20 20,20 Z" id="Shape" fill="#4C34BB"></path>
    </g>
</svg>