<?xml version="1.0" encoding="UTF-8"?>
<svg width="32px" height="32px" viewBox="0 0 32 32" version="1.1" xmlns="http://www.w3.org/2000/svg" xmlns:xlink="http://www.w3.org/1999/xlink">
    <title>Icons/New-Window</title>
    <g id="Icons/New-Window" stroke="none" stroke-width="1" fill="none" fill-rule="evenodd">
        <path d="M11.5531951,5.64468049 C11.5531951,6.56570156 12.2933014,7.28936097 13.1978756,7.28936097 L22.3916395,7.28936097 L4.48106904,25.1999315 C3.83964365,25.8413569 3.83964365,26.8775056 4.48106904,27.518931 C5.12249443,28.1603563 6.15864314,28.1603563 6.80006853,27.518931 L24.710639,9.60836046 L24.710639,18.8021244 C24.710639,19.7066986 25.4507452,20.4468049 26.3553195,20.4468049 C27.2598938,20.4468049 28,19.7066986 28,18.8021244 L28,5.64468049 C28,4.74010622 27.2598938,4 26.3553195,4 L13.1978756,4 C12.2933014,4 11.5531951,4.74010622 11.5531951,5.64468049 Z" id="Path" fill="#4C34BB" transform="translate(16, 16) scale(-1, 1) translate(-16, -16)"></path>
    </g>
</svg>