<?xml version="1.0" encoding="UTF-8"?>
<svg width="32px" height="32px" viewBox="0 0 32 32" version="1.1" xmlns="http://www.w3.org/2000/svg" xmlns:xlink="http://www.w3.org/1999/xlink">
    <title>Icons/Industries/News</title>
    <g id="Icons/Industries/News" stroke="none" stroke-width="1" fill="none" fill-rule="evenodd">
        <path d="M4.29822163,12.2711591 L9.83776832,12.2711591 C9.67809181,13.4412301 9.59157811,14.6924745 9.59157811,16.0094052 C9.59157811,17.3263359 9.67809181,18.5775802 9.83776832,19.7476513 L4.29822163,19.7476513 C4.53586728,20.4931644 4.84186942,21.2077034 5.21088772,21.8837919 L10.2345564,21.8837919 C10.9314723,24.7990898 12.156549,26.9939743 13.7132615,28.0764636 C14.3004782,28.186884 14.9017715,28.257756 15.5150173,28.2824415 C8.95613457,28.0280651 3.71719138,22.6305455 3.71719138,16.0094052 C3.71719138,14.0534078 4.17440025,12.2041972 4.9877767,10.5628148 C4.71736084,11.1105487 4.48671896,11.681154 4.29822163,12.2711591 Z M16,3.72659656 C22.7836079,3.72659656 28.2828086,9.22579729 28.2828086,16.0094052 C28.2828086,22.6305455 23.0438654,28.0280651 16.4851345,28.2828086 C17.0982029,28.257759 17.6995093,28.1868864 18.2867385,28.0764636 C19.843451,26.9939743 21.0685277,24.7990898 21.7654436,21.8837919 L26.7891123,21.8837919 C27.1581306,21.2077034 27.4635987,20.4931644 27.7017784,19.7476513 L22.1622317,19.7476513 C22.3224422,18.5775802 22.4084219,17.3263359 22.4084219,16.0094052 C22.4084219,14.6924745 22.3219082,13.4412301 22.1622317,12.2711591 L27.7017784,12.2711591 C27.4635987,11.525646 27.1575965,10.811107 26.7891123,10.1350184 L21.7654436,10.1350184 C21.0685277,7.21972052 19.843451,5.02483603 18.2867385,3.94234676 C17.6937459,3.83084022 17.0863984,3.75966402 16.4668834,3.7356538 Z M19.5475955,21.8837919 C18.7283856,24.8845355 17.3350879,26.6901083 16,26.6901083 C14.6649121,26.6901083 13.2716144,24.8845355 12.4529385,21.8837919 L19.5475955,21.8837919 Z M19.994583,12.2711591 C20.1692125,13.4123922 20.2722813,14.6604324 20.2722813,16.0094052 C20.2722813,17.358378 20.1692125,18.6064181 19.994583,19.7476513 L12.005417,19.7476513 C11.8307875,18.6064181 11.7277187,17.358378 11.7277187,16.0094052 C11.7277187,14.6604324 11.8307875,13.4123922 12.005417,12.2711591 L19.994583,12.2711591 Z M16,3.72659656 C15.2181725,3.72659656 14.4545023,3.80296359 13.7132615,3.94234676 C12.156549,5.02483603 10.9314723,7.21972052 10.2345564,10.1350184 L5.21088772,10.1350184 L5.00823952,10.5217151 C7.02356608,6.49288253 11.1887327,3.72659656 16,3.72659656 Z M16,5.32870203 C17.3350879,5.32870203 18.7283856,7.1342749 19.5470615,10.1350184 L12.4529385,10.1350184 C13.2716144,7.1342749 14.6649121,5.32870203 16,5.32870203 Z" id="Combined-Shape" fill="#4C34BB"></path>
    </g>
</svg>