<?xml version="1.0" encoding="UTF-8"?>
<svg width="25px" height="25px" viewBox="0 0 25 25" version="1.1" xmlns="http://www.w3.org/2000/svg" xmlns:xlink="http://www.w3.org/1999/xlink">
    <title>Icons/Arrows/Direction/Outlink</title>
    <g id="Symbols" stroke="none" stroke-width="1" fill="none" fill-rule="evenodd">
        <g id="Icons/Arrows/Direction/Outlink" transform="translate(5.795, 5.7869)" fill="#FFFFFF" fill-rule="nonzero">
            <path d="M11.4353222,13.0771078 L2.31156871,3.95335426 L2.31156871,11.9254075 C2.31156871,12.5625183 1.78881112,13.0852759 1.15170031,13.0852759 C0.514589501,13.0852759 -9.09494702e-13,12.5706864 -9.09494702e-13,11.9335756 L-9.09494702e-13,1.16803649 C-9.09494702e-13,0.530925676 0.514589501,0.0163361746 1.15170031,0.0163361746 L11.9172394,0 C12.5543502,0 13.0689397,0.514589501 13.0689397,1.15170031 C13.0689397,1.78881112 12.5543502,2.30340062 11.9172394,2.30340062 L3.94518617,2.3197368 L13.0689397,11.4434903 C13.5181845,11.8927351 13.5181845,12.627863 13.0689397,13.0771078 C12.6196949,13.5263526 11.884567,13.5263526 11.4353222,13.0771078 Z" id="Path"></path>
        </g>
    </g>
</svg>