<?xml version="1.0" encoding="UTF-8"?>
<svg width="32px" height="32px" viewBox="0 0 32 32" version="1.1" xmlns="http://www.w3.org/2000/svg" xmlns:xlink="http://www.w3.org/1999/xlink">
    <title>Icons/Partnership</title>
    <g id="Icons/Partnership" stroke="none" stroke-width="1" fill="none" fill-rule="evenodd">
        <path d="M14.2585043,7.63147131 L14.2581101,7.71879207 L15.991,9.64247131 L16.4438676,9.26353788 L18.2892969,7.63147131 L25.9209343,7.63147131 C27.016978,7.63147131 27.91493,8.47960307 27.9942974,9.55537389 L28,9.710537 L28,13.8743435 C28,14.9703872 27.1518682,15.8683392 26.0760974,15.9477066 L25.9209343,15.9534092 L24.0217078,15.9529317 L22.8026254,17.3093507 C23.2256538,18.1288373 23.0627371,19.1610492 22.3452637,19.8070652 L17.8723529,23.8344922 C17.4668984,24.199565 16.9572984,24.3756162 16.451641,24.3683104 L16.482201,24.3666944 L16.7797507,24.1154747 C17.3181764,23.6636819 17.3884063,22.8609511 16.9366134,22.3225254 C16.4848206,21.7840996 15.6820898,21.7138698 15.1436641,22.1656626 C15.6820898,21.7138698 15.7523197,20.911139 15.3005268,20.3727133 C14.848734,19.8342876 14.0460032,19.7640577 13.5075775,20.2158506 C14.0460032,19.7640577 14.116233,18.961327 13.6644402,18.4229012 C13.2126474,17.8844755 12.4099166,17.8142456 11.8714909,18.2660385 C12.4099166,17.8142456 12.4801464,17.0115149 12.0283536,16.4730891 C11.5765608,15.9346634 10.77383,15.8644336 10.2354043,16.3162264 L9.135,17.2374713 L7.97829219,15.9529317 L6.07906569,15.9534092 C4.93082941,15.9534092 4,15.0225798 4,13.8743435 L4,9.710537 C4,8.56230073 4.93082941,7.63147131 6.07906569,7.63147131 L14.2585043,7.63147131 Z M15.987,9.66447131 L11.7925838,13.1855538 C11.254158,13.6373467 11.1839282,14.4400774 11.635721,14.9785032 C12.0875139,15.5169289 12.8902446,15.5871587 13.4286704,15.1353659 L17.691,11.5564713 L15.987,9.66447131 Z" id="Combined-Shape" fill="#4C34BB"></path>
    </g>
</svg>