<?xml version="1.0" encoding="UTF-8"?>
<svg width="160px" height="160px" viewBox="0 0 160 160" version="1.1" xmlns="http://www.w3.org/2000/svg" xmlns:xlink="http://www.w3.org/1999/xlink">
    <title>Brand/Illustrations/Pencil</title>
    <g id="Brand/Illustrations/Pencil" stroke="none" stroke-width="1" fill="none" fill-rule="evenodd">
        <rect id="background" fill-opacity="0" fill="#FFFFFF" fill-rule="nonzero" x="0" y="0" width="160" height="160"></rect>
        <g id="Icon" transform="translate(16, 30.5)">
            <polygon id="Fill-2" fill="#7ACEF0" points="93.8524996 19.582724 93.8535846 39.0215014 76.8938191 29.3722957 76.8938191 9.79098224"></polygon>
            <path d="M74.72247,10.8750834 L91.6844057,20.6646551 L23.8420883,59.8294521 L23.840434,59.828 L0.000434031108,65.65339 L6.88091217,50.0423761 L74.72247,10.8750834 Z M93.8522826,1.11910481e-13 L110.810963,9.79065671 L93.8522826,19.5823985 L76.8936021,9.79065671 L93.8522826,1.11910481e-13 Z" id="Combined-Shape" fill="#FFFFFF"></path>
            <path d="M110.811072,9.79054821 L110.812157,29.3751169 L93.8536932,39.0215014 L91.270434,40.4865482 L23.8431734,79.4140207 L23.8431734,59.8294521 L91.6844057,20.6646551 L91.683434,28.6675482 L93.852434,27.4345482 L93.8523911,19.58229 L110.811072,9.79054821 Z M0.000434031108,65.65339 L0.000434031108,85.2368736 L23.8428479,79.4121761 L23.8428479,59.8286925 L0.000434031108,65.65339 Z" id="Combined-Shape" fill="#4C34BB"></path>
            <path d="M110.811289,29.3753339 L127.771054,39.1649055 L111.707,48.2973339 L105.777704,44.8736596 L103.606355,45.9581948 L109.669,49.4563339 L108.644497,50.040206 L23.8402437,99 L1.09423581e-12,85.2368736 L23.8424138,79.4132612 L91.6847312,40.2484642 L110.811289,29.3753339 Z" id="Combined-Shape" fill="#24156D"></path>
            <polygon id="Fill-9" fill="#24156D" points="16.2005366 58.558609 7.64252825 60.6495539 10.1132503 55.0462123"></polygon>
        </g>
    </g>
</svg>