<?xml version="1.0" encoding="UTF-8"?>
<svg width="32px" height="32px" viewBox="0 0 32 32" version="1.1" xmlns="http://www.w3.org/2000/svg" xmlns:xlink="http://www.w3.org/1999/xlink">
    <title>Icons/Features/Permission</title>
    <g id="Icons/Features/Permission" stroke="none" stroke-width="1" fill="none" fill-rule="evenodd">
        <path d="M25.3333333,2 L6.66666667,2 C5.18666667,2 4,3.2 4,4.66666667 L4,23.3333333 C4,24.8 5.2,26 6.66666667,26 L12,26 L15.0533333,29.0533333 C15.5733333,29.5733333 16.4133333,29.5733333 16.9333333,29.0533333 L20,26 L25.3333333,26 C26.8,26 28,24.8 28,23.3333333 L28,4.66666667 C28,3.2 26.8,2 25.3333333,2 Z M16,6.4 C17.9866667,6.4 19.6,8.01333333 19.6,10 C19.6,11.9866667 17.9866667,13.6 16,13.6 C14.0133333,13.6 12.4,11.9866667 12.4,10 C12.4,8.01333333 14.0133333,6.4 16,6.4 Z M24,20.6666667 L8,20.6666667 L8,19.4666667 C8,16.8 13.3333333,15.3333333 16,15.3333333 C18.6666667,15.3333333 24,16.8 24,19.4666667 L24,20.6666667 Z" id="Shape" fill="#4C34BB"></path>
    </g>
</svg>