<?xml version="1.0" encoding="UTF-8"?>
<svg width="32px" height="32px" viewBox="0 0 32 32" version="1.1" xmlns="http://www.w3.org/2000/svg" xmlns:xlink="http://www.w3.org/1999/xlink">
    <title>Icons/Phone</title>
    <g id="Icons/Phone" stroke="none" stroke-width="1" fill="none" fill-rule="evenodd">
        <path d="M25.64,20.3466667 L22.2533333,19.96 C21.44,19.8666667 20.64,20.1466667 20.0666667,20.72 L17.6133333,23.1733333 C13.84,21.2533333 10.7466667,18.1733333 8.82666667,14.3866667 L11.2933333,11.92 C11.8666667,11.3466667 12.1466667,10.5466667 12.0533333,9.73333333 L11.6666667,6.37333333 C11.5066667,5.02666667 10.3733333,4.01333333 9.01333333,4.01333333 L6.70666667,4.01333333 C5.2,4.01333333 3.94666667,5.26666667 4.04,6.77333333 C4.74666667,18.16 13.8533333,27.2533333 25.2266667,27.96 C26.7333333,28.0533333 27.9867967,26.8 27.9867967,25.2933333 L27.9867967,22.9866667 C28,21.64 26.9866667,20.5066667 25.64,20.3466667 Z" id="Path" fill="#4C34BB"></path>
    </g>
</svg>