<?xml version="1.0" encoding="UTF-8"?>
<svg width="160px" height="160px" viewBox="0 0 160 160" version="1.1" xmlns="http://www.w3.org/2000/svg" xmlns:xlink="http://www.w3.org/1999/xlink">
    <title>Brand/Illustrations/Plan-Grid</title>
    <defs>
        <rect id="path-1" x="0" y="0" width="160" height="160"></rect>
    </defs>
    <g id="Brand/Illustrations/Plan-Grid" stroke="none" stroke-width="1" fill="none" fill-rule="evenodd">
        <mask id="mask-2" fill="white">
            <use xlink:href="#path-1"></use>
        </mask>
        <g id="Mask" fill-rule="nonzero"></g>
        <g id="lines" mask="url(#mask-2)" fill-rule="nonzero" stroke="#58517B" stroke-opacity="0.2">
            <g transform="translate(-285.8638, -67.329)" id="Shape">
                <path d="M601.040896,115.683755 L601.040896,115.683755 L200.385086,347 M184.976688,338.103373 L585.631512,106.787128 M154.155949,320.309133 L554.812744,88.9938744 M570.222128,97.8905014 L169.566319,329.20576 M123.284929,302.486303 L523.940739,71.1700581 M539.351109,80.0676709 L138.694313,311.38293 M92.2226481,284.551081 L492.877472,53.2358226 M508.287842,62.1334354 L107.632032,293.448694 M61.4433159,266.781489 L462.099125,35.4662299 M477.508509,44.3628569 L76.8526997,275.678116 M30.7458121,249.23865 L431.401622,17.9233908 M446.811991,26.8210036 L46.1561818,258.136262 M0,231.314273 L400.65581,3.63797881e-12 M416.065193,8.89662697 L15.4093838,240.2109" fill="none"></path>
                <path d="M30.8197535,195.724807 L277.372852,338.068867 M261.967412,346.968452 L15.3985391,204.628336 M77.0528343,169.033941 L323.605933,311.378 M308.200493,320.277585 L61.6316199,177.937469 M123.211974,142.384481 L369.766058,284.727555 M354.359632,293.626154 L107.791745,151.287023 M169.508151,115.655165 L416.06125,257.999224 M400.654824,266.897823 L154.086937,124.558693 M215.737289,88.9642979 L462.290387,231.308358 M446.884947,240.207942 L200.316074,97.8678261 M261.970369,62.2734311 L508.523468,204.617491 M493.118028,213.517075 L246.549155,71.1769593 M539.277167,186.865644 L292.70928,44.5265138 M308.129509,35.6239715 L554.683593,177.967045 M354.425686,8.8946552 L600.978785,151.238715 M585.572359,160.137314 L339.004472,17.7981834" fill="#FFFFFF"></path>
            </g>
        </g>
    </g>
</svg>