<?xml version="1.0" encoding="UTF-8"?>
<svg width="32px" height="32px" viewBox="0 0 32 32" version="1.1" xmlns="http://www.w3.org/2000/svg" xmlns:xlink="http://www.w3.org/1999/xlink">
    <title>Icons/PlayVideo</title>
    <g id="Icons/PlayVideo" stroke="none" stroke-width="1" fill="none" fill-rule="evenodd">
        <path d="M16,4 C22.627417,4 28,9.372583 28,16 C28,22.627417 22.627417,28 16,28 C9.372583,28 4,22.627417 4,16 C4,9.372583 9.372583,4 16,4 Z M16,6 C10.4771525,6 6,10.4771525 6,16 C6,21.5228475 10.4771525,26 16,26 C21.5228475,26 26,21.5228475 26,16 C26,10.4771525 21.5228475,6 16,6 Z M13.4608891,11.7901843 C13.4608891,11.2963301 14.0270147,11.0072447 14.4245071,11.3083753 L20.0496273,15.5242041 C20.3748484,15.7651086 20.3748484,16.2469176 20.0496273,16.4878221 L14.4245071,20.703651 C14.0270147,21.0047816 13.4608891,20.7156962 13.4608891,20.221842 Z" id="Combined-Shape" fill="#4C34BB"></path>
    </g>
</svg>