<?xml version="1.0" encoding="UTF-8"?>
<svg width="56px" height="56px" viewBox="0 0 56 56" version="1.1" xmlns="http://www.w3.org/2000/svg" xmlns:xlink="http://www.w3.org/1999/xlink">
    <title>Point</title>
    <g id="Point" stroke="none" stroke-width="1" fill="none" fill-rule="evenodd">
        <path d="M20.6818182,7.09090909 C21.858265,7.09090909 22.7727273,8.00537341 22.7727273,9.18181818 L22.7727273,22.25 C22.7727273,22.8273883 23.2407935,23.2954545 23.8181818,23.2954545 C24.3955702,23.2954545 24.8636364,22.8273883 24.8636364,22.25 C24.8636364,21.0735552 25.7780986,20.1590909 26.9545455,20.1590909 C28.1309923,20.1590909 29.0454545,21.0735552 29.0454545,22.25 L29.0454545,25.3863636 C29.0454545,25.963752 29.5135207,26.4318182 30.0909091,26.4318182 C30.6682974,26.4318182 31.1363636,25.963752 31.1363636,25.3863636 C31.1363636,24.2099189 32.0508259,23.2954545 33.2272727,23.2954545 C34.4037196,23.2954545 35.3181818,24.2099189 35.3181818,25.3863636 L35.3181818,28.5227273 C35.3181818,29.1001156 35.786248,29.5681818 36.3636364,29.5681818 C36.9410247,29.5681818 37.4090909,29.1001156 37.4090909,28.5227273 C37.4090909,27.3462773 38.3235531,26.4318182 39.5,26.4318182 C40.6764469,26.4318182 41.5909091,27.3462773 41.5909091,28.5227273 L41.5909091,35.3181818 C41.5909091,38.5141886 40.3193713,41.3759636 38.2421875,43.453125 C38.044272,43.6488304 37.9296996,43.9262167 37.9318182,44.2045455 L37.9318182,48.9090909 L22.25,48.9090909 L22.25,46.8181818 C22.2521432,46.5398531 22.1375462,46.2624668 21.9396307,46.0667614 C20.6477181,44.7748409 18.7291746,42.775592 17.1534091,40.5944602 C15.5776435,38.4132761 14.4090909,36.0517773 14.4090909,34.2727273 L14.4090909,30.0909091 C14.4090909,28.7029469 15.2710546,27.5565595 16.5,27.134233 L16.5,33.2272727 C16.4921905,33.7795994 16.9930724,34.2876166 17.5454545,34.2876166 C18.0978367,34.2876166 18.5987202,33.7795994 18.5909091,33.2272727 L18.5909091,9.18181818 C18.5909091,8.00537341 19.5053713,7.09090909 20.6818182,7.09090909 Z" id="BG" fill="#FFFFFF" fill-rule="nonzero"></path>
        <path d="M20.6818182,5 C18.3831741,5 16.5,6.88317205 16.5,9.18181818 L16.5,25.0759943 C14.1388284,25.5777811 12.3181818,27.5845364 12.3181818,30.0909091 L12.3181818,34.2727273 C12.3181818,36.882025 13.7632655,39.4785159 15.4545455,41.8196023 C17.0347767,44.0069545 18.845391,45.9016057 20.1590909,47.2265625 L20.1590909,49.9545455 C20.1591458,50.5019292 20.6571617,51 21.2045455,51 L38.9772727,51 C39.5246565,51 40.0226724,50.5019292 40.0227273,49.9545455 L40.0227273,44.5639205 C42.2802374,42.1368977 43.6818182,38.8971386 43.6818182,35.3181818 L43.6818182,28.5227273 C43.6818182,26.2240811 41.798644,24.3409091 39.5,24.3409091 C38.6945081,24.3409091 37.9840522,24.6276564 37.34375,25.0269886 C37.1528061,22.901543 35.3999332,21.2045455 33.2272727,21.2045455 C32.4217808,21.2045455 31.711325,21.4912927 31.0710227,21.890625 C30.8800788,19.7651793 29.127206,18.0681818 26.9545455,18.0681818 C26.1781135,18.0681818 25.4887,18.3321016 24.8636364,18.7052557 L24.8636364,9.18181818 C24.8636364,6.88317205 22.9804622,5 20.6818182,5 Z M20.6818182,7.09090909 C21.858265,7.09090909 22.7727273,8.00537341 22.7727273,9.18181818 L22.7727273,22.25 C22.7727273,22.8273883 23.2407935,23.2954545 23.8181818,23.2954545 C24.3955702,23.2954545 24.8636364,22.8273883 24.8636364,22.25 C24.8636364,21.0735552 25.7780986,20.1590909 26.9545455,20.1590909 C28.1309923,20.1590909 29.0454545,21.0735552 29.0454545,22.25 L29.0454545,25.3863636 C29.0454545,25.963752 29.5135207,26.4318182 30.0909091,26.4318182 C30.6682974,26.4318182 31.1363636,25.963752 31.1363636,25.3863636 C31.1363636,24.2099189 32.0508259,23.2954545 33.2272727,23.2954545 C34.4037196,23.2954545 35.3181818,24.2099189 35.3181818,25.3863636 L35.3181818,28.5227273 C35.3181818,29.1001156 35.786248,29.5681818 36.3636364,29.5681818 C36.9410247,29.5681818 37.4090909,29.1001156 37.4090909,28.5227273 C37.4090909,27.3462773 38.3235531,26.4318182 39.5,26.4318182 C40.6764469,26.4318182 41.5909091,27.3462773 41.5909091,28.5227273 L41.5909091,35.3181818 C41.5909091,38.5141886 40.3193713,41.3759636 38.2421875,43.453125 C38.044272,43.6488304 37.9296996,43.9262167 37.9318182,44.2045455 L37.9318182,48.9090909 L22.25,48.9090909 L22.25,46.8181818 C22.2521432,46.5398531 22.1375462,46.2624668 21.9396307,46.0667614 C20.6477181,44.7748409 18.7291746,42.775592 17.1534091,40.5944602 C15.5776435,38.4132761 14.4090909,36.0517773 14.4090909,34.2727273 L14.4090909,30.0909091 C14.4090909,28.7029469 15.2710546,27.5565595 16.5,27.134233 L16.5,33.2272727 C16.4921905,33.7795994 16.9930724,34.2876166 17.5454545,34.2876166 C18.0978367,34.2876166 18.5987202,33.7795994 18.5909091,33.2272727 L18.5909091,9.18181818 C18.5909091,8.00537341 19.5053713,7.09090909 20.6818182,7.09090909 Z" id="Shape" fill="#24156D" fill-rule="nonzero"></path>
    </g>
</svg>