<?xml version="1.0" encoding="UTF-8"?>
<svg width="240px" height="240px" viewBox="0 0 240 240" version="1.1" xmlns="http://www.w3.org/2000/svg" xmlns:xlink="http://www.w3.org/1999/xlink">
    <title>Icon</title>
    <g id="Symbols" stroke="none" stroke-width="1" fill="none" fill-rule="evenodd">
        <g id="UI/Molecules/Marketing-Pages/Benefits/Vertical/Small/Medium" transform="translate(-105, 0)">
            <g id="Icon" transform="translate(105, 0)">
                <polygon id="Path-2" fill="#24156D" points="123.993863 97.0398287 163.96292 120.113656 147.972382 129.378097 107.998721 106.269032"></polygon>
                <polygon id="Path-3" fill="#24156D" points="96.5161616 112.498031 112.498721 121.732195 96.5161616 130.964723 80.5248562 121.729076"></polygon>
                <rect id="background" fill-opacity="0" fill="#FFFFFF" fill-rule="nonzero" x="0" y="0" width="240" height="240"></rect>
                <g id="Thick" transform="translate(36, 60)">
                    <path d="M3.55271368e-15,37.1198376 L92.8652905,90.7340751 L92.8652905,112.692454 L3.55271368e-15,59.0786732 L3.55271368e-15,37.1198376 Z M35.7174757,41.242375 L35.7179327,57.7398369 L14.2874107,45.366969 L35.7174757,41.242375 Z" id="Combined-Shape" fill="#7ACEF0"></path>
                    <path d="M85.7195286,45.3670604 L100.010504,37.1187865 L135.728345,57.7381002 L121.486271,66.0165374 L85.7195286,45.3670604 Z M71.4376935,70.1150813 L57.1448899,61.8622372 L71.4376935,53.6135062 L85.7250128,61.8622372 L71.4376935,70.1150813 Z M100.009133,20.6222387 L35.7180241,57.7399283 L92.8645593,90.733938 L157.155211,53.6167054 L100.009133,20.6222387 Z" id="Fill-4" fill="#FFFFFF"></path>
                    <polygon id="Fill-6" fill="#7ACEF0" points="100.010778 28.8722035 100.013063 37.1209345 135.728163 57.7379631 142.868166 53.6156542"></polygon>
                    <polygon id="Fill-8" fill="#7ACEF0" points="71.4354998 45.3668319 71.4377849 53.6137347 85.7251042 61.8624657 92.8651077 57.7392428"></polygon>
                    <polygon id="Fill-10" fill="#FFFFFF" points="64.2888695 0 0.000959739318 37.1186037 14.287365 45.3668776 78.5784739 8.24964497"></polygon>
                    <path d="M11.9703715,36.6520333 C11.9703715,37.1300748 12.6435601,37.5176267 13.4730491,37.5176267 C14.3029951,37.5176267 14.9757266,37.1300748 14.9757266,36.6520333 C14.9757266,36.1739917 14.3029951,35.7864398 13.4730491,35.7864398 C12.6435601,35.7864398 11.9703715,36.1739917 11.9703715,36.6520333 M16.694117,33.8606086 C16.694117,34.3386502 17.3668486,34.7262021 18.1967946,34.7262021 C19.0267406,34.7262021 19.6994721,34.3386502 19.6994721,33.8606086 C19.6994721,33.382567 19.0267406,32.9950151 18.1967946,32.9950151 C17.3668486,32.9950151 16.694117,33.382567 16.694117,33.8606086 M21.5289638,31.0691382 C21.5289638,31.5471798 22.2016954,31.9347317 23.0316414,31.9347317 C23.8615874,31.9347317 24.5343189,31.5471798 24.5343189,31.0691382 C24.5343189,30.5910967 23.8615874,30.2035448 23.0316414,30.2035448 C22.2016954,30.2035448 21.5289638,30.5910967 21.5289638,31.0691382" id="Combined-Shape" fill="#24156D"></path>
                    <path d="M52.9722176,12.4650486 L55.1375723,14.6358875 L54.1033389,15.233211 L51.5321516,14.4069211 L51.4965041,14.4270299 L52.9662763,15.8894899 L51.9270157,16.4895554 L48.1150226,15.2697725 L49.0985269,14.7016982 L51.6212702,15.6577814 L51.6624019,15.6344734 L50.0875154,14.1308818 L51.004752,13.6011971 L53.6600307,14.4809582 L53.7011624,14.4571932 L51.9987677,13.0271816 L52.9722176,12.4650486 Z M58.0587445,9.52838336 L60.2295835,11.6960232 L59.1948931,12.2933466 L56.6186786,11.4697989 L56.5880583,11.4876226 L58.0582875,12.9496255 L57.0135427,13.5528902 L53.2015496,12.3326502 L54.1900811,11.7618339 L56.7077972,12.7211162 L56.7489289,12.6978082 L55.1790696,11.1910175 L56.0912789,10.6640749 L58.7465577,11.5442929 L58.7876894,11.520528 L57.0852947,10.0905164 L58.0587445,9.52838336 Z M63.1506644,6.58851902 L65.3160191,8.75935795 L64.2817857,9.35668142 L61.7105984,8.53039157 L61.6749509,8.5505004 L63.1447231,10.0129603 L62.0999783,10.616225 L58.2934694,9.3927859 L59.2769737,8.82516865 L61.799717,9.78125182 L61.8403917,9.75794386 L60.2659622,8.25435226 L61.1831988,7.72466756 L63.8384775,8.60442861 L63.874125,8.58386276 L62.1772145,7.15065205 L63.1506644,6.58851902 Z" id="Combined-Shape" fill="#24156D"></path>
                    <polygon id="Fill-27" fill="#FFFFFF" points="100.008539 4.12404555 35.71743 41.2426492 14.287822 45.3672432 78.5784739 8.25001059"></polygon>
                    <path d="M42.8610896,37.1179638 L21.4305677,41.2425578 L28.5701142,37.1179638 L50.0047493,32.9947409 L42.8610896,37.1179638 Z M57.1460782,28.8764538 L35.7178413,32.9941925 L42.8569308,28.8764538 L64.2897378,24.7532309 L57.1460782,28.8764538 Z M71.4354998,20.6213246 L50.0049778,24.7463756 L57.1445243,20.6217816 L78.5787024,16.4981017 L71.4354998,20.6213246 Z M85.7182032,12.3715882 L64.2917944,16.4980103 L71.4313409,12.3734163 L92.8614058,8.24836532 L85.7182032,12.3715882 Z" id="Combined-Shape" fill="#7ACEF0"></path>
                    <polygon id="Fill-37" fill="#24156D" points="157.154617 75.5755867 169.219587 81.3827674 104.928935 118.5 92.8644222 112.692362"></polygon>
                    <path d="M157.155074,53.6168425 L157.155074,75.5756781 L92.8644222,112.692911 L92.8644222,90.7340751 L157.155074,53.6168425 Z M71.4354998,45.3668319 L71.4377849,53.6137347 L57.1445243,61.8624657 L50.0045208,57.7392428 L71.4354998,45.3668319 Z M100.009544,4.1252795 L100.009544,20.6222844 L35.7175214,57.739974 L35.7175214,41.2425121 L100.009544,4.1252795 Z M100.008493,28.870604 L100.010321,37.1188779 L85.7193457,45.3671518 L78.5779712,41.2425578 L100.008493,28.870604 Z" id="Combined-Shape" fill="#4C34BB"></path>
                </g>
            </g>
        </g>
    </g>
</svg>