<?xml version="1.0" encoding="UTF-8"?>
<svg width="160px" height="160px" viewBox="0 0 160 160" version="1.1" xmlns="http://www.w3.org/2000/svg" xmlns:xlink="http://www.w3.org/1999/xlink">
    <title>Brand/Illustrations/Press-Release</title>
    <g id="Brand/Illustrations/Press-Release" stroke="none" stroke-width="1" fill="none" fill-rule="evenodd">
        <rect id="background" fill-opacity="0" fill="#FFFFFF" fill-rule="nonzero" x="0" y="0" width="160" height="160"></rect>
        <g id="Group-25" transform="translate(15.5, 41.7734)">
            <polygon id="Fill-1" fill="#24156D" points="52.5461064 74.864161 55.4248532 76.4531539 129 33.9753316 126.121253 32.3870111"></polygon>
            <polygon id="Fill-2" fill="#FFFFFF" points="73.5762899 0 0.00248805494 42.4778223 52.5555879 72.819316 126.130062 30.3414938"></polygon>
            <polygon id="Fill-3" fill="#4C34BB" points="126.127978 30.3442508 126.127978 32.3945425 52.5535033 74.8723648 52.5535033 72.8220731"></polygon>
            <polygon id="Fill-4" fill="#7ACEF0" points="0 44.5308038 52.5530999 74.8722976 52.5530999 72.8220058 0 42.4811845"></polygon>
            <path d="M33.2863421,35.6091768 L49.7404546,45.1518761 L51.2453917,44.2716426 L34.7919516,34.7289433 L33.2863421,35.6091768 Z M36.7272549,33.6281471 L68.2596527,51.8333123 L69.7652622,50.9530788 L38.2328643,32.748586 L36.7272549,33.6281471 Z M40.16884,31.6477898 L71.7012379,49.8522826 L73.2061749,48.9720491 L41.6744495,30.7675563 L40.16884,31.6477898 Z M43.6104252,29.6667601 L75.1421507,47.8719254 L76.6477601,46.9910194 L45.1160347,28.7865267 L43.6104252,29.6667601 Z M47.051338,27.6857305 L78.5837358,45.8908957 L80.0886729,45.0099898 L48.5569474,26.805497 L47.051338,27.6857305 Z M50.4929231,25.7047008 L82.0246486,43.909866 L83.530258,43.0296325 L51.9985326,24.8251397 L50.4929231,25.7047008 Z M53.9345083,23.7243435 L85.4662338,41.9295088 L86.9718432,41.0486028 L55.4401178,22.84411 L53.9345083,23.7243435 Z M57.3754211,21.7433138 L88.9078189,39.9484791 L90.412756,39.0675731 L58.8810305,20.8630804 L57.3754211,21.7433138 Z M60.8170062,19.7622842 L92.3487317,37.9674494 L93.8543411,37.0872159 L62.3226157,18.8827231 L60.8170062,19.7622842 Z M64.2585914,17.7819269 L95.7903169,35.9864197 L97.2959263,35.1061862 L65.7635284,16.9016934 L64.2585914,17.7819269 Z M67.6995042,15.8008972 L99.231902,34.0060625 L100.736839,33.1251565 L69.2051136,14.9206637 L67.6995042,15.8008972 Z M104.178424,31.1447993 L102.672815,32.0250328 L71.1410893,13.8198675 L72.6466988,12.9403065 L104.178424,31.1447993 Z" id="Fill-5" fill="#24156D"></path>
            <g id="Group-24" transform="translate(20.4221, 39.8605)" fill="#24156D">
                <path d="M4.70217965,0.38242883 C7.97565301,-0.214704355 11.9289706,0.415378746 14.6362433,1.97881867 C17.3441885,3.5422586 18.1430559,5.6557604 16.6629994,7.28778995 C17.4544699,7.95149542 17.3609997,8.7490179 16.3906583,9.2042647 C15.4196444,9.65951151 13.8804126,9.6265616 12.6942156,9.14845158 C9.4247769,9.74289498 5.46338997,9.11281187 2.75544477,7.54937195 C0.0481720183,5.98593202 -0.742625984,3.87310266 0.733395797,2.24309046 C-0.0621093357,1.5766952 0.03539552,0.777155383 1.00573695,0.321908574 C1.97607837,-0.133338235 3.51127551,-0.0990434232 4.70217965,0.38242883 Z M1.97298511,0.880039817 C1.35164383,1.17120949 1.38661109,1.72059892 2.05031655,2.10389387 L13.096608,8.48138388 C13.7603135,8.86467883 14.8066415,8.93932048 15.4279828,8.6481508 C16.0486516,8.35765358 16.0096497,7.81028149 15.3459442,7.42698654 L4.29965271,1.04882408 C3.63594724,0.666201582 2.59365395,0.588870145 1.97298511,0.880039817 Z M1.74778252,2.87572886 C0.786855356,4.21860608 1.51108108,5.88425799 3.66022259,7.12492322 C5.81003654,8.3662609 8.92346745,8.91565033 11.5897209,8.55790838 L10.714867,8.05290047 C8.53344803,8.24320305 6.08439503,7.75433388 4.39655236,6.77995777 C2.70870968,5.80558166 2.02819304,4.48758499 2.6179293,3.37804698 L1.74778252,2.87572886 Z M4.9222044,2.10940794 L13.3836085,6.99473743 C13.6472079,7.14738296 13.6613293,7.37063546 13.4145411,7.48629639 C13.1637183,7.60397467 12.7427663,7.57102475 12.4784945,7.41905166 L4.01709036,2.53372217 C3.74878389,2.3790593 3.73533495,2.15984148 3.98615778,2.04216321 C4.23294594,1.92650228 4.65389793,1.95474506 4.9222044,2.10940794 Z M3.76552783,4.04087826 C3.5873293,4.83234871 4.14546054,5.6883741 5.30139742,6.3554418 C6.46204143,7.02587174 8.03556806,7.40109732 9.5721101,7.39302795 L3.76552783,4.04087826 Z M5.80687604,0.972703053 L6.67702282,1.47502117 C8.8584418,1.28471859 11.3074948,1.77358776 12.9953375,2.74796387 C14.6838526,3.72301243 15.3643692,5.0410091 14.7739605,6.14987467 L15.6488144,6.65488257 C16.6137763,5.30998801 15.8814812,3.6443361 13.7316672,2.40299842 C11.5825257,1.16233319 8.47716419,0.612943758 5.80687604,0.972703053 Z M7.82441962,2.13751623 L13.6310019,5.48966593 C13.8051657,4.69550569 13.2551039,3.84015275 12.0951323,3.17039526 C10.9391954,2.50265511 9.35692697,2.12742952 7.82441962,2.13751623 Z" id="stamp"></path>
            </g>
        </g>
    </g>
</svg>