<?xml version="1.0" encoding="UTF-8"?>
<svg width="32px" height="32px" viewBox="0 0 32 32" version="1.1" xmlns="http://www.w3.org/2000/svg" xmlns:xlink="http://www.w3.org/1999/xlink">
    <title>Icons/Industries/Realestate</title>
    <g id="Icons/Industries/Realestate" stroke="none" stroke-width="1" fill="none" fill-rule="evenodd">
        <path d="M26.6666667,4 C27.4,4 28,4.6 28,5.33333333 L28,26.6666667 C28,27.4 27.4,28 26.6666667,28 L22.6666667,28 L22.6666667,25.3333333 L25.3333333,25.3333333 L25.3333333,22.6666667 L22.6666667,22.6666667 L22.6666667,20 L25.3333333,20 L25.3333333,17.3333333 L22.6666667,17.3333333 L22.6666667,16.4666667 C22.6666667,15.3333333 22.1866667,14.24 21.3466667,13.4933333 L14.68,7.49333333 C14.6666667,7.48 14.6666667,7.48 14.6666667,7.48 L14.6666667,5.33333333 C14.6666667,4.6 15.2666667,4 16,4 Z M12,9.13333333 C12.32,9.13333333 12.64,9.24 12.8933333,9.48 L19.56,15.48 C19.84,15.7333333 20,16.0933333 20,16.4666667 L20,26.6666667 C20,27.4 19.4,28 18.6666667,28 L16,28 C15.2666667,28 14.6666667,27.4 14.6666667,26.6666667 L14.6666667,21.3333333 L9.33333333,21.3333333 L9.33333333,26.6666667 C9.33333333,27.4 8.73333333,28 8,28 L5.33333333,28 C4.6,28 4,27.4 4,26.6666667 L4,16.4666667 C4,16.08 4.16,15.72 4.44,15.48 L11.1066667,9.48 C11.36,9.25333333 11.68,9.13333333 12,9.13333333 Z M25.3333333,12 L22.6666667,12 L22.6666667,14.6666667 L25.3333333,14.6666667 L25.3333333,12 Z M20,6.66666667 L17.3333333,6.66666667 L17.3333333,9.33333333 L20,9.33333333 L20,6.66666667 Z M25.3333333,6.66666667 L22.6666667,6.66666667 L22.6666667,9.33333333 L25.3333333,9.33333333 L25.3333333,6.66666667 Z" id="Combined-Shape" fill="#4C34BB"></path>
    </g>
</svg>