<?xml version="1.0" encoding="UTF-8"?>
<svg width="96px" height="96px" viewBox="0 0 96 96" version="1.1" xmlns="http://www.w3.org/2000/svg" xmlns:xlink="http://www.w3.org/1999/xlink">
    <title>Icon</title>
    <g id="Symbols" stroke="none" stroke-width="1" fill="none" fill-rule="evenodd">
        <g id="UI/Info-Item" transform="translate(-188, 0)" fill="#4C34BB">
            <g id="Icon" transform="translate(200, 13.7143)">
                <path d="M70.2857143,44.5714286 L54.8571429,44.5714286 L54.8571429,30.8571429 L56.5714286,30.8571429 C57.5142857,30.8571429 58.2857143,30.0857143 58.2857143,29.1428571 C58.2857143,28.2 57.5142857,27.4285714 56.5714286,27.4285714 L51.2537143,27.4285714 C50.4582857,20.2937143 44.8388571,14.6777143 37.7142857,13.8754286 L37.7142857,6.85714286 L47,6.85714286 C47.5522847,6.85714286 48,6.40942761 48,5.85714286 L48,1 C48,0.44771525 47.5522847,3.42636147e-16 47,0 L37.7142857,0 L37.7142857,0 L34.2857143,0 L34.2857143,6.85714286 L34.2857143,13.8754286 C27.1611429,14.6777143 21.5451429,20.2937143 20.7428571,27.4285714 L15.4285714,27.4285714 C14.4857143,27.4285714 13.7142857,28.2 13.7142857,29.1428571 C13.7142857,30.0857143 14.4857143,30.8571429 15.4285714,30.8571429 L17.1428571,30.8571429 L17.1428571,44.5714286 L1.71428571,44.5714286 C0.771428571,44.5714286 0,45.3428571 0,46.2857143 C0,47.2285714 0.771428571,48 1.71428571,48 L3.42857143,48 L3.42857143,67.5714286 C3.42857143,68.1237133 3.87628668,68.5714286 4.42857143,68.5714286 L12.7142857,68.5714286 C13.2665705,68.5714286 13.7142857,68.1237133 13.7142857,67.5714286 L13.7142857,54.8571429 L13.7142857,54.8571429 C13.7142857,53.9108571 14.4822857,53.1428571 15.4285714,53.1428571 C16.3748571,53.1428571 17.1428571,53.9108571 17.1428571,54.8571429 L17.1428571,67.5714286 C17.1428571,68.1237133 17.5905724,68.5714286 18.1428571,68.5714286 L26.4285714,68.5714286 C26.9808562,68.5714286 27.4285714,68.1237133 27.4285714,67.5714286 L27.4285714,54.8571429 L27.4285714,54.8571429 C27.4285714,53.9108571 28.1965714,53.1428571 29.1428571,53.1428571 C30.0891429,53.1428571 30.8571429,53.9108571 30.8571429,54.8571429 L30.8571429,67.5714286 C30.8571429,68.1237133 31.3048581,68.5714286 31.8571429,68.5714286 L40.1428571,68.5714286 C40.6951419,68.5714286 41.1428571,68.1237133 41.1428571,67.5714286 L41.1428571,54.8571429 L41.1428571,54.8571429 C41.1428571,53.9108571 41.9108571,53.1428571 42.8571429,53.1428571 C43.8034286,53.1428571 44.5714286,53.9108571 44.5714286,54.8571429 L44.5714286,67.5714286 C44.5714286,68.1237133 45.0191438,68.5714286 45.5714286,68.5714286 L53.8571429,68.5714286 C54.4094276,68.5714286 54.8571429,68.1237133 54.8571429,67.5714286 L54.8571429,54.8571429 L54.8571429,54.8571429 C54.8571429,53.9108571 55.6251429,53.1428571 56.5714286,53.1428571 C57.5177143,53.1428571 58.2857143,53.9108571 58.2857143,54.8571429 L58.2857143,67.5714286 C58.2857143,68.1237133 58.7334295,68.5714286 59.2857143,68.5714286 L67.5714286,68.5714286 C68.1237133,68.5714286 68.5714286,68.1237133 68.5714286,67.5714286 L68.5714286,48 L68.5714286,48 L70.2857143,48 C71.2285714,48 72,47.2285714 72,46.2857143 C72,45.3428571 71.2285714,44.5714286 70.2857143,44.5714286 Z M20.5714286,44.5714286 L36,34.2857143 L51.4285714,44.5714286 L20.5714286,44.5714286 Z" id="Shape"></path>
            </g>
        </g>
    </g>
</svg>