<?xml version="1.0" encoding="UTF-8"?>
<svg width="32px" height="32px" viewBox="0 0 32 32" version="1.1" xmlns="http://www.w3.org/2000/svg" xmlns:xlink="http://www.w3.org/1999/xlink">
    <title>Icons/Industries/Selling-Online</title>
    <g id="Icons/Industries/Selling-Online" stroke="none" stroke-width="1" fill="none" fill-rule="evenodd">
        <path d="M20.6156304,7.05312209 C21.4719744,7.05312209 22.2388497,7.47490347 22.6989748,8.12674744 L27.7603515,15.2586873 C28.0798828,15.7060312 28.0798828,16.2939688 27.7603515,16.7413127 L22.6989748,23.8732526 C22.2388497,24.5250965 21.4719744,24.9468779 20.6156304,24.9468779 L6.55625083,24.9340967 C5.15031287,24.9340967 4,23.796565 4,22.3906271 L4,9.60937292 C4,8.20343496 5.15031287,7.06590334 6.55625083,7.06590334 Z M14.2688605,11.0378644 C13.8112413,11.0378644 13.4418379,11.4072678 13.4418379,11.864887 L13.4418379,12.2287769 C12.372222,12.4603433 11.5121185,13.1550423 11.5121185,14.2191447 C11.5121185,15.4927595 12.5651939,16.1268101 14.103456,16.4962136 C15.481827,16.8270226 15.7575012,17.3122092 15.7575012,17.8249632 C15.7575012,18.2053936 15.4873404,18.8118768 14.2688605,18.8118768 C13.3591356,18.8118768 12.8904895,18.4865813 12.7085445,18.0234486 C12.6258422,17.8084228 12.4383838,17.6540452 12.2123309,17.6540452 L12.0579534,17.6540452 C11.68855,17.6540452 11.4294162,18.0289621 11.5672533,18.3707981 C11.8815219,19.1371724 12.6148153,19.5892781 13.4418379,19.7657096 L13.4418379,20.135113 C13.4418379,20.5927322 13.8112413,20.9621356 14.2688605,20.9621356 C14.7264797,20.9621356 15.0958831,20.5927322 15.0958831,20.135113 L15.0958831,19.7767365 C16.1710125,19.5727376 17.0256025,18.9497139 17.0256025,17.8194497 C17.0256025,16.2536203 15.6858259,15.7188123 14.434265,15.3935168 C13.1827041,15.0682212 12.7802198,14.7318987 12.7802198,14.2081177 C12.7802198,13.6071479 13.3370817,13.1881232 14.2688605,13.1881232 C15.0517752,13.1881232 15.4432326,13.4858513 15.5865832,13.9600109 C15.652745,14.1805503 15.8346899,14.3459548 16.0662563,14.3459548 L16.2316608,14.3459548 C16.5955507,14.3459548 16.8546845,13.9875783 16.7278744,13.6457423 C16.496308,12.9951512 15.9559866,12.4548298 15.0958831,12.2453174 L15.0958831,11.864887 C15.0958831,11.4072678 14.7264797,11.0378644 14.2688605,11.0378644 Z" id="Icon" fill="#4C34BB"></path>
    </g>
</svg>