<?xml version="1.0" encoding="UTF-8"?>
<svg width="160px" height="160px" viewBox="0 0 160 160" version="1.1" xmlns="http://www.w3.org/2000/svg" xmlns:xlink="http://www.w3.org/1999/xlink">
    <title>Brand/Illustrations/Signs</title>
    <g id="Brand/Illustrations/Signs" stroke="none" stroke-width="1" fill="none" fill-rule="evenodd">
        <rect id="background" fill-opacity="0" fill="#FFFFFF" fill-rule="nonzero" x="0" y="0" width="160" height="160"></rect>
        <g id="icon" transform="translate(38.4286, 16)">
            <path d="M73.9054321,-2.23820962e-13 L83.1426728,5.33288267 L36.9535139,32.0020243 L36.9508456,32.001 L27.7146774,37.333784 L18.4768456,32.0003103 L27.7146774,26.6674276 L73.903659,-2.23820962e-13 Z" id="Combined-Shape" fill="#FFFFFF"></path>
            <polygon id="Fill-3" fill="#3C28B2" points="27.7108357 122.66428 55.4284683 106.665632 55.4284683 95.998685 27.7143819 111.999106"></polygon>
            <polygon id="Fill-4" fill="#7ACEF0" points="1.77635684e-15 106.665573 27.7146774 122.666585 27.7146774 111.999047 1.77635684e-15 95.9980348"></polygon>
            <polygon id="Fill-5" fill="#FFFFFF" points="-3.55271368e-15 95.9982712 27.7146774 111.999874 55.4287638 95.9988623 27.7140864 79.9978501"></polygon>
            <polygon id="Fill-6" fill="#24156D" points="27.7145592 122.666526 36.952391 128 64.6664774 111.998988 55.4286456 106.665514"></polygon>
            <polygon id="Fill-8" fill="#7ACEF0" points="18.4768456 95.9997488 27.7146774 101.333223 27.7146774 37.3333112 18.4768456 31.9998375"></polygon>
            <path d="M36.9536321,32.0013741 L36.9536321,85.3378843 L83.142791,58.6693337 L83.142791,5.3334146 L36.9536321,32.0013741 Z M27.7148547,101.333163 L36.9532775,95.9996897 L36.9532775,32.0003694 L27.7148547,37.3332521 L27.7148547,101.333163 Z" id="Combined-Shape" fill="#4C34BB"></path>
            <path d="M73.9022405,34.4183999 L73.9022405,55.756432 L36.9515044,77.0891447 L36.9515044,55.7517037 L46.1875631,50.4194121 L46.1875631,61.0869505 L64.6673639,50.418821 L64.6673639,39.7501005 L73.9022405,34.4183999 Z M53.6291301,31.2670168 L53.6291301,41.9327821 L44.3889342,47.269211 L44.3889342,36.6046277 L53.6291301,31.2670168 Z M66.7723247,23.6736136 L66.7723247,34.33997 L57.5321288,39.6763988 L57.5321288,29.0112245 L66.7723247,23.6736136 Z" id="Combined-Shape" fill-opacity="0.4" fill="#24156D"></path>
        </g>
    </g>
</svg>