<?xml version="1.0" encoding="UTF-8"?>
<svg width="32px" height="32px" viewBox="0 0 32 32" version="1.1" xmlns="http://www.w3.org/2000/svg" xmlns:xlink="http://www.w3.org/1999/xlink">
    <title>Icons/SMS</title>
    <g id="Icons/SMS" stroke="none" stroke-width="1" fill="none" fill-rule="evenodd">
        <path d="M26.6666667,2.66666667 L5.33333333,2.66666667 C3.86666667,2.66666667 2.68,3.86666667 2.68,5.33333333 L2.66666667,29.3333333 L8,24 L26.6666667,24 C28.1333333,24 29.3333333,22.8 29.3333333,21.3333333 L29.3333333,5.33333333 C29.3333333,3.86666667 28.1333333,2.66666667 26.6666667,2.66666667 Z M12,14.6666667 L9.33333333,14.6666667 L9.33333333,12 L12,12 L12,14.6666667 Z M17.3333333,14.6666667 L14.6666667,14.6666667 L14.6666667,12 L17.3333333,12 L17.3333333,14.6666667 Z M22.6666667,14.6666667 L20,14.6666667 L20,12 L22.6666667,12 L22.6666667,14.6666667 Z" id="Icon" fill="#4C34BB"></path>
    </g>
</svg>