<?xml version="1.0" encoding="UTF-8"?>
<svg width="160px" height="160px" viewBox="0 0 160 160" version="1.1" xmlns="http://www.w3.org/2000/svg" xmlns:xlink="http://www.w3.org/1999/xlink">
    <title>Brand/Illustrations/Stamp</title>
    <defs>
        <linearGradient x1="50%" y1="0%" x2="50%" y2="100%" id="linearGradient-1">
            <stop stop-color="#8069CF" offset="0%"></stop>
            <stop stop-color="#4938A1" offset="100%"></stop>
        </linearGradient>
    </defs>
    <g id="Brand/Illustrations/Stamp" stroke="none" stroke-width="1" fill="none" fill-rule="evenodd">
        <rect id="Rectangle" fill-opacity="0" fill="#FFFFFF" fill-rule="nonzero" x="0.0219319474" y="0" width="160" height="160"></rect>
        <g id="Stamp" transform="translate(0, 7.5)">
            <polygon id="Fill-1" fill-opacity="0.6" fill="#4938A1" opacity="0.600000024" transform="translate(76.9243, 67.1503) rotate(-30) translate(-76.9243, -67.1503)" points="66.2291267 67.1503448 76.9247004 73.3254779 87.6194417 67.1503448 76.9247004 60.9752117"></polygon>
            <path d="M83.1385348,0.0707749611 C83.1664699,0.107507304 83.1948212,0.144960475 83.2234772,0.181276648 C83.273296,0.147708256 83.3031765,0.111234678 83.3394628,0.075868219 C85.2403058,0.165379245 87.1341577,0.331009382 89.0173845,0.568129007 C88.9808971,0.581506212 88.9436888,0.595299587 88.9064805,0.609092962 C88.8009735,1.05060463 88.9145602,1.333906 89.4246183,1.43828194 C89.3602271,1.16694384 89.5717541,0.932369545 89.5759611,0.648337189 C92.3709984,1.02314551 95.1390787,1.55768313 97.867197,2.25273061 C97.8410321,2.28898116 97.8187761,2.32201387 97.8048953,2.3579 C97.7911259,2.39564396 97.8363631,2.51561406 97.8619565,2.51333206 C97.9266458,2.50385564 98.0277629,2.46758107 98.0480416,2.40781798 C98.0583482,2.38072317 98.0519861,2.34306885 98.0434317,2.29995256 C98.2104589,2.34287942 98.3751305,2.39004961 98.5411322,2.43452964 C98.3939761,2.7040222 98.4689763,2.85390265 98.7402392,3.07404166 C98.7751175,2.88475042 98.8094979,2.69959101 98.8435737,2.51556859 C106.020975,4.44971505 112.901884,7.47673969 119.216863,11.5311491 C119.208049,11.5458484 119.199652,11.5612686 119.19156,11.5755518 C119.314587,11.6371546 119.43667,11.6954578 119.560001,11.7559236 C120.379933,12.2888117 121.188584,12.8387847 121.988229,13.4064518 C121.663316,13.379714 121.297284,13.2767615 120.919697,13.1987414 C121.046149,13.4590455 121.164519,13.7000261 121.278939,13.930862 L121.61448,14.6021154 L121.781108,14.9321276 C122.289461,14.5607806 122.653017,14.2932152 122.909578,14.0633959 C123.5817,14.5566785 124.243567,15.0654928 124.900722,15.5827937 C124.784699,15.6565076 124.669524,15.7816313 124.555466,16.0185591 C124.481506,16.171787 124.305858,16.1405647 124.221462,16.1758357 C124.183242,16.4958438 124.146791,16.795609 124.108654,17.1107645 C123.648952,16.7456894 123.178995,16.3961461 122.711809,16.0430802 C122.711785,15.968128 122.711761,15.8931758 122.712703,15.8032494 C122.682861,15.8714176 122.658227,15.9269672 122.633705,15.9843747 C113.087318,8.80172388 101.916461,4.1956437 90.255136,2.47059869 C90.2154365,2.41182534 90.1722445,2.35699067 90.144829,2.2978529 C90.1258484,2.25498952 89.9668101,2.22090574 89.9400877,2.24786716 C89.8989786,2.28986247 89.8462846,2.35007962 89.8075093,2.40610519 C81.3310052,1.20661861 72.6082252,1.52658135 64.0713699,3.49033164 C64.0262464,3.46544521 63.9842591,3.44932023 63.9596394,3.46161219 C63.8977298,3.49255017 63.8270289,3.5199139 63.7599919,3.55861772 C57.1906714,5.10147256 50.7365437,7.61292966 44.5972525,11.1574511 C42.9314192,12.1192204 41.3225335,13.141338 39.7656013,14.2151542 L39.7471265,14.1931431 C39.7392572,14.2111419 39.7337435,14.2248974 39.7272043,14.240206 C16.8774282,30.0188609 5.9003652,57.4123346 10.127019,83.7753965 C9.65317046,84.1748777 9.16934183,84.5820431 8.65773545,85.0110126 C9.27121818,84.9249662 9.78864136,84.7357976 10.2489239,84.4892755 C10.4868992,85.8819577 10.7534627,87.2725511 11.0770911,88.657109 L28.6169963,78.53044 C28.6768491,78.5708501 28.735505,78.5975346 28.7666121,78.5814971 C28.9146348,78.5066083 29.1109987,78.4605148 29.1965419,78.1958391 L43.6750911,69.8366449 C43.6803599,69.8374474 43.6856287,69.8382498 43.6908975,69.8390523 C43.6935578,69.8336719 43.6951926,69.8298448 43.6974367,69.8237436 L52.705623,64.6228649 C52.6596575,64.8262461 52.634634,65.049253 52.6442342,65.327236 C53.070323,64.9832009 53.2808821,64.6703749 53.4026636,64.2204283 L66.1130219,56.8820995 C66.1838823,57.0064981 66.2494739,57.1300942 66.3210552,57.2540766 C66.8258956,56.9981677 67.3303797,56.7549589 67.8323667,56.5074251 C67.7500167,56.3531381 67.6604286,56.1963022 67.57414,56.0385226 L67.7118181,55.9590341 C67.7736023,55.9694959 67.8590543,55.9393823 67.9841657,55.8431216 C67.9782278,55.8311722 67.9732338,55.8225222 67.967712,55.8112937 L74.2612604,52.1777118 C74.3147292,52.1987412 74.3609897,52.2239323 74.4274334,52.2374706 C74.4489307,52.1731595 74.4502448,52.1205012 74.4587672,52.0636812 L101.941772,36.1963607 C101.970124,36.2338139 101.996536,36.2762312 102.030817,36.3006497 C102.048734,36.3133717 102.120466,36.2162131 102.211334,36.1272284 C102.187509,36.1092675 102.169785,36.0935507 102.150092,36.0760875 L120.459841,25.5049488 C120.450851,25.9205304 120.886401,25.9391358 122.334795,25.9707822 C121.917697,25.6445422 121.551468,25.3581329 121.195806,25.080039 L128.474006,20.8779687 C128.085236,20.5142297 127.68549,20.1664385 127.289846,19.8124347 L127.287289,19.7946888 C127.122043,19.340342 127.190495,18.7847085 127.182145,18.2541946 C127.179793,18.0969704 127.159614,17.9471555 127.139558,17.662715 C126.909535,18.5893903 126.862753,18.8412981 126.96654,19.5204658 C126.69602,19.281637 126.427855,19.0385649 126.153842,18.8036748 C126.11892,18.681594 126.105035,18.5310284 126.151103,18.3045209 C126.348879,18.2508846 126.644208,18.2879749 126.691743,18.1355873 C126.812931,17.7378829 126.836592,17.4176298 126.809774,17.1447823 C127.896751,18.0636319 128.968346,19.0057789 130.005765,19.9936071 L137.052578,15.9251274 C139.441402,14.5459394 142.495379,15.3642501 143.874567,17.7530737 L146.117308,21.6376152 C146.072764,21.6037443 146.028799,21.560889 145.986135,21.5086329 C145.904485,21.7201226 145.870907,21.9000132 145.863553,22.0570742 C145.824445,21.8528328 145.732457,21.7367876 145.563684,21.69583 C145.564701,21.6692928 145.56583,21.6446134 145.566736,21.6162183 C145.55177,21.6402366 145.536388,21.6635342 145.521422,21.6875525 C145.28266,21.6485585 144.904572,21.7361378 144.351456,21.9084307 L142.432911,18.5854141 C141.707527,17.329011 140.282967,16.737697 138.931968,16.9929343 C138.643848,16.3490696 138.139256,16.0810337 137.15511,16.3224551 C137.200772,16.8160494 137.242762,17.2733195 137.283028,17.7142853 L128.423332,22.829433 C128.429953,22.8092717 128.433192,22.7949069 128.440118,22.7736086 C128.168372,22.862263 128.013384,22.8335296 127.888674,22.9737688 C127.833513,23.0363715 127.794857,23.119239 127.765216,23.2093964 L34.7748132,76.8974305 C34.6917744,76.8434959 34.6058524,76.791226 34.5112804,76.7439502 C34.4492177,76.9028034 34.3722028,77.0424172 34.2911377,77.1766807 L33.0304097,77.9045623 C32.9982568,77.6857331 32.8409845,77.5381806 32.5366633,77.4755267 C32.4380417,77.7708197 32.4879106,77.9803816 32.6613458,78.1176414 L13.1442097,89.3858652 C12.3455361,89.6855142 12.1722546,89.7682584 12.0932426,89.9926414 L3.33013784,95.0520222 C1.74071232,95.9696775 1.19385172,98.010589 2.11150697,99.6000146 L10.2538765,113.703012 C10.1763099,113.765095 10.0948345,113.830396 9.99927705,113.909594 C10.0038625,114.893039 10.0055352,114.920906 10.6245519,115.057524 C10.637728,115.072023 10.650904,115.086521 10.6633593,115.101435 C10.6717344,115.104288 10.6804142,115.106005 10.6890941,115.107721 C10.7706976,115.442166 10.8568491,115.777829 10.9658841,116.221379 C11.1269611,116.040921 11.2687172,115.880267 11.4149914,115.714122 L17.5905407,126.410487 C18.5081959,127.999913 20.5491075,128.546773 22.138533,127.629118 L49.4161022,111.880406 C49.495348,112.125868 49.5756491,112.376487 49.6703012,112.673604 C49.7503344,112.261216 49.8140057,111.930358 49.873828,111.616138 L51.1525766,110.877852 C51.4794628,111.092788 51.9673385,111.20036 52.9860349,111.391671 C52.502641,110.992219 52.2487735,110.713981 51.9208181,110.537146 C51.8888407,110.520047 51.8533708,110.506887 51.8215049,110.491646 L91.9276483,87.3363537 C91.7977542,87.5641636 91.6709962,87.800735 91.5909668,88.0516552 C91.5116581,88.3021592 91.7108083,88.5572047 91.9235443,88.5477918 C92.307728,88.5306983 92.6536155,88.0743854 92.6579356,87.5375174 C92.660725,87.3292696 92.6062862,87.1367627 92.5720684,86.9642976 L98.6407185,83.4605608 L98.6966886,83.6723668 C98.7150139,83.6608256 98.7300398,83.6502282 98.7489745,83.6364129 L98.7063138,83.4226893 L122.6724,69.5858632 C122.721396,69.669063 122.778708,69.7416954 122.852205,69.7857614 C123.223739,70.0114418 123.370156,69.9470907 123.87819,69.2722191 C123.83085,69.1669185 123.7967,69.0328583 123.756525,68.9599432 L126.919518,67.1337885 C127.172537,67.3606161 127.336889,67.1042617 127.539408,66.7941557 C127.537632,66.7894146 127.535439,66.7839526 127.533663,66.7792115 L139.098626,60.1021771 L139.092168,60.1126331 C139.078785,60.1443874 139.155189,60.261741 139.16456,60.2563308 C139.227933,60.2062868 139.284201,60.1372784 139.366308,60.0514299 C139.342951,60.0226267 139.325308,60.0020572 139.307666,59.9814877 L139.59816,59.8137712 C139.672822,60.1195457 139.816263,60.1981955 140.07364,59.9198497 C140.071563,59.7547779 140.054141,59.6446983 140.028494,59.5653176 L140.714722,59.1691236 C140.742751,59.412439 140.871122,59.5382333 141.237544,59.4737285 C141.294344,59.2458311 141.246847,59.081994 141.098923,58.9473048 L141.537187,58.6942734 C141.547449,58.7037258 141.558961,58.7153407 141.56964,58.7255139 C141.571297,58.7034131 141.568577,58.6953725 141.570345,58.6751296 L153.666558,51.6913778 C153.97298,51.9940556 154.207172,52.3980238 154.322348,52.9687387 C154.502446,52.9560642 154.671092,52.9451957 154.843454,52.9341042 L150.478841,55.4540146 C152.817683,65.1083229 153.094155,75.0076147 151.480791,84.5534647 C151.394418,84.3073118 151.256162,84.1410914 151.001336,84.1575056 C151.074409,84.5237859 151.201373,84.8435748 151.156297,84.9685928 C150.91715,85.6314269 151.03559,85.9148099 151.180425,86.1906421 C149.902236,92.8278606 147.706728,99.2729041 144.642557,105.323722 C143.752512,105.784729 143.500463,105.729379 143.051031,104.702902 C149.958392,91.1106238 152.396135,75.4682831 149.726493,60.2220003 C149.991747,59.9506397 150.239857,59.6545779 150.576396,59.5333208 C150.808103,59.4485614 150.835195,59.0177229 150.633602,58.8400151 C150.548504,58.7642028 150.440764,58.7274128 150.388291,58.6981198 C150.144185,58.9428534 149.964398,59.2340685 149.769261,59.3005981 C149.700611,59.3248555 149.639422,59.3553773 149.584142,59.391138 C149.393565,58.3718708 149.183993,57.3529979 148.947082,56.3383763 L133.491811,65.2614811 C133.410861,65.2361348 133.36883,65.256557 133.342599,65.3476283 L81.1236639,95.4962447 C81.1303263,95.3463104 81.1371003,95.1982338 81.1442307,95.0374572 C80.8519106,94.9573023 80.6510904,95.1155345 80.5820825,95.4071854 C80.5481321,95.549808 80.4902312,95.7158695 80.4763605,95.8699655 L75.8890117,98.5184726 L75.8879265,98.5066048 C75.5515762,98.4384153 75.3389618,98.567896 75.1588131,98.940053 L57.8812892,108.915236 C57.7793099,108.943358 57.6780515,108.971065 57.5760722,108.999187 C57.5771356,109.029329 57.5789198,109.059054 57.5799831,109.089195 L31.550167,124.117517 C35.8422299,128.142322 40.5828703,131.564065 45.6321039,134.36169 C45.6518592,134.4858 45.6829029,134.617809 45.7376602,134.765921 C45.8539664,134.709344 45.963369,134.655792 46.076071,134.601295 C48.932325,136.157518 51.8831008,137.517885 54.910979,138.665545 C54.8158399,138.838689 54.7137453,139.026422 54.5861551,139.261551 C54.7739609,139.333809 54.8915498,139.472557 54.9547735,139.38896 C55.0780628,139.23128 55.1759657,139.029629 55.1959056,138.777841 C73.4831449,145.618561 94.4410397,144.909518 112.878383,135.240233 C112.901,135.380952 112.954106,135.482923 113.074539,135.495086 C113.174312,135.504759 113.343332,135.276465 113.435773,135.077006 C113.462152,135.019487 113.468096,134.963195 113.484466,134.90665 C113.777791,134.748832 114.06934,134.586272 114.361305,134.424434 C114.737478,134.416771 115.112626,134.410661 115.489133,134.408572 C115.370437,134.27623 115.256453,134.135402 115.141747,133.99499 C115.236592,133.941193 115.332492,133.892552 115.42692,133.838034 C127.071174,127.115221 136.067288,117.55694 142.078017,106.540056 C142.656563,106.723106 143.19562,106.894356 143.725581,107.063168 C139.878925,114.174132 134.822169,120.700674 128.627659,126.288667 C128.664612,126.171222 128.702664,126.022386 128.711505,125.921172 C128.725041,125.761502 128.673368,125.633715 128.54175,125.84522 C128.466726,125.968307 128.344822,125.950266 128.243431,125.994388 C128.222246,126.082547 128.20034,126.171121 128.179156,126.259279 C128.277808,126.318616 128.376104,126.390653 128.478686,126.428498 C128.138629,126.733435 127.782928,127.026259 127.435826,127.325653 C127.015999,127.221081 126.748379,127.378475 126.638182,127.8102 C126.712919,127.831445 126.776004,127.832506 126.841169,127.837171 C123.593674,130.579029 120.068836,133.080231 116.259261,135.27969 C87.7447506,151.74255 52.7039205,146.620424 30.0184077,125.001878 L22.9708733,129.070774 C20.8098313,130.318452 18.10835,129.762764 16.5912039,127.877437 C16.6630097,127.750442 16.7155304,127.58172 16.7424635,127.347038 C16.5686901,127.365673 16.4071707,127.377232 16.2446259,127.390345 C16.2133315,127.341135 16.1784329,127.294006 16.1488849,127.242828 L8.73606161,114.403441 C8.7233236,114.37139 8.70659516,114.34741 8.68903438,114.321988 L0.669851177,100.432355 C-0.709336801,98.0435313 0.109694654,94.9891383 2.49779748,93.6103664 L9.54533182,89.5414706 C2.16587852,59.0859673 15.2504022,26.1786553 43.7649121,9.71579529 C48.1259209,7.1979657 52.640242,5.1903889 57.2394026,3.66435932 C57.2783514,3.71683836 57.3250659,3.77444483 57.3675969,3.84311663 C57.5430926,3.74756075 57.7104522,3.70283525 57.7621128,3.61918719 C57.7827041,3.58327118 57.7799163,3.53682553 57.7700019,3.48968893 C58.0523674,3.3977868 58.3369552,3.31805711 58.6199599,3.23059146 C58.6007147,3.31378547 58.5818857,3.3977003 58.5622243,3.48017348 C58.6057349,3.49061347 58.6483315,3.50446446 58.6889588,3.51656914 C58.7063382,3.40850257 58.7229967,3.30085217 58.7400714,3.1939226 C66.7563144,0.726304028 75.0058374,-0.290177468 83.1385348,0.0707749611 Z M84.3416724,144.120307 C84.1410235,144.293818 83.9501316,144.455929 83.748041,144.630272 C84.0286309,144.881548 84.0589575,144.852506 84.3416724,144.120307 Z M21.1992329,128.41266 C20.6505831,128.591025 20.1246134,128.762061 19.4589585,128.979145 C20.4092823,129.558427 20.5083599,129.623361 21.0241173,129.120135 L21.2132083,128.931277 C21.2853647,128.859823 21.2145618,128.655619 21.1992329,128.41266 Z M33.705793,121.654682 L33.6690604,121.658193 C33.4794229,121.754225 33.2057212,121.797875 33.1959092,122.330225 C33.5090692,122.198439 33.7120242,122.125473 33.9017433,122.024589 C33.9479878,121.999812 33.9876749,121.847149 33.961962,121.822589 C33.9071524,121.770938 33.821798,121.701895 33.7532823,121.670402 L33.705793,121.654682 Z M7.02730202,111.034271 C7.3887336,112.0981 7.39810436,112.09269 7.84594021,112.204157 C7.85241694,111.734282 7.65015823,111.38396 7.02730202,111.034271 Z M6.96551511,110.582664 C7.23973766,111.212447 7.77116024,111.616847 8.55864586,111.795559 C8.41295369,111.095414 7.55558451,110.292926 6.96551511,110.582664 Z M55.7976439,108.532408 C55.5375686,108.784439 55.2774933,109.036471 55.0217429,109.286005 C55.1223504,109.390346 55.217496,109.496879 55.3094237,109.599504 C55.588175,109.391473 55.8715558,109.179807 56.1556575,108.967726 C56.0367902,108.820106 55.9183391,108.673206 55.7976439,108.532408 Z M127.668621,103.077441 C127.904246,103.107673 128.133928,103.194198 128.363217,103.354955 C129.174841,103.923394 129.30683,104.954382 128.537834,106.052874 C128.182978,106.558576 127.73114,106.939583 127.31346,107.131714 L126.819723,106.472969 C127.156619,106.339012 127.6364,106.019722 127.930722,105.598947 C128.358306,104.987823 128.253661,104.486954 127.87069,104.219822 C127.512985,103.969819 127.15696,104.02736 126.616347,104.364472 C126.961551,103.94027 127.304422,103.502037 127.657572,103.123225 C127.662922,103.119175 127.665634,103.102232 127.668621,103.077441 Z M125.097961,101.31039 L125.561355,101.948209 C125.31981,102.049221 124.933365,102.277141 124.631752,102.70693 C124.284186,103.203618 124.376955,103.680587 124.720681,103.921361 C125.102932,104.188909 125.469047,104.032316 126.119046,103.591683 C126.558349,103.293841 126.951825,103.114722 127.322469,103.070847 C126.969014,103.450796 126.575658,104.004676 126.284735,104.562848 C125.468417,105.096621 124.779253,105.158124 124.254914,104.790962 C123.509883,104.269613 123.319774,103.239503 124.014906,102.246129 C124.342571,101.778231 124.764343,101.461677 125.097961,101.31039 Z M123.632497,103.821108 C123.781203,104.062028 123.942428,104.169815 124.190161,103.997953 C124.138303,103.550225 123.954898,103.538859 123.632497,103.821108 Z M129.736033,97.0461038 C129.737409,97.1000922 129.737313,97.1482026 129.739522,97.2036327 C129.776833,97.166713 129.814978,97.1312351 129.852706,97.0950363 C129.967216,97.1452173 130.074822,97.198423 130.172531,97.2544603 C130.354385,97.3580264 130.484606,97.4587251 130.569644,97.5211165 L128.60854,100.962893 C129.823545,101.62906 130.758282,101.14225 131.26608,100.252227 C131.630156,99.6143372 131.738211,99.1655874 131.786438,98.7513797 L132.510268,98.9629994 C132.473931,99.3578483 132.330023,99.9858794 131.885329,100.765464 C131.025345,102.274018 129.520251,102.608611 128.041512,101.766974 C126.564214,100.924505 125.896334,99.3898205 126.710119,97.962722 C127.489789,96.5947254 128.807177,96.6741358 129.736033,97.0461038 Z M127.307131,98.3974921 C126.793596,99.297555 127.398733,100.165898 127.975666,100.589194 L129.459208,97.988267 C128.898055,97.6538931 127.878643,97.3947569 127.307131,98.3974921 Z M134.945413,78.6911759 C134.928517,78.8383684 134.905216,78.9844537 134.886879,79.1324784 C134.84614,79.1185159 134.815493,79.0987271 134.767546,79.0889263 C134.684299,79.3359376 134.708871,79.5216605 134.817364,79.6579706 C134.278077,83.7012941 133.304525,87.6666435 131.885626,91.4998669 L131.104566,91.2107621 C132.470632,87.5224134 133.416781,83.7093621 133.955729,79.8219326 C133.975876,79.8718111 133.992583,79.9140652 134.014923,79.9694057 C134.177083,79.7075893 134.341569,79.4348191 134.506196,79.1706173 C134.606857,79.0087015 134.72966,78.7186693 134.808774,78.7258536 C134.858965,78.7295532 134.903909,78.7141768 134.945413,78.6911759 Z M134.456619,74.0324421 L135.288645,74.0585737 C135.245901,75.4028474 135.14789,76.7396242 135.009587,78.0698698 C134.972357,78.1019368 134.934518,78.1362777 134.89951,78.1805171 C134.651296,78.4997052 134.469703,78.4315494 134.283813,78.2793752 C134.242568,78.2445605 134.20437,78.1983757 134.165867,78.153328 C134.313199,76.7871146 134.413111,75.4136792 134.456619,74.0324421 Z M113.988797,74.7396645 C113.84383,75.1760866 113.996148,75.4399096 114.446585,75.5325752 C114.592273,75.0957369 114.439955,74.8319139 113.988797,74.7396645 Z M151.269777,72.1972823 C151.124088,72.6341206 151.276407,72.8979436 151.727564,72.990193 C151.872531,72.5537709 151.720213,72.2899479 151.269777,72.1972823 Z M150.489626,64.2755268 C150.397598,64.6371738 150.538114,64.8472613 150.997142,65.0147377 C151.058758,64.5005339 151.034614,64.1790484 150.489626,64.2755268 Z M133.809637,63.5113845 C133.866739,63.7917369 133.915033,64.0185469 133.987042,64.3546859 C134.125214,64.0846139 134.203001,63.9330207 134.285195,63.7740779 C134.120122,63.6829292 133.991268,63.6112348 133.809637,63.5113845 Z M148.377907,54.944691 C148.176196,55.4359798 148.1404,55.7901496 148.325295,55.9505875 C148.384791,56.0036977 148.535507,55.7686715 148.704522,55.6086194 C148.562094,55.3169807 148.47741,55.1486634 148.377907,54.944691 Z M83.7713787,47.2502493 C83.5279598,47.3014046 83.4676813,47.489983 83.3952384,47.7057678 C83.3308281,47.8938484 83.2095081,48.0532752 83.0658148,48.3121186 C83.2819399,48.3218932 83.4599647,48.3305986 83.7123323,48.341554 C83.7367561,47.8911118 83.7542646,47.5801777 83.7713787,47.2502493 Z M96.8725992,39.7948609 C96.5868488,40.0540271 96.2879939,40.1756326 95.9568884,40.0332934 C96.1402626,40.6405613 96.2775726,40.7102564 96.6507006,40.4592701 C96.8908398,40.2975591 97.1373629,40.1552289 97.4390254,39.9685697 C97.3053728,39.6305371 97.1375869,39.5563319 96.8725992,39.7948609 Z M111.955741,30.6050919 L111.868435,30.6094395 C111.569149,30.6522217 111.493072,30.9821804 111.442677,31.3328449 C111.43706,31.3697266 111.487319,31.4118313 111.512066,31.4513653 C111.68207,31.3512913 111.853516,31.250385 112.020748,31.1538335 L111.950585,30.9499369 L111.927173,30.8436006 C111.918083,30.7729216 111.942374,30.6868144 111.955741,30.6050919 Z M64.306353,18.5631716 L65.9206218,22.8307449 C66.1616266,23.4662505 66.246751,24.0581602 66.1768276,24.6079155 C66.106488,25.1569501 65.8874982,25.6399534 65.5171683,26.0555953 C65.1468383,26.4712372 64.6404687,26.8010729 63.9995012,27.04427 C63.3540971,27.2881062 62.7538422,27.3770877 62.1998734,27.3115191 C61.6454884,27.2452297 61.1589925,27.0301787 60.7414111,26.6648129 C60.3231089,26.2998632 59.9936077,25.7990671 59.7534354,25.1650032 L59.6342373,24.8503418 L60.6187292,24.4780103 L60.7379273,24.7926717 C60.9138521,25.2571917 61.1485043,25.6253336 61.441884,25.8970974 C61.7356798,26.1695821 62.0736969,26.3338806 62.4559353,26.3899931 C62.8381736,26.4461056 63.2488268,26.3916246 63.6896411,26.2245808 C64.1252981,26.0585924 64.4676534,25.829217 64.715154,25.5354292 C64.9622384,25.2409205 65.1044064,24.8945363 65.1439318,24.4968857 C65.1815994,24.0993467 65.1124708,23.6683172 64.9365461,23.2037973 L63.3218611,18.9355031 L64.306353,18.5631716 Z M89.4922872,18.0731159 C92.0245248,18.5054635 94.5115398,19.1225026 96.9484714,19.8991674 C96.9554588,19.9845159 96.9610861,20.0658441 96.9695749,20.1637812 C97.075009,20.1000255 97.1871316,20.0545136 97.2811737,20.0059849 C100.382463,21.0161116 103.399041,22.2923555 106.298025,23.8460131 L105.904643,24.579634 C100.708143,21.7949504 95.1392135,19.8817232 89.35285,18.8936699 Z M78.1176492,22.2302021 C78.2531692,22.3384138 78.3301905,22.4784774 78.3488248,22.6522508 C78.3672361,22.8223086 78.3204223,22.97428 78.2091043,23.107749 C78.0970655,23.2416341 77.954007,23.3184624 77.7809544,23.3366805 C77.6079018,23.3548986 77.4538794,23.3111912 77.3176386,23.2033957 C77.181814,23.096321 77.1049042,22.9581152 77.0864929,22.7880574 C77.0774247,22.6991048 77.0858276,22.6154429 77.1098438,22.5371831 L77.1072555,22.7674202 C77.1534483,22.7542062 77.2026358,22.7411854 77.2506864,22.72786 C77.2490335,22.5884932 77.2476852,22.4479893 77.2463369,22.3074855 C77.3525573,22.1884929 77.4849965,22.1149124 77.6473183,22.0980841 C77.8255282,22.0788106 77.9811038,22.1235436 78.1176492,22.2302021 Z M79.763708,22.0535382 C79.8988118,22.1610291 79.9762493,22.3018135 79.9948836,22.475587 C80.0132949,22.6456447 79.9667858,22.7964792 79.8551631,22.9310851 C79.7431242,23.0649703 79.6007866,23.1413823 79.427734,23.1596005 C79.2539606,23.1782348 79.0992173,23.1349435 78.9636974,23.0267318 C78.8285936,22.919241 78.7512676,22.7803143 78.7332725,22.6109774 C78.7146382,22.437204 78.7606197,22.2837908 78.8696637,22.1497126 C78.9791239,22.0163551 79.1214615,21.9399431 79.2940979,21.9210041 C79.471587,21.9021468 79.6278834,21.9464635 79.763708,22.0535382 Z M81.8834734,21.7353393 C82.0612154,21.7269081 82.2146583,21.7796 82.3446347,21.8948567 C82.4731694,22.0109457 82.5425663,22.1544502 82.5511906,22.3291974 C82.5591758,22.4995081 82.5039868,22.6486261 82.3844868,22.7762468 C82.2657076,22.9034513 82.1195129,22.9715181 81.9447658,22.9801424 C81.7707395,22.9883506 81.6191543,22.9355472 81.4895941,22.8210113 C81.3606433,22.7042015 81.2920787,22.5621386 81.2829566,22.3915233 C81.2747484,22.2174969 81.3298258,22.0665211 81.446331,21.9387073 C81.5636685,21.8123351 81.7087262,21.7439636 81.8834734,21.7353393 Z M66.4239808,14.8712906 L67.9366088,20.3095435 C68.0967073,20.8831555 68.3325563,21.265023 68.644765,21.452872 C68.956669,21.641858 69.3631328,21.6666841 69.8641562,21.5273503 L69.9129276,21.5136087 L69.9304804,21.5140467 L72.9937936,20.8353338 L73.0046061,20.8290912 L73.0696001,20.8184778 L76.1567567,20.3009198 L76.2053867,20.2786098 L76.249863,20.2740757 C76.258736,20.2727973 76.2660558,20.2704935 76.2742079,20.2696312 C76.2523964,20.5647887 76.4129543,20.7546551 76.7746232,20.82841 C76.8722193,20.5346702 76.8234874,20.3254129 76.650773,20.1877369 C76.9296459,20.0997735 77.1517943,19.9551773 77.309757,19.7476839 C77.5367916,19.4484122 77.6220637,19.0301165 77.5643249,18.4906341 L77.3359043,16.3687242 L78.3885548,16.2559447 L78.6165592,18.3771337 C78.6735772,18.9170323 78.8465946,19.3082647 79.1315912,19.552191 C79.4170038,19.7968382 79.7994215,19.8932135 80.2781233,19.8417332 L80.3233204,19.8367829 L80.3714905,19.8502994 L81.5824366,19.7902934 L81.3698906,15.4602127 L82.4269418,15.4083252 L82.4643983,16.1690383 C82.3902149,16.3185506 82.3839766,16.4941898 82.4910818,16.712995 L82.6834419,20.6135833 L80.894682,20.7015592 C80.9166115,20.6879371 80.9412013,20.6689347 80.9613845,20.6572819 C80.9361534,20.578622 80.9224256,20.486593 80.8804522,20.4272103 C80.8656114,20.4098288 80.7856892,20.4761551 80.6831086,20.5315356 C80.7561454,20.611428 80.7982005,20.665958 80.8482364,20.704347 L80.3075791,20.7300867 L80.2784334,20.7228864 L80.1116751,20.7403538 C79.617806,20.7938632 79.1872343,20.7339396 78.8194621,20.5647147 C78.4519946,20.3943529 78.1618845,20.1149347 77.9487157,19.7257394 L77.925701,19.7274937 C77.8295049,20.1501742 77.6483445,20.4806266 77.3822198,20.718851 C77.1766664,20.9038434 76.9053145,21.0114922 76.6005355,21.0778906 L76.5805375,21.0615645 C76.5743846,21.0708835 76.5696733,21.0793702 76.5635204,21.0886892 C76.5292771,21.0959652 76.5010533,21.110338 76.4648406,21.1158677 L76.4044842,21.1478312 L73.233146,21.6793918 L70.046585,22.3860122 L69.9347073,22.4169662 C69.1674513,22.6311989 68.5307724,22.585511 68.0255029,22.281344 C67.5190965,21.9768724 67.1515307,21.4134758 66.9228056,20.5911542 L65.4094569,15.1533174 L66.4239808,14.8712906 Z M145.036794,20.2921487 C144.834201,21.5826233 144.834201,21.5826233 145.287256,21.4517623 C145.200612,21.0519893 145.119743,20.6738711 145.036794,20.2921487 Z M131.175987,20.5722194 C131.546721,20.8963946 131.574751,20.8850166 131.763255,20.2792932 C131.525397,20.1186783 131.336986,20.2351462 131.175987,20.5722194 Z M86.578359,1.47748816 C86.5360233,1.49904738 86.4714716,1.67855969 86.4883494,1.73609254 C86.5519221,1.96273129 86.7013725,1.93026787 86.8961294,1.80148615 C86.8362644,1.54964029 86.7678033,1.38445118 86.578359,1.47748816 Z M80.3091865,0.96328888 C80.145431,1.00593353 80.0613529,0.99680981 80.0071873,1.05114883 C79.9321476,1.12426725 79.8804433,1.24446252 79.7809194,1.40668296 C80.0819054,1.53181194 80.1553658,1.28948995 80.3091865,0.96328888 Z M121.678734,112.667835 L122.313311,113.076111 C122.166492,113.444403 121.850087,114.006716 121.202752,114.628419 C120.989136,114.834405 120.76455,114.988098 120.537073,115.11847 C120.403548,114.832264 120.25806,114.595253 120.097614,114.407244 C120.333362,114.302851 120.555176,114.152682 120.75471,113.960592 C121.28351,113.451535 121.514229,113.052104 121.678734,112.667835 Z M126.088923,16.6839586 C126.088923,16.6839586 126.088923,16.6839586 126.088923,16.6839586 C126.088923,16.6839586 126.088923,16.6839586 126.088923,16.6839586 C126.088923,16.6839586 126.088923,16.6839586 126.088923,16.6839586 C126.088923,16.6839586 126.088923,16.6839586 126.088923,16.6839586 M77.3963835,128.985751 C78.3350952,128.788822 79.2545019,128.661666 80.1537457,128.782583 C79.8604482,128.853885 79.5529193,128.905533 79.2241359,128.913707 C78.921362,128.920321 78.6417661,128.915474 78.4070766,128.863557 L78.4831192,132.006674 L77.4706478,132.030902 Z M85.7233987,125.736481 C85.8389702,125.723577 85.9211606,125.726102 86.0170249,125.738993 L86.1224825,126.700722 C86.0166083,126.688804 85.9099615,126.688866 85.7713752,126.703524 C85.0530737,126.78281 84.6032478,127.383709 84.5485935,128.163003 C84.5410689,128.304785 84.5352985,128.469582 84.5546536,128.642939 L84.8616237,131.433599 C84.7962893,131.50688 84.7283762,131.58069 84.6601585,131.655636 L83.875919,131.742236 L83.451257,127.885424 C83.4221128,127.62353 83.3929766,127.38662 83.3620941,127.15168 C83.6601903,126.998796 83.9474143,126.838734 84.1875674,126.633765 L84.2597148,127.13994 L84.3067698,127.134879 C84.4776646,126.353829 85.0395635,125.812207 85.7233987,125.736481 Z M94.1305091,123.894925 C94.6787208,123.734114 95.2049994,123.748392 95.5601291,123.837455 L95.5250268,124.625644 C95.2731111,124.553878 94.8288954,124.490298 94.3265717,124.639033 C93.7450604,124.81042 93.5203697,125.241932 93.6392354,125.644245 C93.7712035,126.090894 94.1545949,126.197279 94.9379386,126.257284 C95.9820549,126.337808 96.6009943,126.66573 96.8383095,127.469637 C97.1194283,128.41933 96.5795192,129.30867 95.2941112,129.687504 C94.7019807,129.862138 94.1115185,129.878189 93.6648197,129.767026 L93.6908996,128.946564 C94.0372161,129.050327 94.6100081,129.100223 95.1024333,128.95432 C95.8176701,128.743209 96.0472055,128.286795 95.9148212,127.839425 C95.7766623,127.370401 95.4215603,127.194822 94.6155365,127.142145 C93.5409522,127.082095 92.9239581,126.680967 92.733278,126.032746 C92.4762534,125.161408 92.9690397,124.238724 94.1305091,123.894925 Z M106.253937,116.925351 C106.770126,117.038681 107.224337,117.399238 107.517522,117.92869 C108.021653,118.835165 107.7855,119.752886 107.198151,120.398584 L107.21563,120.428859 C107.846657,120.318266 108.433426,120.632085 108.992454,121.254095 C109.747955,122.086563 110.278572,122.6577 110.5694,122.843476 L109.652418,123.352713 C109.433065,123.220819 108.951883,122.71533 108.282757,121.967547 C107.553682,121.134239 106.988898,120.981687 106.168134,121.397889 L105.332717,121.861957 L106.984476,124.834422 L106.099321,125.327206 L104.525304,122.494388 C104.524412,122.479525 104.523824,122.463525 104.516861,122.453129 C104.497341,122.428198 104.480597,122.403265 104.465206,122.378334 L104.377727,122.228788 L104.178322,121.870091 C103.890469,121.193395 103.981316,120.520071 104.208922,119.838911 L104.959404,121.19039 L105.865879,120.686259 C106.812416,120.159959 107.124013,119.306324 106.688052,118.522917 C106.298286,117.819523 105.675768,117.661859 104.965414,117.879762 C105.066859,117.569383 105.15735,117.256679 105.234309,116.942176 C105.603941,116.856596 105.9378,116.852219 106.253937,116.925351 Z M113.962226,116.70469 C114.082543,116.876462 114.1566,117.023043 114.208012,117.115421 L110.969215,119.399576 C111.787837,120.519494 112.840898,120.475677 113.67988,119.884608 C114.279473,119.461544 114.567354,119.101193 114.787328,118.74641 L115.35469,119.246353 C115.15293,119.587738 114.755344,120.096004 114.022681,120.613196 C112.60232,121.613929 111.096512,121.278083 110.115836,119.887469 C109.135161,118.496855 109.182014,116.823434 110.525388,115.875799 C112.030138,114.81481 113.363585,115.857586 113.962226,116.70469 Z M110.881251,116.523801 C110.033315,117.121001 110.213058,118.164784 110.556132,118.792299 L113.004323,117.066476 C112.637791,116.52651 111.824693,115.858966 110.881251,116.523801 Z M112.535367,111.158964 L117.803119,117.541249 L117.011491,118.194361 L111.744459,111.81166 L112.535367,111.158964 Z M120.553556,110.774568 C120.699488,110.925785 120.795169,111.05988 120.85986,111.14363 L118.003044,113.889633 C118.065372,113.952642 118.128859,113.997681 118.192487,114.05129 C117.815864,114.212989 117.595018,114.44141 117.503858,114.742968 C117.412964,114.663774 117.319521,114.591819 117.232394,114.500839 C116.05309,113.273919 115.846751,111.613085 117.03173,110.474335 C118.358777,109.198779 119.834462,110.026801 120.553556,110.774568 Z M119.544066,110.239633 C119.165975,110.8366 119.168724,110.851351 119.662176,111.051814 C119.644699,111.114765 119.629659,111.16862 119.612791,111.229297 C119.352689,110.965231 118.962316,110.705256 118.524291,110.664052 C118.539383,110.598634 118.557216,110.522982 118.579285,110.424703 C118.472611,110.51128 118.376942,110.58862 118.276227,110.668873 C118.01547,110.698322 117.745671,110.806996 117.481576,111.060388 C116.733809,111.779481 117.06813,112.783035 117.502414,113.352123 L119.577228,111.357473 C119.493692,111.65559 119.415254,111.93923 119.338227,112.215327 C119.668438,111.901659 119.87956,111.52988 119.967901,111.081941 C119.993952,110.950607 119.949197,110.776536 119.891126,110.672626 C119.795407,110.506835 119.663015,110.382401 119.544066,110.239633 Z M116.353726,112.392975 C116.208342,112.828676 116.360661,113.092499 116.811097,113.185164 C116.956785,112.748326 116.804467,112.484503 116.353726,112.392975 Z M123.838385,106.428698 L125.447868,107.789773 C125.821871,108.106294 126.201023,108.396775 126.539383,108.591631 L125.936942,109.302748 L125.342272,108.906992 L125.31957,108.932593 C125.454059,109.458519 125.365584,110.177568 124.846743,110.79044 C124.109258,111.66218 123.11916,111.58699 122.496857,111.060139 C121.457337,110.180206 121.670873,108.773848 123.086671,107.119315 L122.997858,107.043725 C122.642716,106.743226 121.919089,106.298902 121.174618,107.178519 C120.835811,107.578845 120.606574,108.102364 120.545886,108.569899 L119.880384,108.311148 C119.949891,107.760672 120.235268,107.116319 120.694236,106.574536 C121.807811,105.25884 122.976796,105.698807 123.838385,106.428698 Z M123.64345,107.560975 C122.903957,108.399274 122.234785,109.495876 123.070356,110.202344 C123.576803,110.631736 124.102728,110.497247 124.441535,110.096922 C124.915804,109.536694 124.860745,108.880332 124.602058,108.447256 C124.543824,108.35305 124.470728,108.259737 124.390208,108.191854 L123.64345,107.560975 Z M106.950531,97.2499644 L107.603554,97.7667676 L100.541908,106.688736 L89.8047909,108.395614 C89.8164037,108.290876 89.8328989,108.192931 89.8622656,108.110621 C89.9571278,107.852099 90.124529,107.6776 90.2825215,107.476817 L100.0902,105.916343 L106.950531,97.2499644 Z M89.6696707,125.110525 C91.0359118,125.171342 91.665492,126.428274 91.8405273,127.319077 C91.8804679,127.52476 91.8888394,127.689081 91.8984951,127.794033 L88.010568,128.557668 C88.2650882,129.747616 89.0510788,130.193417 89.9199619,130.150214 C89.8251194,130.297237 89.7278098,130.446646 89.6168642,130.617383 C89.8945169,130.788661 89.9688235,130.504523 90.0155135,130.139258 C90.1048823,130.130911 90.1950834,130.124005 90.2857525,130.106257 C91.0062523,129.964191 91.4156905,129.75279 91.7622593,129.51906 L92.0749328,130.205453 C91.751988,130.435155 91.1816937,130.737504 90.3015105,130.909292 C89.7321258,131.021778 89.2207018,130.981623 88.7720774,130.832167 C88.9268185,130.782233 89.0797017,130.73241 89.2409303,130.67873 C88.5540196,130.156503 88.3833045,130.027283 88.1063279,130.494749 C87.568834,130.094816 87.1920965,129.465593 87.0326985,128.655145 C86.7050134,126.985559 87.4296507,125.477297 89.0413692,125.160917 C89.1154293,125.14603 89.1777113,125.15236 89.2480856,125.144407 C89.224627,125.231956 89.202387,125.314957 89.1778212,125.408911 C89.4937434,125.503312 89.6020506,125.319681 89.6696707,125.110525 Z M99.5311497,122.204788 L99.6846932,122.211373 C99.7473994,122.243408 99.8063083,122.280518 99.8707608,122.310584 L99.8974405,123.016008 C99.6408733,122.96615 99.1928982,122.939341 98.7045909,123.128999 C98.1385676,123.347188 97.9495698,123.795576 98.100598,124.187009 C98.2691651,124.622138 98.6595337,124.695662 99.4461011,124.691334 C100.493656,124.686257 101.138173,124.961929 101.441671,125.743963 C101.798871,126.668953 101.334093,127.598532 100.084046,128.081894 C99.5075149,128.305188 98.9203682,128.370263 98.4661943,128.296094 L98.4236163,127.474905 C98.5384232,127.498965 98.6801238,127.511342 98.8303628,127.516868 C98.8017906,127.568925 98.7715836,127.624809 98.7440369,127.675313 L98.8201742,127.825498 C99.0120419,127.766622 99.2009148,127.707554 99.494955,127.617561 C99.4611636,127.564027 99.4379696,127.525519 99.4097815,127.47836 C99.5533837,127.454079 99.6967329,127.419371 99.8326727,127.366836 C100.528037,127.098 100.719189,126.62338 100.551038,126.188971 C100.374118,125.732715 100.005937,125.587753 99.1982431,125.600435 C98.1215801,125.630006 97.4737398,125.280326 97.2296586,124.64948 C96.9017101,123.80179 97.3164817,122.840533 98.4481121,122.403434 C98.8996273,122.22829 99.3393446,122.185861 99.6846932,122.211373 Z M79.22247,124.078587 C80.2233783,124.054308 80.9627098,124.269472 81.4383976,124.677217 C81.7553714,124.938242 81.9800137,125.307358 82.0895764,125.753487 C81.9882785,126.004192 82.0463871,126.139797 82.1605052,126.26421 C82.1612858,126.277215 82.1649497,126.288555 82.1650094,126.301976 C82.1756234,126.714889 82.1053611,127.072619 81.9761601,127.386528 C81.590308,127.562206 81.1964132,127.647378 80.8487169,127.651094 C80.7700491,127.651341 80.6929642,127.659324 80.6144078,127.661429 C80.9731032,127.368798 81.167541,126.936492 81.1538842,126.373481 C81.1282074,125.336858 80.3825234,124.85433 79.2650699,124.881502 C78.8234569,124.892347 78.4866707,124.934936 78.3126305,124.986402 L78.3832725,127.890439 C78.0470738,127.949028 77.7110164,128.016185 77.3743796,128.092327 L77.2815119,124.277501 C77.769212,124.183342 78.4073742,124.098425 79.22247,124.078587 Z M90.8192107,127.258067 C90.7049543,126.615699 90.2356675,125.67469 89.1030809,125.897054 C88.0858128,126.096088 87.8237117,127.122016 87.8806743,127.834946 Z M54.118074,120.415827 C59.316543,123.202257 64.8854727,125.115484 70.6710039,126.102095 L70.5308459,126.923066 C68.4646798,126.570512 66.4284219,126.09497 64.4233804,125.512022 C64.3469983,125.376395 64.214718,125.253818 63.8412353,125.262811 C63.8560541,125.298467 63.8645189,125.321451 63.8780893,125.354944 C60.3752927,124.296947 56.978533,122.893242 53.724692,121.149448 Z M20.131539,101.682709 L20.8664956,102.955692 L18.6816662,104.217103 L22.3847485,110.63103 L20.8587558,111.512062 L18.0733288,106.687561 C18.1480836,106.50408 18.1080059,106.476281 17.9484778,106.471313 L17.1556736,105.098136 L14.97589,106.356634 L14.2409335,105.083652 L20.131539,101.682709 Z M28.0568532,102.31621 L31.5021401,105.367101 L29.886044,106.300155 L28.1422932,104.671563 L25.5739834,106.154378 L26.11251,108.478806 L24.5757049,109.366081 L23.6468858,104.782534 C23.847937,104.653002 24.0396692,104.517317 24.2171481,104.380249 C24.4726099,104.18182 24.7365364,104.006375 25.0009906,103.83351 L25.2363189,104.840395 L27.1847167,103.715487 L26.4382697,103.015229 C26.968592,102.755181 27.508546,102.525132 28.0568532,102.31621 Z M33.7595886,95.0422655 C34.1764229,95.2398694 34.5130384,95.5299207 34.7687142,95.9128356 L33.3270584,96.7451759 C33.1870561,96.5809248 33.0160662,96.4595531 32.8133678,96.3814769 C32.6102534,96.30268 32.3846678,96.2781841 32.1350581,96.3069639 C31.8861691,96.3353275 31.6251836,96.4293025 31.351269,96.5874472 C30.9346304,96.8279935 30.6627252,97.1128049 30.5360809,97.4444599 C30.4090205,97.7753941 30.4324141,98.0905854 30.6059571,98.3911706 C30.7403801,98.623998 30.9433473,98.7624684 31.213001,98.8066934 C31.4833755,98.8505022 31.8077961,98.8131301 32.1859581,98.6957141 L33.5390423,98.2826133 C34.0097829,98.1357746 34.449767,98.060515 34.8582737,98.0572507 C35.2660596,98.0544025 35.6399905,98.1460666 35.9773765,98.3309128 C36.0171196,98.3531389 36.0501305,98.3936686 36.0889597,98.4193057 C36.1010489,98.6766295 36.2062722,98.820594 36.5179409,98.7944286 C36.6372761,98.9312066 36.7534532,99.0774968 36.8570796,99.2569829 C37.1325842,99.734171 37.2558587,100.222361 37.2265982,100.72269 C37.1969216,101.222298 37.0147838,101.704208 36.6790477,102.168115 C36.3444486,102.632327 35.8519999,103.051197 35.2018131,103.426583 C34.7145335,103.707914 34.2540936,103.895899 33.8230721,103.990012 C33.3920506,104.084125 32.9923651,104.097674 32.6270105,104.030852 C32.260935,103.964447 31.9353512,103.833337 31.6517008,103.636688 C31.3680505,103.44004 31.1310528,103.194351 30.9402916,102.898901 L32.4100597,102.05033 C32.520492,102.181676 32.6542358,102.285147 32.8092399,102.363848 C32.9642441,102.44255 33.1370678,102.488858 33.3259647,102.504742 C33.5155825,102.520209 33.7173348,102.50176 33.9315264,102.448257 C34.1457179,102.394754 34.3654152,102.302512 34.5910343,102.17225 C34.9060361,101.990384 35.1454982,101.792542 35.3097253,101.577588 C35.4739524,101.362633 35.5641412,101.144292 35.5805965,100.921426 C35.5974679,100.699281 35.5449904,100.483537 35.4234687,100.273055 C35.2694857,100.006349 35.0514846,99.8534915 34.7683283,99.8141789 C34.4858929,99.7744502 34.1177467,99.8226507 33.6657476,99.958669 L32.5751504,100.290383 C32.1709152,99.258956 31.1681219,99.717781 30.4107906,100.09736 C30.2905756,100.157155 30.1701675,100.219945 30.0503686,100.280461 C30.0222185,100.264997 29.9897732,100.258741 29.9619277,100.24214 C29.6404,100.048138 29.3667574,99.7572902 29.1436902,99.3709264 C28.8723473,98.9009466 28.7581987,98.4219044 28.801133,97.931942 C28.8436511,97.4412588 29.0256556,96.9757645 29.3464255,96.5358754 C29.6675002,96.0948492 30.1095208,95.7118217 30.6732082,95.3863766 C31.2585205,95.0484464 31.816095,94.8572407 32.3433532,94.8132873 C32.8701951,94.7686129 33.3420333,94.8450777 33.7595886,95.0422655 Z M24.4964626,99.1630041 L27.3309499,101.673675 C26.8359263,101.931605 26.3404865,102.188814 25.8387823,102.453485 L24.4497653,101.149656 L24.3820075,101.188776 L24.8049875,102.998447 C24.3502486,103.237924 23.8966467,103.477706 23.4325371,103.722593 L22.7167385,100.190528 L23.1932058,99.9154398 C23.1679373,100.153005 23.297633,100.344351 23.6290074,100.547084 C23.7760563,100.462185 23.8557417,100.435401 23.9066078,100.382006 C24.0038219,100.280707 24.084449,100.163997 24.1718164,100.053967 C24.0704742,99.9932998 23.9774991,99.9105022 23.8665711,99.8765139 C23.7252488,99.8331629 23.5774988,99.8069784 23.4317998,99.7776875 L24.4964626,99.1630041 Z M29.4111961,97.4720783 C29.8526859,97.595859 30.1302047,97.4356334 30.2437523,96.9914017 C29.8022626,96.8676211 29.5247438,97.0278466 29.4111961,97.4720783 Z M146.624797,22.5167786 L147.03306,23.2239107 C147.028462,23.3274811 147.035956,23.4336818 147.061641,23.5447571 C147.094263,23.4980505 147.11857,23.4619115 147.147091,23.4214176 L156.06104,38.8608303 C155.789001,38.8141382 155.527499,38.769051 155.270545,38.7251824 C155.206245,38.821895 155.139447,38.9142827 155.081328,39.0083867 C155.547024,39.2123804 156.010282,39.4254701 156.490527,39.6047247 L159.353362,44.5632998 C160.529043,46.5996386 160.103539,49.1154306 158.473999,50.6694302 C158.169835,50.6653128 157.863762,50.6728701 157.559019,50.6777372 C157.544819,50.758018 157.532589,50.8400451 157.520552,50.9190774 C157.658077,50.9675041 157.814439,50.9570001 157.929635,51.0682962 C157.939898,51.0777486 157.947307,51.0955762 157.956545,51.1065818 C157.819261,51.2050647 157.675348,51.2987249 157.525416,51.3852882 L157.183743,51.5825529 C156.97489,51.4205699 156.673414,51.3245569 156.302709,51.2617856 C155.908543,51.1933375 155.493471,51.0437324 155.163479,50.8267456 L156.693075,49.9436325 C157.287038,49.6007082 157.734012,49.1014102 158.015059,48.5277955 C158.154703,48.6115209 158.28389,48.6887887 158.41122,48.7661681 C158.663816,48.0167588 158.660203,47.9938556 158.275768,47.7458295 C158.437932,46.9746262 158.339945,46.1373721 157.911706,45.3956401 L150.564638,32.6701445 C150.526213,32.4337924 150.366925,32.2278149 150.190085,32.0213993 L145.665483,24.1845585 C145.681219,24.055335 145.697788,23.9275531 145.715301,23.8030708 C145.74146,23.835062 145.767619,23.8670532 145.792031,23.9010138 C146.01413,23.5132873 146.238502,23.1261701 146.459322,22.7295706 C146.514222,22.6315578 146.569272,22.5670973 146.624797,22.5167786 Z M135.839004,32.9721434 C136.017385,32.9681487 136.183468,33.007776 136.335508,33.0929949 C136.488268,33.1777975 136.610426,33.2994899 136.7024,33.4587929 C136.79479,33.6188167 136.839099,33.7854554 136.83616,33.9601508 C136.833942,34.1344301 136.785219,34.2980761 136.692569,34.4505614 C136.599503,34.6023258 136.472958,34.724403 136.313655,34.8163766 C136.154352,34.9083502 135.985357,34.9569028 135.806671,34.9620346 C135.629011,34.9656131 135.462928,34.9259857 135.310889,34.8407669 C135.157408,34.7563805 135.03597,34.6342719 134.94358,34.4742481 C134.851606,34.3149451 134.806576,34.1487225 134.810236,33.973611 C134.812454,33.7993317 134.861177,33.6356856 134.953106,33.4836165 C135.046894,33.3314359 135.173439,33.2093588 135.332742,33.1173852 C135.492045,33.0254116 135.661039,32.9768589 135.839004,32.9721434 Z M150.431092,30.5011476 C150.296297,30.5789714 150.161502,30.6567952 150.025266,30.7354514 C149.884846,31.1730921 150.027073,31.4427415 150.494891,31.5205663 C150.665355,31.384666 150.956201,31.3657169 150.960756,31.0440003 C150.935981,30.7430624 150.782765,30.5326185 150.431092,30.5011476 Z M38.766526,90.9237947 L41.9338315,93.7295928 C41.8766791,93.8087228 41.8235251,93.9047663 41.7726531,94.0264032 C41.9640172,94.0399015 42.1294235,94.0433979 42.2583562,94.0170137 L45.7721538,97.1283052 L44.1560576,98.0613588 L42.4123069,96.432767 L39.8447179,97.9151651 L39.8937844,98.1299959 C39.7314348,98.2333395 39.5713593,98.3372924 39.4118632,98.4322608 C39.1800911,98.5718411 39.2485411,99.221433 39.1103385,100.087407 L40.201672,99.4573255 L40.3832444,100.239593 L38.8457185,101.127284 L36.9868019,91.9513189 L38.766526,90.9237947 Z M38.7195241,92.9115832 L38.6524871,92.950287 L39.5063325,96.601599 L41.4547303,95.476691 L38.7195241,92.9115832 Z M51.2966275,83.6899217 L53.7069775,92.5475171 L52.3049672,93.3569681 L47.7848328,88.8189394 L47.7228416,88.8547301 L49.3935433,95.0378794 L48.289235,95.6754521 C48.2043005,95.5899345 48.0890913,95.5218961 47.9169367,95.4867351 C47.8875999,95.5757554 47.8777255,95.6535392 47.873313,95.7291307 L41.5258054,89.3311085 L43.1700138,88.3818243 L46.0461033,91.6104486 C45.6957073,91.842544 45.3453113,92.0746395 44.9930575,92.3068464 C45.0828009,92.4289928 45.1764829,92.5546319 45.2611805,92.6796916 C45.6157003,92.4231098 45.9639258,92.1672788 46.3140091,91.9113363 L47.5467697,93.2957692 L47.6195733,93.253736 L45.7549027,86.889438 L47.0675303,86.1315921 L51.6461179,90.9290094 L51.725409,90.8832307 L49.6466525,84.6425352 L51.2966275,83.6899217 Z M58.6118246,79.4662023 L57.7809603,84.3612132 L63.1680792,87.0848591 L61.3378972,88.1415152 L57.2452082,86.0218419 L56.9742266,87.3719841 L58.398361,89.8386572 L56.8774141,90.7167763 L53.7719522,85.3379585 C53.9577807,85.3834859 54.148878,85.4298157 54.361883,85.4807971 C54.3169296,84.7753509 53.9792763,84.275417 53.4189667,83.8060012 C53.4223484,84.148124 53.4263832,84.4514256 53.4298604,84.745438 L52.4393753,83.0298676 L53.9603222,82.1517485 L55.9471186,85.5929809 L56.0199222,85.5509477 L56.9387831,80.4321333 L58.6118246,79.4662023 Z M46.4433885,88.6928683 C46.968122,88.7311052 47.2985322,88.6941194 47.222468,88.1661783 C46.8562511,88.0912048 46.6342142,88.2376588 46.4433885,88.6928683 Z M80.0117341,72.4974654 L84.1759329,79.7100694 C84.11525,79.7614434 84.058892,79.8103205 83.9918331,79.8672979 C84.101423,79.8789923 84.1858575,79.8754159 84.2670742,79.8679307 L86.1868672,83.1931098 L82.3224872,83.1934885 L77.4954418,87.4710566 L77.4847537,83.1926263 L73.8366622,83.1930744 L67.6619452,72.4981509 L74.2335901,72.4974869 C74.3187475,72.5867202 74.4356215,72.657642 74.6134611,72.6943263 C74.6378118,72.62164 74.6412586,72.5610227 74.6490303,72.4979084 L80.0117341,72.4974654 Z M28.1379618,53.4964366 L28.9190218,53.7855413 C26.8803823,59.2904011 25.7528208,65.0698492 25.566594,70.9632126 L24.7345686,70.937081 C24.923595,64.9536797 26.0682093,59.0855756 28.1379618,53.4964366 Z M103.294764,55.3199597 C103.8735,55.3135629 104.418071,55.4710571 104.927755,55.7928584 C105.438576,56.1149644 105.875548,56.5921562 106.239281,57.2221598 L107.340883,59.1301912 C107.794925,59.9166145 108.017837,60.6855869 108.008179,61.4379408 C107.998521,62.1902947 107.759472,62.8982443 107.289783,63.5596272 C106.821648,64.2220356 106.138449,64.8115849 105.240297,65.3301329 C104.343587,65.8478487 103.491423,66.1447418 102.682972,66.2193708 C101.875354,66.2954415 101.142727,66.1484892 100.48634,65.7806766 C100.149452,65.5916986 99.8400806,65.3455063 99.5558705,65.046343 C99.5663463,64.9413011 99.5601315,64.8439733 99.5194503,64.7502059 C99.4347287,64.5501941 99.3064907,64.407984 99.1733941,64.333934 C99.1491826,64.3219627 99.1117892,64.363735 99.0658056,64.4239222 C98.9824681,64.3028829 98.8981051,64.1833967 98.8206974,64.0493228 L98.5306268,63.5469057 L100.373784,62.4827586 L100.663854,62.9851756 C100.949763,63.4803844 101.289621,63.8492967 101.682401,64.0934658 C102.075486,64.3364979 102.507931,64.4462782 102.978184,64.4217812 C103.448133,64.3984212 103.936478,64.2404573 104.442499,63.9483059 C105.040786,63.6028846 105.464191,63.1892777 105.71055,62.7087335 C105.957326,62.2289101 106.016222,61.7066658 105.886933,61.1431373 L105.306667,61.4781543 C104.221821,62.1044904 103.26928,62.3257426 102.450903,62.1417992 C101.632109,61.9571351 100.934778,61.366919 100.359214,60.370014 C100.038763,59.8149765 99.8745628,59.2475772 99.8666128,58.6678159 C99.8582466,58.0873339 100.003375,57.5479806 100.299725,57.0491468 C100.597932,56.5502015 101.022696,56.1406149 101.577734,55.8201639 C102.144304,55.4930541 102.716445,55.3270774 103.294764,55.3199597 Z M136.73025,35.8437432 L139.974297,41.4625966 L136.881224,43.2483829 L135.361719,44.1256696 C134.325169,44.7241224 133.388868,44.7437774 132.554564,44.1826655 L132.52501,44.1997285 C132.614873,44.6966361 132.571588,45.1310569 132.39682,45.5058741 C132.223189,45.880996 131.924033,46.1901901 131.500907,46.434482 C131.078502,46.6783577 130.656525,46.7864708 130.236417,46.7579888 C129.815172,46.7292021 129.405919,46.5647045 129.008128,46.2619174 L128.98362,46.2760672 C129.130709,47.2666208 128.746624,48.0246683 127.833335,48.5519559 C127.326593,48.8445235 126.837356,48.9876247 126.365623,48.9812595 C125.893474,48.9741735 125.445846,48.8164541 125.023041,48.5069645 L124.987,48.527773 C125.067708,49.0088224 125.022921,49.4306545 124.852336,49.7944064 C124.682472,50.1577422 124.389998,50.4601959 123.974801,50.69991 L123.06007,51.2280299 L119.535943,53.2626859 L116.011094,55.2977581 L114.773433,56.0123223 C115.172184,57.0642157 115.176732,58.0159663 114.786466,58.8698481 C114.395368,59.7222883 113.590359,60.5003803 112.369277,61.2053725 L111.723415,61.578261 L110.929362,60.2029214 L111.455567,59.8991172 C112.138191,59.505004 112.597503,59.0870043 112.833809,58.6439811 C113.070531,58.2016787 113.096097,57.6832993 112.912255,57.0868737 L112.308201,57.4356243 C111.222635,58.0623766 110.269373,58.2840449 109.448833,58.1013501 C108.627156,57.9183506 107.929104,57.3285507 107.35354,56.3316457 C107.033506,55.7773291 106.868889,55.2092089 106.86166,54.6290315 C106.853294,54.0485494 106.998422,53.5091962 107.295492,53.0099462 C107.592258,52.5118333 108.019906,52.1005819 108.577826,51.7784662 C109.144397,51.4513565 109.717979,51.2845474 110.295578,51.2778459 C110.875035,51.2710329 111.418884,51.4289433 111.929705,51.7510493 C112.439389,52.0728506 112.877082,52.5496262 113.240815,53.1796298 L114.052347,54.5852442 L115.21288,53.9152102 L118.737007,51.8805542 L122.261856,49.845482 L123.206861,49.2998829 C123.645845,49.0464353 123.909784,48.7345072 123.998676,48.3640988 C124.088289,47.9932741 123.994927,47.5685469 123.71859,47.0899172 L122.44719,44.887788 L124.289626,43.824057 L125.561026,46.0261862 C125.849016,46.5249991 126.15367,46.8479199 126.474989,46.9949485 C126.795891,47.1412562 127.12564,47.1181075 127.460825,46.9245884 C127.823402,46.7152548 128.025623,46.4312699 128.06946,46.07438 C128.113601,45.7163532 127.991316,45.2881414 127.703327,44.7893285 L126.431927,42.5871992 L128.269317,41.5263814 L129.540717,43.7285107 C129.838279,44.2439026 130.119369,44.5842726 130.386372,44.7520878 C130.653376,44.9199031 130.917195,44.9290524 131.175972,44.7796473 C131.451328,44.6206703 131.585406,44.381795 131.580063,44.06291 C131.573999,43.7444412 131.423379,43.3287444 131.125818,42.8133524 L129.508996,40.0129361 L131.352153,38.9487889 L132.968975,41.7492053 C133.245312,42.227835 133.564293,42.5223009 133.925197,42.6330192 C134.286822,42.7433213 134.683162,42.6740375 135.114217,42.4251677 L136.08301,41.865835 L137.333646,41.1437797 L134.887814,36.9074742 L136.73025,35.8437432 Z M102.375948,57.2027118 C102.171954,57.3204879 102.027344,57.4895165 101.942424,57.7086605 C101.855646,57.927916 101.834458,58.1775417 101.877611,58.4553753 C101.9219,58.7335135 102.027751,59.0183979 102.195884,59.3096124 C102.504266,59.8437458 102.850877,60.1760811 103.233445,60.3060088 C103.616732,60.4355204 104.042077,60.3648685 104.508453,60.0956064 L105.208376,59.6915052 L104.396845,58.2858908 C103.747203,57.1606784 103.073709,56.799859 102.375948,57.2027118 Z M109.738089,52.6011826 C109.862307,52.7447527 109.967634,52.8655909 110.103474,53.0226337 C109.866124,52.9760969 109.625447,53.0170192 109.382528,53.1572686 C109.17493,53.2771256 109.028879,53.4469865 108.942517,53.6669628 C108.856876,53.886523 108.836409,54.1357326 108.879145,54.4128453 C108.922714,54.6913997 109.028565,54.9762841 109.196697,55.2674986 C109.505079,55.801632 109.85097,56.1343835 110.234258,56.263895 C110.618683,56.3937112 111.04217,56.3231709 111.509987,56.0530764 L112.20919,55.6493914 L111.397658,54.243777 C111.058479,53.6563022 110.713435,53.2817348 110.361551,53.1100646 C110.468077,52.7352416 110.560405,52.4406993 110.631828,52.158226 C110.311045,52.0387601 110.067093,52.1555786 109.738089,52.6011826 Z M99.5672355,53.5943799 C99.7448959,53.5908014 99.9102584,53.6308449 100.063018,53.7156476 C100.215779,53.8004502 100.337937,53.9221426 100.430327,54.0821664 C100.522301,54.2414694 100.56661,54.4081081 100.563671,54.5828035 C100.560732,54.7574989 100.51273,54.9207288 100.420801,55.0727979 C100.32743,55.2256994 100.200468,55.3470557 100.040445,55.4394454 C99.8818625,55.5310029 99.7125634,55.5806925 99.5349031,55.5842711 C99.3565219,55.5882658 99.1904386,55.5486384 99.0383994,55.4634196 C98.8849185,55.3790332 98.7634806,55.2569246 98.671507,55.0976216 C98.5791172,54.9375978 98.534087,54.7713752 98.5377466,54.5962637 C98.5399646,54.4219844 98.5886879,54.2583383 98.6813381,54.1058531 C98.7736835,53.9545048 98.9009494,53.8320115 99.0595315,53.7404541 C99.2195553,53.6480643 99.3885497,53.5995116 99.5672355,53.5943799 Z M101.601628,52.4198228 C101.779288,52.4162443 101.944651,52.4562878 102.097411,52.5410905 C102.250171,52.6258931 102.37233,52.7475855 102.46472,52.9076093 C102.556693,53.0669123 102.601003,53.233551 102.598064,53.4082464 C102.595125,53.5829418 102.547122,53.7461717 102.455193,53.8982408 C102.361822,54.0511423 102.234861,54.1724986 102.074837,54.2648883 C101.916255,54.3564458 101.746956,54.4061354 101.569296,54.409714 C101.390914,54.4137087 101.224831,54.3740813 101.072792,54.2888625 C100.919311,54.2044761 100.797873,54.0823675 100.7059,53.9230645 C100.61351,53.7630407 100.56848,53.5968181 100.572139,53.4217066 C100.574357,53.2474273 100.623081,53.0837812 100.715731,52.931296 C100.808076,52.7799477 100.935342,52.6574544 101.093924,52.565897 C101.253948,52.4735072 101.422942,52.4249545 101.601628,52.4198228 Z M54.4773263,23.9335812 C55.0631471,24.0576484 55.5443705,24.4333645 55.9217173,25.0603135 C56.3032259,25.6944708 56.4102878,26.2977424 56.2441517,26.8722909 C56.0775995,27.4461185 55.6309594,27.95099 54.9024852,28.3888746 L49.0938491,31.8818523 L49.1538811,31.9625252 L49.0516073,32.1099946 L46.4206261,34.1018554 L46.2824939,34.1489285 L44.5645429,35.6713174 C44.562462,35.6677132 44.5601582,35.6603934 44.5573565,35.6572055 C44.3383357,35.4376597 44.1739614,35.7122877 43.9220403,36.0566829 C43.9686871,36.0758844 44.0108158,36.1005777 44.0510867,36.1253825 L41.6271827,38.2744851 L41.6060556,38.2828384 L36.8664391,43.5075552 L36.7099079,43.5960063 C36.3128038,44.0501728 35.8766293,44.3317924 35.3890626,44.4095352 C34.8054464,44.5023658 34.1675009,44.3113213 33.4763629,43.8367066 L31.4137095,42.4181831 C31.2581761,42.5915964 31.1235766,42.7596513 31.0117688,42.9222361 C30.7178925,43.3504426 30.568584,43.7393936 30.5649805,44.0893937 C30.5620977,44.4389777 30.7038266,44.7127589 30.9916088,44.909905 C31.1262366,45.0032541 31.2969059,45.0757947 31.505779,45.1262782 C31.7143474,45.1778988 32.0117869,45.2253037 32.3962395,45.2686045 L32.8520999,45.3273832 C33.284165,45.3749114 33.6634982,45.4509621 33.9911249,45.5539823 C34.318447,45.6581395 34.6226289,45.8054509 34.9046146,45.9992159 C35.3697925,46.3188409 35.6935468,46.7114669 35.8757658,47.1752362 C36.0591219,47.6393101 36.0935035,48.1499892 35.9803522,48.7064412 C35.8664801,49.2633094 35.6063974,49.8382761 35.1995762,50.4287628 C34.9509328,50.7904878 34.6833904,51.1044967 34.3986954,51.3688202 C34.1128634,51.6328391 33.7986881,51.8843889 33.4557533,52.1227487 L32.7283648,51.6219692 C33.4694334,51.1143414 34.0534251,50.549392 34.4814768,49.9274258 C34.7561736,49.5275924 34.9376744,49.1344717 35.0259792,48.7480637 C35.0711422,48.5499512 35.0877468,48.3606381 35.0786764,48.1784597 C35.1397697,48.1960482 35.1951262,48.2236765 35.2679975,48.2200484 C35.287455,47.6744408 35.2105467,47.2815416 35.0588399,47.1086704 C34.9551778,46.9907156 34.7775634,47.0509727 34.714282,47.2143739 C34.6068445,47.0832211 34.4772545,46.9619748 34.3224354,46.8552944 C34.1221584,46.7181541 33.8905293,46.6116093 33.6261065,46.5364922 C33.3631254,46.4605428 33.0203992,46.3979567 32.5993695,46.3479016 L32.2005223,46.2946506 C31.7511791,46.2388369 31.3869615,46.1723202 31.1082854,46.0958212 C30.8296094,46.0193222 30.5788445,45.9046034 30.3578485,45.7515531 C30.0299886,45.5266073 29.8022422,45.2486666 29.6780202,44.9186448 C29.5519403,44.5887345 29.5394248,44.2124799 29.638311,43.7911295 C29.7382227,43.368226 29.9551695,42.9133131 30.2898721,42.4259747 C30.5828344,42.0011792 30.9311373,41.5540439 31.3353083,41.0871474 L34.0731518,42.9693099 C34.5511712,43.2978596 34.9707315,43.4352624 35.331305,43.3789396 C35.6915738,43.3237538 36.0152095,43.0869252 36.300882,42.6711441 L36.3297071,42.6295132 L36.4738647,42.5212951 L36.5387931,42.5655025 L37.4373202,41.5748356 L37.4200123,41.5598396 C36.7968323,41.6707068 36.188827,41.4566098 35.5961078,40.9194063 C35.2095599,40.5678397 34.935053,40.1756139 34.7768305,39.7450843 C34.6163339,39.3139455 34.5792045,38.8817411 34.6651377,38.4496082 C34.7487969,38.016866 34.9540333,37.6215748 35.2768265,37.2650947 C35.6059957,36.9030112 35.9810113,36.6586238 36.401985,36.5337903 C36.8225424,36.408236 37.2631897,36.4123651 37.7215414,36.5437105 C38.1807253,36.6764975 38.6260305,36.9383965 39.0590102,37.3304329 L40.2808404,38.439573 L41.1220438,37.5127573 L41.2421174,37.4443939 L44.1546947,34.8632234 L44.1395494,34.8469789 C44.0086393,34.8466326 43.8505448,34.8158483 43.6662914,34.7530728 C43.4805963,34.6911297 43.2244809,34.580461 42.8956713,34.4204575 L41.5135133,33.7527634 C41.0695542,33.5381424 40.7052309,33.4015261 40.4213756,33.3443561 C40.1382412,33.2867699 39.8892627,33.2950021 39.6759931,33.3700782 C39.4637491,33.4436011 39.2357225,33.5896688 38.9913859,33.8057027 L38.8164638,33.9605159 L38.2352976,33.3051542 L38.4102198,33.1503411 C38.8163105,32.7899799 39.1789307,32.5440991 39.4986896,32.4104246 C39.8180324,32.2760294 40.1655792,32.2387608 40.5406093,32.299035 C40.9163602,32.358893 41.3862312,32.5268373 41.9487806,32.8037003 L43.3351602,33.4920236 C43.7547146,33.6976681 44.0925007,33.833267 44.3463559,33.9000686 C44.599795,33.9661495 44.8254024,33.9723717 45.0197671,33.9178214 C45.2156851,33.8642966 45.4219235,33.7404193 45.6414772,33.5463826 L45.9098759,33.3087676 L46.0749535,33.2384487 L46.0885457,33.2536677 L48.2933485,31.5857105 L48.2150269,31.4550475 L48.3321116,31.3182492 L49.5359678,30.5934083 L48.666441,29.1472723 C48.799155,29.0658443 48.9145749,28.9261627 48.9204824,28.5834823 C48.7259325,28.6660116 48.5791802,28.7247892 48.4468744,28.7819539 L47.5244124,27.2491254 C47.546312,27.2287928 47.5706788,27.2060747 47.5918576,27.1861583 C47.5513418,27.1759115 47.5105214,27.1668016 47.472198,27.1620167 L47.3007957,26.8784566 L48.2034872,26.3361431 L48.4946052,26.8187334 L52.5072289,24.4049725 C53.2349823,23.967504 53.8919217,23.8102349 54.4773263,23.9335812 Z M32.9344014,49.2848823 C33.0748257,49.3816125 33.1600808,49.5159613 33.1883089,49.6880401 C33.2179787,49.8592866 33.1827579,50.0180203 33.0846976,50.1611348 C32.9856118,50.3058025 32.8506537,50.3933316 32.681488,50.4266055 C32.5111853,50.4595747 32.3563903,50.4278466 32.2155498,50.3303956 C32.0720192,50.2316144 31.98449,50.0966563 31.9545156,49.9265468 C31.9245412,49.7564373 31.9587365,49.5992568 32.0575177,49.4557261 C32.1586545,49.3079521 32.294638,49.2188698 32.4638037,49.1855959 C32.6341064,49.1526267 32.7908707,49.1861012 32.9344014,49.2848823 Z M33.4058139,47.8166184 C33.5749796,47.7833445 33.7317439,47.816819 33.8756907,47.916321 C34.0156989,48.0123303 34.1013702,48.1473999 34.13104,48.3186465 C34.159268,48.4907253 34.1247681,48.6490428 34.0259869,48.7925735 C33.9272058,48.9361042 33.791943,49.0247703 33.6223612,49.0573234 C33.4531955,49.0905972 33.2972635,49.0585644 33.156423,48.9611134 C33.0133085,48.8630531 32.9265002,48.7276788 32.895805,48.5579855 C32.8658306,48.387876 32.8996097,48.2299746 32.9991117,48.0860278 C33.0999438,47.9393908 33.2355112,47.8495877 33.4058139,47.8166184 Z M71.9242333,35.9682041 L72.045286,36.7921409 L61.1094011,38.3994514 L53.9309925,47.2523553 L53.284954,46.7276748 L60.6667593,37.6227852 L71.9242333,35.9682041 Z M124.432412,44.7988341 C124.206951,45.3355511 124.206951,45.3355511 124.462295,45.5514249 C124.690128,45.0604327 124.690128,45.0604327 124.432412,44.7988341 Z M35.9305652,37.8497234 C35.7347551,38.0665736 35.618951,38.3054708 35.5848176,38.5692981 C35.5506842,38.8331254 35.5958579,39.1011421 35.7206434,39.3722113 C35.845845,39.6440013 36.0406702,39.9015439 36.3076978,40.1443113 C36.738292,40.5338806 37.1682944,40.7209986 37.6002838,40.7051377 C38.0315523,40.6896929 38.4474182,40.4611259 38.8471608,40.0198527 L39.5740215,39.2196023 L38.3521913,38.1104622 C37.8908085,37.6925357 37.4477037,37.4610828 37.0228767,37.4161034 C36.5980497,37.371124 36.2334282,37.5153221 35.9305652,37.8497234 Z M33.9930157,35.4892683 C34.1657935,35.4788976 34.317074,35.532838 34.4453041,35.6500641 C34.5722856,35.7651276 34.638383,35.909576 34.6440125,36.08413 C34.6499467,36.257547 34.5934276,36.4093552 34.4770339,36.5390268 C34.3595033,36.6683939 34.2141409,36.7379023 34.0420839,36.7478568 C33.8688899,36.7575066 33.7195788,36.7053125 33.5933181,36.5898328 C33.4632302,36.4727183 33.3959958,36.3279652 33.3889246,36.1542436 C33.3815488,35.9816589 33.4366262,35.8306831 33.5541569,35.701316 C33.6734339,35.5699797 33.8198217,35.4989181 33.9930157,35.4892683 Z M133.804562,34.1471137 C133.982527,34.1423981 134.149026,34.1827463 134.300649,34.2672443 C134.45413,34.3516308 134.575568,34.4737393 134.667958,34.6337631 C134.760347,34.7937869 134.805378,34.9600095 134.801718,35.1351211 C134.799084,35.3086795 134.750777,35.4730464 134.65771,35.6248109 C134.56506,35.7772961 134.438515,35.8993732 134.279933,35.9909307 C134.119909,36.0833205 133.950915,36.1318731 133.771813,36.136284 C133.594569,36.1405834 133.42879,36.099819 133.276446,36.0157372 C133.123686,35.9309346 133.001527,35.8092422 132.909138,35.6492184 C132.816748,35.4891946 132.772439,35.3225558 132.775377,35.1478604 C132.778732,34.9738858 132.826319,34.8099351 132.918664,34.6585868 C133.012035,34.5056854 133.13858,34.3836083 133.298604,34.2912185 C133.457186,34.1996611 133.62618,34.1511084 133.804562,34.1471137 Z M48.9978818,30.9415554 C49.4916633,30.9611405 49.8500685,30.9743079 50.3977568,30.9973696 C49.829126,30.606763 49.4511608,30.5597167 48.9978818,30.9415554 Z M52.958431,25.1565132 L48.9453911,27.5695533 L50.4379385,30.051511 L51.7883159,29.2391927 C51.8342339,29.2338262 51.8810957,29.2317592 51.9258767,29.2260881 C51.9160001,29.210646 51.904875,29.1930415 51.8941661,29.1761578 L54.4509784,27.6384709 C54.8965018,27.3697146 55.1618,27.0618069 55.2468732,26.7147477 C55.332251,26.3665515 55.2563762,25.9970832 55.019442,25.6033479 C54.9705569,25.5220058 54.9099535,25.4753014 54.8562755,25.4072987 C54.9245829,25.3524837 54.9905864,25.290349 55.0601423,25.2376965 C55.078163,25.2272923 55.0691465,25.1267765 55.0778599,24.9737359 C54.9632184,25.0331964 54.8338338,25.120391 54.7007933,25.2212296 C54.5338674,25.0619506 54.3541977,24.9388625 54.1477918,24.8859934 C53.800621,24.7990625 53.4036497,24.8888939 52.958431,25.1565132 Z M55.4968947,25.2017858 C55.3512064,25.6386241 55.5035246,25.9024471 55.9542657,25.9939757 C56.0996493,25.5582744 55.947331,25.2944514 55.4968947,25.2017858 Z M61.0409196,19.3237867 C61.2078849,19.2600668 61.3707125,19.2640908 61.5285701,19.3344171 C61.6871485,19.4043273 61.7969934,19.5196736 61.8590487,19.6837556 C61.9197439,19.8438173 61.9120858,20.0020153 61.8380439,20.1600959 C61.7640019,20.3181765 61.6456607,20.4278283 61.4822996,20.4894674 C61.3189384,20.5511065 61.1586894,20.5465547 61.000111,20.4766446 C60.8419488,20.4074553 60.7332409,20.2924136 60.6718248,20.1327681 C60.6101857,19.9694069 60.6158744,19.8094626 60.6884747,19.6522143 C60.7603542,19.4953822 60.8775584,19.3854258 61.0409196,19.3237867 Z" id="Combined-Shape" fill="url(#linearGradient-1)"></path>
            <path d="M81.3389259,70.9886581 C81.6835148,71.294127 81.6835148,71.5987636 81.3389259,71.9042325 C80.994337,71.5987636 80.994337,71.294127 81.3389259,70.9886581 L81.3389259,70.9886581 Z M83.0535471,73.9576162 C82.6606824,74.2572587 82.3951658,74.2722408 82.1146671,74.0250358 C82.3135965,73.5297932 82.6182331,73.6621354 83.0535471,73.9576162 L83.0535471,73.9576162 Z M90.2782614,68.6173204 C90.3406869,68.760483 90.4022801,68.9053102 90.465538,69.0501374 C90.4039448,69.0867604 90.3423516,69.1267127 90.2815908,69.1641681 C90.2516265,69.000197 90.2216622,68.8337289 90.1925303,68.6689255 C90.2224946,68.6514464 90.2499618,68.6339672 90.2782614,68.6173204 L90.2782614,68.6173204 Z M80.8386894,77.7381061 C81.0292953,77.7023155 81.2090808,77.6690219 81.4030161,77.6315665 C81.3971897,77.4351342 81.393028,77.290307 81.3872017,77.0905453 C81.5628255,77.0023172 81.666868,76.9482151 81.7542638,76.9049334 C81.9107437,76.9931615 81.8150246,77.3477385 81.5761429,77.647381 C81.3206144,77.965335 81.1216851,78.0502337 80.8386894,77.9203886 L80.8386894,81.7599747 L83.2866024,80.3466608 C83.2175181,80.2484446 83.241656,80.1027851 83.2982551,79.9562932 C83.4630585,79.5268055 83.8126415,79.2304924 84.1830329,78.9325145 C84.2371351,79.146426 84.2820814,79.3178881 84.3245308,79.4918473 C84.344507,79.5692549 84.3395129,79.657483 84.3228661,79.7482081 L91.534263,75.5856739 L91.534263,69.9640471 C91.5059634,70.0106582 91.4460349,70.0697544 91.4060826,70.068922 C91.1921711,70.0605986 90.979092,70.022311 90.6419941,69.9798616 C90.9166664,69.5237391 91.1755243,69.6227876 91.3886034,69.6352727 C91.4410409,69.6377697 91.4968077,69.7501357 91.534263,69.8508489 L91.534263,65.8472917 C91.2870579,66.0428917 91.0298647,66.0354006 90.7643482,65.8248185 C90.8400911,65.4552594 91.1963328,65.3112645 91.414406,65.0615624 C91.4660111,65.1015148 91.500137,65.1447965 91.534263,65.1880782 L91.534263,63.2354077 L80.8386894,69.4105408 L80.8386894,77.7381061 Z" id="Fill-122" fill-opacity="0.9" fill="#4938A1" opacity="0.800000012" transform="translate(86.1865, 72.4977) rotate(-30) translate(-86.1865, -72.4977)"></path>
        </g>
    </g>
</svg>