<?xml version="1.0" encoding="UTF-8"?>
<svg width="160px" height="160px" viewBox="0 0 160 160" version="1.1" xmlns="http://www.w3.org/2000/svg" xmlns:xlink="http://www.w3.org/1999/xlink">
    <title>Brand/Illustrations/Steps</title>
    <g id="Brand/Illustrations/Steps" stroke="none" stroke-width="1" fill="none" fill-rule="evenodd">
        <rect id="background" fill-opacity="0" fill="#FFFFFF" fill-rule="nonzero" x="0" y="0" width="160" height="160"></rect>
        <g id="Icon" transform="translate(24.0861, 16)">
            <path d="M-2.13162821e-13,78.4530948 L21.4538841,90.8400499 L21.4538841,115.613045 L-2.13162821e-13,103.226547 L-2.13162821e-13,78.4530948 Z M21.4497203,49.5481864 L42.9036044,61.9351414 L42.9036044,86.7081365 L21.4497203,74.321639 L21.4497203,49.5481864 Z M42.9036959,12.3863145 L64.35758,24.7732696 L64.35758,49.5462646 L42.9036959,37.1597671 L42.9036959,12.3863145 Z" id="Shape" fill="#7ACEF0"></path>
            <polygon id="Path" fill="#4C34BB" points="85.8144839 12.3856739 85.8144839 78.4562977 64.3587696 90.8437103 64.3587239 90.8400499 42.9103305 103.222887 42.910788 103.226456 21.4550737 115.613869 21.4550737 90.8395008 42.9043822 78.4558401 42.904794 61.9346381 64.3587239 49.5483694 64.3587696 24.772629"></polygon>
            <path d="M21.4547992,66.0663227 L42.910971,78.4528203 L21.4561719,90.8397753 L1.96109795e-12,78.4532778 L21.4547992,66.0663227 Z M42.9045195,37.1614601 L64.3606914,49.5475 L42.9054346,61.9349127 L21.4497203,49.5484151 L42.9045195,37.1614601 Z M64.3589527,-5.68434189e-14 L85.814667,12.38604 L64.3598678,24.772995 L42.9036959,12.3864975 L64.3589527,-5.68434189e-14 Z" id="Shape" fill="#FFFFFF"></path>
            <polygon id="Fill-10" fill="#24156D" points="64.3626131 90.8400499 64.3635282 90.8405074 42.9082715 103.227463 42.9105592 103.228835 21.4589629 115.61396 42.9110168 128 107.270839 90.8386772 85.8183274 78.4526372"></polygon>
        </g>
    </g>
</svg>