<?xml version="1.0" encoding="UTF-8"?>
<svg width="160px" height="160px" viewBox="0 0 160 160" version="1.1" xmlns="http://www.w3.org/2000/svg" xmlns:xlink="http://www.w3.org/1999/xlink">
    <title>Brand/Illustrations/Support-Comment</title>
    <g id="Brand/Illustrations/Support-Comment" stroke="none" stroke-width="1" fill="none" fill-rule="evenodd">
        <rect id="background" fill-opacity="0" fill="#FFFFFF" fill-rule="nonzero" x="0" y="0" width="160" height="160"></rect>
        <g id="Icon" transform="translate(28.7248, 16)">
            <polygon id="Fill-1" fill="#24156D" points="60.3795843 70.3141584 -1.4281909e-12 105.17513 30.3846556 122.217077 50.5180515 110.594178 70.6411457 98.9751415 90.7668153 87.3561053"></polygon>
            <polygon id="Fill-1" fill="#4C34BB" points="91.2661245 12.453531 26.5501603 49.81578 26.5501603 99.6348722 48.129509 87.1766489 59.8024516 105.344374 69.6964366 74.723946 91.2661245 62.2712431"></polygon>
            <path d="M4.98047247,87.1789951 L26.5501603,99.6344582 L26.5501603,49.8167461 L4.98047247,37.361283 L4.98047247,87.1789951 Z M59.8027276,105.34396 L38.0936489,92.971303 L48.1366855,87.1872757 L59.8027276,105.34396 Z" id="Combined-Shape" fill="#7ACEF0"></path>
            <polygon id="Fill-3" fill="#FFFFFF" points="69.6936764 0 4.98047247 37.3608689 26.5501603 49.816332 91.2661245 12.4527029"></polygon>
            <path d="M69.6979547,49.8148139 L69.6951945,59.5418061 L38.2329017,77.6750282 L38.2301415,67.9507963 L69.6979547,49.8148139 Z M81.3762798,27.2775332 L81.3735195,37.0045254 L38.2327637,61.9126914 L38.2300035,52.1884595 L81.3762798,27.2775332 Z" id="Combined-Shape" fill="#FFFFFF"></path>
        </g>
    </g>
</svg>