<?xml version="1.0" encoding="UTF-8"?>
<svg width="160px" height="160px" viewBox="0 0 160 160" version="1.1" xmlns="http://www.w3.org/2000/svg" xmlns:xlink="http://www.w3.org/1999/xlink">
    <title>Brand/Illustrations/Tools-Ruler</title>
    <g id="Brand/Illustrations/Tools-Ruler" stroke="none" stroke-width="1" fill="none" fill-rule="evenodd">
        <rect id="background" fill-opacity="0" fill="#FFFFFF" fill-rule="nonzero" x="0" y="0" width="160" height="160"></rect>
        <g id="Icon" transform="translate(15.8663, 34.88)">
            <polygon id="Fill-1" fill="#FFFFFF" points="0.000922539894 55.5 16.0233904 64.751025 112.153072 9.25 96.1326546 0"></polygon>
            <path d="M8.61201241,59.083965 L17.2223848,64.0574801 L16.0230829,64.75041 L7.41168551,59.778945 L8.61201241,59.083965 Z M14.5560395,59.7126247 L19.6710106,62.6657774 L18.4717088,63.3597324 L13.3557125,60.4065797 L14.5560395,59.7126247 Z M13.516952,56.2511525 L22.1273244,61.2236425 L20.9280225,61.9175975 L12.3166251,56.9461325 L13.516952,56.2511525 Z M19.4620041,56.8787871 L24.5769753,59.8319398 L23.3776734,60.5258948 L18.2616772,57.5737672 L19.4620041,56.8787871 Z M18.4230192,53.4182375 L27.0333915,58.3907275 L25.8340896,59.0836575 L17.2226923,54.1121925 L18.4230192,53.4182375 Z M24.3670462,54.0458721 L29.4820174,56.9990248 L28.2827155,57.6929798 L23.1667193,54.7408522 L24.3670462,54.0458721 Z M23.3279588,50.5853225 L31.9383311,55.5578125 L30.7390293,56.2507425 L22.1276319,51.2792775 L23.3279588,50.5853225 Z M29.2730109,51.2129571 L34.387982,54.1661098 L33.1886802,54.8600648 L28.072684,51.9069121 L29.2730109,51.2129571 Z M28.2340259,47.7514849 L36.8443983,52.725 L35.6450964,53.41793 L27.033699,48.446465 L28.2340259,47.7514849 Z M34.178053,48.3801446 L39.2930242,51.3332973 L38.0937223,52.0272523 L32.9777261,49.0740996 L34.178053,48.3801446 Z M33.1389655,44.9185699 L41.7493379,49.892085 L40.550036,50.585015 L31.9386386,45.61355 L33.1389655,44.9185699 Z M39.0840176,45.5472296 L44.1989888,48.5003823 L42.9996869,49.1943373 L37.8836907,46.2411846 L39.0840176,45.5472296 Z M38.0449302,42.0856549 L46.6553025,47.0581449 L45.4560007,47.7510749 L36.8446033,42.780635 L38.0449302,42.0856549 Z M43.9890597,42.7132896 L49.1040309,45.6664423 L47.9047291,46.3603973 L42.7887328,43.4082696 L43.9890597,42.7132896 Z M42.9499723,39.2528424 L51.5603446,44.2253324 L50.3610428,44.9182624 L41.7496454,39.9467974 L42.9499723,39.2528424 Z M48.8950244,39.8804771 L54.0099956,42.8336298 L52.8106937,43.5275848 L47.6946975,40.5754571 L48.8950244,39.8804771 Z M47.8559369,36.4199274 L56.4663093,41.3924174 L55.2670074,42.0853474 L46.65561,37.1138824 L47.8559369,36.4199274 Z M53.8000665,37.0475621 L58.9150377,40.0007148 L57.7157358,40.6946698 L52.5997396,37.7415171 L53.8000665,37.0475621 Z M52.7609791,33.5859874 L61.3713514,38.5595024 L60.1720495,39.2524324 L51.5606521,34.2809674 L52.7609791,33.5859874 Z M58.7060311,34.2146471 L63.8210023,37.1677998 L62.6217005,37.8617548 L57.5057042,34.9086021 L58.7060311,34.2146471 Z M57.6669437,30.7531749 L66.277316,35.7256649 L65.0780142,36.4196199 L56.4666168,31.4481549 L57.6669437,30.7531749 Z M63.6110732,31.3808095 L68.7260444,34.3339622 L67.5267426,35.0289423 L62.4107463,32.0757896 L63.6110732,31.3808095 Z M62.5719858,27.9202599 L71.1823582,32.8927499 L69.9830563,33.5856799 L61.3716589,28.6142149 L62.5719858,27.9202599 Z M68.5170379,28.5478945 L73.6320091,31.5010472 L72.4327072,32.1950022 L67.316711,29.2428746 L68.5170379,28.5478945 Z M67.4779505,25.0873449 L76.0883228,30.0598349 L74.8890209,30.7527648 L66.2776236,25.7812999 L67.4779505,25.0873449 Z M73.4219775,25.7149795 L78.5369487,28.6681322 L77.3376468,29.3620872 L72.2216506,26.4089345 L73.4219775,25.7149795 Z M72.3829926,22.2545324 L80.9933649,27.2270224 L79.7940631,27.9199523 L71.1826657,22.9484874 L72.3829926,22.2545324 Z M78.3280447,22.882167 L83.4430158,25.8353197 L82.243714,26.5292747 L77.1277178,23.576122 L78.3280447,22.882167 Z M77.2889572,19.4205923 L85.8993296,24.3941074 L84.7000277,25.0870373 L76.0886303,20.1155724 L77.2889572,19.4205923 Z M83.2329843,20.049252 L88.3479555,23.0024047 L87.1486536,23.6963597 L82.0326574,20.743207 L83.2329843,20.049252 Z M82.1939993,16.5876773 L90.8043717,21.5601673 L89.6050698,22.2541223 L80.9936724,17.2826574 L82.1939993,16.5876773 Z M88.1390514,17.2153119 L93.2540226,20.1684646 L92.0547207,20.8634447 L86.9387245,17.910292 L88.1390514,17.2153119 Z M87.099964,13.7548648 L95.7103363,18.7273548 L94.5110345,19.4202848 L85.8996371,14.4488198 L87.099964,13.7548648 Z M93.043991,14.3824994 L98.1589622,17.3356521 L96.9596604,18.0296072 L91.8436641,15.0774795 L93.043991,14.3824994 Z M92.0049036,10.9219498 L100.615276,15.8944398 L99.4159741,16.5873698 L90.8045767,11.6159048 L92.0049036,10.9219498 Z M97.9500582,11.5495844 L103.065029,14.5027371 L101.865728,15.1966922 L96.7497313,12.2435395 L97.9500582,11.5495844 Z M96.9109707,8.0890348 L105.521343,13.0615248 L104.322041,13.7544548 L95.7106438,8.7829898 L96.9109707,8.0890348 Z M102.854998,8.71666944 L107.969969,11.6698221 L106.770667,12.3637771 L101.654671,9.41062445 L102.854998,8.71666944 Z M101.81591,5.25519725 L110.426283,10.2287123 L109.226981,10.9216423 L100.615583,5.9501773 L101.81591,5.25519725 Z" id="Combined-Shape" fill="#24156D"></path>
            <polygon id="Fill-41" fill="#4C34BB" points="112.153482 9.25020501 112.154507 27.750205 16.0217503 83.24918 16.0238004 64.7512301"></polygon>
            <polygon id="Fill-42" fill="#7ACEF0" points="0 74.000615 16.0214428 83.24959 16.0234929 64.7516401 0.00102504433 55.49959"></polygon>
            <polygon id="Fill-43" fill="#24156D" points="16.0217503 83.25 32.0442182 92.5 128.258979 37.047152 112.154507 27.75"></polygon>
        </g>
    </g>
</svg>