<?xml version="1.0" encoding="UTF-8"?>
<svg width="32px" height="32px" viewBox="0 0 32 32" version="1.1" xmlns="http://www.w3.org/2000/svg" xmlns:xlink="http://www.w3.org/1999/xlink">
    <title>Icons/Industries/Tourism</title>
    <g id="Icons/Industries/Tourism" stroke="none" stroke-width="1" fill="none" fill-rule="evenodd">
        <path d="M28.9733333,18.6 L18.3333333,12.3333333 L18.3333333,5 C18.3333333,3.89333333 17.44,3 16.3333333,3 C15.2266667,3 14.3333333,3.89333333 14.3333333,5 L14.3333333,12.3333333 L3.69333333,18.6 C3.26666667,18.84 3,19.3066667 3,19.8 C3,20.7333333 3.89333333,21.4 4.78666667,21.1466667 L14.3333333,18.3466667 L14.3333333,25.6666667 L11.32,27.4666667 C11.12,27.5866667 11,27.8133333 11,28.04 L11,28.7066667 L11,28.7066667 L11,28.8133333 C11,29.2533333 11.4133333,29.5733333 11.8266667,29.4666667 L15.72,28.4933333 L16.3333333,28.3333333 L16.84,28.4533333 C16.84,28.4533333 16.84,28.4533333 16.84,28.4533333 L17.4,28.6 L19.9333333,29.24 L19.9333333,29.24 L20.8266667,29.4666667 C21.2533333,29.5733333 21.6533333,29.2533333 21.6533333,28.8133333 L21.6533333,28.32 C21.6533333,28.32 21.6533333,28.32 21.6533333,28.32 L21.6533333,28.04 C21.6533333,27.8 21.5333333,27.5866667 21.3333333,27.4666667 L18.3333333,25.6666667 L18.3333333,18.3333333 L27.88,21.1333333 C28.7733333,21.4 29.6666667,20.7333333 29.6666667,19.8 C29.6666667,19.3066667 29.4,18.84 28.9733333,18.6 Z" id="Path" fill="#4C34BB"></path>
    </g>
</svg>