<?xml version="1.0" encoding="UTF-8"?>
<svg width="32px" height="32px" viewBox="0 0 32 32" version="1.1" xmlns="http://www.w3.org/2000/svg" xmlns:xlink="http://www.w3.org/1999/xlink">
    <title>Icons/Video</title>
    <g id="Icons/Video" stroke="none" stroke-width="1" fill="none" fill-rule="evenodd">
        <path d="M25.8181818,7.27272727 L6.18181818,7.27272727 C4.98181818,7.27272727 4,8.25454545 4,9.45454545 L4,22.5454545 C4,23.7454545 4.98181818,24.7272727 6.18181818,24.7272727 L11.6363636,24.7272727 L20.3636364,24.7272727 L25.8181818,24.7272727 C27.0181818,24.7272727 27.9890909,23.7454545 27.9890909,22.5454545 L28,9.45454545 C28,8.24363636 27.0181818,7.27272727 25.8181818,7.27272727 Z M24.7272727,22.5454545 L7.27272727,22.5454545 C6.67272727,22.5454545 6.18181818,22.0545455 6.18181818,21.4545455 L6.18181818,10.5454545 C6.18181818,9.94545455 6.67272727,9.45454545 7.27272727,9.45454545 L24.7272727,9.45454545 C25.3272727,9.45454545 25.8181818,9.94545455 25.8181818,10.5454545 L25.8181818,21.4545455 C25.8181818,22.0545455 25.3272727,22.5454545 24.7272727,22.5454545 Z M18.7054545,16.9490909 L14.3636364,19.4363636 C13.6327273,19.8509091 12.7272727,19.3163636 12.7272727,18.4872727 L12.7272727,13.5127273 C12.7272727,12.6727273 13.6327273,12.1490909 14.3636364,12.5636364 L18.7054545,15.0509091 C19.4363636,15.4763636 19.4363636,16.5236364 18.7054545,16.9490909 Z" id="Icon" fill="#4C34BB"></path>
    </g>
</svg>