<?xml version="1.0" encoding="UTF-8"?>
<svg width="160px" height="160px" viewBox="0 0 160 160" version="1.1" xmlns="http://www.w3.org/2000/svg" xmlns:xlink="http://www.w3.org/1999/xlink">
    <title>Brand/Other-Brands/Wordpress</title>
    <g id="Brand/Other-Brands/Wordpress" stroke="none" stroke-width="1" fill="none" fill-rule="evenodd">
        <rect id="background" fill-opacity="0" fill="#FFFFFF" fill-rule="nonzero" x="0" y="0" width="160" height="160"></rect>
        <path d="M80.0233435,16 C115.311281,16 144.027,44.7094505 144.027,79.9984329 C144.027,115.291594 115.311281,144 80.0233435,144 C44.7343611,144 16.0228212,115.291594 16.0228212,79.9984329 C16.0228212,44.7094505 44.7343611,16 80.0233435,16 Z M80.0233435,18.9345674 C46.3515595,18.9345674 18.9573886,46.3276936 18.9573886,79.9984329 C18.9573886,113.671262 46.3526042,141.066477 80.0233435,141.066477 C113.693038,141.066477 141.086164,113.671262 141.086164,79.9984329 C141.086164,46.3276936 113.693038,18.9345674 80.0233435,18.9345674 Z M80.9865586,84.8009272 L97.8647611,131.036295 C97.9744548,131.307918 98.1081766,131.557601 98.2554796,131.792659 C92.5482736,133.799532 86.4169186,134.904826 80.0233435,134.904826 C74.6337269,134.904826 69.4321566,134.113987 64.5137005,132.668119 L80.9865586,84.8009272 Z M29.8734778,57.6543506 L56.0631075,129.410739 C37.7494848,120.510924 25.1200846,101.73032 25.1200846,79.9984329 C25.1200846,72.0388498 26.8271273,64.4825216 29.8734778,57.6543506 Z M128.198723,53.6573215 C132.487224,61.4779592 134.925558,70.4540372 134.924513,79.9994776 C134.924513,100.254156 123.945742,117.937824 107.623321,127.456102 L124.393919,78.968357 C127.528024,71.1372722 128.568547,64.8742848 128.568547,59.3028901 C128.568547,57.2834815 128.434825,55.4061523 128.198723,53.6573215 Z M80.0233435,25.0972634 C94.3169537,25.0972634 107.330804,30.5610538 117.098766,39.5099696 C116.861619,39.4963884 116.63074,39.4660921 116.387324,39.4660921 C110.995618,39.4660921 107.167831,44.1641161 107.167831,49.2110706 C107.167831,53.7335847 109.776451,57.5634616 112.559537,62.0859757 C114.649985,65.7434767 117.087274,70.4425455 117.087274,77.2278837 C117.087274,81.9279972 115.280985,87.3823853 112.907422,94.9763228 L107.431096,113.276364 L87.5901188,54.2569803 C90.8934659,54.0835598 93.8740002,53.7335847 93.8740002,53.7335847 C96.831551,53.3836096 96.4836653,49.0366054 93.5219356,49.2110706 C93.5219356,49.2110706 89.1042059,49.5573251 84.4858226,49.761672 L83.8405191,49.7892154 C83.7328929,49.7936361 83.6252643,49.7979678 83.5176863,49.8022043 L82.8732497,49.8264322 C81.4801248,49.8762388 80.113479,49.9078867 78.8898421,49.9078867 L78.6170989,49.9073125 C76.8710921,49.9000798 74.7781434,49.8253011 72.7427779,49.7272307 L72.1024169,49.6955384 C68.8086499,49.5283284 65.7815269,49.3115153 64.7780402,49.2373109 L64.6095579,49.2247811 C64.491,49.2159096 64.4280349,49.2110706 64.4280349,49.2110706 C61.4694394,49.0366054 61.1225984,53.5601642 64.0811939,53.7335847 C64.0811939,53.7335847 66.8820395,54.0835598 69.8385456,54.2569803 L78.392564,77.6938208 L66.3768212,113.727 L46.3839452,54.2590697 C49.6935606,54.0856492 52.6678266,53.7356741 52.6678266,53.7356741 C55.6243327,53.385699 55.2754023,49.0386948 52.3157621,49.21316 C52.3157621,49.21316 48.4934057,49.5127853 44.2423892,49.7190847 L43.601946,49.7492805 L43.2801086,49.7637614 L42.6347929,49.7913048 C40.9127309,49.862036 39.1899573,49.9099761 37.6836685,49.9099761 C36.6525479,49.9099761 35.4386044,49.8828138 34.150487,49.8441599 C43.9675499,34.9383544 60.8426183,25.0972634 80.0233435,25.0972634 Z" id="Icon" fill="#4C34BB"></path>
    </g>
</svg>