<?xml version="1.0" encoding="UTF-8"?>
<svg width="160px" height="160px" viewBox="0 0 160 160" version="1.1" xmlns="http://www.w3.org/2000/svg" xmlns:xlink="http://www.w3.org/1999/xlink">
    <title>Brand/Illustrations/LoveBox</title>
    <g id="Brand/Illustrations/LoveBox" stroke="none" stroke-width="1" fill="none" fill-rule="evenodd">
        <rect id="background" fill-opacity="0" fill="#FFFFFF" fill-rule="nonzero" x="0" y="0" width="160" height="160"></rect>
        <g id="icon" transform="translate(20.3049, 16.0038)">
            <polygon id="Fill-5" fill="#7ACEF0" points="0.000218221681 88.6129506 51.1601091 118.150346 51.1601091 59.075555 0.000218221681 29.5381594"></polygon>
            <polygon id="Fill-6" fill="#4C34BB" points="51.1630551 118.152856 102.32731 88.6132779 102.32731 29.5363045 51.1630551 59.0747912"></polygon>
            <polygon id="Fill-7" fill="#FFFFFF" points="0 29.5384867 51.1653464 59.0747912 102.327419 29.5352134 51.1620731 3.98887087e-15"></polygon>
            <polygon id="Fill-8" fill="#24156D" points="68.2260265 128 119.390282 98.4604222 102.335166 88.6142599 51.1720022 118.153838"></polygon>
            <path d="M84.8968536,53.5547647 C83.5777035,54.2563474 82.2661912,55.933381 81.2743737,58.418926 L79.4795004,62.9262948 L77.6311627,60.3567345 C76.6109764,58.9404758 75.2841886,58.6666076 73.9650385,59.3681903 C72.6447973,60.069773 71.3321939,61.7468066 70.3381942,64.2345338 C68.3556502,69.2165347 68.4025679,75.5460546 70.4429406,78.388392 L72.2912782,80.9579523 L79.6879021,91.2241912 L86.8706687,73.2056271 L88.6666331,68.6982582 C90.6546327,63.714075 90.607715,57.3834641 88.5618867,54.5444 C87.5417004,53.1281413 86.2160037,52.853182 84.8968536,53.5547647" id="Fill-9" fill="#FFFFFF"></path>
        </g>
    </g>
</svg>