<?xml version="1.0" encoding="UTF-8"?>
<svg width="70px" height="50px" viewBox="0 0 70 50" version="1.1" xmlns="http://www.w3.org/2000/svg" xmlns:xlink="http://www.w3.org/1999/xlink">
    <title>Group 27</title>
    <g id="🟢-Updated-Pages" stroke="none" stroke-width="1" fill="none" fill-rule="evenodd">
        <g id="What-is-eCommerce?" transform="translate(-1233, -11505)" fill-rule="nonzero">
            <g id="Offers" transform="translate(120, 11486)">
                <g id="Group-8" transform="translate(957, 19)">
                    <g id="Group-27" transform="translate(156, 0)">
                        <g id="Group-24" fill="#FFFFFF">
                            <polygon id="Rectangle" points="0 0 70 0 70 50 7.2858386e-14 50"></polygon>
                        </g>
                        <g id="1322427_card_master_master-card_master-card-new-logo_method_icon" transform="translate(7, 13)" fill="#000000">
                            <g id="Apple_Pay_logo" transform="translate(0, 1)">
                                <path d="M10.2322569,2.96527117 C9.57593173,3.74215033 8.52581143,4.3549001 7.47569113,4.26736441 C7.34442609,3.21693625 7.85854749,2.10085633 8.46017891,1.41151284 C9.1165041,0.612749762 10.2650732,0.0437678402 11.1948672,0 C11.3042547,1.094196 10.8776434,2.16650809 10.2322569,2.96527117 M11.1839284,4.47526166 C9.66344176,4.38772598 8.36173013,5.3396765 7.63977243,5.3396765 C6.90687597,5.3396765 5.8020619,4.5190295 4.59879906,4.54091342 C3.03455736,4.56279734 1.5797032,5.4490961 0.781174217,6.86060894 C-0.859638752,9.68363463 0.354562845,13.8634634 1.94068205,16.161275 C2.71733352,17.2992388 3.64712754,18.5466223 4.87226789,18.5028544 C6.03177572,18.4590866 6.49120335,17.7478592 7.89136375,17.7478592 C9.3024629,17.7478592 9.70719677,18.5028544 10.9323371,18.4809705 C12.2012325,18.4590866 12.9997615,17.3430067 13.7764129,16.2050428 C14.6624519,14.9138915 15.0234308,13.6555661 15.0453083,13.5899144 C15.0234308,13.5680304 12.5950276,12.6379638 12.5731501,9.83682207 C12.5512726,7.49524263 14.4874319,6.3791627 14.5749419,6.31351094 C13.4810666,4.69410086 11.7746211,4.5190295 11.1839284,4.47526166 M19.9677472,1.30209324 L19.9677472,18.3606089 L22.6149255,18.3606089 L22.6149255,12.5285442 L26.2794078,12.5285442 C29.6266662,12.5285442 31.9784981,10.2307326 31.9784981,6.90437678 C31.9784981,3.57802093 29.6704212,1.30209324 26.3669178,1.30209324 L19.9677472,1.30209324 Z M22.6149255,3.53425309 L25.6668376,3.53425309 C27.9639757,3.53425309 29.2766261,4.75975262 29.2766261,6.91531874 C29.2766261,9.07088487 27.9639757,10.3073264 25.6558988,10.3073264 L22.6149255,10.3073264 L22.6149255,3.53425309 L22.6149255,3.53425309 Z M36.813427,18.4919125 C38.4761175,18.4919125 40.0184817,17.6493815 40.7185619,16.3144624 L40.7732556,16.3144624 L40.7732556,18.3606089 L43.2235363,18.3606089 L43.2235363,9.86964795 C43.2235363,7.40770695 41.2545608,5.82112274 38.2245262,5.82112274 C35.4132666,5.82112274 33.3349035,7.42959087 33.2583322,9.63986679 L35.6429804,9.63986679 C35.839878,8.58943863 36.813427,7.90009515 38.1479549,7.90009515 C39.7668904,7.90009515 40.6748069,8.65509039 40.6748069,10.0447193 L40.6748069,10.9857279 L37.3713034,11.1826832 C34.2975138,11.3686965 32.6348233,12.6270219 32.6348233,14.8154139 C32.6348233,17.0256898 34.3522076,18.4919125 36.813427,18.4919125 Z M37.524446,16.4676499 C36.1133468,16.4676499 35.2163691,15.7892483 35.2163691,14.7497621 C35.2163691,13.67745 36.0805306,13.0537583 37.7322823,12.9552807 L40.6748069,12.7692674 L40.6748069,13.7321598 C40.6748069,15.329686 39.3184015,16.4676499 37.524446,16.4676499 Z M46.4942235,23 C49.0757693,23 50.2899709,22.0152236 51.3510299,19.0280685 L56,5.98525214 L53.3090667,5.98525214 L50.1915221,16.0627973 L50.1368283,16.0627973 L47.0192837,5.98525214 L44.2517791,5.98525214 L48.7366679,18.4043768 L48.4960154,19.159372 C48.0912815,20.4395814 47.4349563,20.9319696 46.2645097,20.9319696 C46.0566734,20.9319696 45.6519395,20.9100856 45.4878582,20.8882017 L45.4878582,22.9343482 C45.6410008,22.9781161 46.297326,23 46.4942235,23 Z" id="XMLID_34_"></path>
                            </g>
                        </g>
                    </g>
                </g>
            </g>
        </g>
    </g>
</svg>