<?xml version="1.0" encoding="UTF-8"?>
<svg width="70px" height="50px" viewBox="0 0 70 50" version="1.1" xmlns="http://www.w3.org/2000/svg" xmlns:xlink="http://www.w3.org/1999/xlink">
    <title>Group 23</title>
    <g id="🟢-Updated-Pages" stroke="none" stroke-width="1" fill="none" fill-rule="evenodd">
        <g id="What-is-eCommerce?" transform="translate(-1077, -11505)" fill-rule="nonzero">
            <g id="Offers" transform="translate(120, 11486)">
                <g id="Group-23" transform="translate(957, 19)">
                    <polygon id="Rectangle" fill="#FFFFFF" points="0 0 70 0 70 50 7.2858386e-14 50"></polygon>
                    <g id="Mada_01_b8a74be73c" transform="translate(7, 15)">
                        <rect id="Rectangle" fill="#84B740" x="0" y="10.9563089" width="23.6885205" height="8.02937853"></rect>
                        <rect id="Rectangle" fill="#259BD6" x="0" y="0" width="23.6885205" height="8.03653484"></rect>
                        <path d="M47.3770409,17.354049 L47.2715398,17.3755179 C46.9058026,17.447081 46.7721678,17.4757062 46.5048983,17.4757062 C45.8859583,17.4757062 45.1544838,17.1536723 45.1544838,15.6365348 C45.1544838,14.8564972 45.2810852,13.8188324 46.4345642,13.8188324 L46.4415976,13.8188324 C46.638533,13.833145 46.8636021,13.8546139 47.2856066,13.9834275 L47.3770409,14.0120527 L47.3770409,17.354049 Z M47.566943,9.78983051 L47.3770409,9.82561205 L47.3770409,12.6308851 L47.2082391,12.580791 L47.1590053,12.5664783 C46.9691032,12.5092279 46.5330319,12.3804143 46.1110274,12.3804143 C43.8040693,12.3804143 43.3187641,14.1551789 43.3187641,15.6436911 C43.3187641,17.6832392 44.4441095,18.8568738 46.4064305,18.8568738 C47.2363728,18.8568738 47.8482793,18.7709981 48.4672193,18.5634652 C49.0369254,18.3774011 49.2408942,18.1126177 49.2408942,17.5472693 L49.2408942,9.49642185 C48.6922884,9.59661017 48.1225823,9.69679849 47.566943,9.78983051" id="Shape" fill="#27292D"></path>
                        <path d="M54.2346144,17.4041431 L54.1361467,17.4327684 L53.7844763,17.5258004 C53.4539061,17.6116761 53.1585029,17.6617702 52.9334338,17.6617702 C52.3918613,17.6617702 52.0683245,17.3898305 52.0683245,16.9246704 C52.0683245,16.6241055 52.2019593,16.1160075 53.0881688,16.1160075 L54.2346144,16.1160075 L54.2346144,17.4041431 Z M53.4257724,12.3446328 C52.7153981,12.3446328 51.9839236,12.4734463 51.0766139,12.7596987 L50.4858076,12.9386064 L50.682743,14.2983051 L51.2594825,14.1050847 C51.8643557,13.9047081 52.6169304,13.7758945 53.1796031,13.7758945 C53.4328058,13.7758945 54.2064808,13.7758945 54.2064808,14.6274953 L54.2064808,14.9996234 L53.1303693,14.9996234 C51.1680482,14.9996234 50.2607385,15.6365348 50.2607385,17.0033898 C50.2607385,18.1698682 51.0977141,18.8711864 52.5043959,18.8711864 C52.9404672,18.8711864 53.5453404,18.7853107 54.0658126,18.6564972 L54.0939462,18.6493409 L54.1220799,18.6564972 L54.2979151,18.6851224 C54.846521,18.7853107 55.4162271,18.8854991 55.9718664,18.9928437 L55.9718664,14.527307 C55.9718664,13.0817326 55.1137905,12.3446328 53.4257724,12.3446328" id="Shape" fill="#27292D"></path>
                        <path d="M40.5687013,17.4041431 L40.4702336,17.4327684 L40.1185632,17.5258004 C39.787993,17.6116761 39.4996232,17.6617702 39.2675207,17.6617702 C38.7259483,17.6617702 38.4024115,17.3898305 38.4024115,16.9246704 C38.4024115,16.6241055 38.5360462,16.1160075 39.4152223,16.1160075 L40.5616679,16.1160075 L40.5616679,17.4041431 L40.5687013,17.4041431 Z M39.7668927,12.3446328 C39.0494851,12.3446328 38.325044,12.4734463 37.4177342,12.7596987 L36.8269279,12.9386064 L37.0238634,14.2983051 L37.6006029,14.1050847 C38.205476,13.9047081 38.9580507,13.7758945 39.5207234,13.7758945 C39.7739261,13.7758945 40.5476011,13.7758945 40.5476011,14.6274953 L40.5476011,14.9996234 L39.4714896,14.9996234 C37.5091686,14.9996234 36.5948254,15.6365348 36.5948254,17.0033898 C36.5948254,18.1698682 37.4318011,18.8711864 38.8455162,18.8711864 C39.2815875,18.8711864 39.8864607,18.7853107 40.4069329,18.6564972 L40.4350666,18.6493409 L40.4632002,18.6564972 L40.632002,18.6851224 C41.1876413,18.7853107 41.750314,18.8854991 42.3059962,19 L42.3059962,14.5344633 C42.3129867,13.0745763 41.4549108,12.3446328 39.7668927,12.3446328" id="Shape" fill="#27292D"></path>
                        <path d="M33.162522,12.3589454 C32.2692791,12.3589454 31.5307712,12.6595104 31.2564682,12.7883239 L31.1861341,12.8241055 L31.1228335,12.7740113 C30.7430294,12.4949153 30.1873901,12.3517891 29.4137151,12.3517891 C28.7314745,12.3517891 28.0914343,12.4519774 27.3951269,12.6595104 C26.7972871,12.8455744 26.5651846,13.1389831 26.5651846,13.6900188 L26.5651846,18.792467 L28.4360713,18.792467 L28.4360713,14.0764595 L28.5275057,14.0478343 C28.9073097,13.9190207 29.1323788,13.8975518 29.3504145,13.8975518 C29.8919869,13.8975518 30.1662899,14.1909605 30.1662899,14.7634652 L30.1662899,18.7996234 L32.009043,18.7996234 L32.009043,14.6847458 C32.009043,14.4414313 31.9598091,14.2983051 31.9527757,14.2696798 L31.889475,14.1480226 L32.0160764,14.0907721 C32.2974127,13.9619586 32.6068827,13.8975518 32.9304195,13.8975518 C33.3031902,13.8975518 33.7462949,14.0478343 33.7462949,14.7634652 L33.7462949,18.7996234 L35.5820146,18.7996234 L35.5820146,14.5774011 C35.5820146,13.0817326 34.7942728,12.3589454 33.162522,12.3589454" id="Path" fill="#27292D"></path>
                        <path d="M52.8560663,5.23841808 C52.5817634,5.23841808 52.1245918,5.20979284 51.765888,5.13822976 L51.6603868,5.11676083 L51.6603868,2.36158192 C51.6603868,2.13258004 51.6181864,1.98945386 51.611153,1.96798493 L51.5548857,1.85348399 L51.6744537,1.80338983 C51.7025873,1.78907721 51.7307209,1.7819209 51.765888,1.76760829 L51.7869882,1.75329567 C51.8291886,1.73898305 51.8713891,1.72467043 51.9135896,1.71035782 C51.9346898,1.70320151 51.9487566,1.6960452 51.9628234,1.6960452 C52.3777945,1.58154426 52.7575986,1.59585687 52.9264004,1.58154426 L52.9334338,1.58154426 C54.0798794,1.58154426 54.2135142,2.61920904 54.2135142,3.3992467 C54.2064808,4.91638418 53.4679729,5.23841808 52.8560663,5.23841808 M52.8490329,0 C52.8349661,0 52.8138659,0 52.799799,0 C51.7236875,0 50.6194424,0.300564972 50.2255715,0.887382298 C50.0145692,1.17363465 49.8950013,1.53145009 49.8879678,1.95367232 L49.8879678,1.95367232 L49.8879678,4.79472693 C49.8879678,5.03804143 49.838734,5.13107345 49.8317006,5.15254237 L49.7683999,5.27419962 L46.3712635,5.27419962 L46.3712635,3.29905838 L46.3642301,3.29905838 C46.3220296,1.2165725 45.1122833,0.0715630885 43.3609646,0.0715630885 L43.1569957,0.0715630885 L41.6518463,0.0715630885 C41.5815122,0.579661017 41.5252449,0.93747646 41.4549108,1.44557439 L43.1569957,1.44557439 C44.0502386,1.44557439 44.521477,2.21845574 44.521477,3.40640301 L44.521477,5.39585687 L44.4019091,5.33145009 C44.3808088,5.32429379 44.2331073,5.27419962 44.0010048,5.27419962 L41.0610399,5.27419962 C41.0047727,5.65348399 40.9344386,6.1472693 40.8570711,6.64105461 L49.8950013,6.64105461 C50.2044712,6.57664783 50.5631751,6.51939736 50.8726451,6.4693032 C51.3298166,6.69830508 52.1808591,6.81996234 52.764632,6.81996234 C54.726953,6.81996234 56,5.48173258 56,3.42071563 C55.9929666,1.38116761 54.7621201,0.0429378531 52.8490329,0" id="Shape" fill="#27292D"></path>
                        <path d="M37.0027631,7.47834275 L37.087164,7.47834275 C39.0494851,7.47834275 39.9638282,6.81996234 39.9638282,5.19548023 C39.9638282,4.02900188 39.1268525,3.09868173 37.7201708,3.09868173 L35.9125848,3.09868173 C35.3710123,3.09868173 35.0474755,2.78380414 35.0474755,2.25423729 C35.0474755,1.89642185 35.1811103,1.4527307 36.0673198,1.4527307 L40.0200955,1.4527307 C40.1044964,0.930320151 40.1466968,0.601129944 40.2240643,0.0787193974 L36.1165536,0.0787193974 C34.2034665,0.0787193974 33.2398895,0.894538606 33.2398895,2.25423729 C33.2398895,3.59962335 34.0768651,4.30094162 35.4835468,4.30094162 L37.2911329,4.30094162 C37.8327054,4.30094162 38.1562422,4.73747646 38.1562422,5.19548023 C38.1562422,5.4960452 38.0226074,6.11864407 37.1434313,6.11864407 L36.8409947,6.11864407 L31.0524994,6.10433145 L31.0524994,6.10433145 L29.9974881,6.10433145 C29.1042452,6.10433145 28.4782718,5.58907721 28.4782718,4.39397363 L28.4782718,3.57099812 C28.4782718,2.32580038 28.963577,1.55291902 29.9974881,1.55291902 L31.7136398,1.55291902 C31.7910073,1.02335217 31.8402411,0.68700565 31.9105752,0.18606403 L29.772419,0.18606403 L29.5684501,0.18606403 C27.8171314,0.18606403 26.6073851,1.38116761 26.5651846,3.46365348 L26.5651846,3.46365348 L26.5651846,3.54237288 L26.5651846,4.39397363 C26.6073851,6.47645951 27.8171314,7.47118644 29.5684501,7.47118644 L29.772419,7.47118644 L31.2775685,7.47118644 L34.4144687,7.47834275 L34.4144687,7.47834275 L36.2853554,7.47834275 L37.0027631,7.47834275 L37.0027631,7.47834275 Z" id="Path" fill="#27292D"></path>
                    </g>
                </g>
            </g>
        </g>
    </g>
</svg>