<?xml version="1.0" encoding="UTF-8"?>
<svg width="70px" height="50px" viewBox="0 0 70 50" version="1.1" xmlns="http://www.w3.org/2000/svg" xmlns:xlink="http://www.w3.org/1999/xlink">
    <title>Group 27</title>
    <g id="🟢-Updated-Pages" stroke="none" stroke-width="1" fill="none" fill-rule="evenodd">
        <g id="What-is-eCommerce?" transform="translate(-1233, -11505)" fill-rule="nonzero">
            <g id="Offers" transform="translate(120, 11486)">
                <g id="Group-8" transform="translate(957, 19)">
                    <g id="Group-27" transform="translate(156, 0)">
                        <g id="Group-24" fill="#FFFFFF">
                            <polygon id="Rectangle" points="0 0 70 0 70 50 7.2858386e-14 50"></polygon>
                        </g>
                        <g id="1322427_card_master_master-card_master-card-new-logo_method_icon" transform="translate(16, 13)">
                            <g id="g3110">
                                <path d="M38,12 C38,18.6296039 32.7397201,24 26.2523143,24 C19.7649085,24 14.5046286,18.6296039 14.5046286,12 C14.5046286,5.37039611 19.7567277,0 26.2441335,0 C32.7315393,0 38,5.37039611 38,12 L38,12 Z" id="path2997" fill="#F79F1A"></path>
                                <path d="M23.4953714,12 C23.4953714,18.6296039 18.2350915,24 11.7476857,24 C5.26027987,24 0,18.6296039 0,12 C0,5.37039611 5.26027987,0 11.7476857,0 C18.2350915,0 23.4953714,5.37039611 23.4953714,12 L23.4953714,12 Z" id="path2995" fill="#EA001B"></path>
                                <path d="M18.9959096,2.55177206 C16.2553283,4.74496178 14.4964478,8.16400278 14.4964478,12 C14.4964478,15.8359972 16.2553283,19.2550382 18.9959096,21.4482279 C21.7364909,19.2550382 23.4953714,15.8359972 23.4953714,12 C23.4953714,8.16400278 21.7364909,4.7533009 18.9959096,2.55177206 Z" id="path2999" fill="#FF5F01"></path>
                            </g>
                            <g id="text3045" transform="translate(37.0668, 17.9381)" fill="#F79F1A">
                                <path d="M1,1 L1,0.0243902439 L0.885057471,0.0243902439 L0.747126437,0.707317073 L0.609195402,0 L0.482758621,0 L0.482758621,0.975609756 L0.563218391,0.975609756 L0.563218391,0.243902439 L0.689655172,0.87804878 L0.781609195,0.87804878 L0.91954023,0.243902439 L0.91954023,1 L1,1 Z M0.229885057,1 L0.229885057,0.170731707 L0.390804598,0.170731707 L0.390804598,0 L0,0 L0,0.170731707 L0.16091954,0.170731707 L0.16091954,1 L0.229885057,1 Z" id="path3057"></path>
                            </g>
                        </g>
                    </g>
                </g>
            </g>
        </g>
    </g>
</svg>