<?xml version="1.0" encoding="UTF-8"?>
<svg width="70px" height="50px" viewBox="0 0 70 50" version="1.1" xmlns="http://www.w3.org/2000/svg" xmlns:xlink="http://www.w3.org/1999/xlink">
    <title>Group 25</title>
    <g id="🟢-Updated-Pages" stroke="none" stroke-width="1" fill="none" fill-rule="evenodd">
        <g id="What-is-eCommerce?" transform="translate(-1155, -11505)">
            <g id="Offers" transform="translate(120, 11486)">
                <g id="Group-8" transform="translate(957, 19)">
                    <g id="Group-24" transform="translate(78, 0)">
                        <polygon id="Rectangle" fill="#FFFFFF" fill-rule="nonzero" points="0 0 70 0 70 50 7.2858386e-14 50"></polygon>
                        <g id="294654_visa_icon" transform="translate(11, 17)">
                            <g id="形状_1" transform="translate(4.1951, 0)" fill="#005BAC">
                                <path d="M15.2028544,0.276651191 L12.7598824,15.7339604 L16.6684293,15.7339604 L19.1117136,0.276651191 L15.2028544,0.276651191 Z M9.47131842,0.276651191 L5.7447581,10.9080531 L5.30395081,8.61874041 L5.30426314,8.61949072 L5.20712729,8.10638369 C4.75611708,7.10568027 3.71156829,5.20374353 1.73917947,3.58060172 C1.15605201,3.10083003 0.568239543,2.69137341 0,2.34162027 L3.3868451,15.7339604 L7.4592632,15.7339604 L13.6781442,0.276651191 L9.47131842,0.276651191 Z M24.725812,4.56790669 C24.725812,2.82032009 28.5324339,3.04487811 30.2050863,3.99380992 L30.7628106,0.673995619 C30.7628106,0.673995619 29.0414341,0 27.2471798,0 C25.3073778,0 20.701181,0.873364552 20.701181,5.11702876 C20.701181,9.11083868 26.1074732,9.16046653 26.1074732,11.2572703 C26.1074732,13.3540741 21.258593,12.9793463 19.6584021,11.6566513 L19.0768363,15.1266354 C19.0768363,15.1266354 20.8220542,16 23.489282,16 C26.1561973,16 30.1807242,14.5775134 30.1807242,10.7081483 C30.1807242,6.68936364 24.725812,6.31506455 24.725812,4.56790669 Z M40.6756651,0.276651191 L37.5330651,0.276651191 C36.0819616,0.276651191 35.7286078,1.42859631 35.7286078,1.42859631 L29.8996237,15.7339604 L33.9736034,15.7339604 L34.7885868,13.4381092 L39.7576115,13.4381092 L40.2160136,15.7339604 L43.8049388,15.7339604 L40.6756651,0.276651191 Z M35.9149671,10.2661066 L37.9688751,4.48162068 L39.1243024,10.2661066 L35.9149671,10.2661066 Z" id="Shape"></path>
                            </g>
                            <g id="形状_1_1_" transform="translate(0, 0.3369)" fill="#F6AC1D">
                                <path d="M8.23759937,1.39504659 C8.23759937,1.39504659 8.07581039,0 6.34860372,0 L0.0735025865,0 L0,0.262180866 C0,0.262180866 3.01631294,0.895230822 5.91008687,3.26697081 C8.67549155,5.53377414 9.57761607,8.35945361 9.57761607,8.35945361 L8.23759937,1.39504659 Z" id="Path"></path>
                            </g>
                        </g>
                    </g>
                </g>
            </g>
        </g>
    </g>
</svg>