<?xml version="1.0" encoding="UTF-8"?>
<svg width="32px" height="32px" viewBox="0 0 32 32" version="1.1" xmlns="http://www.w3.org/2000/svg" xmlns:xlink="http://www.w3.org/1999/xlink">
    <title>760591B2-D5E5-4C88-8410-95B31AB36B2E</title>
    <g id="Core-Pages" stroke="none" stroke-width="1" fill="none" fill-rule="evenodd">
        <g id="Graphic-Design" transform="translate(-311.5, -9243)">
            <rect fill="#FFFFFF" x="0" y="0" width="1440" height="9371"></rect>
            <g id="UI/Molecules/Footer" transform="translate(50.5, 8187)">
                <g id="Footer" transform="translate(0, 88)">
                    <g id="Group" transform="translate(69, 968)">
                        <g id="Icons/Social/Facebook" transform="translate(192, 0)">
                            <polygon id="Path" points="0 0 32 0 32 32 0 32"></polygon>
                            <path d="M29.3333333,16.0333333 C29.3333333,8.67333333 23.36,2.7 16,2.7 C8.64,2.7 2.66666667,8.67333333 2.66666667,16.0333333 C2.66666667,22.4866667 7.25333333,27.86 13.3333333,29.1 L13.3333333,20.0333333 L10.6666667,20.0333333 L10.6666667,16.0333333 L13.3333333,16.0333333 L13.3333333,12.7 C13.3333333,10.1266667 15.4266667,8.03333333 18,8.03333333 L21.3333333,8.03333333 L21.3333333,12.0333333 L18.6666667,12.0333333 C17.9333333,12.0333333 17.3333333,12.6333333 17.3333333,13.3666667 L17.3333333,16.0333333 L21.3333333,16.0333333 L21.3333333,20.0333333 L17.3333333,20.0333333 L17.3333333,29.3 C24.0666667,28.6333333 29.3333333,22.9533333 29.3333333,16.0333333 Z" id="Facebook" fill="#4938A1" fill-rule="nonzero"></path>
                        </g>
                    </g>
                </g>
            </g>
        </g>
    </g>
</svg>