<?xml version="1.0" encoding="UTF-8"?>
<svg width="32px" height="32px" viewBox="0 0 32 32" version="1.1" xmlns="http://www.w3.org/2000/svg" xmlns:xlink="http://www.w3.org/1999/xlink">
    <title>9C7D1C0F-F867-4A51-9D7F-551B467E9A70</title>
    <g id="Core-Pages" stroke="none" stroke-width="1" fill="none" fill-rule="evenodd">
        <g id="Graphic-Design" transform="translate(-247.5, -9243)">
            <rect fill="#FFFFFF" x="0" y="0" width="1440" height="9371"></rect>
            <g id="UI/Molecules/Footer" transform="translate(50.5, 8187)">
                <g id="Footer" transform="translate(0, 88)">
                    <g id="Group" transform="translate(69, 968)">
                        <g id="Icons/Social/Instagram" transform="translate(128, 0)">
                            <polygon id="Path" points="0 0 32 0 32 32 0 32"></polygon>
                            <path d="M16,2.66666667 C19.6226667,2.66666667 20.0746667,2.68 21.496,2.74666667 C22.916,2.81333333 23.8826667,3.036 24.7333333,3.36666667 C25.6133333,3.70533333 26.3546667,4.164 27.096,4.904 C27.7739916,5.57052795 28.2986048,6.37678528 28.6333333,7.26666667 C28.9626667,8.116 29.1866667,9.084 29.2533333,10.504 C29.316,11.9253333 29.3333333,12.3773333 29.3333333,16 C29.3333333,19.6226667 29.32,20.0746667 29.2533333,21.496 C29.1866667,22.916 28.9626667,23.8826667 28.6333333,24.7333333 C28.2995688,25.623702 27.7748276,26.430156 27.096,27.096 C26.4292819,27.773759 25.6230791,28.2983368 24.7333333,28.6333333 C23.884,28.9626667 22.916,29.1866667 21.496,29.2533333 C20.0746667,29.316 19.6226667,29.3333333 16,29.3333333 C12.3773333,29.3333333 11.9253333,29.32 10.504,29.2533333 C9.084,29.1866667 8.11733333,28.9626667 7.26666667,28.6333333 C6.3764349,28.2992978 5.57003629,27.7745926 4.904,27.096 C4.22587525,26.429581 3.70124164,25.6232924 3.36666667,24.7333333 C3.036,23.884 2.81333333,22.916 2.74666667,21.496 C2.684,20.0746667 2.66666667,19.6226667 2.66666667,16 C2.66666667,12.3773333 2.68,11.9253333 2.74666667,10.504 C2.81333333,9.08266667 3.036,8.11733333 3.36666667,7.26666667 C3.7003148,6.37623921 4.22507152,5.56976141 4.904,4.904 C5.57022797,4.22564164 6.37657145,3.70097232 7.26666667,3.36666667 C8.11733333,3.036 9.08266667,2.81333333 10.504,2.74666667 C11.9253333,2.684 12.3773333,2.66666667 16,2.66666667 Z M16,9.33333333 C12.3181017,9.33333333 9.33333333,12.3181017 9.33333333,16 C9.33333333,19.6818983 12.3181017,22.6666667 16,22.6666667 C19.6818983,22.6666667 22.6666667,19.6818983 22.6666667,16 C22.6666667,12.3181017 19.6818983,9.33333333 16,9.33333333 L16,9.33333333 Z M24.6666667,9 C24.6666667,8.07952542 23.9204746,7.33333333 23,7.33333333 C22.0795254,7.33333333 21.3333333,8.07952542 21.3333333,9 C21.3333333,9.92047458 22.0795254,10.6666667 23,10.6666667 C23.9204746,10.6666667 24.6666667,9.92047458 24.6666667,9 Z M16,12 C18.209139,12 20,13.790861 20,16 C20,18.209139 18.209139,20 16,20 C13.790861,20 12,18.209139 12,16 C12,13.790861 13.790861,12 16,12 Z" id="instagram" fill="#4938A1" fill-rule="nonzero"></path>
                        </g>
                    </g>
                </g>
            </g>
        </g>
    </g>
</svg>