<?xml version="1.0" encoding="UTF-8"?>
<svg width="32px" height="32px" viewBox="0 0 32 32" version="1.1" xmlns="http://www.w3.org/2000/svg" xmlns:xlink="http://www.w3.org/1999/xlink">
    <title>3FEE622E-44DA-4B67-915E-51F11B647DC4</title>
    <g id="Core-Pages" stroke="none" stroke-width="1" fill="none" fill-rule="evenodd">
        <g id="Graphic-Design" transform="translate(-119.5, -9243)">
            <rect fill="#FFFFFF" x="0" y="0" width="1440" height="9371"></rect>
            <g id="UI/Molecules/Footer" transform="translate(50.5, 8187)">
                <g id="Footer" transform="translate(0, 88)">
                    <g id="Icons/Social/Twitter" transform="translate(69, 968)">
                        <polygon id="Path" points="0 0 32 0 32 32 0 32"></polygon>
                        <path d="M29.5493333,7.54133333 C28.5314093,7.99159164 27.4519468,8.28729785 26.3466667,8.41866667 C27.5116678,7.72191109 28.3836073,6.6253523 28.8,5.33333333 C27.7066667,5.984 26.508,6.44 25.2586667,6.68666667 C23.5331327,4.84042602 20.7817034,4.38545204 18.5536884,5.57793723 C16.3256733,6.77042242 15.1781717,9.31219434 15.7573333,11.772 C11.2733634,11.5472577 7.09565852,9.4293261 4.264,5.94533333 C3.76838682,6.79660042 3.50794019,7.7643023 3.50933333,8.74933333 C3.50933333,10.6826667 4.49333333,12.3906667 5.98933333,13.3906667 C5.10401175,13.362795 4.23817653,13.1237074 3.464,12.6933333 L3.464,12.7626667 C3.46455092,15.4173811 5.33535256,17.7041642 7.93733333,18.2306667 C7.11548671,18.4533825 6.25374225,18.4862109 5.41733333,18.3266667 C6.14683597,20.5989107 8.2406019,22.1557037 10.6266667,22.2 C8.29058878,24.0346925 5.32098666,24.8654712 2.372,24.5093333 C4.92093038,26.148577 7.88812909,27.0188319 10.9186667,27.0160069 C21.176,27.0160069 26.7853333,18.5186667 26.7853333,11.1493333 C26.7853333,10.9093333 26.7786667,10.6666667 26.768,10.4293333 C27.8598188,9.64022355 28.8021316,8.66269252 29.5506667,7.54266667 L29.5493333,7.54133333 Z" id="Path" fill="#4938A1" fill-rule="nonzero"></path>
                    </g>
                </g>
            </g>
        </g>
    </g>
</svg>