<?xml version="1.0" encoding="UTF-8"?>
<svg id="Layer_1" data-name="Layer 1" xmlns="http://www.w3.org/2000/svg" version="1.1" xmlns:xlink="http://www.w3.org/1999/xlink" viewBox="0 0 99.8 162.3">
  <defs>
    <style>
      .cls-1 {
        fill: url(#linear-gradient);
      }

      .cls-1, .cls-2, .cls-3, .cls-4, .cls-5, .cls-6, .cls-7, .cls-8, .cls-9 {
        stroke-width: 0px;
      }

      .cls-2 {
        fill: url(#linear-gradient-6);
      }

      .cls-3, .cls-5, .cls-8 {
        fill: #e14e1d;
        fill-rule: evenodd;
      }

      .cls-4 {
        fill: url(#linear-gradient-5);
      }

      .cls-5 {
        fill-opacity: .8;
      }

      .cls-6 {
        fill: url(#linear-gradient-2);
      }

      .cls-7 {
        fill: url(#linear-gradient-3);
      }

      .cls-8 {
        fill-opacity: .6;
      }

      .cls-9 {
        fill: url(#linear-gradient-4);
      }
    </style>
    <linearGradient id="linear-gradient" x1="-10.5" y1="140.7" x2="86.5" y2="95.8" gradientUnits="userSpaceOnUse">
      <stop offset="0" stop-color="#4c34bb"/>
      <stop offset="1" stop-color="#24156d"/>
    </linearGradient>
    <linearGradient id="linear-gradient-2" x1="-5.2" y1="152.3" x2="91.8" y2="107.3" xlink:href="#linear-gradient"/>
    <linearGradient id="linear-gradient-3" x1="-9.2" y1="143.7" x2="87.8" y2="98.7" xlink:href="#linear-gradient"/>
    <linearGradient id="linear-gradient-4" x1="1.9" y1="167.5" x2="98.9" y2="122.5" xlink:href="#linear-gradient"/>
    <linearGradient id="linear-gradient-5" x1="4.4" y1="173" x2="101.4" y2="128" xlink:href="#linear-gradient"/>
    <linearGradient id="linear-gradient-6" x1="3.2" y1="170.4" x2="100.2" y2="125.5" xlink:href="#linear-gradient"/>
  </defs>
  <g>
    <rect class="cls-1" x="17.1" y="124.4" width="4.8" height="4.8"/>
    <path class="cls-6" d="M29,135.5c-.7-.7-1.6-1.1-2.6-1.4-1-.3-2-.4-3-.4-1.7,0-3.1.3-4.1.8-1.1.6-1.9,1.2-2.5,2-.6.8-1,1.6-1.2,2.5-.2.9-.3,1.8-.3,2.5v7.7h-7c-1.4,0-3.1-.6-3.1-3.7v-11.6H.2v11.4c0,2.6.7,4.6,2.1,6,1.4,1.4,3.4,2.1,5.9,2.1h15.2c1.6,0,3-.3,4.1-.8,1.1-.6,1.9-1.2,2.4-1.9.5-.7.9-1.5,1.2-2.3.3-.8.4-1.8.4-2.9v-4.1c0-1.4-.2-2.6-.7-3.6-.5-1-1.1-1.9-1.8-2.5ZM26.5,145.6c0,1.3-.2,2.2-.7,2.8-.5.6-1.3.9-2.4.9h-3.2v-7.6c0-1.3.2-2.2.7-2.8.5-.6,1.3-.9,2.5-.9s1.9.3,2.4.9c.5.6.7,1.6.7,2.8v3.9Z"/>
    <rect class="cls-7" x="24.8" y="124.4" width="4.8" height="4.8"/>
    <rect class="cls-9" x="87.3" y="124.4" width="4.8" height="4.8"/>
    <path class="cls-4" d="M88.8,149.3c-1.1,0-1.9-.3-2.4-.9-.5-.6-.7-1.5-.7-2.8v-11.5h-5v11.6c0,1.3-.2,2.2-.7,2.7-.5.6-1.3.9-2.5.9s-1.9-.3-2.4-.9c-.5-.6-.7-1.5-.7-2.8v-11.5h-5v11.5c0,1.3-.2,2.2-.7,2.8-.5.6-1.3.9-2.5.9s-1.9-.3-2.4-.9c-.5-.6-.7-1.5-.7-2.8v-11.5h-5v11.6c0,1.2-.2,2.1-.7,2.7-.5.6-1.3.9-2.5.9h-2.9v-7.7c0-1.4-.2-2.6-.7-3.6-.5-1-1-1.8-1.7-2.4-.7-.6-1.5-1-2.4-1.4-.9-.4-2.1-.5-3.4-.5s-3,.3-4.1.8c-1.1.6-1.9,1.2-2.4,1.9-.5.7-.9,1.5-1.2,2.3-.3.8-.4,1.8-.4,2.9v4.1c0,1.4.2,2.6.7,3.6.5,1,1,1.8,1.7,2.4.6.6,1.4,1,2.3,1.4.9.4,2,.5,3.4.5h3.2v1.5c0,1-.3,1.7-.8,2.2-.5.5-1.3.7-2.4.7h-1v4.3h1.5c2.5,0,4.4-.5,5.7-1.5,1.3-1,1.9-2.7,1.9-5.2v-2h2.9c2.3,0,4.2-.6,5.5-1.7h.2c0-.1.2,0,.2,0,1.4,1.1,3.2,1.7,5.4,1.7s4.2-.6,5.5-1.7h.2c0-.1.2,0,.2,0,1.4,1.1,3.2,1.7,5.4,1.7s4.2-.6,5.5-1.7h.2c0-.1.2,0,.2,0,1.4,1.1,3.2,1.7,5.4,1.7h2.9c1.6,0,3-.3,4.1-.8,1.1-.6,1.9-1.2,2.4-1.9.5-.7.9-1.5,1.2-2.3.3-.8.4-1.8.4-2.9v-11.6h-5v11.6c0,1.3-.2,2.2-.7,2.7-.5.6-1.3.9-2.4.9h-2.9ZM47,149.3h-3.2c-1.1,0-1.9-.3-2.4-.9-.5-.6-.7-1.5-.7-2.8v-3.9c0-1.3.2-2.2.7-2.8.5-.6,1.3-.9,2.4-.9s2,.3,2.5.9c.5.6.7,1.6.7,2.8v7.6Z"/>
    <rect class="cls-2" x="94.9" y="124.4" width="4.8" height="4.8"/>
  </g>
  <g id="DS-Book">
    <g id="Logo">
      <g id="Group-Copy-3">
        <g id="Color-Card-2">
          <g id="Brand_Logo_White" data-name="Brand/Logo/White">
            <polygon id="Fill-1" class="cls-5" points="49.9 114.9 99.8 86.2 99.8 28.7 49.9 57.4 49.9 114.9"/>
            <polygon id="Fill-3" class="cls-8" points="0 28.7 49.9 57.4 99.8 28.7 49.9 0 0 28.7"/>
            <polygon id="Fill-6" class="cls-3" points="0 86.2 14.7 94.7 4.8 111.9 34.2 105.9 49.9 114.9 49.9 57.4 0 28.7 0 86.2"/>
          </g>
        </g>
      </g>
    </g>
  </g>
</svg>