<?xml version="1.0" encoding="UTF-8"?>
<svg width="160px" height="160px" viewBox="0 0 160 160" version="1.1" xmlns="http://www.w3.org/2000/svg" xmlns:xlink="http://www.w3.org/1999/xlink">
    <title>Brand/Illustrations/Printing</title>
    <g id="Brand/Illustrations/Printing" stroke="none" stroke-width="1" fill="none" fill-rule="evenodd">
        <rect id="background" fill-opacity="0" fill="#FFFFFF" fill-rule="nonzero" x="0" y="0" width="160" height="160"></rect>
        <g id="icon" transform="translate(16.0018, 29.5)">
            <polygon id="Fill-1" fill="#7ACEF0" points="-3.55271368e-15 80.95883 11.6864198 87.7055674 11.6864198 33.732416 -3.55271368e-15 26.9849309"></polygon>
            <polygon id="Fill-2" fill="#4C34BB" points="81.8027703 87.7060908 116.861282 67.465131 116.861282 13.4927271 81.8027703 33.7329393"></polygon>
            <polygon id="Fill-3" fill="#4C34BB" points="11.6855974 87.7072123 58.4297812 60.7187674 58.4297812 6.74636357 11.6855974 33.7340608"></polygon>
            <polygon id="Fill-4" fill="#3C28B2" points="70.1230046 40.4796767 81.8094244 33.7329393 81.8094244 20.2394645 70.1230046 26.9862019"></polygon>
            <polygon id="Fill-5" fill="#7ACEF0" points="70.1230046 26.990314 70.1230046 26.9858281 46.7434362 13.493101 46.7434362 67.4662524 70.1162758 80.9552414 70.1162758 80.9589796 81.8026956 87.705717 81.8026956 33.7333131"></polygon>
            <path d="M46.7435857,9.9475983e-14 L0.000149528754,26.9854543 L11.6865693,33.7321917 L46.7443334,13.4927271 L46.7443334,13.4927271 L50.2754549,11.4539026 L58.4300055,6.74598975 L46.7435857,9.9475983e-14 Z M81.8043404,20.2372216 L58.4307532,6.74598975 L50.2754549,11.4539026 L46.7443334,13.4927271 L70.1186682,26.983959 L70.1164253,26.9854543 L81.8028451,33.7321917 L116.861357,13.4927271 L105.174189,6.74598975 L81.8043404,20.2372216 Z" id="Fill-6" fill="#FFFFFF"></path>
            <path d="M11.6865693,87.7051189 L23.3714938,94.4518562 L46.7428381,80.9591291 L81.8020975,101.200837 L93.4877696,94.4540992 L58.4292579,74.2123917 L46.7428381,67.4656543 L11.6865693,87.7051189 Z M81.8028451,87.7058665 L93.4892649,94.4533515 L128.545534,74.2131394 L116.860609,67.466402 L81.8028451,87.7058665 Z" id="Fill-7" fill="#24156D"></path>
            <path d="M105.175386,41.2189469 L111.021212,57.3501089 L103.293893,61.8069469 L103.323547,61.8568308 L91.6318935,68.6005776 L97.4777201,51.7337341 L100.950893,57.7497341 L99.3303066,64.093108 L105.175386,41.2189469 Z" id="Combined-Shape" fill-opacity="0.4" fill="#24156D"></path>
            <g id="Group-24" transform="translate(20.5085, 43.4513)">
                <path d="M69.8446594,5.8515835 L69.8446594,5.8515835 C69.845406,6.58203147 69.455136,7.37602915 68.823377,7.93377141 L68.8226293,7.93451905 C67.4604224,9.13747788 65.7572899,8.67393874 65.7587842,7.1001486 C65.7587842,6.37119592 66.1483076,5.57869353 66.7785713,5.02095127 L66.7793189,5.02095127 C68.1415259,3.8172448 69.8446594,4.27854101 69.8446594,5.8515835" id="Fill-10" fill-opacity="0.4" fill="#24156D"></path>
                <path d="M10.2419736,7.94117308 L10.2419736,7.94117308 C10.2419736,9.77065739 9.26555083,11.7601375 7.68054603,13.1597266 L7.67905074,13.1612219 C4.26456164,16.1757216 -0.00298900418,15.0138832 0,11.0708099 L0,11.0700623 C0.00149685844,9.24282088 0.975676692,7.25707903 2.55843856,5.85898518 L2.55993384,5.85823753 C5.97218001,2.84224256 10.2404783,3.99959512 10.2419736,7.94117308" id="Fill-12" fill-opacity="0.4" fill="#24156D"></path>
                <path d="M17.0306538,3.79010533 L17.0306538,3.79010533 C17.0306538,5.62033728 16.054231,7.60906972 14.4692262,9.00865886 L14.467731,9.01015414 C11.0532418,12.0254015 6.7856912,10.8628154 6.78868021,6.91974216 C6.79017706,5.09175314 7.7643569,3.10601128 9.34711876,1.70866507 L9.34861405,1.70716979 C12.7608602,-1.30882519 17.0299062,-0.151472628 17.0306538,3.79010533" id="Fill-14" fill-opacity="0.4" fill="#24156D"></path>
                <polygon id="Fill-16" fill="#24156D" points="37.9208675 0 37.9193722 3.77410576 49.6147637 10.5260767 49.6147637 6.74748503"></polygon>
                <polygon id="Fill-18" fill="#24156D" points="37.9193722 10.522488 49.6147637 17.2752065 49.6147637 13.4966149 37.9208675 6.74912985"></polygon>
                <polygon id="Fill-20" fill="#24156D" points="37.9193722 17.2713935 49.6147637 24.0233644 49.6147637 20.2455204 37.9208675 13.4980354"></polygon>
                <path d="M7.43614128,4.25917704 C7.02194663,5.13167732 6.78942942,6.05127915 6.78868037,6.93499409 C6.78718649,9.01194849 7.97519244,10.3076151 9.59458885,10.637326 C10.0087835,9.76258283 10.2420484,8.84148571 10.2420484,7.95702313 L10.2420484,7.95627548 C10.2413007,5.88156402 9.0540424,4.58814029 7.43614128,4.25917704" id="Fill-22" fill="#4C34BB"></path>
            </g>
        </g>
    </g>
</svg>