<?xml version="1.0" encoding="UTF-8"?>
<svg id="Layer_1" data-name="Layer 1" xmlns="http://www.w3.org/2000/svg" version="1.1" xmlns:xlink="http://www.w3.org/1999/xlink" viewBox="0 0 63.6 69.8">
  <defs>
    <style>
      .cls-1 {
        fill: #24156d;
        fill-rule: evenodd;
      }

      .cls-1, .cls-2 {
        stroke-width: 0px;
      }

      .cls-2 {
        fill: none;
      }

      .cls-3 {
        clip-path: url(#clippath);
      }
    </style>
    <clipPath id="clippath">
      <rect class="cls-2" width="63.5" height="69.8"/>
    </clipPath>
  </defs>
  <g class="cls-3">
    <g id="Group_76" data-name="Group 76">
      <path id="Path_56" data-name="Path 56" class="cls-1" d="M31.7,0c11.8,7.5,22.6,11.1,31.7,10.2,1.6,32.5-10.4,51.6-31.6,59.6C11.3,62.4-.9,44,0,9.7c10.8.6,21.4-1.8,31.6-9.7M19.2,38c-.7-.6-.8-1.6-.3-2.2.6-.7,1.6-.8,2.2-.3,0,0,0,0,0,0l6.5,5.6,14.3-15.7c.6-.7,1.6-.7,2.3-.1.7.6.7,1.6.1,2.3h0l-15.4,16.9h0c-.6.6-1.6.7-2.2.1l-7.7-6.6Z"/>
    </g>
  </g>
</svg>