<?xml version="1.0" encoding="UTF-8"?>
<svg id="Layer_1" data-name="Layer 1" xmlns="http://www.w3.org/2000/svg" version="1.1" xmlns:xlink="http://www.w3.org/1999/xlink" viewBox="0 0 74.9 54.9">
  <defs>
    <style>
      .cls-1 {
        fill: none;
      }

      .cls-1, .cls-2 {
        stroke-width: 0px;
      }

      .cls-3 {
        clip-path: url(#clippath);
      }

      .cls-2 {
        fill: #24156d;
      }
    </style>
    <clipPath id="clippath">
      <rect class="cls-1" width="74.9" height="54.9"/>
    </clipPath>
  </defs>
  <g class="cls-3">
    <g id="Group_68" data-name="Group 68">
      <path id="Path_49" data-name="Path 49" class="cls-2" d="M3.7,5.8h5V0h3.8v5.8h7V0h3.8v5.8h7V0h3.8v5.8h7V0h3.8v5.8h7V0h3.8v5.8h7V0h3.8v5.8h5c1,0,1.9.4,2.6,1.1h0c.7.7,1.1,1.6,1.1,2.6v36.2c0,1-.4,1.9-1.1,2.6h0c-.7.7-1.6,1.1-2.6,1.1h-5v5.5h-3.8v-5.5h-7v5.5h-3.8v-5.5h-7v5.5h-3.8v-5.5h-7v5.5h-3.8v-5.5h-7v5.5h-3.8v-5.5h-7v5.5h-3.8v-5.5H3.7c-1,0-1.9-.4-2.6-1.1h0c-.7-.7-1.1-1.6-1.1-2.6V9.5c0-1,.4-1.9,1.1-2.6h0c.7-.7,1.6-1.1,2.6-1.1M26.3,35.1h-5.3l-2-4.4h-1.3v4.4h-4.6v-14.9h7.5c3.4,0,5.1,1.7,5.1,5.2s-.7,4-2.2,4.7l2.6,5ZM17.8,23.8v3.4h1.3c.4,0,.9,0,1.3-.2.3-.1.4-.4.4-.8v-1.4c0-.4-.1-.7-.4-.8-.4-.1-.8-.2-1.3-.2h-1.3ZM32.3,35.1h-5l3.9-14.9h7.4l3.9,14.9h-5l-.5-2.4h-3.9l-.5,2.4ZM34.2,24.8l-.5,4.2h2.2l-.5-4.2h-1.2ZM48.4,35.1h-5l.9-14.9h6.2l1.9,7.6h.2l1.9-7.6h6.2l.9,14.9h-5l-.3-7.2h-.2l-1.8,7.2h-3.7l-1.8-7.2h-.1l-.3,7.2ZM71.1,9.6H3.8v36h67.3V9.6Z"/>
    </g>
  </g>
</svg>