<?xml version="1.0" encoding="UTF-8"?>
<svg id="Layer_1" data-name="Layer 1" xmlns="http://www.w3.org/2000/svg" version="1.1" xmlns:xlink="http://www.w3.org/1999/xlink" viewBox="0 0 70.4 67.7">
  <defs>
    <style>
      .cls-1 {
        fill: none;
      }

      .cls-1, .cls-2 {
        stroke-width: 0px;
      }

      .cls-3 {
        clip-path: url(#clippath);
      }

      .cls-2 {
        fill: #24156d;
      }
    </style>
    <clipPath id="clippath">
      <rect class="cls-1" width="70.3" height="67.7"/>
    </clipPath>
  </defs>
  <g class="cls-3">
    <g id="Group_72" data-name="Group 72">
      <path id="Path_51" data-name="Path 51" class="cls-2" d="M42,52.5h25.7c2,0,2.6.6,2.6,2.6,0,3.4,0,6.8,0,10.2,0,1.9-.6,2.4-2.5,2.4H16c-1.8,0-2.4-.6-2.4-2.4,0-3.5,0-7,0-10.5,0-1.7.6-2.3,2.3-2.3,8.7,0,17.4,0,26.1,0M20,61.6h20.2v-3.2h-20.2v3.2ZM58.5,60c0,1.5,1.2,2.7,2.6,2.7,0,0,0,0,0,0,1.5,0,2.6-1.1,2.7-2.6,0,0,0,0,0,0,0-1.5-1.1-2.7-2.6-2.8-1.5,0-2.7,1.1-2.8,2.6,0,0,0,0,0,0"/>
      <path id="Path_52" data-name="Path 52" class="cls-2" d="M13.6,10.8c3.8,0,7.7,0,11.5,0,.9,0,1.8,0,2,1,.1.8,0,1.5-.3,2.2-1.2,2-2.6,3.8-3.9,5.8-.4.6-.6,1.3-.6,2-.1,4.2,0,8.4-.3,12.6-.5,5.2-2.5,10.1-5.9,14.1-1.4,1.7-3.7,1.5-5.2-.3-2.9-3.4-4.7-7.6-5.4-12-.4-4.4-.6-8.9-.5-13.3,0-1.4-.4-2.8-1.2-3.9-1.2-1.6-2.4-3.3-3.4-5.1-.4-.6-.5-1.4-.3-2.1.5-.6,1.1-.9,1.9-.9,3.9,0,7.8,0,11.7,0"/>
      <path id="Path_53" data-name="Path 53" class="cls-2" d="M19.2,49.2c1-1.8,2-3.6,3-5.3.4-.3.8-.5,1.3-.5,5,0,10.1,0,15.1,0h1.5v-3.4h-16.4l1.2-5.9h42.7c2.1,0,2.7.5,2.7,2.7,0,3.4,0,6.7,0,10.1,0,1.8-.6,2.4-2.4,2.4-15.9,0-31.9,0-47.8,0-.3,0-.6,0-.9,0M63.9,41.7c.1-1.5-1-2.8-2.5-2.9-1.5-.1-2.8,1-2.9,2.5,0,.1,0,.2,0,.3,0,1.5,1.2,2.7,2.7,2.8,1.5,0,2.7-1.2,2.7-2.7"/>
      <path id="Path_54" data-name="Path 54" class="cls-2" d="M40.2,25v-3.5h-15.2c1.4-2,2.6-3.8,3.8-5.6.3-.2.6-.3.9-.3,12.8,0,25.6,0,38.5,0,1.3,0,1.9.6,1.9,2,0,3.6,0,7.2,0,10.8,0,1.8-.5,2.3-2.3,2.3H25v-5.8h15.2ZM63.9,23.2c0-1.5-1.2-2.7-2.7-2.7-1.5,0-2.7,1.2-2.7,2.7,0,1.5,1.2,2.7,2.7,2.7,1.5,0,2.7-1.1,2.7-2.6,0,0,0,0,0,0"/>
      <rect id="Rectangle_26" data-name="Rectangle 26" class="cls-2" x="5.7" y="0" width="3.3" height="8.2"/>
      <rect id="Rectangle_27" data-name="Rectangle 27" class="cls-2" x="12" width="3.2" height="8.3"/>
      <rect id="Rectangle_28" data-name="Rectangle 28" class="cls-2" x="18.2" y="0" width="3.3" height="8.3"/>
    </g>
  </g>
</svg>