<?xml version="1.0" encoding="UTF-8"?>
<svg id="Layer_1" data-name="Layer 1" xmlns="http://www.w3.org/2000/svg" version="1.1" xmlns:xlink="http://www.w3.org/1999/xlink" viewBox="0 0 66.1 66">
  <defs>
    <style>
      .cls-1 {
        fill: #24156d;
        fill-rule: evenodd;
      }

      .cls-1, .cls-2 {
        stroke-width: 0px;
      }

      .cls-2 {
        fill: none;
      }

      .cls-3 {
        clip-path: url(#clippath);
      }
    </style>
    <clipPath id="clippath">
      <rect class="cls-2" width="66.1" height="66.1"/>
    </clipPath>
  </defs>
  <g class="cls-3">
    <g id="Group_66" data-name="Group 66">
      <path id="Path_48" data-name="Path 48" class="cls-1" d="M15.4,66.1h5.9v-7.2h-5.9v7.2ZM12.2,10.5h40.2c1.4,0,2.5,1.1,2.5,2.5v40.3c0,1.4-1.1,2.5-2.5,2.5H12.2c-1.4,0-2.5-1.1-2.5-2.5V13c0-1.4,1.1-2.5,2.5-2.5M22.8,22.2h19c.8,0,1.5.7,1.5,1.5v18.9c0,.8-.7,1.5-1.5,1.5h-19c-.8,0-1.5-.7-1.5-1.5v-18.9c0-.8.7-1.5,1.5-1.5M66.1,35.3v4.9h-7.2v-4.9h7.2ZM66.1,30.8h-7.2v-4.9h7.2v4.9ZM66.1,50.6h-7.2v-5.9h7.2v5.9ZM66.1,21.4h-7.2v-5.9h7.2v5.9ZM0,35.3v4.9h7.2v-4.9H0ZM0,30.8h7.2v-4.9H0v4.9ZM0,50.6h7.2v-5.9H0v5.9ZM0,21.4h7.2v-5.9H0v5.9ZM35.3,0h4.9v7.2h-4.9V0ZM25.9,0h4.9v7.2h-4.9V0ZM44.7,0h5.9v7.2h-5.9V0ZM15.4,0h5.9v7.2h-5.9V0ZM35.3,66.1h4.9v-7.2h-4.9v7.2ZM25.9,66.1h4.9v-7.2h-4.9v7.2ZM44.7,66.1h5.9v-7.2h-5.9v7.2Z"/>
    </g>
  </g>
</svg>