<?xml version="1.0" encoding="UTF-8"?>
<svg id="Layer_1" data-name="Layer 1" xmlns="http://www.w3.org/2000/svg" version="1.1" xmlns:xlink="http://www.w3.org/1999/xlink" viewBox="0 0 64.5 64.8">
  <defs>
    <style>
      .cls-1 {
        fill: #24156d;
        fill-rule: evenodd;
      }

      .cls-1, .cls-2 {
        stroke-width: 0px;
      }

      .cls-2 {
        fill: none;
      }

      .cls-3 {
        clip-path: url(#clippath);
      }
    </style>
    <clipPath id="clippath">
      <rect class="cls-2" width="64.5" height="64.9"/>
    </clipPath>
  </defs>
  <g class="cls-3">
    <g id="Group_78" data-name="Group 78">
      <path id="Path_57" data-name="Path 57" class="cls-1" d="M2.5,4.9v20.8h23.2l-1.7-1.7-6.1-6.1c.4-.4.8-.8,1.2-1.1.6-.5,1.2-.9,1.8-1.3,3.3-2.1,7.1-3.3,11.1-3.3h0c11.2,0,20.3,9.1,20.3,20.3h0s0,0,0,0c0,11.2-9.1,20.3-20.3,20.3h0s0,0,0,0h0c-8.8,0-16.6-5.7-19.3-14.1l-.2-.7H0s.2,1.2.2,1.2h0c.4,2.1,1.1,4.1,1.9,6h0c5.1,12,16.9,19.8,29.9,19.8h0c8.6,0,16.9-3.4,23-9.5h0c6.1-6.1,9.5-14.3,9.5-22.9h0s0,0,0,0C64.5,14.5,50,0,32,0h0s0,0,0,0h0c-4.5,0-8.9.9-13,2.7-.6.3-1.3.6-1.9.9-2.9,1.5-5.5,3.4-7.8,5.7l-5.1-5.1-1.7-1.7v2.4Z"/>
    </g>
  </g>
</svg>