<?xml version="1.0" encoding="UTF-8"?>
<svg width="32px" height="32px" viewBox="0 0 32 32" version="1.1" xmlns="http://www.w3.org/2000/svg" xmlns:xlink="http://www.w3.org/1999/xlink">
    <title>Icons/Trendy</title>
    <g id="Icons/Trendy" stroke="none" stroke-width="1" fill="none" fill-rule="evenodd">
        <g id="trending-up-round-24px">
            <polygon id="Path" fill-opacity="0" fill="#FFFFFF" fill-rule="nonzero" points="0 0 32 0 32 32 0 32"></polygon>
            <path d="M22.4666667,9.13333333 L24.3866667,11.0533333 L17.88,17.56 L13.4933333,13.1733333 C12.9733333,12.6533333 12.1333333,12.6533333 11.6133333,13.1733333 L3.61333333,21.1866667 C3.09333333,21.7066667 3.09333333,22.5466667 3.61333333,23.0666667 C4.13333333,23.5866667 4.97333333,23.5866667 5.49333333,23.0666667 L12.5466667,16 L16.9333333,20.3866667 C17.4533333,20.9066667 18.2933333,20.9066667 18.8133333,20.3866667 L26.2666667,12.9466667 L28.1866667,14.8666667 C28.6,15.28 29.32,14.9866667 29.32,14.4 L29.32,8.66666667 C29.3333333,8.29333333 29.04,8 28.6666667,8 L22.9466667,8 C22.3466667,8 22.0533333,8.72 22.4666667,9.13333333 L22.4666667,9.13333333 Z" id="Path" fill="#4C34BB"></path>
        </g>
    </g>
</svg>