<?xml version="1.0" encoding="UTF-8"?>
<svg width="32px" height="32px" viewBox="0 0 32 32" version="1.1" xmlns="http://www.w3.org/2000/svg" xmlns:xlink="http://www.w3.org/1999/xlink">
    <title>Icons/Support</title>
    <g id="Icons/Support" stroke="none" stroke-width="1" fill="none" fill-rule="evenodd">
        <path d="M15.3333333,4 C9.70533333,4 5.13333333,8.572 5.13333333,14.2 C5.13333333,19.828 9.70533333,24.4 15.3333333,24.4 L15.9333333,24.4 L15.9333333,28 C21.7653333,25.192 25.5333333,19.6 25.5333333,14.2 C25.5333333,8.572 20.9613333,4 15.3333333,4 Z M16.5333333,21.4 L14.1333333,21.4 L14.1333333,19 L16.5333333,19 L16.5333333,21.4 Z M17.0133333,15.664 C17.0013333,15.676 16.9893333,15.7 16.9773333,15.724 C16.9173333,15.82 16.8573333,15.916 16.8093333,16.012 C16.7853333,16.048 16.7733333,16.096 16.7613333,16.144 C16.7253333,16.228 16.6893333,16.312 16.6653333,16.396 C16.5813333,16.648 16.5453333,16.912 16.5453333,17.212 L14.1333333,17.212 C14.1333333,16.6 14.2293333,16.084 14.3733333,15.652 C14.3733333,15.64 14.3733333,15.628 14.3853333,15.616 C14.3973333,15.568 14.4333333,15.544 14.4453333,15.496 C14.5173333,15.304 14.6013333,15.136 14.7093333,14.968 C14.7453333,14.908 14.7933333,14.848 14.8293333,14.788 C14.8653333,14.74 14.8893333,14.68 14.9253333,14.644 L14.9373333,14.656 C15.9453333,13.336 17.5893333,12.928 17.7213333,11.44 C17.8293333,10.264 16.9893333,9.124 15.8373333,8.884 C14.5893333,8.62 13.4613333,9.352 13.0773333,10.42 C12.9093333,10.852 12.5133333,11.2 12.0213333,11.2 L11.7813333,11.2 C11.0613333,11.2 10.5333333,10.492 10.7373333,9.796 C11.3973333,7.612 13.5813333,6.088 16.0533333,6.448 C18.0813333,6.748 19.7013333,8.416 20.0493333,10.444 C20.5773333,13.372 18.0933333,14.08 17.0133333,15.664 L17.0133333,15.664 Z" id="Shape" fill="#4C34BB"></path>
    </g>
</svg>