<?xml version="1.0" encoding="UTF-8"?>
<svg id="Layer_1" data-name="Layer 1" xmlns="http://www.w3.org/2000/svg" version="1.1" xmlns:xlink="http://www.w3.org/1999/xlink" viewBox="0 0 68.9 68.9">
  <defs>
    <style>
      .cls-1 {
        fill: none;
      }

      .cls-1, .cls-2 {
        stroke-width: 0px;
      }

      .cls-3 {
        clip-path: url(#clippath);
      }

      .cls-2 {
        fill: #24156d;
      }
    </style>
    <clipPath id="clippath">
      <rect class="cls-1" width="68.7" height="68.9"/>
    </clipPath>
  </defs>
  <g class="cls-3">
    <g id="Group_58" data-name="Group 58">
      <path id="Path_44" data-name="Path 44" class="cls-2" d="M31.2,16.6c.6,0,1.1-.1,1.6-.4l1.6-.8,1.6.8c1.7.9,3.8.2,4.6-1.5.3-.7.5-1.4.3-2.2l-.3-1.8,1.3-1.3c1.3-1.3,1.4-3.5,0-4.9-.5-.5-1.2-.9-1.9-1l-1.8-.2-.8-1.6c-.8-1.7-2.9-2.4-4.6-1.6-.7.3-1.3.9-1.6,1.6l-.8,1.6-1.8.3c-1.9.3-3.2,2-2.9,3.9.1.7.5,1.4,1,1.9l1.3,1.2-.3,1.8c-.3,1.3.3,2.6,1.3,3.4.6.4,1.3.5,2,.5"/>
      <path id="Path_45" data-name="Path 45" class="cls-2" d="M51.6,44.8h13.7c1.9,0,3.4,1.5,3.4,3.4h0v17.2c0,1.9-1.5,3.4-3.4,3.4h-13.7c-1.9,0-3.4-1.5-3.4-3.4h0v-17.2c0-1.9,1.5-3.4,3.4-3.4M24.1,27.6v37.8c0,1.9,1.5,3.4,3.4,3.4h13.8c1.9,0,3.4-1.5,3.4-3.4h0V27.6c0-1.9-1.5-3.4-3.4-3.4h-13.7c-1.9,0-3.4,1.5-3.4,3.4M0,41.4v24.1c0,1.9,1.5,3.4,3.4,3.4h13.7c1.9,0,3.4-1.5,3.4-3.4h0v-24.1c0-1.9-1.5-3.4-3.4-3.4H3.4C1.5,37.9,0,39.5,0,41.4"/>
    </g>
  </g>
</svg>