<?xml version="1.0" encoding="UTF-8"?>
<svg id="Layer_1" data-name="Layer 1" xmlns="http://www.w3.org/2000/svg" version="1.1" xmlns:xlink="http://www.w3.org/1999/xlink" viewBox="0 0 47.3 66">
  <defs>
    <style>
      .cls-1 {
        fill: none;
      }

      .cls-1, .cls-2 {
        stroke-width: 0px;
      }

      .cls-3 {
        clip-path: url(#clippath);
      }

      .cls-2 {
        fill: #24156d;
      }
    </style>
    <clipPath id="clippath">
      <rect class="cls-1" width="47" height="66"/>
    </clipPath>
  </defs>
  <g id="Group_57" data-name="Group 57">
    <path id="Path_42" data-name="Path 42" class="cls-2" d="M33.1,14h12.8L33.1,1.2v12.8Z"/>
    <g id="Group_56" data-name="Group 56">
      <g class="cls-3">
        <g id="Group_55" data-name="Group 55">
          <path id="Path_43" data-name="Path 43" class="cls-2" d="M41.4,18.7h-10.7c-1.2,0-2.3-.9-2.4-2.1,0,0,0-.2,0-.3V-.2H2.3C1-.3,0,.7,0,1.9c0,0,0,.2,0,.3v61.6c0,1.2.9,2.3,2.1,2.4,0,0,.2,0,.3,0h42.7c1.2,0,2.3-.9,2.4-2.1,0,0,0-.2,0-.3V24.7c0-3.2-2.6-5.9-5.8-5.9,0,0,0,0-.1,0M21.2,25.9c0-1.2.9-2.3,2.1-2.4,0,0,.2,0,.3,0,1.2,0,2.3.9,2.4,2.1,0,0,0,.2,0,.3v14.2c0,1.2-.9,2.3-2.1,2.4,0,0-.2,0-.3,0-1.2,0-2.3-.9-2.4-2.1,0,0,0-.2,0-.3v-14.2ZM11.8,35.3c0-1.2.9-2.3,2.1-2.4,0,0,.2,0,.3,0,1.2,0,2.3.9,2.4,2.1,0,0,0,.2,0,.3v4.7c0,1.2-.9,2.3-2.1,2.4,0,0-.2,0-.3,0-1.2,0-2.3-.9-2.4-2.1,0,0,0-.2,0-.3v-4.7ZM33.1,49.6H14.1c-1.3,0-2.4-1.1-2.4-2.4s1.1-2.4,2.4-2.4h19c1.3,0,2.4,1.1,2.4,2.4s-1.1,2.4-2.4,2.4h0M35.4,40.1c0,1.3-1.1,2.4-2.4,2.4-1.3,0-2.4-1.1-2.4-2.4v-9.5c0-1.3,1.1-2.4,2.4-2.4,1.3,0,2.4,1.1,2.4,2.4v9.5Z"/>
        </g>
      </g>
    </g>
  </g>
</svg>