<?xml version="1.0" encoding="UTF-8"?>
<svg id="Layer_1" data-name="Layer 1" xmlns="http://www.w3.org/2000/svg" version="1.1" viewBox="0 0 69.8 66.7">
  <defs>
    <style>
      .cls-1 {
        fill: #24156d;
        stroke-width: 0px;
      }
    </style>
  </defs>
  <path id="Path" class="cls-1" d="M34.9,55.8l16.9,10.2c1.9,1.2,4.4.6,5.6-1.4.6-.9.7-2,.5-3l-4.5-19.2,15-13c1.7-1.5,1.9-4,.4-5.7-.7-.8-1.7-1.3-2.7-1.4l-19.7-1.7-7.7-18.2c-.9-2.1-3.3-3-5.4-2.1-1,.4-1.7,1.2-2.1,2.1l-7.7,18.1-19.7,1.7C1.5,22.5-.2,24.4,0,26.7c0,1.1.6,2,1.4,2.7l15,13-4.5,19.2c-.5,2.2.8,4.4,3,4.9,1,.2,2.1,0,3-.5l16.9-10.2Z"/>
</svg>