<?xml version="1.0" encoding="UTF-8"?>
<svg id="Layer_1" data-name="Layer 1" xmlns="http://www.w3.org/2000/svg" version="1.1" viewBox="0 0 55 70.5">
  <defs>
    <style>
      .cls-1 {
        fill: #24156d;
        stroke-width: 0px;
      }
    </style>
  </defs>
  <g id="Group_61" data-name="Group 61">
    <path id="Path_46" data-name="Path 46" class="cls-1" d="M34.8,13.8L40.2,0H14.9l4.4,13.8h15.4ZM27.6,70.3c15.2,0,27.5-12.3,27.4-27.5,0-10.3-5.8-19.7-14.9-24.4H14.8C1.3,25.4-3.9,42.1,3.1,55.5c4.8,9.1,14.2,14.8,24.5,14.8M26.1,46.2c-4.1-1.3-6.9-3.3-6.9-7.1s2.5-6.1,6.6-6.9v-3.6h3.8v3.5c1.9,0,3.8.5,5.6,1.3l-1.1,4.3c-1.7-.9-3.6-1.3-5.6-1.3-2.5,0-3.3,1.1-3.3,2.1s1.3,2.1,4.6,3.3c4.6,1.7,6.4,3.8,6.4,7.2s-2.5,6.4-6.9,7.1v3.9h-3.8v-3.6c-2.3,0-4.5-.7-6.6-1.7l1.1-4.4c2,1,4.2,1.6,6.4,1.7,2.1,0,3.6-.8,3.6-2.5.1-1.5-1.2-2.3-4-3.3"/>
  </g>
</svg>