<?xml version="1.0" encoding="UTF-8"?>
<svg id="Group_12" data-name="Group 12" xmlns="http://www.w3.org/2000/svg" version="1.1" viewBox="0 0 105 91">
  <defs>
    <style>
      .cls-1 {
        fill-rule: evenodd;
      }

      .cls-1, .cls-2 {
        fill: #4c34bb;
        stroke-width: 0px;
      }
    </style>
  </defs>
  <g id="Group_11" data-name="Group 11">
    <path id="Path_5" data-name="Path 5" class="cls-2" d="M62.1,45.6c.2-5.2-3.9-9.5-9.1-9.7-5.2-.2-9.5,3.9-9.7,9.1-.2,5.2,3.9,9.5,9.1,9.7,0,0,.2,0,.3,0,5.1,0,9.3-4,9.4-9.1"/>
    <path id="Path_6" data-name="Path 6" class="cls-1" d="M83.3,28.7c2-7.8,4.5-22.4-4.3-27.3-8.8-4.9-20.2,4.5-26.2,10.1C46.8,5.9,35-3.4,26.2,1.5c-8.8,4.9-6.1,19.2-4,27.1C14,30.9,0,35.7,0,45.6s14,15.2,22.1,17.4c-2,7.9-4.6,22,4.2,26.9,8.8,4.9,20.5-4.2,26.6-9.9,6.1,5.7,17.4,14.9,26.1,9.9,8.8-4.9,6.5-19.3,4.5-27.2,7.9-2.3,21.9-7.4,21.9-17.2s-14.1-14.7-22.1-17M82.3,58.6c-1.5-4.4-3.3-8.8-5.3-13,2-4.1,3.7-8.4,5.1-12.8,5.9,1.7,18.8,5.5,18.8,12.7s-12.4,11.2-18.6,13M76.8,86.2c-6.5,3.7-16.3-5.1-20.7-9.3,3.2-3.4,6.1-7.1,8.8-10.9,4.8-.4,9.6-1.1,14.3-2.1,1.4,5.6,4.2,18.6-2.4,22.3M28.6,86.2c-6.5-3.7-3.6-16.2-2.1-22.1,4.7,1,9.4,1.6,14.2,2,2.8,3.8,5.8,7.4,9.1,10.8-3.8,3.6-14.6,12.9-21.2,9.2M4.5,45.6c0-7.4,12.9-11.2,18.9-12.8,1.4,4.4,3.1,8.7,5.1,12.9-2,4.2-3.8,8.6-5.2,13.1-5.8-1.6-18.8-5.8-18.8-13.2M28.5,5.3c6.6-3.7,16.8,5.3,21.1,9.3-3.2,3.4-6.2,7-9,10.8-4.7.4-9.4,1.1-14.1,2.1-1.6-6.4-4.6-18.6,1.9-22.2M68.1,30.1c3.4.4,6.6,1,9.6,1.6-1,3-2.1,5.9-3.4,8.8-1.9-3.6-4-7-6.2-10.4M52.8,17.7c2.2,2.3,4.3,4.7,6.2,7.3-4.2-.2-8.3-.2-12.5,0,2-2.6,4.1-5.1,6.3-7.3M31.1,40.6c-1.3-2.9-2.4-5.8-3.4-8.8,3-.7,6.2-1.2,9.6-1.6-2.2,3.4-4.3,6.9-6.2,10.4M37.4,61.4c-3.5-.4-6.7-.9-9.7-1.5,1-3.1,2.1-6.1,3.4-9,1.9,3.6,4,7.1,6.3,10.5M52.9,73.8c-2.1-2.2-4.3-4.7-6.3-7.4,4.2.2,8.4.2,12.5,0-1.9,2.6-4,5-6.2,7.4M74.4,50.7c1.3,2.9,2.5,5.9,3.5,9-3.2.7-6.5,1.3-9.8,1.6,2.2-3.5,4.4-7,6.3-10.6M62.4,61.8c-6.4.4-12.8.4-19.2,0-3.6-5.1-6.9-10.5-9.7-16.2,2.8-5.6,6-11,9.6-16.1,6.4-.5,12.8-.5,19.2,0,3.6,5.1,6.8,10.5,9.6,16.1-2.8,5.6-6,11-9.6,16.2M76.7,5.2c6.6,3.7,3.6,16.7,2.2,22.4-4.6-1-9.4-1.7-14.1-2.2-2.7-3.8-5.7-7.4-8.9-10.8,4.4-4.1,14.3-13.1,20.8-9.5"/>
  </g>
</svg>