<?xml version="1.0" encoding="UTF-8"?>
<svg width="160px" height="160px" viewBox="0 0 160 160" version="1.1" xmlns="http://www.w3.org/2000/svg" xmlns:xlink="http://www.w3.org/1999/xlink">
    <title>Brand/Illustrations/Mobile</title>
    <g id="Brand/Illustrations/Mobile" stroke="none" stroke-width="1" fill="none" fill-rule="evenodd">
        <rect id="background" fill-opacity="0" fill="#FFFFFF" fill-rule="nonzero" x="0" y="0" width="160" height="160"></rect>
        <g id="icon" transform="translate(15.81, 41.2963)">
            <polygon id="Fill-1" fill="#4C34BB" points="77.027953 79.0589137 119.820986 54.3529347 119.820986 44.4710907 77.027953 69.1759746"></polygon>
            <polygon id="Fill-2" fill="#24156D" points="77.027953 79.0588042 85.5868882 84 128.379922 59.2951161 119.820986 54.3533728"></polygon>
            <polygon id="Fill-3" fill="#7ACEF0" points="0 34.588042 77.0276792 79.0588042 77.0276792 69.175865 0 24.7051029"></polygon>
            <polygon id="Fill-4" fill="#FFFFFF" points="42.7932525 1.56319402e-13 0.000219024636 24.7054314 77.0278983 69.1767411 119.820932 44.4713097"></polygon>
            <g id="Group-11" transform="translate(17.1181, 9.8821)">
                <path d="M67.0613465,41.9997262 C67.0613465,44.0530822 69.6075079,45.7176694 72.7483211,45.7176694 C75.8885869,45.7176694 78.4347483,44.0530822 78.4347483,41.9997262 C78.4347483,39.9469178 75.8885869,38.2823306 72.7483211,38.2823306 C69.6075079,38.2823306 67.0613465,39.9469178 67.0613465,41.9997262" id="Fill-5" fill="#4C34BB"></path>
                <path d="M14.7296258,0.116630619 L14.7296258,0.116630619 C15.3111362,0.452833436 15.3111362,1.29224535 14.7296258,1.62899573 L3.25711537,8.24627756 C2.9871675,8.40178505 2.65370249,8.40178505 2.38375463,8.24627756 L2.38101682,8.24463487 C1.79950641,7.90843206 1.79950641,7.06847258 2.38156438,6.73226976 L13.8562651,0.116630619 C14.1267605,-0.038876873 14.459678,-0.038876873 14.7296258,0.116630619" id="Fill-7" fill="#4C34BB"></path>
                <polygon id="Fill-9" fill="#4C34BB" points="0 14.8232589 51.3508736 44.4709812 77.0282268 29.6462987 25.6729728 0.000219024636"></polygon>
                <path d="M54.9173418,30.9684192 L57.1435369,32.25367 L46.7883347,38.3423594 L44.5804384,37.0681842 L54.9173418,30.9684192 Z M51.3894269,28.9314723 L53.615622,30.2167232 L43.0254245,36.1667268 L40.8175282,34.8925516 L51.3894269,28.9314723 Z M57.0421036,21.2454315 L59.2682987,22.5306824 L39.2606363,33.9914313 L37.05274,32.717256 L57.0421036,21.2454315 Z M39.9446596,22.4199552 L42.1708548,23.7052061 L31.8156526,29.7938955 L29.6077563,28.5197202 L39.9446596,22.4199552 Z M36.4167447,20.3830084 L38.6429398,21.6682592 L28.0527423,27.6182629 L25.844846,26.3440876 L36.4167447,20.3830084 Z M42.0694214,12.6969676 L44.2956165,13.9822184 L24.2879541,25.4429673 L22.0800578,24.1687921 L42.0694214,12.6969676 Z M26.793859,13.8714913 L29.0200541,15.1567421 L18.6648519,21.2454315 L16.4569556,19.9712562 L26.793859,13.8714913 Z M23.2659441,11.8345444 L25.4921392,13.1197953 L14.9019417,19.0697989 L12.6940454,17.7956236 L23.2659441,11.8345444 Z M28.9186207,4.14850359 L31.1448159,5.43375446 L11.1371535,16.8945034 L8.92925716,15.6203281 L28.9186207,4.14850359 Z" id="Combined-Shape" fill-opacity="0.4" fill="#24156D"></path>
            </g>
        </g>
    </g>
</svg>