<svg xmlns="http://www.w3.org/2000/svg" xmlns:xlink="http://www.w3.org/1999/xlink" width="105.46" height="105.46" viewBox="0 0 105.46 105.46">
  <defs>
    <clipPath id="clip-path">
      <rect id="Rectangle_14" data-name="Rectangle 14" width="105.46" height="105.46" transform="translate(0 0)" fill="#fff"/>
    </clipPath>
  </defs>
  <g id="Group_33" data-name="Group 33" transform="translate(0 0)">
    <g id="Group_32" data-name="Group 32" clip-path="url(#clip-path)">
      <path id="Path_27" data-name="Path 27" d="M96.549,82.065q.591-.881,1.146-1.787c.178-.292.348-.589.521-.884.218-.37.434-.741.643-1.117.173-.313.342-.628.51-.945.2-.379.395-.762.587-1.146.153-.308.306-.614.453-.925.22-.463.429-.932.635-1.4.1-.237.214-.47.314-.709.288-.684.559-1.376.818-2.073.1-.274.195-.552.292-.828.165-.47.327-.942.48-1.419.1-.3.188-.6.279-.9.145-.481.281-.965.412-1.452.076-.281.154-.561.225-.844q.245-.969.451-1.952c.026-.122.057-.243.082-.367.157-.771.294-1.55.417-2.334.04-.252.072-.507.108-.761.079-.556.151-1.114.212-1.675.032-.285.061-.572.087-.859.053-.564.1-1.131.13-1.7.015-.259.034-.516.046-.776.038-.821.063-1.645.063-2.476a52.73,52.73,0,1,0-52.73,52.73c.825,0,1.644-.024,2.46-.062.252-.012.5-.029.753-.044q.867-.052,1.726-.132.4-.036.805-.079.924-.1,1.839-.234c.189-.027.38-.049.568-.078q1.171-.182,2.324-.415c.215-.043.426-.094.64-.14.565-.121,1.126-.249,1.684-.388.274-.069.546-.14.818-.213.518-.137,1.031-.284,1.542-.437.253-.076.506-.149.757-.228.726-.23,1.445-.47,2.156-.73.143-.052.281-.11.423-.163q.875-.327,1.734-.684c.272-.113.541-.232.811-.349q.671-.292,1.331-.6c.277-.13.554-.26.829-.4.473-.232.94-.474,1.4-.72.216-.114.435-.223.649-.34q.958-.523,1.89-1.087c.25-.15.494-.307.741-.461.4-.252.8-.507,1.2-.769q.4-.269.8-.543c.143-.1.284-.2.427-.3a29.77,29.77,0,0,0-4.407-15.4,37.863,37.863,0,1,1,8.7-12.107A44.028,44.028,0,0,1,95.4,83.7c.195-.268.387-.54.578-.812s.388-.546.575-.824" fill="#fff"/>
      <path id="Path_28" data-name="Path 28" d="M52.73,28.892A23.839,23.839,0,1,0,68.622,70.479a29.779,29.779,0,0,0-15.533-4.35V52a43.829,43.829,0,0,1,22.8,6.366A23.829,23.829,0,0,0,52.73,28.892" fill="#fff"/>
    </g>
  </g>
</svg>
