<svg xmlns="http://www.w3.org/2000/svg" xmlns:xlink="http://www.w3.org/1999/xlink" width="103.1" height="109.1" viewBox="0 0 103.1 109.1">
  <defs>
    <clipPath id="clip-path">
      <rect id="Rectangle_12" data-name="Rectangle 12" width="103.1" height="109.1" transform="translate(0 0)" fill="#fff"/>
    </clipPath>
  </defs>
  <g id="Group_29" data-name="Group 29" transform="translate(0 0)">
    <g id="Group_28" data-name="Group 28" clip-path="url(#clip-path)">
      <path id="Path_23" data-name="Path 23" d="M50.4,93.6a7.779,7.779,0,0,0-5.5,13.2,7.778,7.778,0,1,0,11-11,7.789,7.789,0,0,0-5.5-2.2" fill="#fff"/>
      <path id="Path_24" data-name="Path 24" d="M68.2,88.7a7.618,7.618,0,0,0-5.5,2.2,7.778,7.778,0,1,0,11,11,7.7,7.7,0,0,0-5.5-13.2" fill="#fff"/>
      <path id="Path_25" data-name="Path 25" d="M78.5,0h-54a25.645,25.645,0,0,0-7.9,1.3A24.566,24.566,0,0,0,0,24.5V72.7A24.6,24.6,0,0,0,28.7,96.9l54-16.4a24.49,24.49,0,0,0,20.4-24.2V24.5A24.69,24.69,0,0,0,78.5,0M76.6,70.6a18.338,18.338,0,0,1-11.2,8.9L32.7,88.9a7.088,7.088,0,1,1-4-13.6l32.7-9.4a4.507,4.507,0,0,0,3.2-5.6l-1.3-4.6A4.56,4.56,0,0,0,61.1,53a4.213,4.213,0,0,0-3.5-.4l-7.1,2A18.974,18.974,0,0,1,27.3,41.7L26,37.2A18.848,18.848,0,0,1,27.7,23a19.058,19.058,0,0,1,11.2-9L68.2,5.6a7.088,7.088,0,1,1,4,13.6L42.8,27.6a4.526,4.526,0,0,0-3.1,5.6L41,37.7a4.507,4.507,0,0,0,5.6,3.2l7.1-2A18.985,18.985,0,0,1,68,40.6a18.226,18.226,0,0,1,9,11.1l1.3,4.6a18.536,18.536,0,0,1-1.7,14.3" fill="#fff"/>
    </g>
  </g>
</svg>
