<svg xmlns="http://www.w3.org/2000/svg" xmlns:xlink="http://www.w3.org/1999/xlink" width="105.46" height="105.46" viewBox="0 0 105.46 105.46">
  <defs>
    <clipPath id="clip-path">
      <rect id="Rectangle_13" data-name="Rectangle 13" width="105.46" height="105.46" transform="translate(0 0)" fill="#fff"/>
    </clipPath>
  </defs>
  <g id="Group_31" data-name="Group 31" transform="translate(0 0)">
    <g id="Group_30" data-name="Group 30" clip-path="url(#clip-path)">
      <path id="Path_26" data-name="Path 26" d="M52.73,0a52.73,52.73,0,1,0,52.73,52.73A52.73,52.73,0,0,0,52.73,0M94.81,59.238c-.177.749-.359,1.523-.6,2.275A14.42,14.42,0,0,1,80.5,71.57c-1.61.027-3.222.022-4.839.023-3.437-.005-6.992-.009-10.448.292-7.377.646-12.71,3.44-15.85,8.305-1.63,2.526-3.4,3.61-6.056,3.61a12.148,12.148,0,0,1-1.372-.084,9.3,9.3,0,0,0-1.322-.023c-.255.007-.526.014-.817.014h-.595l.1-.587a17.717,17.717,0,0,1,4.3-8.9A30.734,30.734,0,0,1,66.526,63.589c2.832-.09,5.711-.065,8.5-.04,1.543.013,3.086.029,4.631.021,3.4-.011,5.737-1.43,6.774-4.1,1.114-2.875.319-5.458-2.365-7.677C75.633,44.819,67,37.806,58.644,31.025l-.824-.669a2.306,2.306,0,0,0-1.32-.483c-2.109,0-4.218-.007-6.329-.016-5.923-.029-12.05-.053-18.058.2A14.234,14.234,0,0,0,18.424,43.739,14.7,14.7,0,0,0,30.7,59.029,11.6,11.6,0,0,0,41.392,55.7a10.065,10.065,0,0,0,2.168-9.62,7.445,7.445,0,0,0-7.293-5.55,6.075,6.075,0,0,0-6.07,4.058h.587c.92,0,1.8,0,2.691,0,4.811.021,7.173,2.39,7.434,7.455l.027.525-3.946,0c-4.294,0-8.737.014-13.105-.079-.865-.019-1.612-1.441-1.777-2.031a13.945,13.945,0,0,1,3.375-13.391A14.317,14.317,0,0,1,39,32.8c6.822,1.458,11.132,5.671,12.466,12.185,1.575,7.693-.9,14.119-7.156,18.587a20.285,20.285,0,0,1-17.746,2.681,22.669,22.669,0,0,1-12.918-33.41A23.122,23.122,0,0,1,31.2,22.021l28.838-.365.14.114L86.742,43.448c3.612,2.893,7.426,6.644,8.327,12.543l.006,2.156-.016.061c-.087.342-.168.686-.249,1.03" fill="#fff"/>
    </g>
  </g>
</svg>
